<svg xmlns="http://www.w3.org/2000/svg" xmlns:xlink="http://www.w3.org/1999/xlink" width="20" height="20" viewBox="0 0 20 20" fill="none">
<path d="M10.0037 1.49995C13.5767 1.5027 16.7668 3.73792 17.9881 7.09434C19.2094 10.4508 18.2013 14.2123 15.4651 16.509C12.7287 18.8057 8.84803 19.1475 5.75216 17.3644C5.43167 17.1848 5.0692 17.0933 4.70178 17.0995C4.30505 17.1118 3.91158 17.1756 3.53136 17.2895C3.73136 16.5454 3.6117 15.7517 3.20124 15.0996C2.09143 13.6314 1.49402 11.8398 1.50059 9.9997C1.50059 5.30542 5.30757 1.49995 10.0037 1.49995ZM10.0037 0C6.21463 0 2.75072 2.13996 1.05618 5.52769C-0.638367 8.91543 -0.272672 12.9694 2.00079 15.9995C2.41094 16.5444 1.50061 18.5494 2.00079 18.9994C2.10422 19.0767 2.23214 19.1139 2.36092 19.1045C2.99115 19.1045 4.08155 18.6044 4.70178 18.6044C4.80531 18.5984 4.90865 18.619 5.00188 18.6644C8.6441 20.7618 13.2095 20.3596 16.4285 17.6576C19.6474 14.9557 20.8333 10.5304 19.3967 6.58177C17.96 2.63313 14.2071 0.00346272 10.0037 8.92453e-06L10.0037 0Z"   fill="#1D2129" >
</path>
<path d="M11.9264 7.86429L8.07962 7.86429C7.72556 7.86429 7.43851 7.57724 7.43851 7.22314C7.43851 6.86905 7.72556 6.58203 8.07962 6.58203L11.9264 6.58203C12.2806 6.58203 12.5676 6.86905 12.5676 7.22314C12.5676 7.57724 12.2806 7.86429 11.9264 7.86429ZM13.2088 10.4288L6.79736 10.4288C6.44327 10.4288 6.15625 10.1418 6.15625 9.78769C6.15625 9.43359 6.44327 9.14657 6.79736 9.14657L13.2088 9.14657C13.5629 9.14657 13.8499 9.43359 13.8499 9.78769C13.8499 10.1418 13.5629 10.4288 13.2088 10.4288ZM11.0716 12.9934L8.93451 12.9934C8.58041 12.9934 8.29333 12.7063 8.29333 12.3522C8.29333 11.9982 8.58041 11.7111 8.93451 11.7111L11.0716 11.7111C11.4257 11.7111 11.7128 11.9982 11.7128 12.3522C11.7128 12.7063 11.4257 12.9934 11.0716 12.9934Z"   fill="#1D2129" >
</path>
</svg>
