<svg xmlns="http://www.w3.org/2000/svg" xmlns:xlink="http://www.w3.org/1999/xlink" width="40" height="40" viewBox="0 0 40 40" fill="none">
<path d="M25.9097 0C26.1247 0 26.3377 0.052 26.5297 0.15L26.5897 0.183C26.6527 0.219 26.7127 0.26 26.7697 0.305L26.7927 0.325L26.8547 0.382L35.9827 9.50898L36.0107 9.53898L36.0177 9.54699L35.9637 9.49L36.0387 9.57199L36.0687 9.60801C36.0977 9.64398 36.1237 9.68102 36.1487 9.71898L36.1807 9.77301L36.2137 9.83199C36.3097 10.019 36.3637 10.23 36.3637 10.455L36.3637 38.182C36.3637 38.2118 36.363 38.2415 36.3615 38.2713C36.3601 38.301 36.3579 38.3306 36.355 38.3603C36.3521 38.3899 36.3484 38.4194 36.344 38.4489C36.3397 38.4783 36.3346 38.5076 36.3288 38.5368C36.323 38.566 36.3165 38.595 36.3092 38.6239C36.302 38.6528 36.2941 38.6814 36.2854 38.7099C36.2768 38.7384 36.2674 38.7667 36.2574 38.7947C36.2474 38.8227 36.2366 38.8505 36.2252 38.878C36.2139 38.9054 36.2018 38.9327 36.1891 38.9596C36.1763 38.9865 36.163 39.013 36.1489 39.0393C36.1349 39.0656 36.1202 39.0914 36.1049 39.1168C36.0896 39.1422 36.0737 39.1676 36.0571 39.1922C36.0406 39.2168 36.0234 39.2414 36.0057 39.2652C35.988 39.2891 35.9697 39.3125 35.9508 39.3355C35.9319 39.3586 35.9125 39.3812 35.8925 39.4031C35.8725 39.4254 35.852 39.4469 35.8309 39.468C35.8099 39.4891 35.7883 39.5094 35.7663 39.5293C35.7442 39.5492 35.7217 39.5687 35.6986 39.5875C35.6756 39.6066 35.6521 39.625 35.6282 39.6426C35.6043 39.6602 35.58 39.6773 35.5552 39.6941C35.5305 39.7105 35.5054 39.7266 35.4798 39.7418C35.4543 39.757 35.4284 39.7715 35.4021 39.7855C35.3759 39.7996 35.3493 39.8129 35.3224 39.8258C35.2955 39.8387 35.2682 39.8504 35.2407 39.8617C35.2132 39.873 35.1855 39.884 35.1575 39.8941C35.1295 39.9039 35.1012 39.9133 35.0727 39.9219C35.0442 39.9305 35.0155 39.9383 34.9866 39.9457C34.9578 39.9531 34.9287 39.9594 34.8995 39.9652C34.8704 39.9711 34.8411 39.9762 34.8116 39.9805C34.7822 39.9848 34.7526 39.9887 34.723 39.9914C34.6934 39.9941 34.6637 39.9965 34.6339 39.998C34.6043 39.9992 34.5745 40 34.5447 40L5.45474 40C5.42498 40 5.39524 39.9992 5.36552 39.998C5.33578 39.9965 5.3061 39.9941 5.27646 39.9914C5.24685 39.9887 5.21732 39.9848 5.18787 39.9805C5.15844 39.9762 5.12913 39.9711 5.09994 39.9652C5.07075 39.9594 5.04171 39.9531 5.01283 39.9457C4.98395 39.9383 4.95526 39.9305 4.92677 39.9219C4.89828 39.9133 4.87003 39.9039 4.84201 39.8941C4.81399 39.884 4.78623 39.873 4.75873 39.8617C4.73123 39.8504 4.70401 39.8387 4.67709 39.8258C4.65018 39.8129 4.62361 39.7996 4.59736 39.7855C4.57111 39.7715 4.54521 39.757 4.51966 39.7418C4.49414 39.7266 4.469 39.7105 4.44423 39.6941C4.41947 39.6773 4.39513 39.6602 4.37123 39.6426C4.34732 39.625 4.32386 39.6066 4.30084 39.5875C4.27784 39.5687 4.25532 39.5492 4.23326 39.5293C4.2112 39.5094 4.18964 39.4891 4.16857 39.468C4.14753 39.4469 4.12701 39.4254 4.10701 39.4031C4.08701 39.3812 4.06757 39.3586 4.04869 39.3355C4.02981 39.3125 4.0115 39.2891 3.99377 39.2652C3.97603 39.2414 3.95888 39.2168 3.94232 39.1922C3.92578 39.1676 3.90987 39.1422 3.89457 39.1168C3.87926 39.0914 3.86459 39.0656 3.85056 39.0393C3.83652 39.013 3.82314 38.9864 3.81041 38.9595C3.79768 38.9326 3.78562 38.9054 3.77422 38.8779C3.76283 38.8505 3.75212 38.8227 3.74209 38.7947C3.73206 38.7667 3.72272 38.7384 3.71408 38.7099C3.70543 38.6814 3.6975 38.6527 3.69026 38.6239C3.68303 38.595 3.67651 38.566 3.6707 38.5368C3.66489 38.5076 3.6598 38.4783 3.65543 38.4488C3.65106 38.4194 3.64742 38.3899 3.6445 38.3603C3.64158 38.3306 3.63939 38.301 3.63793 38.2713C3.63647 38.2415 3.63574 38.2118 3.63574 38.182L3.63574 1.818C3.63574 0.814 4.44974 0 5.45474 0L25.9087 0L25.9097 0ZM22.7267 2.727L6.36373 2.727L6.36373 37.273L33.6357 37.273L33.6357 13.636L24.5457 13.636C24.516 13.636 24.4862 13.6353 24.4565 13.6339C24.4268 13.6324 24.3971 13.6302 24.3675 13.6273C24.3379 13.6244 24.3083 13.6208 24.2789 13.6164C24.2494 13.6121 24.2201 13.607 24.1909 13.6012C24.1617 13.5954 24.1327 13.5889 24.1038 13.5817C24.075 13.5745 24.0463 13.5666 24.0178 13.558C23.9893 13.5493 23.9611 13.54 23.933 13.53C23.905 13.52 23.8772 13.5093 23.8497 13.4979C23.8222 13.4865 23.795 13.4745 23.7681 13.4618C23.7412 13.4491 23.7146 13.4357 23.6883 13.4216C23.6621 13.4076 23.6362 13.393 23.6107 13.3777C23.5851 13.3624 23.56 13.3465 23.5352 13.33C23.5105 13.3134 23.4861 13.2963 23.4622 13.2786C23.4383 13.2609 23.4149 13.2425 23.3918 13.2237C23.3688 13.2048 23.3463 13.1854 23.3242 13.1654C23.3022 13.1454 23.2806 13.1249 23.2596 13.1039C23.2385 13.0828 23.218 13.0613 23.198 13.0393C23.178 13.0172 23.1586 12.9947 23.1397 12.9717C23.1208 12.9487 23.1025 12.9252 23.0847 12.9013C23.067 12.8774 23.0499 12.8531 23.0333 12.8283C23.0168 12.8036 23.0009 12.7784 22.9855 12.7529C22.9702 12.7274 22.9556 12.7015 22.9415 12.6753C22.9275 12.649 22.9141 12.6225 22.9014 12.5955C22.8887 12.5686 22.8766 12.5414 22.8652 12.5139C22.8538 12.4864 22.8431 12.4587 22.8331 12.4307C22.8231 12.4027 22.8138 12.3744 22.8051 12.3459C22.7964 12.3175 22.7885 12.2887 22.7812 12.2599C22.774 12.231 22.7675 12.202 22.7617 12.1728C22.7559 12.1436 22.7508 12.1143 22.7464 12.0848C22.7421 12.0554 22.7384 12.0259 22.7355 11.9963C22.7326 11.9666 22.7304 11.937 22.7289 11.9072C22.7275 11.8775 22.7267 11.8478 22.7267 11.818L22.7267 2.728L22.7267 2.727ZM25.4547 2.837L25.4547 10.909L33.5257 10.909L25.4547 2.837Z"   fill="#660874" >
</path>
<path d="M12.4044 31.4258C13.1974 31.4258 13.6384 31.0178 13.9464 29.9818L14.7834 27.4258L20.0614 27.4258L20.9094 29.9818C21.2064 31.0068 21.6694 31.4258 22.4734 31.4258C23.3224 31.4258 23.8834 30.9188 23.8834 30.1258C23.8834 29.8168 23.8064 29.4528 23.6534 28.9798L19.8634 18.1168C19.3894 16.7068 18.7284 16.1328 17.4834 16.1328C16.2274 16.1328 15.5554 16.7168 15.0814 18.1168L11.2904 28.9798C11.1034 29.5418 11.0254 29.8828 11.0254 30.1798C11.0254 30.9298 11.5874 31.4258 12.4034 31.4258L12.4044 31.4258ZM15.4444 25.2118L17.3614 19.1298L17.5054 19.1298L19.4114 25.2118L15.4444 25.2118ZM27.4974 31.4038C28.4344 31.4038 28.9744 30.8088 28.9744 29.7948L28.9744 17.7528C28.9744 16.7388 28.4234 16.1448 27.4864 16.1448C26.5394 16.1448 25.9994 16.7388 25.9994 17.7528L25.9994 29.7948C25.9994 30.8088 26.5494 31.4038 27.4974 31.4038Z"   fill="#660874" >
</path>
</svg>
