<svg xmlns="http://www.w3.org/2000/svg" xmlns:xlink="http://www.w3.org/1999/xlink" width="40" height="40" viewBox="0 0 40 40" fill="none">
<path d="M6.87947 14.4785C6.63945 14.4785 6.39942 14.4785 6.39942 14.2331C6.15946 14.2331 6.15946 13.9877 6.15946 13.7423C5.91944 13.0061 5.91944 12.2699 5.67941 11.7791C5.43945 11.2884 5.43945 10.7975 5.19942 10.5522C4.9594 10.0613 4.71944 9.81597 4.47941 9.57055C3.99942 9.32513 3.51938 9.32513 3.03939 9.07977C2.5594 9.07977 1.83939 8.83435 1.11938 8.83435C0.879357 8.83435 0.639335 8.58893 0.639335 8.58893C0.639335 8.34357 0.399368 8.09816 0.399368 7.85274C0.399368 7.60738 0.399368 7.36196 0.639335 7.36196C0.879357 7.11654 0.879357 7.11654 1.11938 7.11654C1.83939 7.11654 2.31938 6.87118 3.03939 6.87118C3.51938 6.87118 3.99942 6.62577 4.23939 6.38035C4.71944 6.13499 4.9594 5.88957 5.19942 5.39879C5.43945 4.90796 5.67941 4.41718 5.67941 3.9264C5.91944 3.43557 5.91944 2.69937 6.15946 1.96317C6.15946 1.71781 6.15946 1.4724 6.39942 1.4724L6.87947 1.4724C7.11943 1.4724 7.35946 1.4724 7.35946 1.71781C7.59948 1.96317 7.59948 1.96317 7.59948 2.20859C7.83945 2.94479 7.83945 3.68098 8.07947 4.17176C8.07947 4.6626 8.31949 5.15337 8.55946 5.39879C8.79948 5.88957 9.0395 6.13499 9.51949 6.38035C9.99948 6.62577 10.2395 6.87118 10.7195 6.87118C11.4395 7.11654 11.9195 7.11654 12.6396 7.11654C12.8795 7.11654 13.1195 7.36196 13.1195 7.36196C13.3596 7.60738 13.3596 7.60738 13.3596 7.85274C13.3596 8.34357 13.1195 8.58893 12.6396 8.58893C11.9195 8.58893 11.4395 8.83435 10.7195 8.83435C10.2395 8.83435 9.75951 9.07977 9.51949 9.32513C9.0395 9.81597 8.79948 10.0613 8.55946 10.5522C8.31949 10.7975 8.31949 11.2884 8.07947 11.7791C7.83945 12.2699 7.83945 13.0061 7.59948 13.7423C7.59948 13.9877 7.35946 14.2331 7.35946 14.2331C7.35946 14.4785 7.11943 14.4785 6.87947 14.4785ZM31.1198 39.7546C31.3598 40 31.5998 40 31.8398 40C32.0799 40 32.3198 40 32.5598 39.7546C32.7999 39.5091 32.7999 39.2638 32.7999 39.0184C33.0398 38.0368 33.0398 37.3006 33.2799 36.5644C33.5199 36.0736 33.5199 35.3374 33.9999 34.8466C34.2399 34.3558 34.4799 34.1104 34.9599 33.865C35.4399 33.6196 35.9199 33.3742 36.6399 33.3742C37.3599 33.1288 38.0799 33.1288 39.0399 32.8834C39.5199 32.8834 40 32.3926 40 31.9018C40 31.6564 40 31.411 39.76 31.1656C39.5199 30.9202 39.28 30.9202 39.0399 30.9202C38.0799 30.6748 37.3599 30.6748 36.6399 30.4294C35.9199 30.184 35.4399 30.184 35.1999 29.9386C34.7199 29.6932 34.4799 29.4478 34.2399 28.9571C33.9999 28.4663 33.7598 27.9754 33.5199 27.2392C33.2799 26.503 33.2799 25.7668 33.0398 24.7853C33.0398 24.5399 32.7999 24.2945 32.7999 24.0491C32.5598 23.8037 32.3198 23.8037 32.0799 23.8037C31.8398 23.8037 31.5998 23.8037 31.3598 24.0491C30.8798 24.2945 30.8798 24.5399 30.8798 24.7853C30.6398 25.7668 30.6398 26.503 30.3998 27.2392C30.1598 27.9754 29.9198 28.4663 29.6798 28.9571C29.4398 29.4478 29.1998 29.6932 28.7198 29.9386C28.2398 30.184 27.7598 30.4294 27.0398 30.4294C26.3198 30.6748 25.5998 30.6748 24.6397 30.9202C24.3997 30.9202 24.1597 31.1656 23.9197 31.1656C23.6797 31.411 23.6797 31.6564 23.6797 31.9018C23.6797 32.1472 23.6797 32.3926 23.9197 32.638C24.1597 32.8834 24.3997 32.8834 24.6397 32.8834C25.5998 33.1288 26.3198 33.1288 27.0398 33.3742C27.5198 33.3742 27.9998 33.6196 28.4798 33.865C28.9598 34.1104 29.1998 34.3558 29.4398 34.8466C29.6798 35.3374 29.9198 35.8282 30.1598 36.5644C30.3998 37.3006 30.3998 38.0368 30.6398 39.0184C30.8798 39.2638 30.8798 39.5091 31.1198 39.7546Z"   fill="#660874" >
</path>
<path d="M35.6799 5.15337L32.0799 1.22697C31.3599 0.490777 30.3998 0 29.4398 0C28.4798 0 27.7598 0.490777 26.7998 1.22697L4.47944 24.049C4.23942 24.2945 3.03942 26.503 3.03942 26.503C1.59939 29.6932 -1.28065 35.5828 0.639359 37.0552C0.879382 37.3006 1.35937 37.3006 1.83942 37.3006C5.19945 37.3006 12.8795 33.6196 13.1196 33.6196C13.3596 33.6196 35.6799 10.5522 35.6799 10.5522C36.4 9.81596 36.8799 8.83435 36.8799 7.85273C36.8799 6.87118 36.4 6.13498 35.6799 5.15337ZM10.9595 30.6748C9.27949 31.411 6.39944 32.638 4.23942 33.3742C4.71946 32.1472 5.43947 30.4294 6.39944 28.2208C6.63946 27.4847 7.11945 26.7485 7.35947 26.503L23.9197 9.32512L27.7598 13.2515C20.5597 20.8589 12.8795 28.7116 10.9595 30.6748ZM33.0399 8.09815L30.3998 10.7975L26.5598 6.87118L29.1998 3.9264L33.0399 8.09815C33.0399 7.85273 33.0399 7.85273 33.0399 8.09815C33.0399 7.85273 33.0399 7.85273 33.0399 8.09815Z"   fill="#660874" >
</path>
</svg>
