<svg xmlns="http://www.w3.org/2000/svg" xmlns:xlink="http://www.w3.org/1999/xlink" width="44.44390869140625" height="40" viewBox="0 0 44.44390869140625 40" fill="none">
<path d="M5.55495 0C7.37271 0 8.98604 0.87224 9.99938 2.22224C10.062 2.30571 10.1222 2.3909 10.1801 2.47781C10.2379 2.56469 10.2932 2.65314 10.346 2.74318C10.3989 2.83318 10.4492 2.9246 10.4969 3.01745C10.5446 3.11026 10.5896 3.20436 10.632 3.29974C10.6744 3.39512 10.714 3.49163 10.751 3.58927C10.788 3.68688 10.8221 3.78545 10.8535 3.885C10.8849 3.98452 10.9134 4.08484 10.9392 4.18599C10.9649 4.28714 10.9878 4.38894 11.0078 4.49141C11.0278 4.59384 11.0449 4.69676 11.0591 4.80016C11.0733 4.90356 11.0846 5.00728 11.0929 5.1113C11.1013 5.21531 11.1067 5.31953 11.1092 5.42385C11.1117 5.52823 11.1113 5.63255 11.1079 5.73688C11.1045 5.8412 11.0981 5.94531 11.0889 6.04927C11.0796 6.15323 11.0674 6.25688 11.0523 6.36016C11.0372 6.46344 11.0193 6.5662 10.9983 6.66844C10.9774 6.77068 10.9537 6.87229 10.9271 6.97323C10.9005 7.07412 10.8711 7.17422 10.8388 7.27349C10.8066 7.37276 10.7715 7.47104 10.7337 7.56833C10.6959 7.66563 10.6554 7.76177 10.6122 7.85677C10.569 7.95177 10.5232 8.04547 10.4746 8.13792C10.4262 8.23037 10.3752 8.32135 10.3215 8.41089C10.2679 8.50042 10.2118 8.58839 10.1532 8.67479C10.0946 8.7612 10.0336 8.84583 9.97031 8.9288C9.90698 9.01177 9.84135 9.09286 9.77344 9.17208C9.70552 9.2513 9.63542 9.32859 9.56313 9.40391C9.49089 9.47922 9.41656 9.55245 9.34016 9.62354C9.26375 9.69464 9.18542 9.76354 9.1051 9.83026C9.02484 9.89698 8.94276 9.96136 8.85885 10.0234C8.77495 10.0855 8.68938 10.1452 8.60208 10.2024C8.51484 10.2596 8.42604 10.3144 8.33563 10.3667C8.24531 10.4189 8.15354 10.4686 8.06036 10.5156C7.96724 10.5627 7.87287 10.6071 7.77719 10.6489L7.77719 18.8889L12.2216 18.8889C12.2398 18.8889 12.258 18.8893 12.2761 18.8902C12.2943 18.8911 12.3124 18.8925 12.3305 18.8942C12.3486 18.896 12.3667 18.8983 12.3846 18.9009C12.4027 18.9036 12.4206 18.9067 12.4384 18.9103C12.4563 18.9138 12.474 18.9178 12.4916 18.9222C12.5093 18.9266 12.5268 18.9315 12.5442 18.9367C12.5616 18.942 12.5789 18.9477 12.5959 18.9539C12.6131 18.9599 12.6301 18.9665 12.6468 18.9735C12.6636 18.9804 12.6803 18.9878 12.6967 18.9956C12.7131 19.0033 12.7294 19.0115 12.7454 19.0201C12.7615 19.0286 12.7772 19.0376 12.7929 19.047C12.8085 19.0563 12.8238 19.066 12.8389 19.0761C12.8541 19.0863 12.8689 19.0967 12.8835 19.1076C12.8981 19.1184 12.9124 19.1296 12.9265 19.1411C12.9406 19.1526 12.9544 19.1645 12.9678 19.1767C12.9813 19.189 12.9945 19.2015 13.0073 19.2143C13.0202 19.2272 13.0327 19.2403 13.0449 19.2538C13.0571 19.2673 13.069 19.281 13.0805 19.2951C13.0921 19.3092 13.1032 19.3235 13.1141 19.3381C13.1249 19.3527 13.1354 19.3676 13.1455 19.3827C13.1556 19.3978 13.1653 19.4132 13.1746 19.4288C13.184 19.4444 13.193 19.4602 13.2015 19.4763C13.2101 19.4922 13.2183 19.5085 13.226 19.525C13.2339 19.5414 13.2412 19.558 13.2481 19.5748C13.2551 19.5916 13.2617 19.6085 13.2678 19.6257C13.2739 19.6428 13.2796 19.6601 13.2849 19.6775C13.2902 19.6948 13.2951 19.7123 13.2994 19.73C13.3039 19.7477 13.3078 19.7654 13.3114 19.7832C13.3149 19.8011 13.3181 19.819 13.3207 19.837C13.3234 19.8549 13.3256 19.873 13.3274 19.8911C13.3292 19.9092 13.3305 19.9273 13.3314 19.9455C13.3323 19.9636 13.3327 19.9818 13.3327 20L13.3327 22.2222C13.3327 22.2404 13.3323 22.2585 13.3314 22.2767C13.3305 22.2949 13.3292 22.3131 13.3274 22.3311C13.3256 22.3492 13.3234 22.3673 13.3207 22.3853C13.3181 22.4032 13.3149 22.4211 13.3114 22.439C13.3078 22.4568 13.3039 22.4745 13.2994 22.4922C13.2951 22.5098 13.2902 22.5273 13.2849 22.5447C13.2796 22.5622 13.2739 22.5794 13.2678 22.5966C13.2617 22.6137 13.2551 22.6306 13.2481 22.6474C13.2412 22.6642 13.2339 22.6808 13.226 22.6973C13.2183 22.7137 13.2101 22.7299 13.2015 22.746C13.193 22.762 13.184 22.7779 13.1746 22.7934C13.1653 22.809 13.1556 22.8244 13.1455 22.8395C13.1354 22.8546 13.1249 22.8695 13.1141 22.8841C13.1032 22.8988 13.0921 22.9131 13.0805 22.9271C13.069 22.9411 13.0571 22.9549 13.0449 22.9684C13.0327 22.9819 13.0202 22.9951 13.0073 23.0079C12.9945 23.0208 12.9813 23.0333 12.9678 23.0455C12.9544 23.0577 12.9406 23.0696 12.9265 23.0811C12.9124 23.0927 12.8981 23.1039 12.8835 23.1147C12.8689 23.1255 12.8541 23.136 12.8389 23.1461C12.8238 23.1562 12.8085 23.1659 12.7929 23.1753C12.7772 23.1846 12.7615 23.1935 12.7454 23.2021C12.7294 23.2107 12.7131 23.2189 12.6967 23.2267C12.6803 23.2344 12.6636 23.2418 12.6468 23.2488C12.6301 23.2557 12.6131 23.2623 12.5959 23.2684C12.5789 23.2745 12.5616 23.2802 12.5442 23.2855C12.5268 23.2907 12.5093 23.2956 12.4916 23.3001C12.474 23.3045 12.4563 23.3084 12.4384 23.312C12.4206 23.3155 12.4027 23.3186 12.3846 23.3213C12.3667 23.324 12.3486 23.3262 12.3305 23.328C12.3124 23.3298 12.2943 23.3311 12.2761 23.332C12.258 23.3329 12.2398 23.3333 12.2216 23.3333L7.77719 23.3333L7.77719 33.6111C7.77719 34.2578 7.91052 34.8422 8.11604 35.2556L8.19604 35.4C8.22271 35.4444 8.24828 35.4822 8.27162 35.5133L8.30495 35.5556L12.2216 35.5556C12.2398 35.5556 12.258 35.556 12.2761 35.5569C12.2943 35.5578 12.3124 35.5591 12.3305 35.5609C12.3486 35.5627 12.3667 35.5649 12.3846 35.5676C12.4027 35.5702 12.4206 35.5733 12.4384 35.5769C12.4563 35.5805 12.474 35.5844 12.4916 35.5889C12.5093 35.5933 12.5268 35.5981 12.5442 35.6034C12.5616 35.6087 12.5789 35.6144 12.5959 35.6205C12.6131 35.6266 12.6301 35.6332 12.6468 35.6402C12.6636 35.6471 12.6803 35.6545 12.6967 35.6622C12.7131 35.67 12.7294 35.6782 12.7454 35.6868C12.7614 35.6953 12.7772 35.7043 12.7929 35.7136C12.8085 35.723 12.8238 35.7327 12.8389 35.7428C12.8541 35.7529 12.8689 35.7634 12.8835 35.7742C12.8981 35.7851 12.9124 35.7963 12.9265 35.8078C12.9406 35.8193 12.9544 35.8312 12.9678 35.8434C12.9813 35.8556 12.9945 35.8681 13.0073 35.881C13.0202 35.8939 13.0327 35.907 13.0449 35.9205C13.0571 35.934 13.069 35.9477 13.0805 35.9618C13.0921 35.9758 13.1032 35.9902 13.1141 36.0048C13.1249 36.0194 13.1354 36.0342 13.1455 36.0494C13.1556 36.0645 13.1653 36.0798 13.1746 36.0954C13.184 36.111 13.193 36.1269 13.2015 36.1429C13.2101 36.1589 13.2183 36.1752 13.226 36.1916C13.2339 36.208 13.2412 36.2246 13.2481 36.2415C13.2551 36.2583 13.2617 36.2752 13.2678 36.2923C13.2739 36.3095 13.2796 36.3267 13.2849 36.3441C13.2902 36.3615 13.2951 36.379 13.2994 36.3967C13.3039 36.4143 13.3078 36.432 13.3114 36.4499C13.3149 36.4678 13.3181 36.4857 13.3207 36.5037C13.3234 36.5216 13.3256 36.5397 13.3274 36.5578C13.3292 36.5758 13.3305 36.594 13.3314 36.6121C13.3323 36.6303 13.3327 36.6485 13.3327 36.6667L13.3327 38.8889C13.3327 38.9071 13.3323 38.9252 13.3314 38.9434C13.3305 38.9616 13.3292 38.9797 13.3274 38.9978C13.3256 39.0159 13.3234 39.034 13.3207 39.0519C13.3181 39.0699 13.3149 39.0878 13.3114 39.1056C13.3078 39.1235 13.3039 39.1412 13.2994 39.1589C13.2951 39.1765 13.2902 39.194 13.2849 39.2114C13.2796 39.2288 13.2739 39.2461 13.2678 39.2632C13.2617 39.2804 13.2551 39.2973 13.2481 39.3141C13.2412 39.3309 13.2339 39.3475 13.226 39.364C13.2183 39.3804 13.2101 39.3966 13.2015 39.4127C13.193 39.4287 13.184 39.4445 13.1746 39.4601C13.1653 39.4757 13.1556 39.491 13.1455 39.5062C13.1354 39.5213 13.1249 39.5361 13.1141 39.5508C13.1032 39.5654 13.0921 39.5797 13.0805 39.5938C13.069 39.6078 13.0571 39.6216 13.0449 39.6351C13.0327 39.6485 13.0202 39.6617 13.0073 39.6746C12.9945 39.6875 12.9813 39.7 12.9678 39.7122C12.9544 39.7244 12.9406 39.7363 12.9265 39.7478C12.9124 39.7593 12.8981 39.7705 12.8835 39.7814C12.8689 39.7922 12.8541 39.8027 12.8389 39.8128C12.8238 39.8228 12.8085 39.8326 12.7929 39.8419C12.7772 39.8513 12.7614 39.8602 12.7454 39.8688C12.7294 39.8774 12.7131 39.8856 12.6967 39.8933C12.6803 39.9011 12.6636 39.9085 12.6468 39.9154C12.6301 39.9223 12.6131 39.9289 12.5959 39.9351C12.5789 39.9412 12.5616 39.9469 12.5442 39.9521C12.5268 39.9574 12.5093 39.9623 12.4916 39.9667C12.474 39.9711 12.4563 39.9751 12.4384 39.9786C12.4206 39.9822 12.4027 39.9853 12.3846 39.988C12.3667 39.9906 12.3486 39.9929 12.3305 39.9946C12.3124 39.9964 12.2943 39.9978 12.2761 39.9986C12.258 39.9995 12.2398 40 12.2216 40L8.09495 40C5.25052 40 3.43054 37.1378 3.33606 33.8767L3.33273 33.6111L3.33273 10.6489C3.26033 10.6173 3.18865 10.5841 3.11768 10.5494C3.04667 10.5148 2.97645 10.4786 2.907 10.4409C2.83756 10.4032 2.76894 10.3641 2.70117 10.3235C2.63339 10.2829 2.56652 10.2409 2.50054 10.1974C2.43454 10.154 2.3695 10.1091 2.30544 10.0629C2.24138 10.0167 2.17832 9.96906 2.11627 9.92016C2.05422 9.87125 1.99325 9.82104 1.93335 9.76953C1.87346 9.71802 1.81469 9.66521 1.75705 9.6112C1.69938 9.55719 1.6429 9.50193 1.58763 9.44552C1.53231 9.38912 1.47825 9.33151 1.42544 9.27276C1.37259 9.21401 1.32103 9.15417 1.27075 9.09323C1.22047 9.03229 1.17152 8.97031 1.12388 8.90729C1.07623 8.84427 1.02995 8.78026 0.985021 8.71526C0.940125 8.65026 0.89662 8.58432 0.8545 8.51745C0.812417 8.45063 0.771771 8.38286 0.732557 8.31427C0.693349 8.24568 0.65562 8.1763 0.61937 8.10609C0.58312 8.03589 0.548385 7.96495 0.515162 7.89328C0.48194 7.82162 0.450259 7.74927 0.42012 7.6762C0.389985 7.60318 0.361419 7.52953 0.334422 7.45526C0.307429 7.38104 0.28203 7.30625 0.258224 7.23089C0.234419 7.15557 0.212231 7.07979 0.191662 7.00349C0.171089 6.92719 0.152153 6.85052 0.134855 6.77344C0.117553 6.6963 0.101903 6.61891 0.0879068 6.54115C0.0739068 6.46339 0.0615734 6.38537 0.0509067 6.30708C0.0402367 6.2288 0.03124 6.15031 0.0239173 6.07167C0.0165943 5.99297 0.0109518 5.91422 0.00699005 5.83531C0.00302831 5.75641 0.00075062 5.67745 0.000156959 5.59844C-0.000437101 5.51943 0.000653266 5.44042 0.00342767 5.36146C0.00620526 5.2825 0.0106636 5.20365 0.0168026 5.1249C0.0229414 5.04611 0.0307576 4.9675 0.0402506 4.88906C0.0497401 4.81066 0.0609 4.73246 0.0737297 4.65448C0.0865563 4.57653 0.101039 4.49889 0.117178 4.42156C0.133317 4.3442 0.151098 4.26724 0.170521 4.19068C0.189942 4.11408 0.210986 4.03793 0.233657 3.96224C0.256327 3.88658 0.280601 3.81142 0.30648 3.73677C0.332355 3.66212 0.359809 3.58806 0.388844 3.51458C0.417883 3.44111 0.448471 3.36828 0.48061 3.29609C0.512752 3.22391 0.546417 3.15245 0.581609 3.08172C0.616802 3.01099 0.653484 2.94104 0.691656 2.87188C0.729828 2.80267 0.769458 2.73434 0.810542 2.66688C0.85162 2.59941 0.894135 2.53283 0.938094 2.46714C0.982016 2.40147 1.02731 2.33677 1.07398 2.27302C1.12068 2.20931 1.16872 2.1466 1.21809 2.0849C1.26743 2.02323 1.31808 1.96262 1.37002 1.90307C1.42196 1.84356 1.47516 1.78517 1.5296 1.72792C1.58405 1.67066 1.63969 1.61458 1.69653 1.55969C1.75337 1.50479 1.81134 1.45115 1.87044 1.39875C1.92957 1.34632 1.98978 1.29519 2.05106 1.24536C2.11238 1.19551 2.17472 1.14698 2.23809 1.09979C2.30146 1.0526 2.3658 1.00681 2.43111 0.962396C2.49646 0.917953 2.56271 0.874912 2.62986 0.833281C2.69702 0.791682 2.76502 0.751526 2.83388 0.712813C2.90277 0.674099 2.97243 0.636859 3.04289 0.601094C3.11334 0.565365 3.18454 0.531146 3.25648 0.498438C3.32839 0.465729 3.40097 0.434566 3.47424 0.404947C3.54747 0.375365 3.62131 0.347344 3.69575 0.320885C3.77019 0.294427 3.84518 0.269566 3.9207 0.246302C3.99618 0.223038 4.07214 0.201389 4.14856 0.181354C4.22499 0.161355 4.30181 0.142969 4.37903 0.126198C4.45626 0.109462 4.53379 0.094375 4.61164 0.0809375C4.68948 0.0675005 4.76759 0.0557297 4.84596 0.0456254C4.92433 0.0355212 5.00287 0.027101 5.08158 0.0203649C5.1603 0.0135939 5.23911 0.00850677 5.31802 0.00510454C5.39698 0.00173648 5.47599 3.49681e-05 5.55495 0ZM43.3327 35.5556C43.3509 35.5556 43.3691 35.556 43.3872 35.5569C43.4054 35.5578 43.4235 35.5591 43.4416 35.5609C43.4597 35.5627 43.4778 35.565 43.4958 35.5676C43.5138 35.5703 43.5317 35.5733 43.5495 35.5769C43.5673 35.5805 43.5851 35.5844 43.6027 35.5889C43.6204 35.5933 43.6379 35.5981 43.6553 35.6034C43.6727 35.6087 43.6899 35.6144 43.707 35.6205C43.7242 35.6266 43.7411 35.6332 43.7579 35.6402C43.7747 35.6471 43.7914 35.6545 43.8078 35.6622C43.8243 35.67 43.8405 35.6782 43.8565 35.6868C43.8726 35.6954 43.8884 35.7043 43.904 35.7136C43.9196 35.723 43.9349 35.7327 43.95 35.7428C43.9652 35.7529 43.9801 35.7634 43.9946 35.7742C44.0092 35.7851 44.0235 35.7963 44.0376 35.8078C44.0517 35.8193 44.0655 35.8312 44.0789 35.8434C44.0924 35.8556 44.1056 35.8681 44.1184 35.881C44.1313 35.8939 44.1438 35.907 44.156 35.9205C44.1682 35.934 44.1801 35.9478 44.1916 35.9618C44.2032 35.9758 44.2143 35.9902 44.2252 36.0048C44.236 36.0194 44.2465 36.0343 44.2566 36.0494C44.2667 36.0645 44.2764 36.0798 44.2857 36.0955C44.2951 36.111 44.3041 36.1269 44.3127 36.1429C44.3213 36.159 44.3294 36.1752 44.3371 36.1916C44.345 36.208 44.3523 36.2246 44.3593 36.2415C44.3663 36.2583 44.3728 36.2752 44.3789 36.2923C44.3851 36.3095 44.3907 36.3267 44.396 36.3441C44.4013 36.3615 44.4061 36.379 44.4105 36.3967C44.415 36.4143 44.419 36.432 44.4225 36.4499C44.426 36.4678 44.4292 36.4857 44.4318 36.5037C44.4345 36.5216 44.4367 36.5397 44.4385 36.5578C44.4403 36.5758 44.4416 36.594 44.4425 36.6121C44.4434 36.6303 44.4439 36.6485 44.4439 36.6667L44.4439 38.8889C44.4439 38.9071 44.4434 38.9253 44.4425 38.9434C44.4416 38.9616 44.4403 38.9797 44.4385 38.9978C44.4367 39.0159 44.4345 39.034 44.4318 39.0519C44.4292 39.0699 44.426 39.0878 44.4225 39.1057C44.419 39.1235 44.415 39.1412 44.4105 39.1589C44.4061 39.1765 44.4013 39.194 44.396 39.2115C44.3907 39.2289 44.3851 39.2461 44.3789 39.2632C44.3728 39.2804 44.3663 39.2973 44.3593 39.3141C44.3523 39.3309 44.345 39.3475 44.3371 39.364C44.3294 39.3804 44.3213 39.3966 44.3127 39.4127C44.3041 39.4287 44.2951 39.4445 44.2857 39.4601C44.2764 39.4757 44.2667 39.491 44.2566 39.5062C44.2465 39.5213 44.236 39.5361 44.2252 39.5508C44.2143 39.5654 44.2032 39.5797 44.1916 39.5938C44.1801 39.6078 44.1682 39.6216 44.156 39.6351C44.1438 39.6485 44.1313 39.6617 44.1184 39.6746C44.1056 39.6875 44.0924 39.7 44.0789 39.7122C44.0655 39.7244 44.0517 39.7363 44.0376 39.7478C44.0235 39.7593 44.0092 39.7705 43.9946 39.7814C43.9801 39.7922 43.9652 39.8027 43.95 39.8128C43.9349 39.8229 43.9196 39.8326 43.904 39.8419C43.8884 39.8513 43.8726 39.8602 43.8565 39.8688C43.8405 39.8774 43.8242 39.8856 43.8078 39.8933C43.7914 39.9011 43.7747 39.9085 43.7579 39.9154C43.7411 39.9224 43.7242 39.929 43.707 39.9351C43.6899 39.9412 43.6727 39.9469 43.6553 39.9521C43.6379 39.9574 43.6204 39.9623 43.6027 39.9667C43.5851 39.9711 43.5673 39.9751 43.5495 39.9786C43.5317 39.9822 43.5138 39.9853 43.4958 39.988C43.4778 39.9906 43.4597 39.9929 43.4416 39.9946C43.4235 39.9965 43.4054 39.9978 43.3872 39.9986C43.3691 39.9995 43.3509 40 43.3327 40L19.9994 40C19.9813 40 19.9631 39.9995 19.9449 39.9986C19.9267 39.9978 19.9086 39.9965 19.8905 39.9946C19.8724 39.9929 19.8544 39.9906 19.8364 39.988C19.8184 39.9853 19.8005 39.9822 19.7826 39.9786C19.7648 39.9751 19.7471 39.9711 19.7294 39.9667C19.7118 39.9623 19.6943 39.9574 19.6769 39.9521C19.6595 39.9469 19.6422 39.9412 19.6251 39.9351C19.608 39.9289 19.591 39.9223 19.5742 39.9154C19.5574 39.9085 19.5408 39.9011 19.5243 39.8933C19.5079 39.8856 19.4917 39.8774 19.4756 39.8688C19.4596 39.8602 19.4438 39.8513 19.4282 39.8419C19.4126 39.8326 19.3972 39.8229 19.3821 39.8128C19.367 39.8027 19.3521 39.7922 19.3375 39.7814C19.3229 39.7705 19.3086 39.7593 19.2945 39.7478C19.2805 39.7363 19.2667 39.7244 19.2532 39.7122C19.2398 39.7 19.2266 39.6875 19.2137 39.6746C19.2009 39.6617 19.1883 39.6485 19.1761 39.6351C19.1639 39.6216 19.152 39.6078 19.1405 39.5938C19.129 39.5797 19.1178 39.5654 19.1069 39.5508C19.0961 39.5361 19.0856 39.5213 19.0755 39.5062C19.0654 39.491 19.0557 39.4757 19.0464 39.4601C19.037 39.4445 19.0281 39.4287 19.0195 39.4127C19.0109 39.3966 19.0028 39.3804 18.9949 39.364C18.9872 39.3475 18.9798 39.3309 18.9729 39.3141C18.9659 39.2973 18.9594 39.2804 18.9532 39.2632C18.9471 39.2461 18.9415 39.2288 18.9361 39.2114C18.9309 39.194 18.926 39.1765 18.9216 39.1589C18.9172 39.1412 18.9132 39.1235 18.9096 39.1056C18.9061 39.0878 18.903 39.0699 18.9003 39.0519C18.8977 39.034 18.8954 39.0159 18.8936 38.9978C18.8919 38.9797 18.8905 38.9616 18.8896 38.9434C18.8888 38.9253 18.8883 38.9071 18.8883 38.8889L18.8883 36.6667C18.8883 36.6485 18.8888 36.6303 18.8896 36.6121C18.8905 36.594 18.8919 36.5758 18.8936 36.5578C18.8954 36.5397 18.8977 36.5216 18.9003 36.5037C18.903 36.4857 18.9061 36.4678 18.9096 36.4499C18.9132 36.432 18.9172 36.4143 18.9216 36.3967C18.926 36.379 18.9309 36.3615 18.9361 36.3441C18.9415 36.3267 18.9471 36.3095 18.9532 36.2923C18.9594 36.2752 18.9659 36.2583 18.9729 36.2415C18.9798 36.2246 18.9872 36.208 18.9949 36.1916C19.0028 36.1752 19.0109 36.1589 19.0195 36.1429C19.0281 36.1269 19.037 36.111 19.0464 36.0954C19.0557 36.0798 19.0654 36.0645 19.0755 36.0494C19.0856 36.0342 19.0961 36.0194 19.1069 36.0048C19.1178 35.9902 19.129 35.9758 19.1405 35.9618C19.152 35.9477 19.1639 35.934 19.1761 35.9205C19.1883 35.907 19.2009 35.8939 19.2137 35.881C19.2266 35.8681 19.2398 35.8556 19.2532 35.8434C19.2667 35.8312 19.2805 35.8193 19.2945 35.8078C19.3086 35.7963 19.3229 35.7851 19.3375 35.7742C19.3521 35.7634 19.367 35.7529 19.3821 35.7428C19.3972 35.7327 19.4126 35.723 19.4282 35.7136C19.4438 35.7043 19.4596 35.6954 19.4756 35.6868C19.4917 35.6782 19.5079 35.67 19.5243 35.6622C19.5408 35.6545 19.5574 35.6471 19.5742 35.6402C19.591 35.6332 19.608 35.6266 19.6251 35.6205C19.6422 35.6144 19.6595 35.6087 19.6769 35.6034C19.6943 35.5981 19.7118 35.5933 19.7294 35.5889C19.7471 35.5844 19.7648 35.5805 19.7826 35.5769C19.8005 35.5733 19.8184 35.5703 19.8364 35.5676C19.8544 35.565 19.8724 35.5627 19.8905 35.5609C19.9086 35.5591 19.9267 35.5578 19.9449 35.5569C19.9631 35.556 19.9813 35.5556 19.9994 35.5556L43.3327 35.5556ZM43.3327 18.8889C43.3509 18.8889 43.3691 18.8893 43.3872 18.8902C43.4054 18.8911 43.4235 18.8925 43.4416 18.8942C43.4597 18.896 43.4778 18.8983 43.4958 18.9009C43.5138 18.9036 43.5317 18.9067 43.5495 18.9103C43.5673 18.9138 43.5851 18.9178 43.6027 18.9222C43.6204 18.9266 43.6379 18.9315 43.6553 18.9367C43.6727 18.942 43.6899 18.9477 43.707 18.9539C43.7242 18.9599 43.7411 18.9665 43.7579 18.9735C43.7747 18.9804 43.7914 18.9878 43.8078 18.9956C43.8243 19.0033 43.8405 19.0115 43.8565 19.0201C43.8726 19.0287 43.8884 19.0377 43.904 19.047C43.9196 19.0563 43.9349 19.066 43.95 19.0761C43.9652 19.0863 43.9801 19.0967 43.9946 19.1076C44.0092 19.1184 44.0235 19.1296 44.0376 19.1411C44.0517 19.1526 44.0655 19.1645 44.0789 19.1767C44.0924 19.189 44.1056 19.2015 44.1184 19.2143C44.1313 19.2272 44.1438 19.2403 44.156 19.2538C44.1682 19.2673 44.1801 19.281 44.1916 19.2951C44.2032 19.3092 44.2143 19.3235 44.2252 19.3381C44.236 19.3527 44.2465 19.3676 44.2566 19.3827C44.2667 19.3978 44.2764 19.4132 44.2857 19.4288C44.2951 19.4444 44.3041 19.4602 44.3127 19.4763C44.3213 19.4922 44.3294 19.5085 44.3371 19.525C44.345 19.5414 44.3523 19.558 44.3593 19.5748C44.3663 19.5916 44.3728 19.6085 44.3789 19.6257C44.3851 19.6428 44.3907 19.6601 44.396 19.6775C44.4013 19.6948 44.4061 19.7123 44.4105 19.73C44.415 19.7477 44.419 19.7654 44.4225 19.7832C44.426 19.8011 44.4292 19.819 44.4318 19.837C44.4345 19.8549 44.4367 19.873 44.4385 19.8911C44.4403 19.9092 44.4416 19.9273 44.4425 19.9455C44.4434 19.9636 44.4439 19.9818 44.4439 20L44.4439 22.2222C44.4439 22.2404 44.4434 22.2585 44.4425 22.2767C44.4416 22.2949 44.4403 22.3131 44.4385 22.3311C44.4367 22.3492 44.4345 22.3673 44.4318 22.3853C44.4292 22.4032 44.426 22.4211 44.4225 22.439C44.419 22.4568 44.415 22.4745 44.4105 22.4922C44.4061 22.5098 44.4013 22.5273 44.396 22.5447C44.3907 22.5622 44.3851 22.5794 44.3789 22.5966C44.3728 22.6137 44.3663 22.6306 44.3593 22.6474C44.3523 22.6642 44.345 22.6808 44.3371 22.6973C44.3294 22.7137 44.3213 22.7299 44.3127 22.746C44.3041 22.762 44.2951 22.7779 44.2857 22.7934C44.2764 22.809 44.2667 22.8244 44.2566 22.8395C44.2465 22.8546 44.236 22.8695 44.2252 22.8841C44.2143 22.8988 44.2032 22.9131 44.1916 22.9271C44.1801 22.9411 44.1682 22.9549 44.156 22.9684C44.1438 22.9819 44.1313 22.9951 44.1184 23.0079C44.1056 23.0208 44.0924 23.0333 44.0789 23.0455C44.0655 23.0577 44.0517 23.0696 44.0376 23.0811C44.0235 23.0927 44.0092 23.1039 43.9946 23.1147C43.9801 23.1255 43.9652 23.136 43.95 23.1461C43.9349 23.1562 43.9196 23.1659 43.904 23.1753C43.8884 23.1846 43.8726 23.1935 43.8565 23.2021C43.8405 23.2107 43.8242 23.2189 43.8078 23.2267C43.7914 23.2344 43.7747 23.2418 43.7579 23.2488C43.7411 23.2557 43.7242 23.2623 43.707 23.2684C43.6899 23.2745 43.6727 23.2802 43.6553 23.2855C43.6379 23.2907 43.6204 23.2956 43.6027 23.3001C43.5851 23.3045 43.5673 23.3084 43.5495 23.312C43.5317 23.3155 43.5138 23.3186 43.4958 23.3213C43.4778 23.324 43.4597 23.3262 43.4416 23.328C43.4235 23.3298 43.4054 23.3311 43.3872 23.332C43.3691 23.3329 43.3509 23.3333 43.3327 23.3333L19.9994 23.3333C19.9813 23.3333 19.9631 23.3329 19.9449 23.332C19.9267 23.3311 19.9086 23.3298 19.8905 23.328C19.8724 23.3262 19.8544 23.324 19.8364 23.3213C19.8184 23.3186 19.8005 23.3155 19.7826 23.312C19.7648 23.3084 19.7471 23.3045 19.7294 23.3001C19.7118 23.2956 19.6943 23.2907 19.6769 23.2855C19.6595 23.2802 19.6422 23.2745 19.6251 23.2684C19.608 23.2623 19.591 23.2557 19.5742 23.2488C19.5574 23.2418 19.5408 23.2344 19.5243 23.2267C19.5079 23.2189 19.4917 23.2107 19.4756 23.2021C19.4596 23.1935 19.4438 23.1846 19.4282 23.1753C19.4126 23.1659 19.3972 23.1562 19.3821 23.1461C19.367 23.136 19.3521 23.1255 19.3375 23.1147C19.3229 23.1039 19.3086 23.0927 19.2945 23.0811C19.2805 23.0696 19.2667 23.0577 19.2532 23.0455C19.2398 23.0333 19.2266 23.0208 19.2137 23.0079C19.2009 22.9951 19.1883 22.9819 19.1761 22.9684C19.1639 22.9549 19.152 22.9411 19.1405 22.9271C19.129 22.9131 19.1178 22.8988 19.1069 22.8841C19.0961 22.8695 19.0856 22.8546 19.0755 22.8395C19.0654 22.8244 19.0557 22.809 19.0464 22.7934C19.037 22.7779 19.0281 22.762 19.0195 22.746C19.0109 22.7299 19.0028 22.7137 18.9949 22.6973C18.9872 22.6808 18.9798 22.6642 18.9729 22.6474C18.9659 22.6306 18.9594 22.6137 18.9532 22.5966C18.9471 22.5794 18.9415 22.5622 18.9361 22.5447C18.9309 22.5273 18.926 22.5098 18.9216 22.4922C18.9172 22.4745 18.9132 22.4568 18.9096 22.439C18.9061 22.4211 18.903 22.4032 18.9003 22.3853C18.8977 22.3673 18.8954 22.3492 18.8936 22.3311C18.8919 22.3131 18.8905 22.2949 18.8896 22.2767C18.8888 22.2585 18.8883 22.2404 18.8883 22.2222L18.8883 20C18.8883 19.9818 18.8888 19.9636 18.8896 19.9455C18.8905 19.9273 18.8919 19.9092 18.8936 19.8911C18.8954 19.873 18.8977 19.8549 18.9003 19.837C18.903 19.819 18.9061 19.8011 18.9096 19.7832C18.9132 19.7654 18.9172 19.7477 18.9216 19.73C18.926 19.7123 18.9309 19.6948 18.9361 19.6775C18.9415 19.6601 18.9471 19.6428 18.9532 19.6257C18.9594 19.6085 18.9659 19.5916 18.9729 19.5748C18.9798 19.558 18.9872 19.5414 18.9949 19.525C19.0028 19.5085 19.0109 19.4922 19.0195 19.4763C19.0281 19.4602 19.037 19.4444 19.0464 19.4288C19.0557 19.4132 19.0654 19.3978 19.0755 19.3827C19.0856 19.3676 19.0961 19.3527 19.1069 19.3381C19.1178 19.3235 19.129 19.3092 19.1405 19.2951C19.152 19.281 19.1639 19.2673 19.1761 19.2538C19.1883 19.2403 19.2009 19.2272 19.2137 19.2143C19.2266 19.2015 19.2398 19.189 19.2532 19.1767C19.2667 19.1645 19.2805 19.1526 19.2945 19.1411C19.3086 19.1296 19.3229 19.1184 19.3375 19.1076C19.3521 19.0967 19.367 19.0863 19.3821 19.0761C19.3972 19.066 19.4126 19.0563 19.4282 19.047C19.4438 19.0377 19.4596 19.0287 19.4756 19.0201C19.4917 19.0115 19.5079 19.0033 19.5243 18.9956C19.5408 18.9878 19.5574 18.9804 19.5742 18.9735C19.591 18.9665 19.608 18.9599 19.6251 18.9539C19.6422 18.9477 19.6595 18.942 19.6769 18.9367C19.6943 18.9315 19.7118 18.9266 19.7294 18.9222C19.7471 18.9178 19.7648 18.9138 19.7826 18.9103C19.8005 18.9067 19.8184 18.9036 19.8364 18.9009C19.8544 18.8983 19.8724 18.896 19.8905 18.8942C19.9086 18.8925 19.9267 18.8911 19.9449 18.8902C19.9631 18.8893 19.9813 18.8889 19.9994 18.8889L43.3327 18.8889ZM43.3327 3.33333C43.3509 3.33333 43.3691 3.33379 43.3872 3.33469C43.4054 3.33556 43.4235 3.33689 43.4416 3.3387C43.4597 3.34047 43.4778 3.34269 43.4958 3.34536C43.5138 3.34804 43.5317 3.35115 43.5495 3.35469C43.5673 3.35823 43.5851 3.3622 43.6027 3.36661C43.6204 3.37106 43.6379 3.37592 43.6553 3.3812C43.6727 3.38647 43.6899 3.39217 43.707 3.39828C43.7242 3.40443 43.7411 3.41097 43.7579 3.41792C43.7747 3.42486 43.7914 3.43222 43.8078 3.44C43.8243 3.44778 43.8405 3.45595 43.8565 3.46453C43.8726 3.47311 43.8884 3.48207 43.904 3.49141C43.9196 3.50075 43.9349 3.51047 43.95 3.52057C43.9652 3.53068 43.9801 3.54115 43.9946 3.55198C44.0092 3.56281 44.0235 3.57401 44.0376 3.58557C44.0517 3.5971 44.0655 3.60896 44.0789 3.62115C44.0924 3.63337 44.1056 3.6459 44.1184 3.65875C44.1313 3.67163 44.1438 3.68481 44.156 3.69828C44.1682 3.71176 44.1801 3.72552 44.1916 3.73958C44.2032 3.75365 44.2143 3.76797 44.2252 3.78255C44.236 3.79717 44.2465 3.81203 44.2566 3.82714C44.2667 3.84228 44.2764 3.85764 44.2857 3.87323C44.2951 3.88882 44.3041 3.90464 44.3127 3.92068C44.3213 3.93672 44.3294 3.95295 44.3371 3.96938C44.345 3.98583 44.3523 4.00245 44.3593 4.01922C44.3663 4.03603 44.3728 4.05298 44.3789 4.0701C44.3851 4.08722 44.3907 4.1045 44.396 4.12193C44.4013 4.13932 44.4061 4.15684 44.4105 4.17448C44.415 4.19212 44.419 4.20984 44.4225 4.22766C44.426 4.24551 44.4292 4.26342 44.4318 4.28141C44.4345 4.29939 44.4367 4.31743 44.4385 4.33552C44.4403 4.35365 44.4416 4.37179 44.4425 4.38995C44.4434 4.40811 44.4439 4.42627 44.4439 4.44443L44.4439 6.66667C44.4439 6.68484 44.4434 6.70302 44.4425 6.7212C44.4416 6.73938 44.4403 6.7575 44.4385 6.77557C44.4367 6.79365 44.4345 6.81172 44.4318 6.82969C44.4292 6.84766 44.426 6.86557 44.4225 6.88344C44.419 6.9013 44.415 6.91901 44.4105 6.93667C44.4061 6.95432 44.4013 6.97182 44.396 6.98922C44.3907 7.00662 44.3851 7.02385 44.3789 7.04099C44.3728 7.05813 44.3663 7.07505 44.3593 7.09188C44.3523 7.1087 44.345 7.12531 44.3371 7.14172C44.3294 7.15818 44.3213 7.17443 44.3127 7.19047C44.3041 7.20646 44.2951 7.22229 44.2857 7.23792C44.2764 7.25349 44.2667 7.26886 44.2566 7.28396C44.2465 7.29912 44.236 7.31396 44.2252 7.32854C44.2143 7.34318 44.2032 7.3575 44.1916 7.37156C44.1801 7.38563 44.1682 7.39938 44.156 7.41287C44.1438 7.42635 44.1313 7.43948 44.1184 7.45234C44.1056 7.46521 44.0924 7.47771 44.0789 7.48995C44.0655 7.50219 44.0517 7.51406 44.0376 7.52557C44.0235 7.53708 44.0092 7.54828 43.9946 7.55912C43.9801 7.56995 43.9652 7.58042 43.95 7.59052C43.9349 7.60063 43.9196 7.61037 43.904 7.61969C43.8884 7.62906 43.8726 7.63802 43.8565 7.64656C43.8405 7.65516 43.8242 7.66333 43.8078 7.67109C43.7914 7.67885 43.7747 7.68625 43.7579 7.69318C43.7411 7.70016 43.7242 7.70672 43.707 7.71281C43.6899 7.71896 43.6727 7.72469 43.6553 7.72995C43.6379 7.73521 43.6204 7.74005 43.6027 7.74448C43.5851 7.74891 43.5673 7.75287 43.5495 7.75641C43.5317 7.76 43.5138 7.76307 43.4958 7.76573C43.4778 7.76839 43.4597 7.77063 43.4416 7.77245C43.4235 7.77422 43.4054 7.77557 43.3872 7.77646C43.3691 7.77734 43.3509 7.77776 43.3327 7.77776L19.9994 7.77776C19.9813 7.77776 19.9631 7.77734 19.9449 7.77646C19.9267 7.77557 19.9086 7.77422 19.8905 7.77245C19.8724 7.77063 19.8544 7.76839 19.8364 7.76573C19.8184 7.76307 19.8005 7.76 19.7826 7.75641C19.7648 7.75287 19.7471 7.74891 19.7294 7.74448C19.7118 7.74005 19.6943 7.73521 19.6769 7.72995C19.6595 7.72469 19.6422 7.71896 19.6251 7.71281C19.608 7.70672 19.591 7.70016 19.5742 7.69318C19.5574 7.68625 19.5408 7.67885 19.5243 7.67109C19.5079 7.66333 19.4917 7.65516 19.4756 7.64656C19.4596 7.63797 19.4438 7.62901 19.4282 7.61969C19.4126 7.61037 19.3972 7.60063 19.3821 7.59052C19.367 7.58042 19.3521 7.56995 19.3375 7.55912C19.3229 7.54828 19.3086 7.53708 19.2945 7.52557C19.2805 7.51406 19.2667 7.50219 19.2532 7.48995C19.2398 7.47771 19.2266 7.46521 19.2137 7.45234C19.2009 7.43948 19.1883 7.42635 19.1761 7.41287C19.1639 7.39938 19.152 7.38563 19.1405 7.37156C19.129 7.3575 19.1178 7.34318 19.1069 7.32854C19.0961 7.31396 19.0856 7.29912 19.0755 7.28396C19.0654 7.26886 19.0557 7.25349 19.0464 7.23792C19.037 7.22229 19.0281 7.20646 19.0195 7.19042C19.0109 7.17443 19.0028 7.15818 18.9949 7.14172C18.9872 7.12531 18.9798 7.1087 18.9729 7.09188C18.9659 7.07505 18.9594 7.05813 18.9532 7.04099C18.9471 7.02385 18.9415 7.00662 18.9361 6.98922C18.9309 6.97182 18.926 6.95432 18.9216 6.93667C18.9172 6.91901 18.9132 6.9013 18.9096 6.88344C18.9061 6.86557 18.903 6.84766 18.9003 6.82969C18.8977 6.81172 18.8954 6.79365 18.8936 6.77557C18.8919 6.7575 18.8905 6.73938 18.8896 6.7212C18.8888 6.70302 18.8883 6.68484 18.8883 6.66667L18.8883 4.44443C18.8883 4.42627 18.8888 4.40811 18.8896 4.38995C18.8905 4.37179 18.8919 4.35365 18.8936 4.33552C18.8954 4.31743 18.8977 4.29939 18.9003 4.28141C18.903 4.26342 18.9061 4.24551 18.9096 4.22766C18.9132 4.20984 18.9172 4.19212 18.9216 4.17448C18.926 4.15684 18.9309 4.13932 18.9361 4.12193C18.9415 4.1045 18.9471 4.08722 18.9532 4.0701C18.9594 4.05298 18.9659 4.03603 18.9729 4.01922C18.9798 4.00245 18.9872 3.98583 18.9949 3.96938C19.0028 3.95295 19.0109 3.93672 19.0195 3.92068C19.0281 3.90464 19.037 3.88882 19.0464 3.87323C19.0557 3.85764 19.0654 3.84228 19.0755 3.82714C19.0856 3.81203 19.0961 3.79717 19.1069 3.78255C19.1178 3.76793 19.129 3.75361 19.1405 3.73958C19.152 3.72552 19.1639 3.71176 19.1761 3.69828C19.1883 3.68481 19.2009 3.67163 19.2137 3.65875C19.2266 3.6459 19.2398 3.63337 19.2532 3.62115C19.2667 3.60896 19.2805 3.59708 19.2945 3.58552C19.3086 3.574 19.3229 3.56281 19.3375 3.55198C19.3521 3.54115 19.367 3.53068 19.3821 3.52057C19.3972 3.51047 19.4126 3.50075 19.4282 3.49141C19.4438 3.48207 19.4596 3.47311 19.4756 3.46453C19.4917 3.45595 19.5079 3.44778 19.5243 3.44C19.5408 3.43222 19.5574 3.42486 19.5742 3.41792C19.591 3.41097 19.608 3.40443 19.6251 3.39828C19.6422 3.39217 19.6595 3.38647 19.6769 3.3812C19.6943 3.37592 19.7118 3.37106 19.7294 3.36661C19.7471 3.3622 19.7648 3.35823 19.7826 3.35469C19.8005 3.35115 19.8184 3.34804 19.8364 3.34536C19.8544 3.34269 19.8724 3.34047 19.8905 3.3387C19.9086 3.33689 19.9267 3.33556 19.9449 3.33469C19.9631 3.33379 19.9813 3.33333 19.9994 3.33333L43.3327 3.33333Z"   fill="#660874" >
</path>
</svg>
