<svg xmlns="http://www.w3.org/2000/svg" xmlns:xlink="http://www.w3.org/1999/xlink" width="40" height="40" viewBox="0 0 40 40" fill="none">
<path d="M16 2.66667L16 16L2.66667 16L2.66667 2.66667L16 2.66667ZM16 0L2.66667 0C1.2 0 0 1.2 0 2.66667L0 16C0 17.4667 1.2 18.6667 2.66667 18.6667L16 18.6667C17.4667 18.6667 18.6667 17.4667 18.6667 16L18.6667 2.66667C18.6667 1.2 17.4667 0 16 0ZM16 24L16 37.3333L2.66667 37.3333L2.66667 24L16 24ZM16 21.3333L2.66667 21.3333C1.2 21.3333 0 22.5333 0 24L0 37.3333C0 38.8 1.2 40 2.66667 40L16 40C17.4667 40 18.6667 38.8 18.6667 37.3333L18.6667 24C18.6667 22.5333 17.4667 21.3333 16 21.3333ZM30.6667 2.66667C34.3333 2.66667 37.3333 5.66667 37.3333 9.33333C37.3333 13 34.3333 16 30.6667 16C27 16 24 13 24 9.33333C24 5.66667 27 2.66667 30.6667 2.66667ZM30.6667 0C25.5333 0 21.3333 4.2 21.3333 9.33333C21.3333 14.4667 25.5333 18.6667 30.6667 18.6667C35.8 18.6667 40 14.4667 40 9.33333C40 4.2 35.8 0 30.6667 0ZM37.3333 24L37.3333 37.3333L24 37.3333L24 24L37.3333 24ZM37.3333 21.3333L24 21.3333C22.5333 21.3333 21.3333 22.5333 21.3333 24L21.3333 37.3333C21.3333 38.8 22.5333 40 24 40L37.3333 40C38.8 40 40 38.8 40 37.3333L40 24C40 22.5333 38.8 21.3333 37.3333 21.3333Z"   fill="#660874" >
</path>
</svg>
