<svg xmlns="http://www.w3.org/2000/svg" xmlns:xlink="http://www.w3.org/1999/xlink" width="40" height="40" viewBox="0 0 40 40" fill="none">
<g  clip-path="url(#clip-path-SHXCbOPxevI5q1gfVgGsp)">
<path d="M2.96194 39.0676C2.94504 39.0673 2.92816 39.0668 2.91129 39.066C2.89441 39.0655 2.87756 39.0646 2.86072 39.0633C2.84388 39.0618 2.82707 39.0602 2.81029 39.0583C2.79351 39.0563 2.77677 39.054 2.76007 39.0515C2.74338 39.049 2.72673 39.0461 2.71013 39.043C2.69354 39.0399 2.677 39.0364 2.66053 39.0327C2.64406 39.0289 2.62766 39.0249 2.61133 39.0206C2.59501 39.0162 2.57877 39.0116 2.56261 39.0066C2.54646 39.0017 2.53039 38.9965 2.51442 38.991C2.49846 38.9855 2.48259 38.9797 2.46683 38.9736C2.45108 38.9675 2.43543 38.9612 2.4199 38.9545C2.40437 38.9479 2.38897 38.941 2.37369 38.9338C2.35842 38.9266 2.34327 38.9191 2.32826 38.9113C2.31326 38.9036 2.2984 38.8956 2.28368 38.8873C2.26896 38.879 2.2544 38.8704 2.23999 38.8616C2.22558 38.8528 2.21134 38.8437 2.19726 38.8344C2.18318 38.8251 2.16928 38.8155 2.15554 38.8057C2.14181 38.7958 2.12826 38.7858 2.11489 38.7754C2.10153 38.7651 2.08835 38.7545 2.07536 38.7437C2.06238 38.7329 2.04959 38.7219 2.03701 38.7106C2.02442 38.6994 2.01205 38.6879 1.99987 38.6762C1.98771 38.6645 1.97575 38.6525 1.96401 38.6404C1.95227 38.6282 1.94076 38.6159 1.92947 38.6033C1.91818 38.5908 1.90712 38.578 1.89629 38.565C1.88546 38.552 1.87487 38.5389 1.86452 38.5256C1.85416 38.5122 1.84406 38.4987 1.83419 38.485C1.82433 38.4713 1.81472 38.4574 1.80536 38.4433C1.796 38.4293 1.78689 38.415 1.77805 38.4006C1.7692 38.3863 1.76062 38.3717 1.7523 38.357C1.74398 38.3423 1.73593 38.3275 1.72815 38.3125C1.72036 38.2975 1.71286 38.2824 1.70562 38.2671C1.69839 38.2518 1.69143 38.2364 1.68475 38.2209C1.67808 38.2054 1.67168 38.1898 1.66557 38.174C1.65946 38.1583 1.65363 38.1424 1.6481 38.1265C1.64256 38.1105 1.63731 38.0945 1.63236 38.0783C1.6274 38.0622 1.62273 38.0459 1.61836 38.0296C1.614 38.0133 1.60992 37.9969 1.60614 37.9805C1.60237 37.964 1.59889 37.9474 1.59571 37.9309C1.59254 37.9143 1.58966 37.8976 1.58709 37.8809C1.58451 37.8642 1.58224 37.8475 1.58027 37.8307C1.5783 37.814 1.57663 37.7972 1.57527 37.7804C1.57391 37.7635 1.57285 37.7467 1.5721 37.7298C1.57134 37.7129 1.5709 37.696 1.57076 37.6791C1.57062 37.6622 1.57078 37.6454 1.57125 37.6285C1.57173 37.6116 1.5725 37.5947 1.57358 37.5779C1.57466 37.561 1.57605 37.5441 1.57774 37.5274C1.57943 37.5106 1.58143 37.4938 1.58372 37.477C1.58602 37.4603 1.58862 37.4436 1.59152 37.427C1.59442 37.4104 1.59762 37.3938 1.60112 37.3772C1.60463 37.3607 1.60843 37.3443 1.61252 37.3279C1.61662 37.3115 1.62101 37.2952 1.6257 37.279C1.63039 37.2627 1.63537 37.2466 1.64064 37.2306C1.64591 37.2145 1.65147 37.1986 1.65732 37.1827C1.66317 37.1668 1.6693 37.1511 1.67572 37.1355C1.68214 37.1199 1.68884 37.1044 1.69582 37.089C1.7028 37.0736 1.71005 37.0583 1.71758 37.0433C1.72511 37.0281 1.73292 37.0131 1.74099 36.9983C1.74906 36.9835 1.7574 36.9688 1.76601 36.9543C1.77461 36.9397 1.78348 36.9254 1.7926 36.9111C1.80173 36.8969 1.81111 36.8829 1.82074 36.869C1.83037 36.8551 1.84025 36.8414 1.85038 36.8279C1.86051 36.8144 1.87088 36.8011 1.8815 36.7879C1.89211 36.7748 1.90295 36.7618 1.91403 36.7491C1.92511 36.7363 1.93642 36.7238 1.94796 36.7115L36.1114 0.610071C36.1275 0.595485 36.144 0.581283 36.1608 0.567465C36.1776 0.553648 36.1948 0.540228 36.2122 0.527207C36.2296 0.514189 36.2474 0.501583 36.2654 0.489391C36.2834 0.477201 36.3017 0.465437 36.3203 0.454098C36.3389 0.442759 36.3577 0.43186 36.3768 0.421399C36.3959 0.410938 36.4152 0.400927 36.4348 0.391367C36.4543 0.381809 36.474 0.37271 36.494 0.364073C36.514 0.355435 36.5341 0.347267 36.5545 0.33957C36.5749 0.331873 36.5954 0.324654 36.6161 0.317914C36.6368 0.311173 36.6576 0.304919 36.6786 0.299151C36.6996 0.293382 36.7207 0.288106 36.742 0.283322C36.7632 0.278538 36.7845 0.274251 36.8059 0.270462C36.8273 0.266673 36.8489 0.263385 36.8705 0.260598C36.892 0.257812 36.9137 0.25553 36.9354 0.253753C36.957 0.251976 36.9788 0.250705 37.0005 0.249941C37.0223 0.249176 37.044 0.248919 37.0658 0.249169C37.0875 0.24942 37.1093 0.250177 37.131 0.251441C37.1527 0.252706 37.1745 0.254476 37.1961 0.256751C37.2177 0.259027 37.2393 0.261805 37.2608 0.265087C37.2823 0.268369 37.3038 0.27215 37.3251 0.276432C37.3464 0.280713 37.3677 0.285488 37.3888 0.290759C37.4099 0.29603 37.4309 0.301791 37.4517 0.30804C37.4725 0.314289 37.4932 0.321021 37.5138 0.328235C37.5343 0.33545 37.5546 0.343139 37.5748 0.351302C37.595 0.359465 37.615 0.368094 37.6348 0.377189C37.6545 0.386285 37.6741 0.395835 37.6934 0.40584C37.7127 0.415848 37.7318 0.4263 37.7507 0.437196C37.7695 0.448091 37.788 0.459421 37.8064 0.471184C37.8247 0.482947 37.8427 0.49513 37.8605 0.507735C37.8782 0.520336 37.8956 0.533345 37.9128 0.546762C37.9299 0.560179 37.9467 0.573987 37.9632 0.588188C37.9797 0.602388 37.9959 0.616966 38.0117 0.631922C38.0275 0.646874 38.0429 0.66219 38.058 0.677862C38.0731 0.693538 38.0878 0.709557 38.1022 0.725917C38.1165 0.742276 38.1305 0.758963 38.1441 0.775975C38.1577 0.792991 38.1708 0.810307 38.1836 0.827932C38.1963 0.845561 38.2087 0.863475 38.2206 0.881674C38.2325 0.899878 38.244 0.91835 38.2551 0.937088C38.2662 0.955827 38.2768 0.974811 38.287 0.994045C38.2971 1.01328 38.3069 1.03274 38.3162 1.05243C38.3254 1.07212 38.3343 1.09201 38.3426 1.11211C38.3509 1.13221 38.3588 1.15249 38.3663 1.17295C38.3736 1.19342 38.3805 1.21405 38.387 1.23483C38.3934 1.25562 38.3994 1.27655 38.4048 1.29762C38.4103 1.31868 38.4153 1.33987 38.4198 1.36116C38.4242 1.38246 38.4282 1.40385 38.4317 1.42533C38.4352 1.44682 38.4381 1.46837 38.4406 1.48999C38.4431 1.51162 38.445 1.53328 38.4465 1.55499C38.448 1.57671 38.4489 1.59844 38.4494 1.6202C38.4498 1.64196 38.4498 1.66372 38.4492 1.68547C38.4486 1.70723 38.4475 1.72896 38.446 1.75066C38.4444 1.77237 38.4423 1.79403 38.4397 1.81564C38.4371 1.83724 38.4341 1.85878 38.4305 1.88024C38.4269 1.90171 38.4228 1.92308 38.4182 1.94435C38.4136 1.96562 38.4085 1.98678 38.4029 2.00781C38.3973 2.02885 38.3913 2.04974 38.3847 2.07049C38.3782 2.09125 38.3711 2.11184 38.3636 2.13226C38.3561 2.15269 38.3481 2.17293 38.3397 2.19298C38.3312 2.21304 38.3223 2.23288 38.3129 2.25252C38.3036 2.27215 38.2937 2.29156 38.2834 2.31074C38.2731 2.32992 38.2624 2.34885 38.2513 2.36753C38.2401 2.38621 38.2285 2.40462 38.2164 2.42275C38.2044 2.44089 38.192 2.45874 38.1791 2.47629C38.1663 2.49385 38.153 2.5111 38.1393 2.52803L3.9819 38.6314C3.96555 38.6486 3.94876 38.6654 3.93155 38.6818C3.91432 38.6982 3.89669 38.7141 3.87866 38.7297C3.86063 38.7451 3.84222 38.7601 3.82342 38.7747C3.80462 38.7892 3.78547 38.8032 3.76595 38.8168C3.74644 38.8304 3.7266 38.8434 3.70642 38.856C3.68624 38.8686 3.66576 38.8806 3.64497 38.8922C3.62418 38.9036 3.60311 38.9146 3.58176 38.9251C3.56041 38.9355 3.53881 38.9454 3.51695 38.9548C3.4951 38.9641 3.47302 38.9729 3.45072 38.9811C3.42842 38.9893 3.40592 38.9969 3.38323 39.004C3.36054 39.0111 3.33769 39.0175 3.31467 39.0235C3.29165 39.0294 3.26849 39.0347 3.2452 39.0395C3.22191 39.0441 3.19851 39.0483 3.17501 39.0518C3.15151 39.0554 3.12794 39.0583 3.10428 39.0607C3.08063 39.0629 3.05694 39.0647 3.03319 39.066C3.00946 39.067 2.9857 39.0676 2.96194 39.0676Z"   fill="#660874" >
</path>
<path d="M19.1476 39.9972C18.6643 40.003 18.1823 39.9797 17.7017 39.9273C17.6708 39.9234 17.64 39.9191 17.6092 39.9144C17.5785 39.9095 17.5479 39.904 17.5173 39.898C17.4868 39.8921 17.4563 39.8855 17.426 39.8785C17.3957 39.8715 17.3654 39.864 17.3354 39.8562C17.3053 39.8482 17.2754 39.8396 17.2456 39.8304C17.2158 39.8213 17.1862 39.8119 17.1567 39.8019C17.1272 39.7918 17.098 39.7812 17.0689 39.7703C17.0398 39.7591 17.0109 39.7475 16.9822 39.7355C16.9535 39.7236 16.925 39.7111 16.8967 39.698C16.8684 39.685 16.8404 39.6716 16.8125 39.6578C16.7847 39.6437 16.7571 39.6293 16.7298 39.6144C16.7025 39.5996 16.6754 39.5842 16.6486 39.5683C16.6218 39.5525 16.5953 39.5362 16.569 39.5195C16.5428 39.5029 16.5168 39.4857 16.4912 39.4679C16.4655 39.4503 16.4402 39.4322 16.4151 39.4137C16.39 39.3952 16.3653 39.3763 16.3409 39.357C16.3165 39.3378 16.2925 39.3181 16.2687 39.298C16.245 39.2777 16.2216 39.2572 16.1986 39.2363C16.1756 39.2152 16.1529 39.1939 16.1306 39.1722C16.1083 39.1506 16.0864 39.1285 16.0648 39.1058C16.0433 39.0835 16.0221 39.0607 16.0013 39.0376C15.9806 39.0144 15.9602 38.9909 15.9402 38.967C15.9202 38.9431 15.9007 38.9189 15.8815 38.8944C15.8624 38.8698 15.8437 38.8449 15.8254 38.8197C15.8071 38.7946 15.7892 38.7691 15.7718 38.7433C15.7544 38.7175 15.7374 38.6914 15.7209 38.6651C15.7043 38.6387 15.6883 38.6121 15.6726 38.5851C15.657 38.5582 15.6418 38.531 15.6271 38.5036C15.6124 38.4762 15.5982 38.4485 15.5845 38.4206C15.5707 38.3927 15.5574 38.3645 15.5446 38.3361C15.5318 38.3078 15.5195 38.2792 15.5077 38.2504C15.4959 38.2216 15.4846 38.1926 15.4737 38.1634C15.2762 37.546 15.103 36.9218 14.9541 36.2908C14.8052 35.6599 14.6811 35.0241 14.5817 34.3835C14.5752 34.3473 14.5692 34.311 14.5637 34.2747C14.5583 34.2384 14.5533 34.2019 14.5488 34.1655C14.5444 34.129 14.5405 34.0924 14.5371 34.0558C14.5337 34.0192 14.5308 33.9826 14.5284 33.9459C14.5261 33.9092 14.5243 33.8725 14.5229 33.8358C14.5216 33.7991 14.5209 33.7623 14.5206 33.7256C14.5203 33.6888 14.5206 33.6521 14.5214 33.6153C14.5222 33.5786 14.5235 33.5418 14.5253 33.5051C14.5272 33.4684 14.5295 33.4317 14.5324 33.3951C14.5353 33.3585 14.5387 33.3219 14.5426 33.2853C14.5466 33.2488 14.551 33.2123 14.556 33.1758C14.5609 33.1394 14.5664 33.1031 14.5724 33.0668C14.5785 33.0306 14.585 32.9944 14.592 32.9583C14.599 32.9222 14.6066 32.8863 14.6147 32.8504C14.6227 32.8146 14.6313 32.7788 14.6404 32.7432C14.6495 32.7076 14.6591 32.6721 14.6692 32.6368C14.6793 32.6015 14.6899 32.5663 14.701 32.5312C14.7121 32.4962 14.7237 32.4613 14.7358 32.4266C14.7479 32.3919 14.7605 32.3574 14.7735 32.323C14.7866 32.2887 14.8002 32.2545 14.8142 32.2205C14.8283 32.1866 14.8428 32.1528 14.8579 32.1193C14.8729 32.0857 14.8884 32.0524 14.9044 32.0193C14.9203 31.9862 14.9368 31.9533 14.9537 31.9207C14.9706 31.8881 14.988 31.8557 15.0058 31.8235C15.0236 31.7914 15.0419 31.7595 15.0606 31.7279C15.0794 31.6963 15.0986 31.6649 15.1182 31.6338C15.1379 31.6028 15.1579 31.572 15.1785 31.5415C15.199 31.511 15.2199 31.4808 15.2413 31.4509C15.2627 31.421 15.2845 31.3914 15.3067 31.3621C15.3289 31.3329 15.3515 31.3039 15.3746 31.2753C15.3977 31.2467 15.4211 31.2183 15.445 31.1904C15.4688 31.1624 15.4931 31.1348 15.5177 31.1075L30.7775 14.1438C30.8112 14.107 30.8459 14.0711 30.8813 14.0359C30.9168 14.0008 30.9532 13.9665 30.9903 13.9332C31.0275 13.8998 31.0654 13.8673 31.1041 13.8357C31.1429 13.8042 31.1823 13.7736 31.2225 13.744C31.2627 13.7143 31.3036 13.6857 31.3451 13.658C31.3867 13.6303 31.4289 13.6037 31.4718 13.578C31.5147 13.5524 31.5581 13.5278 31.6022 13.5043C31.6462 13.4808 31.6909 13.4583 31.736 13.4369C31.7811 13.4156 31.8268 13.3953 31.8729 13.3762C31.919 13.357 31.9655 13.3389 32.0125 13.322C32.0595 13.3051 32.1069 13.2893 32.1546 13.2747C32.2024 13.26 32.2505 13.2466 32.2989 13.2343C32.3473 13.2219 32.3959 13.2108 32.4449 13.2009C32.4938 13.1909 32.543 13.1821 32.5923 13.1745C32.6417 13.1669 32.6912 13.1606 32.7409 13.1553C32.7906 13.1502 32.8404 13.1462 32.8902 13.1434C32.9401 13.1406 32.99 13.139 33.0399 13.1386C33.0898 13.1382 33.1398 13.1391 33.1897 13.1411C33.2396 13.1431 33.2894 13.1464 33.3391 13.1508C33.3889 13.1552 33.4385 13.1609 33.488 13.1677C33.5375 13.1745 33.5868 13.1826 33.6359 13.1918C33.6849 13.201 33.7337 13.2114 33.7823 13.223C33.8309 13.2345 33.8792 13.2473 33.9272 13.2612C33.9751 13.2751 34.0227 13.2901 34.07 13.3063C34.1172 13.3225 34.164 13.3399 34.2105 13.3584C34.2569 13.3768 34.3028 13.3964 34.3482 13.4171C34.3937 13.4377 34.4386 13.4595 34.483 13.4824C34.5275 13.5052 34.5713 13.5292 34.6145 13.5541C34.6578 13.5791 34.7004 13.6051 34.7424 13.6321C34.7844 13.6592 34.8257 13.6872 34.8664 13.7162C34.907 13.7452 34.9469 13.7752 34.9861 13.8062C35.0253 13.8371 35.0637 13.869 35.1014 13.9018L38.9373 17.2178C38.9566 17.2344 38.9758 17.2512 38.9947 17.2683C39.0136 17.2854 39.0323 17.3027 39.0508 17.3202C39.0693 17.3378 39.0875 17.3555 39.1055 17.3735C39.1237 17.3915 39.1415 17.4097 39.159 17.4281C39.1767 17.4466 39.1941 17.4653 39.2113 17.4841C39.2282 17.503 39.245 17.5221 39.2617 17.5414C39.2784 17.5607 39.2948 17.5802 39.3109 17.5999C39.3271 17.6196 39.3429 17.6395 39.3586 17.6596C39.3745 17.6797 39.39 17.7 39.4051 17.7205C39.4202 17.741 39.435 17.7616 39.4496 17.7825C39.4642 17.8033 39.4786 17.8244 39.493 17.8456C39.507 17.8669 39.5208 17.8882 39.5343 17.9098C39.5479 17.9313 39.5612 17.9531 39.5742 17.975C39.5872 17.9969 39.6 18.019 39.6125 18.0412C39.625 18.0634 39.6372 18.0858 39.6492 18.1083C39.6612 18.1308 39.6728 18.1535 39.6839 18.1763C39.6954 18.1991 39.7065 18.222 39.7172 18.2451C39.7281 18.2682 39.7386 18.2914 39.7488 18.3147C39.7589 18.3381 39.7689 18.3616 39.7785 18.3852C39.7881 18.4088 39.7975 18.4325 39.8066 18.4563C39.8157 18.4801 39.8245 18.5041 39.8328 18.5281C39.8411 18.5522 39.8492 18.5763 39.857 18.6006C39.8648 18.6249 39.8724 18.6492 39.8797 18.6736C39.887 18.6981 39.8939 18.7226 39.9004 18.7472C39.9072 18.7718 39.9135 18.7965 39.9195 18.8213C39.9255 18.846 39.9311 18.8709 39.9363 18.8958C39.9418 18.9207 39.9469 18.9457 39.9516 18.9707C39.9563 18.9958 39.9607 19.0208 39.9648 19.046C39.969 19.0712 39.9729 19.0963 39.9766 19.1216C39.9799 19.1468 39.983 19.1721 39.9859 19.1974C39.9888 19.2228 39.9914 19.2481 39.9938 19.2735C39.9958 19.2989 39.9976 19.3243 39.9992 19.3497C40.001 19.3744 40.0025 19.3991 40.0035 19.4238C40.0045 19.4485 40.0053 19.4733 40.0059 19.498C40.0061 19.5227 40.0062 19.5474 40.0062 19.5722C40.006 19.5969 40.0055 19.6217 40.0047 19.6463C40.0039 19.6711 40.0029 19.6958 40.0016 19.7205C40.0002 19.7452 39.9986 19.7699 39.9964 19.7945C39.9944 19.8192 39.992 19.8438 39.9895 19.8684C39.9868 19.893 39.9838 19.9175 39.9805 19.9421C39.9773 19.9666 39.9738 19.9911 39.9699 20.0155C39.966 20.0399 39.9618 20.0643 39.9574 20.0886C39.953 20.113 39.9483 20.1372 39.9433 20.1614C39.9381 20.1856 39.9327 20.2098 39.927 20.2338C39.9215 20.2579 39.9156 20.282 39.9093 20.3059C39.9029 20.3298 39.8962 20.3537 39.8894 20.3774C39.8827 20.4012 39.8755 20.4248 39.868 20.4484C39.8604 20.472 39.8527 20.4955 39.8449 20.5189C39.8368 20.5423 39.8284 20.5656 39.8195 20.5887C39.8109 20.6119 39.8021 20.635 39.7929 20.6579C39.7838 20.6809 39.7743 20.7038 39.7645 20.7265C39.7548 20.7492 39.7448 20.7718 39.7343 20.7942C39.7239 20.8167 39.7132 20.8391 39.7023 20.8613C39.6914 20.8835 39.6803 20.9055 39.6691 20.9274C39.6577 20.9494 39.6459 20.9712 39.634 20.9928C39.6217 21.0144 39.6094 21.0359 39.5968 21.0572C39.5844 21.0786 39.5716 21.0997 39.5586 21.1207C39.5455 21.1417 39.5323 21.1626 39.5187 21.1833C39.5052 21.204 39.4914 21.2244 39.4773 21.2447C39.463 21.2651 39.4486 21.2853 39.434 21.3052C39.4194 21.3252 39.4045 21.345 39.3895 21.3646C39.3743 21.3842 39.3591 21.4036 39.3437 21.4228C39.3281 21.442 39.3122 21.461 39.2961 21.4798C39.2802 21.4987 39.2639 21.5173 39.2473 21.5357L23.8775 38.6214C23.8559 38.6456 23.834 38.6695 23.8117 38.6932C23.7895 38.7169 23.7669 38.7403 23.7441 38.7633C23.7213 38.7865 23.6981 38.8093 23.6747 38.8318C23.6514 38.8544 23.6277 38.8766 23.6038 38.8985C23.5798 38.9205 23.5556 38.9422 23.5312 38.9635C23.5067 38.9849 23.482 39.0059 23.4569 39.0267C23.432 39.0474 23.4067 39.0678 23.3813 39.0879C23.3557 39.1079 23.33 39.1277 23.304 39.1472C23.278 39.1668 23.2518 39.1861 23.2253 39.2051C23.1989 39.2238 23.1722 39.2423 23.1453 39.2605C23.1184 39.2788 23.0913 39.2966 23.0639 39.314C23.0366 39.3315 23.009 39.3487 22.9813 39.3656C22.9534 39.3823 22.9255 39.3987 22.8973 39.4148C22.8691 39.4312 22.8407 39.4471 22.8122 39.4625C22.7836 39.4779 22.7548 39.493 22.7259 39.5078C22.697 39.5224 22.6679 39.5367 22.6386 39.5508C22.6093 39.5648 22.5798 39.5785 22.5502 39.5918C22.5205 39.6051 22.4907 39.6181 22.4608 39.6308C22.4309 39.6433 22.4007 39.6554 22.3705 39.6672C22.3402 39.6792 22.3098 39.6906 22.2793 39.7015C22.2488 39.7128 22.2181 39.7234 22.1873 39.7336C22.1565 39.744 22.1256 39.754 22.0945 39.7637C22.0635 39.773 22.0323 39.7822 22.0011 39.791C21.9698 39.7999 21.9385 39.8083 21.907 39.8164C21.8755 39.8245 21.8439 39.832 21.8123 39.839C21.7806 39.8463 21.7489 39.8533 21.717 39.8597C21.6852 39.8663 21.6533 39.8724 21.6213 39.8781C21.5893 39.8836 21.5573 39.8888 21.5252 39.8937C21.4931 39.8987 21.4609 39.9033 21.4287 39.9074C21.3965 39.9113 21.3642 39.915 21.3319 39.9183C21.2996 39.9217 21.2672 39.9246 21.2348 39.9269C21.2025 39.9296 21.17 39.9318 21.1377 39.9336C20.3736 39.9747 19.7103 39.996 19.1477 39.9972L19.1476 39.9972ZM18.0777 37.1614C18.5598 37.1946 19.0426 37.2101 19.5259 37.2078C20.0092 37.2054 20.4918 37.1853 20.9736 37.1474C20.993 37.1464 21.0124 37.1449 21.0318 37.1429C21.0511 37.1409 21.0704 37.1384 21.0896 37.1354C21.1088 37.1326 21.128 37.1292 21.147 37.1253C21.1661 37.1214 21.185 37.1171 21.2039 37.1123C21.2227 37.1075 21.2414 37.1023 21.2601 37.0966C21.2786 37.0909 21.2971 37.0847 21.3154 37.0781C21.3337 37.0716 21.3518 37.0646 21.3697 37.0571C21.3877 37.0496 21.4054 37.0417 21.423 37.0333C21.4406 37.025 21.4579 37.0163 21.4751 37.0071C21.4922 36.9979 21.5091 36.9883 21.5258 36.9783C21.5425 36.9683 21.5589 36.9579 21.5751 36.9471C21.5913 36.9363 21.6071 36.9251 21.6228 36.9136C21.6384 36.902 21.6537 36.8901 21.6688 36.8777C21.6838 36.8654 21.6986 36.8528 21.713 36.8397C21.7274 36.8267 21.7415 36.8133 21.7553 36.7996C21.7691 36.7859 21.7825 36.7718 21.7956 36.7574L37.1633 19.6717C37.1676 19.6669 37.1716 19.6618 37.1754 19.6565C37.1791 19.6512 37.1825 19.6457 37.1856 19.6401C37.1888 19.6344 37.1916 19.6286 37.1941 19.6226C37.1966 19.6167 37.1989 19.6106 37.2008 19.6044C37.2026 19.5983 37.2042 19.592 37.2054 19.5856C37.2067 19.5793 37.2075 19.5729 37.2081 19.5664C37.2087 19.56 37.2089 19.5535 37.2088 19.5471C37.2086 19.5406 37.2082 19.5342 37.2073 19.5277C37.2068 19.5181 37.2058 19.5085 37.2043 19.499C37.2028 19.4895 37.2008 19.4801 37.1983 19.4708C37.1958 19.4615 37.1928 19.4523 37.1894 19.4433C37.1859 19.4343 37.182 19.4255 37.1776 19.4169C37.1732 19.4083 37.1684 19.4 37.1631 19.3919C37.1579 19.3838 37.1522 19.376 37.1462 19.3685C37.1401 19.361 37.1336 19.3539 37.1268 19.347C37.12 19.3403 37.1129 19.3338 37.1054 19.3277L33.2714 16.0098C33.2678 16.0065 33.2641 16.0034 33.2604 16.0003C33.2567 15.9972 33.2529 15.9942 33.249 15.9913C33.2451 15.9884 33.2412 15.9856 33.2372 15.9829C33.2332 15.9802 33.2291 15.9775 33.225 15.975C33.2209 15.9725 33.2167 15.97 33.2125 15.9677C33.2082 15.9653 33.2039 15.9631 33.1996 15.9609C33.1953 15.9588 33.1909 15.9567 33.1864 15.9548C33.182 15.9528 33.1775 15.951 33.173 15.9493C33.1685 15.9475 33.1639 15.9459 33.1594 15.9443C33.1548 15.9428 33.1501 15.9414 33.1454 15.9401C33.1408 15.9387 33.1361 15.9375 33.1314 15.9364C33.1267 15.9353 33.122 15.9344 33.1172 15.9335C33.1125 15.9326 33.1077 15.9318 33.1029 15.9311C33.098 15.9305 33.0932 15.9299 33.0884 15.9295C33.0836 15.929 33.0788 15.9287 33.0739 15.9285C33.0691 15.9282 33.0643 15.9281 33.0595 15.9281C33.0546 15.9281 33.0497 15.9282 33.0449 15.9285C33.04 15.9287 33.0352 15.929 33.0304 15.9295C33.0256 15.9299 33.0208 15.9305 33.016 15.9311C33.0112 15.9318 33.0064 15.9326 33.0017 15.9335C32.9969 15.9344 32.9921 15.9353 32.9875 15.9364C32.9827 15.9375 32.9781 15.9387 32.9734 15.9401C32.9687 15.9414 32.9641 15.9428 32.9595 15.9443C32.9549 15.9459 32.9504 15.9475 32.9459 15.9493C32.9413 15.951 32.9368 15.9528 32.9324 15.9548C32.928 15.9567 32.9236 15.9588 32.9192 15.9609C32.9149 15.9631 32.9106 15.9653 32.9064 15.9677C32.9021 15.97 32.898 15.9725 32.8939 15.975C32.8897 15.9775 32.8856 15.9802 32.8817 15.9829C32.8777 15.9856 32.8737 15.9884 32.8698 15.9913C32.8659 15.9942 32.8621 15.9972 32.8584 16.0003C32.8547 16.0034 32.851 16.0065 32.8475 16.0098L17.5817 32.9715C17.5678 32.9867 17.5543 33.0024 17.5413 33.0183C17.5282 33.0344 17.5157 33.0507 17.5036 33.0674C17.4915 33.0842 17.4799 33.1012 17.4688 33.1186C17.4577 33.136 17.4471 33.1537 17.437 33.1717C17.4269 33.1897 17.4174 33.2079 17.4083 33.2265C17.3993 33.245 17.3908 33.2638 17.3828 33.2828C17.3748 33.3019 17.3674 33.3211 17.3605 33.3406C17.3537 33.36 17.3474 33.3797 17.3416 33.3995C17.3359 33.4193 17.3307 33.4393 17.3261 33.4594C17.3215 33.4795 17.3175 33.4997 17.314 33.5201C17.3106 33.5404 17.3078 33.5608 17.3055 33.5813C17.3032 33.6019 17.3015 33.6224 17.3004 33.643C17.2994 33.6636 17.2989 33.6842 17.299 33.7048C17.299 33.7255 17.2997 33.7461 17.301 33.7667C17.3023 33.7873 17.3041 33.8078 17.3066 33.8283C17.309 33.8488 17.3121 33.8692 17.3157 33.8895C17.4049 34.4429 17.5131 34.9927 17.6402 35.5386C17.7674 36.0846 17.9132 36.6255 18.0777 37.1614Z"   fill="#660874" >
</path>
<path d="M35.0294 24.9077C35.0087 24.9076 34.988 24.9071 34.9673 24.9062C34.9467 24.9052 34.926 24.9038 34.9053 24.9019C34.8847 24.9001 34.8641 24.8977 34.8436 24.8949C34.8231 24.8921 34.8026 24.8889 34.7822 24.8852C34.7619 24.8815 34.7416 24.8774 34.7214 24.8728C34.7012 24.8682 34.6811 24.8631 34.6611 24.8577C34.6412 24.8522 34.6213 24.8462 34.6016 24.8399C34.5819 24.8335 34.5624 24.8267 34.5429 24.8195C34.5235 24.8122 34.5043 24.8045 34.4852 24.7965C34.4661 24.7884 34.4473 24.7799 34.4286 24.771C34.4099 24.762 34.3914 24.7527 34.3731 24.7429C34.3549 24.7332 34.3368 24.7231 34.319 24.7125C34.3011 24.702 34.2836 24.691 34.2662 24.6797C34.2489 24.6684 34.2318 24.6567 34.215 24.6446C34.1982 24.6325 34.1817 24.62 34.1654 24.6072C34.1491 24.5944 34.1331 24.5812 34.1174 24.5677L28.3635 19.5838C28.3441 19.5695 28.325 19.5548 28.3062 19.5396C28.2875 19.5244 28.2692 19.5087 28.2513 19.4925C28.2334 19.4764 28.2159 19.4598 28.1988 19.4427C28.1818 19.4257 28.1652 19.4082 28.149 19.3903C28.1329 19.3724 28.1172 19.354 28.102 19.3353C28.0868 19.3166 28.0721 19.2975 28.0579 19.278C28.0437 19.2585 28.03 19.2387 28.0168 19.2185C28.0036 19.1983 27.9909 19.1777 27.9788 19.1569C27.9667 19.136 27.9551 19.1149 27.9441 19.0934C27.933 19.072 27.9226 19.0503 27.9127 19.0283C27.9028 19.0063 27.8934 18.9841 27.8847 18.9616C27.8759 18.9391 27.8677 18.9165 27.8601 18.8936C27.8525 18.8707 27.8455 18.8476 27.8392 18.8243C27.8328 18.8011 27.827 18.7777 27.8218 18.7541C27.8166 18.7306 27.812 18.7069 27.808 18.6831C27.8041 18.6593 27.8007 18.6354 27.798 18.6115C27.7953 18.5875 27.7931 18.5635 27.7917 18.5394C27.7902 18.5153 27.7893 18.4912 27.7891 18.4671C27.7888 18.443 27.7892 18.4189 27.7902 18.3948C27.7912 18.3707 27.7928 18.3466 27.7951 18.3226C27.7973 18.2986 27.8002 18.2747 27.8037 18.2508C27.8072 18.2269 27.8113 18.2032 27.816 18.1795C27.8207 18.1559 27.826 18.1323 27.8319 18.1089C27.8379 18.0856 27.8444 18.0624 27.8515 18.0393C27.8586 18.0163 27.8664 17.9934 27.8747 17.9708C27.883 17.9482 27.8919 17.9257 27.9013 17.9036C27.9108 17.8814 27.9208 17.8594 27.9314 17.8378C27.942 17.8161 27.9532 17.7947 27.9649 17.7736C27.9766 17.7525 27.9888 17.7318 28.0016 17.7113C28.0144 17.6909 28.0277 17.6707 28.0415 17.651C28.0553 17.6312 28.0697 17.6118 28.0845 17.5928C28.0993 17.5737 28.1146 17.5551 28.1304 17.5369C28.1462 17.5187 28.1624 17.5008 28.1791 17.4834C28.1958 17.466 28.2129 17.4491 28.2305 17.4325C28.2481 17.416 28.2661 17.4 28.2845 17.3844C28.3029 17.3688 28.3217 17.3537 28.3409 17.3391C28.3601 17.3245 28.3797 17.3104 28.3996 17.2968C28.4195 17.2832 28.4398 17.2701 28.4604 17.2576C28.481 17.245 28.5019 17.233 28.5231 17.2215C28.5443 17.2101 28.5658 17.1992 28.5876 17.1888C28.6094 17.1784 28.6314 17.1686 28.6537 17.1594C28.676 17.1502 28.6985 17.1416 28.7212 17.1335C28.7439 17.1254 28.7669 17.118 28.79 17.1111C28.8131 17.1042 28.8364 17.0979 28.8598 17.0923C28.8833 17.0866 28.9068 17.0815 28.9306 17.0771C28.9543 17.0726 28.9781 17.0688 29.002 17.0656C29.0259 17.0624 29.0498 17.0598 29.0739 17.0578C29.0979 17.0558 29.122 17.0544 29.1461 17.0537C29.1702 17.0529 29.1943 17.0528 29.2184 17.0533C29.2425 17.0538 29.2666 17.055 29.2907 17.0567C29.3147 17.0585 29.3387 17.0608 29.3627 17.0638C29.3866 17.0668 29.4104 17.0704 29.4342 17.0747C29.4579 17.0789 29.4816 17.0837 29.5051 17.0892C29.5285 17.0946 29.5519 17.1007 29.5751 17.1073C29.5983 17.114 29.6213 17.1212 29.6441 17.1291C29.6669 17.1369 29.6895 17.1453 29.7119 17.1543C29.7342 17.1633 29.7563 17.1729 29.7782 17.1831C29.8001 17.1932 29.8217 17.2039 29.843 17.2152C29.8644 17.2265 29.8854 17.2383 29.9061 17.2506C29.9268 17.263 29.9472 17.2759 29.9672 17.2893C29.9873 17.3027 30.007 17.3166 30.0263 17.3311C30.0456 17.3455 30.0646 17.3604 30.0831 17.3758C30.1017 17.3912 30.1199 17.4071 30.1376 17.4234C30.1553 17.4398 30.1726 17.4566 30.1895 17.4738L35.9434 22.4497C35.9566 22.4613 35.9695 22.4732 35.9823 22.4853C35.995 22.4974 36.0075 22.5098 36.0198 22.5224C36.0321 22.5349 36.0441 22.5478 36.0559 22.5608C36.0677 22.5738 36.0792 22.5871 36.0905 22.6006C36.1018 22.614 36.1128 22.6277 36.1236 22.6416C36.1344 22.6555 36.1449 22.6696 36.1551 22.6839C36.1654 22.6981 36.1753 22.7126 36.1851 22.7273C36.1947 22.7419 36.2042 22.7568 36.2133 22.7718C36.2224 22.7868 36.2313 22.802 36.2399 22.8173C36.2484 22.8327 36.2567 22.8482 36.2647 22.8638C36.2727 22.8795 36.2804 22.8953 36.2878 22.9113C36.2951 22.9272 36.3022 22.9433 36.309 22.9595C36.3158 22.9757 36.3223 22.992 36.3285 23.0085C36.3346 23.025 36.3404 23.0415 36.346 23.0582C36.3515 23.0749 36.3568 23.0917 36.3617 23.1086C36.3666 23.1254 36.3712 23.1424 36.3754 23.1595C36.3797 23.1765 36.3837 23.1936 36.3873 23.2108C36.391 23.228 36.3942 23.2453 36.3972 23.2626C36.4002 23.2799 36.4029 23.2973 36.4052 23.3147C36.4075 23.3322 36.4095 23.3496 36.4111 23.3671C36.4128 23.3846 36.4142 23.4021 36.4152 23.4197C36.4161 23.4372 36.4168 23.4548 36.4172 23.4724C36.4175 23.4899 36.4176 23.5075 36.4172 23.5251C36.4169 23.5427 36.4162 23.5602 36.4153 23.5778C36.4143 23.5953 36.413 23.6129 36.4113 23.6304C36.4097 23.6479 36.4078 23.6653 36.4054 23.6828C36.4031 23.7002 36.4005 23.7176 36.3976 23.7349C36.3946 23.7522 36.3913 23.7695 36.3877 23.7867C36.3841 23.8039 36.3802 23.821 36.376 23.8381C36.3717 23.8551 36.3671 23.8721 36.3622 23.889C36.3574 23.9059 36.3522 23.9226 36.3467 23.9394C36.3411 23.956 36.3353 23.9726 36.3292 23.9891C36.323 24.0056 36.3165 24.0219 36.3098 24.0381C36.303 24.0544 36.296 24.0704 36.2886 24.0864C36.2812 24.1024 36.2736 24.1181 36.2656 24.1338C36.2576 24.1495 36.2494 24.165 36.2408 24.1804C36.2323 24.1958 36.2235 24.211 36.2144 24.226C36.2052 24.241 36.1958 24.2558 36.1861 24.2705C36.1765 24.2852 36.1665 24.2997 36.1563 24.314C36.1461 24.3283 36.1356 24.3424 36.1249 24.3563C36.1141 24.3702 36.1031 24.3839 36.0918 24.3974C36.0805 24.4108 36.069 24.4241 36.0572 24.4372C36.0455 24.4503 36.0335 24.4631 36.0212 24.4757C36.009 24.4883 35.9965 24.5006 35.9838 24.5128C35.971 24.5249 35.9581 24.5368 35.9449 24.5485C35.9318 24.5601 35.9184 24.5715 35.9048 24.5826C35.8912 24.5938 35.8774 24.6046 35.8634 24.6153C35.8494 24.6259 35.8352 24.6362 35.8208 24.6463C35.8063 24.6564 35.7918 24.6662 35.777 24.6758C35.7622 24.6853 35.7473 24.6945 35.7322 24.7035C35.7171 24.7125 35.7018 24.7212 35.6864 24.7296C35.671 24.738 35.6553 24.7461 35.6396 24.7539C35.6238 24.7617 35.608 24.7692 35.5919 24.7764C35.5759 24.7836 35.5597 24.7905 35.5435 24.7972C35.5272 24.8038 35.5108 24.8101 35.4942 24.816C35.4777 24.822 35.4611 24.8277 35.4443 24.8331C35.4276 24.8384 35.4107 24.8435 35.3938 24.8482C35.3769 24.8529 35.3599 24.8573 35.3428 24.8614C35.3257 24.8655 35.3085 24.8692 35.2913 24.8727C35.274 24.8761 35.2567 24.8792 35.2394 24.882C35.222 24.8848 35.2047 24.8872 35.1872 24.8894C35.1697 24.8915 35.1522 24.8933 35.1347 24.8948C35.1172 24.8963 35.0997 24.8974 35.0821 24.8982C35.0646 24.899 35.047 24.8995 35.0294 24.8997L35.0294 24.9077Z"   fill="#660874" >
</path>
<path d="M14.9418 25.7836L3.54195 25.7836C3.48451 25.784 3.4271 25.7829 3.36971 25.7804C3.31233 25.7779 3.25504 25.774 3.19785 25.7687C3.14065 25.7634 3.08362 25.7567 3.02676 25.7487C2.96989 25.7406 2.91326 25.7311 2.85686 25.7202C2.80045 25.7094 2.74435 25.6971 2.68855 25.6835C2.63275 25.6699 2.57731 25.6549 2.52224 25.6386C2.46717 25.6222 2.41254 25.6046 2.35834 25.5856C2.30413 25.5666 2.25043 25.5463 2.19722 25.5246C2.14402 25.503 2.09137 25.4801 2.03929 25.4558C1.98721 25.4316 1.93575 25.4062 1.88491 25.3794C1.83408 25.3527 1.78393 25.3247 1.73447 25.2955C1.68501 25.2663 1.63629 25.2359 1.58831 25.2043C1.54034 25.1727 1.49317 25.14 1.4468 25.1061C1.40043 25.0722 1.35492 25.0372 1.31027 25.001C1.26562 24.9649 1.22188 24.9277 1.17904 24.8894C1.13622 24.8512 1.09435 24.8119 1.05345 24.7715C1.01254 24.7312 0.972653 24.6899 0.93377 24.6476C0.894891 24.6053 0.857071 24.5621 0.820309 24.518C0.783551 24.4738 0.747891 24.4288 0.713332 24.383C0.678778 24.3371 0.645367 24.2904 0.613098 24.2429C0.580832 24.1954 0.54975 24.1471 0.519848 24.098C0.489949 24.049 0.461266 23.9993 0.433801 23.9488C0.40634 23.8983 0.380127 23.8472 0.355169 23.7955C0.33021 23.7438 0.306533 23.6915 0.284138 23.6386C0.261743 23.5857 0.240657 23.5323 0.22088 23.4783C0.201102 23.4244 0.182657 23.3701 0.165545 23.3152C0.148433 23.2604 0.132673 23.2052 0.118267 23.1496C0.103861 23.094 0.0908248 23.0381 0.0791596 22.9818C0.067494 22.9256 0.0572127 22.8691 0.0483163 22.8123C0.0394195 22.7556 0.0319178 22.6987 0.0258112 22.6415C0.0197046 22.5844 0.0150003 22.5272 0.0116985 22.4699C0.00839664 22.4125 0.00650113 22.3551 0.00601196 22.2977L0.00601196 3.48602C0.0065011 3.42859 0.0083966 3.37119 0.0116984 3.31385C0.0150003 3.25651 0.0197045 3.19928 0.0258111 3.14216C0.0319177 3.08505 0.0394194 3.02812 0.0483163 2.97137C0.0572127 2.91463 0.067494 2.85814 0.0791592 2.80189C0.0908248 2.74566 0.103861 2.68973 0.118267 2.63413C0.132673 2.57853 0.148432 2.52331 0.165545 2.46848C0.182657 2.41365 0.201102 2.35927 0.22088 2.30534C0.240657 2.25142 0.261743 2.19801 0.284138 2.14512C0.306533 2.09223 0.33021 2.03991 0.355169 1.98818C0.380127 1.93644 0.40634 1.88535 0.433801 1.83491C0.461266 1.78446 0.489949 1.73471 0.519848 1.68567C0.54975 1.63663 0.580832 1.58835 0.613098 1.54083C0.645367 1.49331 0.678778 1.44661 0.713332 1.40073C0.747887 1.35485 0.783547 1.30984 0.820309 1.26571C0.857071 1.22157 0.894891 1.17837 0.93377 1.13609C0.972653 1.0938 1.01254 1.0525 1.05345 1.01218C1.09435 0.971855 1.13622 0.932554 1.17904 0.894281C1.22188 0.856007 1.26562 0.818808 1.31027 0.782675C1.35492 0.74655 1.40043 0.711535 1.4468 0.677632C1.49317 0.643734 1.54034 0.610992 1.58831 0.579406C1.63629 0.54782 1.68501 0.517425 1.73447 0.488226C1.78393 0.459027 1.83408 0.431054 1.88491 0.404312C1.93575 0.377572 1.98721 0.352092 2.03929 0.327872C2.09137 0.303653 2.14402 0.280723 2.19722 0.259083C2.25043 0.237444 2.30413 0.21712 2.35834 0.198113C2.41254 0.179105 2.46718 0.161437 2.52224 0.145107C2.57731 0.128777 2.63275 0.113806 2.68855 0.100193C2.74435 0.0865795 2.80045 0.0743416 2.85686 0.0634784C2.91326 0.0526151 2.96989 0.0431393 3.02676 0.0350516C3.08363 0.0269639 3.14066 0.0202737 3.19785 0.014981C3.25504 0.00968836 3.31234 0.00579957 3.36972 0.00331465C3.4271 0.000829747 3.48452 -0.000248293 3.54195 8.05296e-05L22.7816 8.05296e-05C22.839 -0.000248176 22.8964 0.000830189 22.9538 0.00331563C23.0112 0.00580109 23.0685 0.00969062 23.1256 0.0149843C23.1828 0.0202778 23.2398 0.0269692 23.2967 0.0350583C23.3536 0.0431475 23.4102 0.0526244 23.4666 0.0634897C23.523 0.0743545 23.5791 0.0865948 23.6348 0.10021C23.6906 0.113825 23.7461 0.128798 23.8011 0.145131C23.8562 0.161463 23.9108 0.179134 23.965 0.198144C24.0192 0.217155 24.0728 0.237481 24.126 0.259124C24.1792 0.280766 24.2319 0.303699 24.2839 0.327922C24.336 0.352145 24.3875 0.377629 24.4382 0.404374C24.4891 0.431121 24.5392 0.459093 24.5886 0.488296C24.6381 0.517499 24.6868 0.547894 24.7348 0.579484C24.7827 0.611078 24.8299 0.643824 24.8762 0.677726C24.9226 0.711628 24.9681 0.746644 25.0127 0.782777C25.0573 0.81891 25.1011 0.856117 25.1439 0.89439C25.1867 0.932671 25.2285 0.971972 25.2694 1.0123C25.3103 1.05263 25.3502 1.09393 25.389 1.13621C25.4279 1.1785 25.4657 1.22171 25.5024 1.26584C25.5392 1.30998 25.5748 1.35499 25.6093 1.40087C25.6439 1.44676 25.6773 1.49346 25.7095 1.54098C25.7418 1.5885 25.7728 1.63678 25.8027 1.68582C25.8326 1.73487 25.8612 1.78462 25.8886 1.83506C25.9161 1.88551 25.9423 1.9366 25.9672 1.98833C25.9921 2.04007 26.0158 2.09237 26.0382 2.14526C26.0605 2.19816 26.0816 2.25157 26.1013 2.30549C26.1211 2.35941 26.1395 2.41379 26.1566 2.46861C26.1737 2.52344 26.1894 2.57866 26.2037 2.63425C26.2181 2.68985 26.2311 2.74576 26.2428 2.802C26.2544 2.85824 26.2647 2.91473 26.2735 2.97146C26.2824 3.0282 26.2899 3.08512 26.2959 3.14223C26.302 3.19933 26.3067 3.25655 26.31 3.31388C26.3132 3.37122 26.3151 3.4286 26.3155 3.48602L26.3155 13.6858C26.3155 13.7087 26.315 13.7316 26.3139 13.7545C26.3128 13.7774 26.3111 13.8003 26.3088 13.8231C26.3066 13.8459 26.3037 13.8686 26.3004 13.8912C26.297 13.9139 26.2931 13.9365 26.2886 13.959C26.2842 13.9815 26.2792 14.0038 26.2736 14.026C26.268 14.0482 26.2619 14.0703 26.2553 14.0922C26.2486 14.1142 26.2414 14.1359 26.2337 14.1575C26.226 14.179 26.2178 14.2004 26.209 14.2216C26.2002 14.2428 26.1909 14.2637 26.1811 14.2844C26.1714 14.3051 26.1611 14.3256 26.1502 14.3458C26.1395 14.366 26.1282 14.3859 26.1164 14.4056C26.1046 14.4252 26.0923 14.4446 26.0796 14.4636C26.0669 14.4827 26.0537 14.5014 26.04 14.5198C26.0264 14.5382 26.0123 14.5563 25.9978 14.574C25.9832 14.5917 25.9683 14.609 25.9529 14.626C25.9375 14.643 25.9217 14.6596 25.9055 14.6758C25.8893 14.692 25.8727 14.7078 25.8557 14.7231C25.8388 14.7385 25.8214 14.7535 25.8037 14.768C25.786 14.7826 25.768 14.7967 25.7495 14.8103C25.7312 14.824 25.7124 14.8371 25.6934 14.8499C25.6743 14.8626 25.655 14.8749 25.6353 14.8866C25.6157 14.8984 25.5957 14.9097 25.5755 14.9205C25.5553 14.9313 25.5348 14.9416 25.5141 14.9514C25.4934 14.9612 25.4725 14.9705 25.4513 14.9792C25.4302 14.988 25.4088 14.9963 25.3872 15.004C25.3657 15.0117 25.3439 15.0189 25.3219 15.0255C25.3001 15.0322 25.278 15.0383 25.2557 15.0438C25.2336 15.0494 25.2112 15.0544 25.1887 15.0589C25.1662 15.0634 25.1437 15.0673 25.121 15.0706C25.0984 15.074 25.0756 15.0768 25.0528 15.0791C25.03 15.0814 25.0071 15.083 24.9843 15.0841C24.9614 15.0853 24.9385 15.0858 24.9156 15.0858C24.8927 15.0858 24.8698 15.0853 24.8469 15.0841C24.824 15.083 24.8012 15.0814 24.7784 15.0791C24.7555 15.0768 24.7328 15.074 24.7102 15.0706C24.6875 15.0673 24.665 15.0634 24.6425 15.0589C24.62 15.0544 24.5977 15.0494 24.5754 15.0438C24.5532 15.0383 24.5311 15.0322 24.5092 15.0255C24.4873 15.0189 24.4655 15.0117 24.4439 15.004C24.4224 14.9963 24.401 14.988 24.3798 14.9792C24.3587 14.9705 24.3377 14.9612 24.317 14.9514C24.2963 14.9416 24.2759 14.9313 24.2556 14.9205C24.2354 14.9097 24.2155 14.8984 24.1959 14.8866C24.1762 14.8749 24.1568 14.8626 24.1378 14.8499C24.1187 14.8371 24.1 14.824 24.0816 14.8103C24.0632 14.7967 24.0452 14.7826 24.0275 14.768C24.0097 14.7535 23.9924 14.7385 23.9754 14.7231C23.9584 14.7078 23.9419 14.692 23.9256 14.6758C23.9094 14.6596 23.8937 14.643 23.8783 14.626C23.8629 14.609 23.8479 14.5917 23.8334 14.574C23.8189 14.5563 23.8048 14.5382 23.7911 14.5198C23.7775 14.5014 23.7643 14.4827 23.7515 14.4636C23.7388 14.4446 23.7266 14.4252 23.7148 14.4056C23.703 14.3859 23.6917 14.366 23.6809 14.3458C23.6701 14.3256 23.6598 14.3051 23.65 14.2844C23.6402 14.2637 23.6309 14.2428 23.6221 14.2216C23.6134 14.2004 23.6052 14.179 23.5974 14.1575C23.5897 14.1359 23.5825 14.1142 23.5759 14.0922C23.5693 14.0703 23.5631 14.0482 23.5575 14.026C23.552 14.0038 23.547 13.9815 23.5425 13.959C23.538 13.9365 23.5341 13.9139 23.5307 13.8912C23.5274 13.8686 23.5246 13.8459 23.5223 13.8231C23.5201 13.8003 23.5184 13.7774 23.5173 13.7545C23.5162 13.7316 23.5156 13.7087 23.5156 13.6858L23.5156 3.48602C23.5151 3.47434 23.5144 3.46267 23.5133 3.45102C23.5123 3.43937 23.511 3.42776 23.5094 3.41617C23.5078 3.40459 23.5059 3.39305 23.5037 3.38155C23.5016 3.37006 23.4992 3.35862 23.4965 3.34724C23.4938 3.33587 23.4909 3.32456 23.4876 3.31332C23.4844 3.30209 23.4809 3.29093 23.4771 3.27986C23.4733 3.26879 23.4693 3.25782 23.465 3.24694C23.4607 3.23607 23.4561 3.2253 23.4513 3.21464C23.4465 3.20399 23.4414 3.19345 23.4361 3.18304C23.4308 3.17262 23.4252 3.16234 23.4194 3.15219C23.4136 3.14205 23.4075 3.13205 23.4012 3.12219C23.395 3.11233 23.3884 3.10263 23.3817 3.09309C23.3749 3.08354 23.3679 3.07416 23.3607 3.06495C23.3536 3.05575 23.3461 3.04671 23.3384 3.03786C23.3308 3.02901 23.323 3.02034 23.3149 3.01186C23.3069 3.00338 23.2986 2.9951 23.2902 2.98702C23.2817 2.97894 23.2731 2.97106 23.2643 2.96339C23.2554 2.95572 23.2464 2.94827 23.2372 2.94103C23.228 2.9338 23.2187 2.92678 23.2091 2.92C23.1996 2.91321 23.19 2.90665 23.1801 2.90032C23.1703 2.894 23.1603 2.88791 23.1502 2.88207C23.14 2.87623 23.1298 2.87062 23.1194 2.86526C23.109 2.85991 23.0985 2.85481 23.0878 2.84996C23.0772 2.84511 23.0664 2.84052 23.0556 2.83618C23.0447 2.83185 23.0338 2.82778 23.0227 2.82396C23.0117 2.82016 23.0005 2.81661 22.9893 2.81334C22.9781 2.81006 22.9668 2.80705 22.9554 2.80432C22.944 2.80159 22.9326 2.79912 22.9211 2.79694C22.9096 2.79475 22.8981 2.79284 22.8865 2.79121C22.8749 2.78957 22.8633 2.78822 22.8517 2.78714C22.84 2.78606 22.8284 2.78526 22.8167 2.78475C22.805 2.78423 22.7933 2.78399 22.7816 2.78403L3.53595 2.78403C3.52421 2.7838 3.51246 2.78384 3.50072 2.78417C3.48898 2.7845 3.47725 2.78511 3.46553 2.78601C3.45382 2.7869 3.44213 2.78808 3.43048 2.78954C3.41882 2.791 3.40721 2.79274 3.39563 2.79476C3.38406 2.79678 3.37254 2.79908 3.36108 2.80165C3.34962 2.80423 3.33823 2.80708 3.3269 2.81021C3.31558 2.81333 3.30433 2.81673 3.29317 2.8204C3.28202 2.82407 3.27095 2.828 3.25998 2.83221C3.24901 2.83641 3.23814 2.84088 3.22739 2.8456C3.21664 2.85034 3.206 2.85532 3.19549 2.86056C3.18497 2.8658 3.17459 2.87129 3.16434 2.87703C3.15409 2.88278 3.14399 2.88876 3.13403 2.895C3.12407 2.90123 3.11427 2.90769 3.10462 2.91439C3.09497 2.9211 3.08549 2.92803 3.07618 2.93519C3.06686 2.94235 3.05773 2.94974 3.04877 2.95734C3.03982 2.96494 3.03105 2.97276 3.02247 2.98078C3.01389 2.98881 3.00551 2.99703 2.99733 3.00546C2.98915 3.01389 2.98117 3.02252 2.97341 3.03133C2.96564 3.04015 2.95809 3.04915 2.95076 3.05833C2.94343 3.06751 2.93633 3.07685 2.92945 3.08638C2.92257 3.0959 2.91592 3.10559 2.90951 3.11543C2.9031 3.12527 2.89693 3.13526 2.891 3.14541C2.88507 3.15555 2.87938 3.16583 2.87395 3.17624C2.86852 3.18666 2.86334 3.1972 2.85841 3.20787C2.85349 3.21853 2.84882 3.22931 2.84442 3.2402C2.84002 3.25109 2.83588 3.26209 2.832 3.27318C2.82813 3.28427 2.82453 3.29544 2.82119 3.30671C2.81786 3.31798 2.8148 3.32931 2.81201 3.34073C2.80922 3.35214 2.80672 3.36361 2.80448 3.37514C2.80225 3.38668 2.8003 3.39826 2.79862 3.40989C2.79695 3.42152 2.79556 3.43318 2.79445 3.44487C2.79334 3.45657 2.79251 3.46828 2.79197 3.48002L2.79197 22.2957C2.79254 22.3074 2.7934 22.3191 2.79454 22.3308C2.79568 22.3425 2.79709 22.3542 2.79879 22.3658C2.80049 22.3774 2.80247 22.389 2.80473 22.4005C2.80698 22.412 2.80952 22.4235 2.81232 22.4348C2.81513 22.4462 2.81821 22.4576 2.82156 22.4688C2.82491 22.4801 2.82853 22.4912 2.83242 22.5023C2.83631 22.5134 2.84047 22.5244 2.84488 22.5352C2.8493 22.5461 2.85398 22.5569 2.85891 22.5675C2.86385 22.5782 2.86904 22.5887 2.87448 22.5991C2.87992 22.6095 2.88561 22.6198 2.89154 22.6299C2.89748 22.6401 2.90366 22.65 2.91007 22.6598C2.91648 22.6697 2.92313 22.6794 2.93002 22.6888C2.9369 22.6984 2.944 22.7077 2.95133 22.7169C2.95866 22.7261 2.96621 22.7351 2.97397 22.7438C2.98174 22.7527 2.98971 22.7613 2.99788 22.7697C3.00606 22.7781 3.01444 22.7864 3.02301 22.7944C3.03158 22.8024 3.04034 22.8102 3.04929 22.8178C3.05824 22.8254 3.06737 22.8328 3.07667 22.8399C3.08598 22.8471 3.09545 22.854 3.10508 22.8607C3.11472 22.8674 3.12452 22.8739 3.13446 22.8801C3.14441 22.8863 3.1545 22.8924 3.16474 22.8981C3.17498 22.9038 3.18535 22.9094 3.19585 22.9146C3.20635 22.9198 3.21697 22.9248 3.22771 22.9296C3.23845 22.9343 3.24931 22.9388 3.26026 22.943C3.27121 22.9472 3.28227 22.9512 3.29341 22.9548C3.30456 22.9585 3.31579 22.9619 3.3271 22.9651C3.33841 22.9682 3.34979 22.9711 3.36124 22.9737C3.37269 22.9763 3.3842 22.9786 3.39575 22.9806C3.40732 22.9827 3.41892 22.9844 3.43056 22.9859C3.44221 22.9874 3.45388 22.9886 3.46559 22.9895C3.47729 22.9905 3.48901 22.9911 3.50074 22.9914C3.51248 22.9918 3.52421 22.9919 3.53595 22.9917L14.9357 22.9917C14.9586 22.9917 14.9815 22.9923 15.0044 22.9935C15.0273 22.9946 15.0501 22.9963 15.0728 22.9986C15.0956 23.0009 15.1183 23.0037 15.141 23.0071C15.1636 23.0105 15.1862 23.0144 15.2086 23.0189C15.2311 23.0234 15.2534 23.0285 15.2755 23.034C15.2978 23.0396 15.3198 23.0458 15.3417 23.0524C15.3636 23.0591 15.3853 23.0663 15.4069 23.074C15.4284 23.0817 15.4498 23.09 15.4709 23.0988C15.4921 23.1076 15.513 23.1169 15.5336 23.1267C15.5543 23.1365 15.5748 23.1468 15.5949 23.1576C15.6151 23.1684 15.635 23.1797 15.6546 23.1915C15.6743 23.2033 15.6936 23.2155 15.7126 23.2283C15.7316 23.241 15.7503 23.2542 15.7687 23.2679C15.7871 23.2815 15.8051 23.2956 15.8228 23.3101C15.8405 23.3247 15.8578 23.3396 15.8747 23.355C15.8917 23.3704 15.9082 23.3862 15.9244 23.4024C15.9406 23.4186 15.9564 23.4352 15.9717 23.4522C15.9871 23.4691 16.002 23.4865 16.0166 23.5042C16.0311 23.5219 16.0452 23.5399 16.0587 23.5583C16.0724 23.5767 16.0855 23.5955 16.0982 23.6145C16.111 23.6335 16.1232 23.6529 16.135 23.6725C16.1467 23.6921 16.158 23.7121 16.1687 23.7322C16.1795 23.7524 16.1898 23.7729 16.1996 23.7936C16.2094 23.8143 16.2187 23.8352 16.2274 23.8563C16.2362 23.8775 16.2444 23.8988 16.2521 23.9204C16.2598 23.942 16.2669 23.9637 16.2736 23.9856C16.2802 24.0075 16.2864 24.0296 16.2919 24.0518C16.2975 24.074 16.3025 24.0963 16.3069 24.1188C16.3114 24.1412 16.3153 24.1638 16.3187 24.1864C16.322 24.209 16.3248 24.2318 16.3271 24.2546C16.3293 24.2774 16.331 24.3002 16.3321 24.323C16.3332 24.3459 16.3338 24.3688 16.3338 24.3917C16.3338 24.4146 16.3332 24.4374 16.3321 24.4603C16.331 24.4832 16.3293 24.506 16.3271 24.5288C16.3248 24.5515 16.322 24.5742 16.3187 24.5969C16.3153 24.6196 16.3114 24.6421 16.3069 24.6645C16.3025 24.687 16.2975 24.7093 16.2919 24.7315C16.2864 24.7537 16.2802 24.7758 16.2736 24.7977C16.2669 24.8196 16.2598 24.8413 16.2521 24.8629C16.2444 24.8844 16.2362 24.9058 16.2274 24.9269C16.2187 24.9481 16.2094 24.969 16.1996 24.9897C16.1898 25.0104 16.1795 25.0309 16.1687 25.0511C16.158 25.0713 16.1467 25.0912 16.135 25.1108C16.1232 25.1305 16.111 25.1498 16.0982 25.1688C16.0855 25.1879 16.0724 25.2066 16.0587 25.225C16.0452 25.2434 16.0311 25.2614 16.0165 25.2791C16.002 25.2969 15.9871 25.3142 15.9717 25.3312C15.9564 25.3481 15.9406 25.3647 15.9244 25.3809C15.9082 25.3971 15.8917 25.4129 15.8747 25.4283C15.8578 25.4437 15.8405 25.4586 15.8228 25.4731C15.8051 25.4877 15.7871 25.5018 15.7687 25.5155C15.7503 25.5291 15.7316 25.5423 15.7126 25.555C15.6936 25.5678 15.6743 25.58 15.6546 25.5918C15.635 25.6036 15.6151 25.6149 15.5949 25.6257C15.5748 25.6365 15.5543 25.6468 15.5336 25.6566C15.513 25.6665 15.4921 25.6758 15.4709 25.6845C15.4498 25.6933 15.4284 25.7015 15.4069 25.7093C15.3853 25.717 15.3636 25.7242 15.3417 25.7309C15.3198 25.7376 15.2978 25.7437 15.2755 25.7493C15.2534 25.7549 15.2311 25.7599 15.2086 25.7644C15.1862 25.7689 15.1636 25.7728 15.141 25.7762C15.1183 25.7796 15.0956 25.7824 15.0728 25.7847C15.0501 25.787 15.0273 25.7887 15.0044 25.7898C14.9815 25.791 14.9586 25.7916 14.9357 25.7916L14.9418 25.7836Z"   fill="#660874" >
</path>
<path d="M12.3818 14.9718C12.3589 14.9718 12.336 14.9713 12.3131 14.9701C12.2902 14.969 12.2674 14.9673 12.2446 14.9651C12.2218 14.9628 12.199 14.96 12.1764 14.9567C12.1537 14.9533 12.1311 14.9494 12.1087 14.9449C12.0862 14.9404 12.0638 14.9354 12.0416 14.9299C12.0194 14.9243 11.9973 14.9182 11.9754 14.9115C11.9534 14.9049 11.9317 14.8977 11.9102 14.89C11.8886 14.8822 11.8672 14.874 11.8461 14.8653C11.8249 14.8565 11.8039 14.8472 11.7832 14.8374C11.7625 14.8276 11.742 14.8173 11.7218 14.8065C11.7016 14.7957 11.6817 14.7844 11.6621 14.7726C11.6424 14.7608 11.6231 14.7486 11.604 14.7359C11.5849 14.7231 11.5662 14.7099 11.5478 14.6963C11.5294 14.6827 11.5114 14.6686 11.4937 14.654C11.4759 14.6395 11.4586 14.6245 11.4416 14.6092C11.4247 14.5938 11.4081 14.578 11.3919 14.5618C11.3756 14.5456 11.3599 14.529 11.3445 14.512C11.3291 14.495 11.3141 14.4777 11.2996 14.46C11.285 14.4422 11.2709 14.4242 11.2573 14.4058C11.2437 14.3874 11.2305 14.3687 11.2177 14.3496C11.205 14.3306 11.1928 14.3112 11.181 14.2915C11.1692 14.2719 11.1579 14.252 11.1471 14.2318C11.1363 14.2116 11.126 14.1911 11.1162 14.1704C11.1064 14.1497 11.0971 14.1287 11.0884 14.1076C11.0796 14.0864 11.0714 14.0651 11.0636 14.0435C11.0559 14.0219 11.0487 14.0001 11.0421 13.9782C11.0354 13.9563 11.0293 13.9342 11.0237 13.912C11.0182 13.8898 11.0132 13.8674 11.0087 13.8449C11.0042 13.8225 11.0003 13.7999 10.9969 13.7772C10.9936 13.7546 10.9908 13.7319 10.9886 13.709C10.9863 13.6863 10.9846 13.6634 10.9835 13.6405C10.9824 13.6176 10.9818 13.5947 10.9818 13.5718C10.9818 13.5489 10.9824 13.526 10.9835 13.5031C10.9846 13.4803 10.9863 13.4574 10.9886 13.4346C10.9908 13.4118 10.9936 13.3891 10.9969 13.3664C11.0003 13.3437 11.0042 13.3212 11.0087 13.2987C11.0132 13.2762 11.0182 13.2539 11.0237 13.2317C11.0293 13.2094 11.0354 13.1874 11.0421 13.1654C11.0487 13.1435 11.0559 13.1218 11.0636 13.1002C11.0714 13.0786 11.0796 13.0572 11.0884 13.0361C11.0971 13.0149 11.1064 12.994 11.1162 12.9733C11.126 12.9526 11.1363 12.9321 11.1471 12.9119C11.1579 12.8917 11.1692 12.8717 11.181 12.8521C11.1928 12.8324 11.205 12.8131 11.2177 12.794C11.2305 12.775 11.2437 12.7563 11.2573 12.7379C11.2709 12.7195 11.285 12.7014 11.2996 12.6837C11.3141 12.666 11.3291 12.6487 11.3445 12.6317C11.3599 12.6147 11.3756 12.5981 11.3919 12.5819C11.4081 12.5657 11.4247 12.5499 11.4416 12.5345C11.4586 12.5191 11.4759 12.5042 11.4937 12.4896C11.5114 12.4751 11.5294 12.461 11.5478 12.4474C11.5662 12.4337 11.5849 12.4205 11.604 12.4078C11.6231 12.3951 11.6424 12.3828 11.6621 12.371C11.6817 12.3593 11.7016 12.348 11.7218 12.3372C11.742 12.3263 11.7625 12.3161 11.7832 12.3063C11.8039 12.2965 11.8249 12.2872 11.8461 12.2784C11.8672 12.2696 11.8886 12.2614 11.9102 12.2537C11.9317 12.246 11.9534 12.2388 11.9754 12.2321C11.9973 12.2255 12.0194 12.2194 12.0416 12.2138C12.0638 12.2082 12.0862 12.2032 12.1087 12.1988C12.1311 12.1943 12.1537 12.1904 12.1764 12.187C12.199 12.1837 12.2218 12.1808 12.2446 12.1786C12.2674 12.1763 12.2902 12.1747 12.3131 12.1735C12.336 12.1724 12.3589 12.1719 12.3818 12.1719C12.4228 12.173 12.4639 12.1732 12.5049 12.1723C12.5459 12.1714 12.587 12.1695 12.6279 12.1665C12.6689 12.1636 12.7097 12.1597 12.7505 12.1547C12.7912 12.1497 12.8318 12.1437 12.8723 12.1367C12.9127 12.1297 12.953 12.1217 12.9931 12.1127C13.0331 12.1037 13.0729 12.0937 13.1125 12.0827C13.152 12.0717 13.1913 12.0597 13.2302 12.0467C13.2692 12.0337 13.3078 12.0198 13.3461 12.0049C13.3843 11.99 13.4222 11.9742 13.4596 11.9574C13.4971 11.9406 13.5341 11.9229 13.5707 11.9042C13.6073 11.8856 13.6434 11.866 13.679 11.8456C13.7146 11.8252 13.7497 11.8038 13.7842 11.7817C13.8187 11.7594 13.8527 11.7364 13.8861 11.7125C13.9194 11.6886 13.9522 11.6639 13.9844 11.6384C14.0165 11.6128 14.048 11.5865 14.0788 11.5594C14.1097 11.5323 14.1398 11.5044 14.1693 11.4758C14.1987 11.4472 14.2274 11.4179 14.2554 11.3878C14.2834 11.3578 14.3106 11.327 14.337 11.2956C14.3634 11.2642 14.3891 11.2322 14.4139 11.1995C14.4388 11.1668 14.4627 11.1335 14.4859 11.0996C14.5091 11.0657 14.5314 11.0313 14.5529 10.9963C14.5743 10.9612 14.5949 10.9257 14.6146 10.8897C14.6342 10.8537 14.653 10.8172 14.6709 10.7802C14.6887 10.7432 14.7056 10.7058 14.7216 10.668C14.7376 10.6302 14.7526 10.592 14.7667 10.5534C14.7808 10.5149 14.7938 10.476 14.806 10.4367C14.8181 10.3975 14.8293 10.358 14.8394 10.3182C14.8496 10.2784 14.8587 10.2384 14.8669 10.1982C14.875 10.1579 14.8822 10.1175 14.8883 10.0769C14.8944 10.0363 14.8995 9.9956 14.9036 9.95478C14.9077 9.91392 14.9108 9.87299 14.9129 9.83197C14.9149 9.79099 14.9159 9.74994 14.9159 9.70889C14.9159 9.66783 14.9149 9.62681 14.9129 9.5858C14.9108 9.54478 14.9077 9.50385 14.9036 9.46303C14.8995 9.42217 14.8944 9.38142 14.8883 9.34084C14.8822 9.30025 14.875 9.25982 14.8669 9.21959C14.8587 9.17935 14.8496 9.13935 14.8394 9.09955C14.8293 9.05978 14.8181 9.02029 14.806 8.98107C14.7938 8.94181 14.7808 8.90291 14.7667 8.86435C14.7526 8.8258 14.7376 8.7876 14.7216 8.74978C14.7056 8.71197 14.6887 8.67459 14.6709 8.6376C14.653 8.6006 14.6342 8.56412 14.6146 8.5281C14.5949 8.49205 14.5743 8.45654 14.5529 8.42154C14.5314 8.3865 14.5091 8.35207 14.4859 8.31818C14.4627 8.2843 14.4388 8.25101 14.4139 8.2183C14.3891 8.18562 14.3634 8.15357 14.337 8.12217C14.3106 8.09076 14.2834 8.06003 14.2554 8.02998C14.2274 7.99993 14.1987 7.97059 14.1693 7.94197C14.1398 7.91335 14.1097 7.88549 14.0789 7.85838C14.048 7.83127 14.0165 7.80495 13.9844 7.77943C13.9522 7.75389 13.9194 7.72917 13.8861 7.70529C13.8527 7.68139 13.8187 7.65834 13.7842 7.63615C13.7497 7.61394 13.7146 7.59261 13.679 7.57217C13.6434 7.55172 13.6073 7.53218 13.5707 7.51353C13.5341 7.49492 13.4971 7.47721 13.4596 7.46041C13.4222 7.44361 13.3843 7.42777 13.3461 7.41287C13.3078 7.39797 13.2692 7.38404 13.2302 7.37107C13.1913 7.3581 13.152 7.34611 13.1125 7.3351C13.0729 7.32411 13.0331 7.31411 12.9931 7.3051C12.953 7.29606 12.9127 7.28804 12.8723 7.28103C12.8318 7.27403 12.7912 7.26804 12.7505 7.26306C12.7097 7.25809 12.6689 7.25415 12.6279 7.25123C12.587 7.24829 12.5459 7.24637 12.5049 7.24549C12.4639 7.24463 12.4228 7.24477 12.3818 7.24592C12.3541 7.24581 12.3265 7.24614 12.2989 7.24689C12.2713 7.24765 12.2437 7.24886 12.2161 7.25053C12.1886 7.25217 12.161 7.25426 12.1335 7.25681C12.106 7.25934 12.0785 7.26231 12.0511 7.26572C12.0237 7.26916 11.9963 7.27303 11.9691 7.27732C11.9418 7.28162 11.9145 7.28635 11.8874 7.2915C11.8603 7.29669 11.8332 7.3023 11.8063 7.30834C11.7793 7.31438 11.7524 7.32085 11.7257 7.32775C11.699 7.33468 11.6723 7.34202 11.6458 7.34978C11.6193 7.35755 11.5929 7.36572 11.5667 7.37431C11.5404 7.38294 11.5143 7.39197 11.4884 7.40142C11.4624 7.41088 11.4366 7.42075 11.4109 7.43103C11.3853 7.4413 11.3598 7.45199 11.3345 7.4631C11.3092 7.4742 11.2841 7.4857 11.2592 7.4976C11.2343 7.5095 11.2095 7.5218 11.185 7.53451C11.1604 7.54722 11.1361 7.5603 11.112 7.57377C11.0879 7.58726 11.064 7.60114 11.0403 7.61541C11.0167 7.62965 10.9932 7.64428 10.97 7.65928C10.9468 7.67428 10.9239 7.68965 10.9012 7.70541C10.8785 7.72114 10.8561 7.73723 10.8339 7.75369C10.8117 7.77017 10.7898 7.787 10.7681 7.80416C10.7465 7.82132 10.7251 7.83883 10.704 7.8567C10.683 7.87457 10.6622 7.89275 10.6417 7.91127C10.6212 7.92978 10.601 7.94863 10.5811 7.96779C10.5612 7.98699 10.5416 8.00648 10.5223 8.02627C10.5031 8.04609 10.4841 8.06619 10.4655 8.08658C10.4469 8.107 10.4286 8.12771 10.4107 8.14873C10.3927 8.16972 10.3751 8.19099 10.3578 8.21256C10.3406 8.23412 10.3237 8.25596 10.3071 8.27806C10.2905 8.30017 10.2743 8.32255 10.2585 8.34517C10.2426 8.36779 10.2271 8.39068 10.212 8.41381C10.1969 8.43693 10.1822 8.46029 10.1678 8.48392C10.157 8.50521 10.1456 8.52619 10.1337 8.54693C10.1218 8.56763 10.1094 8.58803 10.0964 8.6081C10.0835 8.62818 10.07 8.64791 10.0561 8.66732C10.0421 8.6867 10.0277 8.70572 10.0128 8.72435C9.99785 8.74299 9.98246 8.76127 9.9666 8.77912C9.95071 8.79697 9.9344 8.81443 9.91765 8.83146C9.90088 8.84846 9.88369 8.86506 9.86609 8.88119C9.84849 8.89732 9.83048 8.91303 9.81207 8.92826C9.79366 8.94349 9.77487 8.95822 9.7557 8.97248C9.73656 8.98674 9.71705 9.00053 9.69718 9.01377C9.67731 9.02705 9.65712 9.03978 9.6366 9.05201C9.61608 9.06424 9.59526 9.07596 9.57414 9.08709C9.55302 9.09826 9.53162 9.10888 9.50996 9.11896C9.48829 9.129 9.46638 9.13853 9.44421 9.14748C9.42208 9.15642 9.39972 9.16482 9.37714 9.1726C9.35456 9.18041 9.33181 9.18764 9.30886 9.19428C9.28589 9.20088 9.26278 9.20693 9.23953 9.2124C9.21627 9.21783 9.19289 9.22271 9.16937 9.22697C9.14588 9.23123 9.12229 9.23486 9.09859 9.23791C9.07489 9.24096 9.05114 9.24342 9.02734 9.24525C9.00351 9.24709 8.97966 9.2483 8.95578 9.24892C8.9319 9.24951 8.90802 9.24951 8.88414 9.24892C8.86026 9.2483 8.8364 9.24709 8.81257 9.24525C8.78877 9.24342 8.76502 9.24099 8.74132 9.23795C8.71763 9.2349 8.69402 9.23123 8.6705 9.22697C8.64701 9.22271 8.62363 9.21787 8.60035 9.21244C8.57709 9.20697 8.554 9.20092 8.53105 9.19428C8.50811 9.18767 8.48535 9.18045 8.46277 9.17264C8.44019 9.16486 8.41782 9.15646 8.39566 9.14752C8.37353 9.13857 8.35162 9.12908 8.32996 9.119C8.30829 9.10892 8.2869 9.0983 8.26578 9.08717C8.24466 9.07599 8.22384 9.06431 8.20331 9.05209C8.1828 9.03986 8.1626 9.02709 8.14273 9.01385C8.12286 9.0006 8.10334 8.98681 8.08417 8.97256C8.06501 8.9583 8.04622 8.94353 8.02781 8.92834C8.0094 8.9131 7.99139 8.8974 7.97378 8.88127C7.95618 8.86514 7.93899 8.84853 7.92222 8.83154C7.90545 8.81451 7.88914 8.79705 7.87328 8.7792C7.85742 8.76135 7.84203 8.74306 7.8271 8.72443C7.81216 8.7058 7.7977 8.68678 7.78375 8.6674C7.76979 8.64799 7.75634 8.62826 7.74339 8.60818C7.73045 8.58814 7.71803 8.56775 7.70613 8.54701C7.69423 8.52631 7.68286 8.50529 7.67203 8.484C7.66119 8.46271 7.65092 8.44119 7.64121 8.41935C7.63147 8.39752 7.6223 8.37549 7.61371 8.35318C7.60511 8.33089 7.59709 8.30839 7.58964 8.28568C7.5822 8.263 7.57533 8.24014 7.56906 8.21709C7.56278 8.19404 7.55711 8.17084 7.55203 8.14748C7.54695 8.12415 7.54246 8.10069 7.53855 8.07713C7.53467 8.05356 7.53139 8.0299 7.52871 8.00615C7.52605 7.98243 7.52399 7.95864 7.52253 7.93478C7.52108 7.91093 7.52023 7.88706 7.52 7.86318C7.51976 7.8393 7.52014 7.81542 7.52113 7.79154C7.52212 7.76769 7.52371 7.74386 7.52589 7.72006C7.52811 7.69628 7.53092 7.67257 7.53433 7.64892C7.53777 7.62528 7.54179 7.60174 7.5464 7.5783C7.55104 7.55486 7.55626 7.53157 7.56207 7.50842C7.5679 7.48524 7.57432 7.46223 7.58132 7.43939C7.5883 7.41656 7.59587 7.3939 7.60402 7.37142C7.6122 7.34898 7.62092 7.32675 7.63019 7.30474C7.63949 7.28274 7.64934 7.26098 7.65976 7.23947C7.67018 7.21799 7.68113 7.19678 7.69261 7.17584C7.7041 7.15487 7.71612 7.13424 7.72867 7.11392C7.74122 7.09358 7.75428 7.07359 7.76785 7.05392C7.79766 7.0046 7.82826 6.95576 7.85964 6.9074C7.891 6.85904 7.92314 6.81121 7.95605 6.76389C7.98897 6.71657 8.02263 6.6698 8.05703 6.62357C8.09146 6.57732 8.1266 6.53165 8.16246 6.48654C8.19834 6.44144 8.23494 6.39692 8.27226 6.35299C8.30955 6.30903 8.34755 6.26569 8.38624 6.22299C8.42497 6.18028 8.46436 6.1382 8.50441 6.09674C8.54444 6.0553 8.58514 6.01451 8.62652 5.97435C8.66787 5.93423 8.70987 5.89476 8.75249 5.85596C8.79513 5.81715 8.83837 5.77906 8.88222 5.74166C8.92608 5.70426 8.97052 5.66757 9.01554 5.63158C9.06057 5.59562 9.10617 5.56037 9.15234 5.52584C9.19851 5.49133 9.24522 5.45757 9.29246 5.42455C9.3397 5.39156 9.38746 5.35931 9.43574 5.32783C9.48405 5.29635 9.53282 5.26566 9.58207 5.23576C9.63134 5.20584 9.68108 5.17672 9.73128 5.14842C9.7815 5.12008 9.83214 5.09257 9.88324 5.06588C9.93433 5.03921 9.98583 5.01335 10.0377 4.9883C10.0897 4.96328 10.142 4.93908 10.1946 4.91572C10.2474 4.89236 10.3004 4.86986 10.3538 4.84822C10.4072 4.82658 10.461 4.8058 10.5151 4.78588C10.5692 4.76596 10.6236 4.74691 10.6783 4.72873C10.733 4.71055 10.7879 4.69325 10.8432 4.67682C10.8984 4.66041 10.9539 4.64489 11.0097 4.63025C11.0654 4.61564 11.1214 4.60192 11.1776 4.58908C11.2338 4.57624 11.2902 4.56432 11.3468 4.5533C11.4033 4.54228 11.4601 4.53218 11.517 4.52299C11.5739 4.51379 11.6309 4.50551 11.6881 4.49814C11.7452 4.49077 11.8025 4.48433 11.8599 4.47881C11.9172 4.47326 11.9747 4.46865 12.0322 4.46498C12.0897 4.46131 12.1473 4.45855 12.2049 4.4567C12.2625 4.45488 12.3201 4.45398 12.3778 4.454C12.4638 4.45395 12.5497 4.45602 12.6357 4.46021C12.7215 4.46441 12.8073 4.47071 12.8929 4.47912C12.9785 4.48753 13.0638 4.49803 13.1489 4.5106C13.234 4.52321 13.3187 4.53788 13.4031 4.55463C13.4874 4.57137 13.5713 4.59019 13.6547 4.61107C13.7382 4.63193 13.821 4.65484 13.9033 4.67978C13.9856 4.70473 14.0673 4.73169 14.1483 4.76064C14.2292 4.78958 14.3095 4.82049 14.389 4.85338C14.4684 4.88627 14.547 4.9211 14.6248 4.95787C14.7025 4.99462 14.7793 5.03325 14.8552 5.07377C14.9311 5.11429 15.0059 5.15665 15.0797 5.20084C15.1534 5.24506 15.2261 5.29105 15.2976 5.33881C15.3691 5.38657 15.4394 5.43606 15.5085 5.48728C15.5775 5.53848 15.6454 5.59136 15.7119 5.64592C15.7784 5.70047 15.8434 5.75662 15.9072 5.81435C15.9709 5.87209 16.0332 5.93136 16.094 5.99217C16.1549 6.05297 16.2141 6.11524 16.2719 6.17896C16.3297 6.24266 16.3858 6.30775 16.4404 6.37424C16.495 6.44072 16.5479 6.50849 16.5991 6.57756C16.6504 6.64662 16.6999 6.71691 16.7477 6.78842C16.7955 6.85993 16.8415 6.93256 16.8857 7.00631C16.9299 7.08008 16.9723 7.15489 17.0129 7.23072C17.0534 7.30656 17.0921 7.38335 17.1289 7.46111C17.1656 7.53885 17.2005 7.61744 17.2334 7.69689C17.2663 7.77635 17.2973 7.85655 17.3263 7.93752C17.3552 8.01851 17.3822 8.10015 17.4072 8.18244C17.4322 8.26473 17.4551 8.3476 17.476 8.43103C17.4969 8.51443 17.5157 8.59834 17.5325 8.68267C17.5493 8.76701 17.564 8.85174 17.5766 8.93682C17.5892 9.02189 17.5998 9.10721 17.6082 9.19279C17.6166 9.27838 17.623 9.36416 17.6272 9.45006C17.6314 9.53596 17.6335 9.62189 17.6335 9.70791C17.6335 9.79389 17.6314 9.87986 17.6272 9.96576C17.623 10.0517 17.6166 10.1374 17.6082 10.223C17.5998 10.3086 17.5892 10.3939 17.5766 10.479C17.564 10.564 17.5493 10.6488 17.5325 10.7331C17.5157 10.8174 17.4969 10.9013 17.476 10.9848C17.4551 11.0682 17.4322 11.151 17.4072 11.2333C17.3822 11.3156 17.3552 11.3973 17.3263 11.4783C17.2973 11.5592 17.2663 11.6394 17.2334 11.7189C17.2005 11.7983 17.1656 11.8769 17.1289 11.9547C17.0921 12.0324 17.0534 12.1092 17.0129 12.1851C16.9723 12.2609 16.9299 12.3357 16.8857 12.4095C16.8415 12.4833 16.7955 12.5559 16.7477 12.6274C16.6999 12.6989 16.6504 12.7692 16.5991 12.8382C16.5479 12.9073 16.495 12.9751 16.4404 13.0415C16.3858 13.108 16.3297 13.1731 16.2719 13.2369C16.2141 13.3006 16.1549 13.3628 16.094 13.4236C16.0332 13.4844 15.9709 13.5437 15.9072 13.6014C15.8434 13.6592 15.7784 13.7153 15.7119 13.7699C15.6454 13.8244 15.5775 13.8773 15.5085 13.9285C15.4394 13.9797 15.3691 14.0292 15.2976 14.077C15.2261 14.1247 15.1534 14.1708 15.0797 14.2149C15.0059 14.2591 14.9311 14.3015 14.8552 14.342C14.7793 14.3825 14.7025 14.4212 14.6248 14.4579C14.547 14.4947 14.4684 14.5295 14.389 14.5624C14.3095 14.5953 14.2292 14.6262 14.1483 14.6552C14.0673 14.6841 13.9856 14.711 13.9033 14.736C13.821 14.761 13.7381 14.7838 13.6547 14.8047C13.5713 14.8256 13.4874 14.8444 13.4031 14.8612C13.3187 14.8779 13.234 14.8926 13.1489 14.9052C13.0638 14.9178 12.9785 14.9283 12.8929 14.9367C12.8073 14.9451 12.7215 14.9514 12.6357 14.9556C12.5497 14.9597 12.4638 14.9619 12.3778 14.9618L12.3818 14.9718Z"   fill="#660874" >
</path>
<path d="M12.3218 17.0198C12.2989 17.0198 12.276 17.0192 12.2531 17.0181C12.2302 17.017 12.2074 17.0153 12.1846 17.0131C12.1618 17.0108 12.139 17.008 12.1164 17.0047C12.0937 17.0013 12.0711 16.9974 12.0487 16.9929C12.0262 16.9884 12.0039 16.9834 11.9816 16.9779C11.9594 16.9723 11.9373 16.9662 11.9154 16.9595C11.8935 16.9529 11.8717 16.9457 11.8502 16.938C11.8286 16.9302 11.8072 16.922 11.7861 16.9132C11.7649 16.9045 11.7439 16.8952 11.7232 16.8854C11.7025 16.8756 11.682 16.8653 11.6618 16.8545C11.6416 16.8437 11.6217 16.8324 11.6021 16.8206C11.5824 16.8088 11.5631 16.7966 11.544 16.7839C11.525 16.7711 11.5062 16.7579 11.4878 16.7443C11.4694 16.7307 11.4514 16.7166 11.4337 16.702C11.4159 16.6875 11.3986 16.6725 11.3816 16.6571C11.3647 16.6418 11.3481 16.626 11.3319 16.6098C11.3156 16.5936 11.2999 16.577 11.2845 16.56C11.2691 16.543 11.2541 16.5257 11.2396 16.508C11.225 16.4902 11.2109 16.4722 11.1973 16.4538C11.1837 16.4354 11.1705 16.4167 11.1577 16.3976C11.145 16.3786 11.1328 16.3592 11.121 16.3395C11.1092 16.3199 11.0979 16.3 11.0871 16.2798C11.0763 16.2596 11.066 16.2391 11.0562 16.2184C11.0464 16.1977 11.0371 16.1767 11.0284 16.1556C11.0196 16.1344 11.0114 16.113 11.0036 16.0915C10.9959 16.0699 10.9887 16.0481 10.9821 16.0262C10.9754 16.0043 10.9693 15.9822 10.9637 15.96C10.9582 15.9378 10.9532 15.9154 10.9487 15.8929C10.9442 15.8705 10.9403 15.8479 10.937 15.8252C10.9336 15.8026 10.9308 15.7799 10.9286 15.757C10.9263 15.7343 10.9246 15.7114 10.9235 15.6885C10.9224 15.6656 10.9218 15.6427 10.9218 15.6198L10.9218 13.8199C10.9198 13.7958 10.9184 13.7717 10.9176 13.7475C10.9168 13.7234 10.9166 13.6993 10.9171 13.6752C10.9175 13.651 10.9186 13.6269 10.9203 13.6028C10.922 13.5787 10.9243 13.5547 10.9273 13.5308C10.9302 13.5068 10.9338 13.4829 10.938 13.4591C10.9422 13.4353 10.947 13.4117 10.9523 13.3882C10.9578 13.3646 10.9638 13.3412 10.9704 13.318C10.977 13.2948 10.9842 13.2718 10.992 13.2489C10.9998 13.2261 11.0082 13.2034 11.0172 13.181C11.0262 13.1586 11.0357 13.1364 11.0459 13.1145C11.056 13.0926 11.0667 13.071 11.0779 13.0496C11.0892 13.0282 11.101 13.0072 11.1133 12.9864C11.1256 12.9657 11.1385 12.9452 11.1519 12.9251C11.1653 12.905 11.1792 12.8853 11.1936 12.8659C11.208 12.8466 11.2229 12.8276 11.2383 12.809C11.2537 12.7904 11.2696 12.7722 11.2859 12.7544C11.3023 12.7366 11.319 12.7193 11.3362 12.7024C11.3535 12.6855 11.3712 12.669 11.3893 12.653C11.4073 12.637 11.4258 12.6215 11.4447 12.6065C11.4636 12.5914 11.4829 12.5769 11.5025 12.5628C11.5221 12.5488 11.5421 12.5353 11.5625 12.5223C11.5828 12.5093 11.6035 12.4968 11.6244 12.4848C11.6454 12.4729 11.6667 12.4615 11.6883 12.4507C11.7099 12.4398 11.7317 12.4295 11.7538 12.4199C11.7759 12.4101 11.7983 12.401 11.8209 12.3924C11.8434 12.3839 11.8662 12.3759 11.8892 12.3686C11.9122 12.3612 11.9354 12.3544 11.9587 12.3482C11.982 12.342 12.0055 12.3365 12.0292 12.3315C12.0528 12.3266 12.0765 12.3222 12.1004 12.3185C12.1242 12.3148 12.1482 12.3117 12.1722 12.3092C12.1962 12.3067 12.2203 12.3048 12.2444 12.3035C12.2685 12.3023 12.2927 12.3017 12.3168 12.3017C12.3409 12.3017 12.3651 12.3023 12.3892 12.3035C12.4133 12.3048 12.4374 12.3067 12.4614 12.3092C12.4854 12.3117 12.5093 12.3148 12.5332 12.3185C12.557 12.3222 12.5808 12.3266 12.6044 12.3315C12.628 12.3365 12.6515 12.342 12.6749 12.3482C12.6982 12.3544 12.7214 12.3612 12.7444 12.3686C12.7674 12.3759 12.7902 12.3839 12.8127 12.3924C12.8353 12.401 12.8577 12.4101 12.8798 12.4199C12.9019 12.4295 12.9237 12.4398 12.9453 12.4507C12.9669 12.4615 12.9881 12.4729 13.0091 12.4848C13.0301 12.4968 13.0508 12.5093 13.0711 12.5223C13.0914 12.5353 13.1114 12.5488 13.1311 12.5628C13.1507 12.5769 13.17 12.5914 13.1889 12.6065C13.2078 12.6215 13.2263 12.637 13.2443 12.653C13.2624 12.669 13.2801 12.6855 13.2973 12.7024C13.3145 12.7193 13.3313 12.7366 13.3477 12.7544C13.364 12.7722 13.3799 12.7904 13.3953 12.809C13.4107 12.8276 13.4256 12.8466 13.44 12.8659C13.4544 12.8853 13.4683 12.905 13.4817 12.9251C13.4951 12.9452 13.508 12.9657 13.5203 12.9864C13.5326 13.0072 13.5444 13.0282 13.5557 13.0496C13.5669 13.071 13.5776 13.0926 13.5877 13.1145C13.5978 13.1364 13.6074 13.1586 13.6164 13.181C13.6253 13.2034 13.6337 13.2261 13.6416 13.2489C13.6493 13.2718 13.6565 13.2948 13.6632 13.318C13.6698 13.3412 13.6758 13.3646 13.6812 13.3882C13.6866 13.4117 13.6914 13.4353 13.6956 13.4591C13.6998 13.4829 13.7033 13.5068 13.7063 13.5308C13.7092 13.5547 13.7116 13.5787 13.7133 13.6028C13.715 13.6269 13.7161 13.651 13.7165 13.6752C13.717 13.6993 13.7168 13.7234 13.716 13.7475C13.7152 13.7717 13.7138 13.7958 13.7118 13.8199L13.7118 15.6198C13.7118 15.6426 13.7112 15.6654 13.7101 15.6882C13.709 15.711 13.7073 15.7337 13.7051 15.7564C13.7029 15.7791 13.7001 15.8018 13.6968 15.8243C13.6934 15.8469 13.6895 15.8694 13.6851 15.8917C13.6807 15.9141 13.6757 15.9364 13.6702 15.9585C13.6647 15.9806 13.6586 16.0026 13.652 16.0244C13.6454 16.0463 13.6383 16.0679 13.6307 16.0894C13.623 16.1109 13.6148 16.1322 13.6062 16.1533C13.5975 16.1743 13.5883 16.1952 13.5786 16.2159C13.5688 16.2365 13.5586 16.2569 13.5479 16.277C13.5372 16.2972 13.526 16.317 13.5144 16.3366C13.5027 16.3562 13.4905 16.3755 13.4779 16.3945C13.4653 16.4135 13.4522 16.4322 13.4387 16.4506C13.4252 16.4689 13.4112 16.4869 13.3968 16.5046C13.3824 16.5223 13.3675 16.5396 13.3523 16.5565C13.337 16.5735 13.3213 16.59 13.3053 16.6062C13.2892 16.6224 13.2727 16.6382 13.2559 16.6536C13.239 16.669 13.2218 16.6839 13.2043 16.6985C13.1867 16.713 13.1688 16.7271 13.1505 16.7408C13.1323 16.7544 13.1137 16.7676 13.0948 16.7804C13.0759 16.7932 13.0567 16.8054 13.0371 16.8173C13.0176 16.8291 12.9979 16.8404 12.9778 16.8513C12.9577 16.8621 12.9374 16.8725 12.9169 16.8823C12.8963 16.8922 12.8755 16.9015 12.8545 16.9104C12.8334 16.9192 12.8122 16.9275 12.7908 16.9354C12.7693 16.9431 12.7477 16.9504 12.726 16.9572C12.7042 16.9639 12.6822 16.9701 12.6602 16.9758C12.638 16.9815 12.6158 16.9866 12.5935 16.9912C12.5712 16.9958 12.5487 16.9999 12.5262 17.0033C12.5036 17.0068 12.481 17.0098 12.4584 17.0122C12.4356 17.0145 12.4129 17.0163 12.3902 17.0176C12.3674 17.0189 12.3446 17.0196 12.3218 17.0198Z"   fill="#660874" >
</path>
<path d="M12.3218 20.7617C12.2989 20.7617 12.276 20.7612 12.2531 20.76C12.2302 20.7589 12.2074 20.7572 12.1846 20.755C12.1618 20.7527 12.139 20.7499 12.1164 20.7466C12.0937 20.7432 12.0711 20.7393 12.0487 20.7348C12.0262 20.7304 12.0039 20.7253 11.9816 20.7198C11.9594 20.7142 11.9373 20.7081 11.9154 20.7014C11.8935 20.6948 11.8717 20.6876 11.8502 20.6799C11.8286 20.6722 11.8072 20.6639 11.7861 20.6552C11.7649 20.6464 11.7439 20.6371 11.7232 20.6273C11.7025 20.6175 11.682 20.6072 11.6618 20.5964C11.6416 20.5856 11.6217 20.5743 11.6021 20.5625C11.5824 20.5508 11.5631 20.5385 11.544 20.5258C11.525 20.513 11.5062 20.4999 11.4878 20.4862C11.4694 20.4726 11.4514 20.4585 11.4337 20.4439C11.4159 20.4294 11.3986 20.4145 11.3816 20.3991C11.3647 20.3837 11.3481 20.3679 11.3319 20.3517C11.3156 20.3355 11.2999 20.3189 11.2845 20.3019C11.2691 20.2849 11.2541 20.2676 11.2396 20.2499C11.225 20.2322 11.2109 20.2141 11.1973 20.1957C11.1837 20.1773 11.1705 20.1586 11.1577 20.1395C11.145 20.1205 11.1328 20.1011 11.121 20.0815C11.1092 20.0618 11.0979 20.0419 11.0871 20.0217C11.0763 20.0015 11.066 19.981 11.0562 19.9603C11.0464 19.9396 11.0371 19.9187 11.0284 19.8975C11.0196 19.8763 11.0114 19.855 11.0036 19.8334C10.9959 19.8118 10.9887 19.7901 10.9821 19.7681C10.9754 19.7462 10.9693 19.7241 10.9637 19.7019C10.9582 19.6797 10.9532 19.6574 10.9487 19.6349C10.9442 19.6124 10.9403 19.5898 10.937 19.5672C10.9336 19.5445 10.9308 19.5218 10.9286 19.499C10.9263 19.4762 10.9246 19.4533 10.9235 19.4304C10.9224 19.4076 10.9218 19.3847 10.9218 19.3618L10.9218 18.9278C10.9198 18.9037 10.9184 18.8796 10.9176 18.8555C10.9168 18.8313 10.9166 18.8072 10.9171 18.783C10.9175 18.7589 10.9186 18.7348 10.9203 18.7107C10.922 18.6866 10.9243 18.6626 10.9273 18.6386C10.9302 18.6147 10.9338 18.5908 10.938 18.567C10.9422 18.5433 10.947 18.5196 10.9523 18.4961C10.9578 18.4725 10.9638 18.4491 10.9704 18.4259C10.977 18.4027 10.9842 18.3797 10.992 18.3568C10.9998 18.334 11.0082 18.3113 11.0172 18.2889C11.0262 18.2665 11.0357 18.2443 11.0459 18.2224C11.056 18.2005 11.0667 18.1789 11.0779 18.1575C11.0892 18.1361 11.101 18.1151 11.1133 18.0943C11.1256 18.0736 11.1385 18.0531 11.1519 18.033C11.1653 18.013 11.1792 17.9932 11.1936 17.9739C11.208 17.9545 11.2229 17.9355 11.2383 17.9169C11.2537 17.8983 11.2696 17.8801 11.2859 17.8623C11.3023 17.8446 11.319 17.8272 11.3362 17.8103C11.3535 17.7934 11.3712 17.7769 11.3893 17.7609C11.4073 17.7449 11.4258 17.7294 11.4447 17.7144C11.4636 17.6993 11.4829 17.6848 11.5025 17.6707C11.5221 17.6567 11.5421 17.6432 11.5625 17.6302C11.5828 17.6172 11.6035 17.6047 11.6244 17.5927C11.6454 17.5808 11.6667 17.5694 11.6883 17.5586C11.7099 17.5477 11.7317 17.5374 11.7538 17.5277C11.7759 17.518 11.7983 17.5089 11.8209 17.5004C11.8434 17.4918 11.8662 17.4838 11.8892 17.4764C11.9122 17.4691 11.9354 17.4623 11.9587 17.4561C11.982 17.45 12.0055 17.4444 12.0292 17.4394C12.0528 17.4345 12.0765 17.4301 12.1004 17.4264C12.1242 17.4227 12.1482 17.4195 12.1722 17.4171C12.1962 17.4146 12.2203 17.4127 12.2444 17.4114C12.2685 17.4102 12.2927 17.4096 12.3168 17.4096C12.3409 17.4096 12.3651 17.4102 12.3892 17.4114C12.4133 17.4127 12.4374 17.4146 12.4614 17.4171C12.4854 17.4195 12.5093 17.4227 12.5332 17.4264C12.557 17.4301 12.5808 17.4345 12.6044 17.4394C12.628 17.4444 12.6515 17.45 12.6749 17.4561C12.6982 17.4623 12.7214 17.4691 12.7444 17.4764C12.7674 17.4838 12.7902 17.4918 12.8127 17.5004C12.8353 17.5089 12.8577 17.518 12.8798 17.5277C12.9019 17.5374 12.9237 17.5477 12.9453 17.5586C12.9669 17.5694 12.9881 17.5808 13.0091 17.5927C13.0301 17.6047 13.0508 17.6172 13.0711 17.6302C13.0914 17.6432 13.1114 17.6567 13.1311 17.6707C13.1507 17.6848 13.17 17.6993 13.1889 17.7144C13.2078 17.7294 13.2263 17.7449 13.2443 17.7609C13.2624 17.7769 13.2801 17.7934 13.2973 17.8103C13.3145 17.8272 13.3313 17.8446 13.3477 17.8623C13.364 17.8801 13.3799 17.8983 13.3953 17.9169C13.4107 17.9355 13.4256 17.9545 13.44 17.9739C13.4544 17.9932 13.4683 18.013 13.4817 18.033C13.4951 18.0531 13.508 18.0736 13.5203 18.0943C13.5326 18.1151 13.5444 18.1361 13.5557 18.1575C13.5669 18.1789 13.5776 18.2005 13.5877 18.2224C13.5978 18.2443 13.6074 18.2665 13.6164 18.2889C13.6253 18.3113 13.6337 18.334 13.6416 18.3568C13.6493 18.3797 13.6565 18.4027 13.6632 18.4259C13.6698 18.4491 13.6758 18.4725 13.6812 18.4961C13.6866 18.5196 13.6914 18.5433 13.6956 18.567C13.6998 18.5908 13.7033 18.6147 13.7063 18.6386C13.7092 18.6626 13.7116 18.6866 13.7133 18.7107C13.715 18.7348 13.7161 18.7589 13.7165 18.783C13.717 18.8072 13.7168 18.8313 13.716 18.8555C13.7152 18.8796 13.7138 18.9037 13.7118 18.9278L13.7118 19.3618C13.7118 19.3846 13.7112 19.4074 13.7101 19.4301C13.709 19.4529 13.7073 19.4757 13.7051 19.4984C13.7029 19.521 13.7001 19.5437 13.6968 19.5662C13.6934 19.5888 13.6895 19.6113 13.6851 19.6336C13.6807 19.656 13.6757 19.6783 13.6702 19.7004C13.6647 19.7225 13.6586 19.7445 13.652 19.7664C13.6454 19.7882 13.6383 19.8098 13.6307 19.8313C13.623 19.8528 13.6148 19.8741 13.6062 19.8952C13.5975 19.9163 13.5883 19.9371 13.5786 19.9578C13.5688 19.9784 13.5586 19.9988 13.5479 20.0189C13.5372 20.0391 13.526 20.0589 13.5144 20.0786C13.5027 20.0981 13.4905 20.1174 13.4779 20.1364C13.4653 20.1554 13.4522 20.1741 13.4387 20.1925C13.4252 20.2108 13.4112 20.2288 13.3968 20.2465C13.3824 20.2642 13.3675 20.2815 13.3523 20.2985C13.337 20.3154 13.3213 20.332 13.3053 20.3482C13.2892 20.3643 13.2727 20.3801 13.2559 20.3955C13.239 20.4109 13.2218 20.4259 13.2043 20.4404C13.1867 20.4549 13.1688 20.469 13.1505 20.4827C13.1323 20.4964 13.1137 20.5096 13.0948 20.5223C13.0759 20.5351 13.0567 20.5474 13.0371 20.5592C13.0176 20.571 12.9979 20.5823 12.9778 20.5932C12.9577 20.604 12.9374 20.6144 12.9169 20.6243C12.8963 20.6341 12.8755 20.6435 12.8545 20.6523C12.8334 20.6611 12.8122 20.6695 12.7908 20.6773C12.7693 20.6851 12.7477 20.6924 12.726 20.6991C12.7042 20.7058 12.6822 20.7121 12.6602 20.7177C12.638 20.7234 12.6158 20.7285 12.5935 20.7331C12.5712 20.7377 12.5487 20.7417 12.5262 20.7452C12.5036 20.7487 12.481 20.7517 12.4584 20.7541C12.4356 20.7565 12.4129 20.7583 12.3902 20.7596C12.3674 20.7608 12.3446 20.7616 12.3218 20.7617Z"   fill="#660874" >
</path>
</g>
<defs>
<clipPath id="clip-path-SHXCbOPxevI5q1gfVgGsp">
<path d="M0 40L40 40L40 0L0 0L0 40Z" fill="white"/>
</clipPath>
</defs>
</svg>
