<svg xmlns="http://www.w3.org/2000/svg" xmlns:xlink="http://www.w3.org/1999/xlink" width="38" height="40" viewBox="0 0 38 40" fill="none">
<path d="M3.18927 36.9231L15.9463 36.9231C16.8233 36.9231 17.5409 37.6 17.5409 38.4615C17.5409 39.3076 16.8233 40 15.9463 40L1.59466 40C0.717582 40 0 39.3076 0 38.4615L0 1.53846C0 0.67692 0.717582 0 1.59466 0L26.0403 0C26.2635 0 26.4549 0.0307663 26.6462 0.107691C26.7419 0.138461 26.8376 0.184615 26.9173 0.246152C27.013 0.292306 27.0927 0.369231 27.1724 0.430768L34.6034 7.49229C34.9064 7.78458 35.0818 8.1846 35.0818 8.58461L35.0818 17.6923C35.0818 18.5384 34.3643 19.2307 33.4872 19.2307C32.6101 19.2307 31.8926 18.5384 31.8926 17.6923L31.8926 12.3077L25.5141 12.3077C23.76 12.3077 22.3248 10.923 22.3248 9.23077L22.3248 3.07691L3.18927 3.07691L3.18927 36.9231ZM25.5141 9.23077L31.8766 9.23077L25.5141 3.18463L25.5141 9.23077ZM7.97315 15.3846L17.5409 15.3846C18.4179 15.3846 19.1355 14.6923 19.1355 13.8461C19.1355 12.9846 18.4179 12.3077 17.5409 12.3077L7.97315 12.3077C7.09612 12.3077 6.37854 12.9846 6.37854 13.8461C6.37854 14.6923 7.09612 15.3846 7.97315 15.3846ZM7.97315 23.0769L25.5141 23.0769C26.3911 23.0769 27.1087 22.3846 27.1087 21.5384C27.1087 20.6769 26.3911 20 25.5141 20L7.97315 20C7.09612 20 6.37854 20.6769 6.37854 21.5384C6.37854 22.3846 7.09612 23.0769 7.97315 23.0769ZM20.475 40L24.5732 40L38 27.0307L33.9018 23.0769L20.475 36.0307L20.475 40ZM17.5409 27.6923L7.97315 27.6923C7.09612 27.6923 6.37854 28.3692 6.37854 29.2307C6.37854 30.0769 7.09612 30.7692 7.97315 30.7692L17.5409 30.7692C18.4179 30.7692 19.1355 30.0769 19.1355 29.2307C19.1355 28.3692 18.4179 27.6923 17.5409 27.6923Z"   fill="#660874" >
</path>
</svg>
