<svg xmlns="http://www.w3.org/2000/svg" xmlns:xlink="http://www.w3.org/1999/xlink" width="40" height="40" viewBox="0 0 40 40" fill="none">
<path d="M29.9919 1.42462C30.0328 1.42462 30.0737 1.42563 30.1145 1.42763C30.1553 1.42964 30.1961 1.43265 30.2369 1.43666C30.2776 1.44067 30.3182 1.44567 30.3586 1.45167C30.3991 1.45767 30.4394 1.46467 30.4795 1.47265C30.5196 1.48063 30.5595 1.48959 30.5992 1.49952C30.6388 1.50946 30.6782 1.52037 30.7174 1.53224C30.7565 1.54411 30.7953 1.55694 30.8339 1.57072C30.8724 1.5845 30.9105 1.59922 30.9483 1.61487C30.9861 1.63053 31.0235 1.6471 31.0605 1.66459C31.0975 1.68207 31.134 1.70046 31.17 1.71974C31.2061 1.73902 31.2417 1.75918 31.2768 1.7802C31.3119 1.80123 31.3464 1.82311 31.3804 1.84584C31.4144 1.86856 31.4479 1.89211 31.4807 1.91647C31.5136 1.94084 31.5458 1.96599 31.5774 1.99194C31.6091 2.01789 31.64 2.0446 31.6703 2.07207C31.7006 2.09954 31.7302 2.12773 31.7592 2.15666C31.7881 2.18558 31.8163 2.2152 31.8437 2.2455C31.8712 2.27581 31.8979 2.30677 31.9239 2.33839C31.9498 2.37001 31.975 2.40225 31.9994 2.4351C32.0237 2.46796 32.0473 2.50139 32.07 2.53539C32.0927 2.56941 32.1146 2.60395 32.1356 2.63904C32.1566 2.67412 32.1768 2.7097 32.1961 2.74577C32.2153 2.78185 32.2337 2.81837 32.2512 2.85535C32.2687 2.89232 32.2853 2.92971 32.3009 2.9675C32.3166 3.00529 32.3313 3.04344 32.3451 3.08195C32.3589 3.12046 32.3717 3.15929 32.3836 3.19843C32.3955 3.23757 32.4064 3.27698 32.4163 3.31666C32.4262 3.35634 32.4352 3.39623 32.4432 3.43635C32.4512 3.47647 32.4582 3.51676 32.4641 3.55722C32.4701 3.59768 32.4752 3.63826 32.4792 3.67897C32.4832 3.71968 32.4862 3.76045 32.4882 3.80131C32.4902 3.84216 32.4912 3.88304 32.4912 3.92395L32.4912 6.42329L37.4898 6.42329C37.5277 6.42329 37.5655 6.42415 37.6033 6.42587C37.6411 6.42759 37.6789 6.43017 37.7166 6.43361C37.7542 6.43704 37.7919 6.44134 37.8293 6.4465C37.8668 6.45161 37.9042 6.45763 37.9414 6.46446C37.9786 6.4713 38.0157 6.479 38.0526 6.48751C38.0894 6.49607 38.1261 6.5054 38.1625 6.5156C38.199 6.52579 38.2352 6.53681 38.2711 6.54864C38.3071 6.56048 38.3427 6.5731 38.3781 6.58657C38.4135 6.60001 38.4485 6.61427 38.4833 6.62931C38.518 6.64435 38.5523 6.66021 38.5864 6.67681C38.6204 6.69341 38.654 6.71079 38.6872 6.72892C38.7204 6.74704 38.7532 6.76591 38.7855 6.78556C38.8179 6.80521 38.8498 6.82556 38.8812 6.84661C38.9127 6.86767 38.9436 6.88946 38.9741 6.91193C39.0045 6.93439 39.0344 6.95755 39.0637 6.98142C39.093 7.00525 39.1219 7.02974 39.1504 7.05489C39.1785 7.08005 39.2062 7.10583 39.2336 7.13224C39.2605 7.15864 39.2871 7.18564 39.3129 7.21325C39.3387 7.24087 39.3641 7.26903 39.3887 7.29778C39.4133 7.32657 39.4371 7.35587 39.4605 7.38571C39.4836 7.41556 39.5062 7.44591 39.5281 7.47677C39.55 7.50763 39.5711 7.539 39.5918 7.57083C39.6121 7.60267 39.6316 7.63493 39.6508 7.66767C39.6699 7.7004 39.6883 7.73353 39.7059 7.76708C39.7234 7.80064 39.7398 7.83458 39.7559 7.86892C39.7719 7.90321 39.7871 7.93786 39.8016 7.9729C39.816 8.0079 39.8293 8.04321 39.8422 8.07884C39.8551 8.11446 39.8668 8.15036 39.8781 8.18653C39.8891 8.22267 39.8992 8.25907 39.909 8.29571C39.9184 8.33236 39.9269 8.36919 39.9348 8.40622C39.9426 8.44325 39.9496 8.48044 39.9559 8.51778C39.9621 8.55513 39.9676 8.59259 39.9719 8.63017L39.9891 8.92259L39.9891 28.9172C39.9891 28.9581 39.9883 28.999 39.9863 29.0398C39.9844 29.0807 39.9812 29.1215 39.9769 29.1622C39.973 29.2029 39.968 29.2434 39.9621 29.2839C39.9562 29.3244 39.9492 29.3647 39.941 29.4048C39.9332 29.4449 39.9242 29.4848 39.9144 29.5245C39.9043 29.5641 39.8934 29.6036 39.8816 29.6427C39.8695 29.6818 39.8566 29.7207 39.843 29.7592C39.8293 29.7977 39.8144 29.8359 39.7988 29.8736C39.7832 29.9114 39.7668 29.9488 39.7492 29.9858C39.7316 30.0228 39.7133 30.0593 39.6941 30.0954C39.675 30.1314 39.6547 30.167 39.6336 30.2021C39.6125 30.2372 39.5906 30.2717 39.568 30.3057C39.5453 30.3397 39.5219 30.3732 39.4973 30.406C39.473 30.4389 39.448 30.4711 39.4219 30.5027C39.3957 30.5343 39.3691 30.5653 39.3418 30.5956C39.3141 30.6259 39.2859 30.6556 39.257 30.6845C39.2281 30.7134 39.1984 30.7416 39.1684 30.7691C39.1379 30.7965 39.107 30.8232 39.0754 30.8492C39.0438 30.8751 39.0116 30.9003 38.9787 30.9247C38.9459 30.949 38.9124 30.9726 38.8784 30.9953C38.8444 31.018 38.8098 31.0399 38.7748 31.0609C38.7397 31.082 38.7041 31.1021 38.668 31.1214C38.6319 31.1407 38.5954 31.1591 38.5584 31.1765C38.5214 31.194 38.4841 31.2106 38.4463 31.2263C38.4085 31.2419 38.3703 31.2566 38.3318 31.2704C38.2933 31.2842 38.2545 31.297 38.2153 31.3089C38.1762 31.3207 38.1368 31.3316 38.0971 31.3416C38.0575 31.3515 38.0176 31.3605 37.9775 31.3685C37.9373 31.3765 37.897 31.3834 37.8566 31.3895C37.8161 31.3954 37.7755 31.4004 37.7348 31.4045C37.6941 31.4085 37.6534 31.4115 37.6125 31.4135C37.5716 31.4155 37.5307 31.4165 37.4898 31.4165L35.2405 31.4165C35.2364 31.4165 35.2323 31.4166 35.2282 31.4168C35.2241 31.417 35.22 31.4173 35.216 31.4177C35.2119 31.4181 35.2078 31.4186 35.2038 31.4192C35.1998 31.4198 35.1957 31.4205 35.1917 31.4213C35.1877 31.4221 35.1837 31.423 35.1797 31.424C35.1758 31.425 35.1718 31.4261 35.1679 31.4273C35.164 31.4284 35.1601 31.4297 35.1562 31.4311C35.1524 31.4325 35.1486 31.434 35.1448 31.4355C35.141 31.4371 35.1373 31.4388 35.1336 31.4405C35.1299 31.4423 35.1262 31.4441 35.1227 31.446C35.119 31.4479 35.1155 31.45 35.1119 31.4521C35.1085 31.4541 35.105 31.4563 35.1016 31.4586C35.0982 31.4609 35.0949 31.4632 35.0916 31.4657C35.0883 31.4681 35.0851 31.4706 35.0819 31.4732C35.0787 31.4758 35.0756 31.4785 35.0726 31.4813C35.0696 31.484 35.0666 31.4868 35.0637 31.4897C35.0609 31.4926 35.058 31.4956 35.0553 31.4986C35.0525 31.5016 35.0499 31.5047 35.0473 31.5079C35.0446 31.5111 35.0421 31.5143 35.0397 31.5175C35.0373 31.5208 35.0349 31.5242 35.0326 31.5276C35.0304 31.531 35.0282 31.5345 35.0261 31.5379C35.024 31.5415 35.0219 31.545 35.02 31.5486C35.0181 31.5522 35.0163 31.5559 35.0145 31.5596C35.0128 31.5633 35.0111 31.567 35.0096 31.5708C35.008 31.5746 35.0065 31.5784 35.0051 31.5822C35.0038 31.5861 35.0025 31.59 35.0013 31.5939C35.0001 31.5978 34.999 31.6017 34.998 31.6057C34.997 31.6097 34.9961 31.6136 34.9953 31.6177C34.9945 31.6217 34.9938 31.6257 34.9932 31.6298C34.9926 31.6338 34.9921 31.6379 34.9917 31.642C34.9913 31.646 34.991 31.6501 34.9908 31.6542C34.9906 31.6583 34.9905 31.6624 34.9905 31.6665L34.9905 38.9995C34.9905 39.0117 34.9903 39.024 34.9899 39.0363C34.9894 39.0485 34.9888 39.0608 34.9879 39.0731C34.987 39.0853 34.9859 39.0975 34.9845 39.1098C34.9832 39.122 34.9816 39.1341 34.9798 39.1461C34.978 39.1583 34.976 39.1704 34.9737 39.1824C34.9715 39.1947 34.9691 39.2068 34.9664 39.2188C34.9637 39.2307 34.9608 39.2426 34.9577 39.2543C34.9546 39.2663 34.9512 39.2781 34.9477 39.2898C34.9441 39.3016 34.9403 39.3133 34.9364 39.325C34.9324 39.3365 34.9282 39.3479 34.9237 39.3594C34.9193 39.3708 34.9147 39.3823 34.9099 39.3938C34.9051 39.405 34.9 39.4161 34.8948 39.4273C34.8895 39.4383 34.8841 39.4492 34.8784 39.4602C34.8728 39.4711 34.8669 39.4819 34.8609 39.4926C34.8548 39.5032 34.8486 39.5138 34.8422 39.5242C34.8357 39.5347 34.8291 39.545 34.8223 39.5555C34.8155 39.5656 34.8085 39.5757 34.8013 39.5856C34.7941 39.5954 34.7867 39.6052 34.7792 39.6148C34.7716 39.6247 34.7639 39.6344 34.756 39.6438C34.7481 39.6531 34.74 39.6624 34.7318 39.6715C34.7235 39.6806 34.7151 39.6895 34.7066 39.6981C34.698 39.7069 34.6893 39.7156 34.6804 39.7242C34.6715 39.7325 34.6625 39.7407 34.6533 39.7488C34.6441 39.7572 34.6347 39.7652 34.6252 39.7731C34.6157 39.7806 34.6061 39.7882 34.5964 39.7957C34.5866 39.8032 34.5767 39.8106 34.5666 39.8176C34.5566 39.8246 34.5464 39.8315 34.5362 39.8383C34.5259 39.8448 34.5155 39.8513 34.5049 39.8578C34.4944 39.8641 34.4837 39.8702 34.473 39.8762C34.4623 39.8819 34.4514 39.8875 34.4404 39.893C34.4294 39.8987 34.4184 39.904 34.4072 39.909C34.3961 39.9142 34.3848 39.9191 34.3735 39.9238C34.3621 39.9285 34.3507 39.9329 34.3392 39.9371C34.3277 39.9415 34.3161 39.9457 34.3044 39.9496C34.2928 39.9532 34.2811 39.9569 34.2693 39.9606C34.2575 39.964 34.2457 39.9671 34.2337 39.9699C34.2218 39.9731 34.2099 39.9758 34.1978 39.9781C34.1859 39.9807 34.1738 39.9831 34.1617 39.9852C34.1496 39.9872 34.1375 39.9892 34.1253 39.991C34.1132 39.9926 34.101 39.994 34.0887 39.9953C34.0765 39.9964 34.0643 39.9973 34.052 39.9981C34.0398 39.9988 34.0275 39.9993 34.0152 39.9996C34.003 39.9999 33.9907 40 33.9784 40C33.9661 39.9997 33.9539 39.9993 33.9416 39.9988C33.9293 39.9981 33.9171 39.9972 33.9049 39.9961C33.8927 39.995 33.8804 39.9939 33.8682 39.9926C33.856 39.991 33.8439 39.9892 33.8318 39.9871C33.8196 39.9853 33.8076 39.9832 33.7955 39.9809C33.7835 39.9782 33.7715 39.9757 33.7596 39.9731C33.7476 39.9702 33.7357 39.9671 33.7239 39.9637C33.7121 39.9603 33.7003 39.9568 33.6886 39.9531C33.6769 39.9495 33.6653 39.9456 33.6537 39.9414C33.6421 39.9372 33.6307 39.9329 33.6193 39.9285C33.6079 39.9238 33.5966 39.919 33.5853 39.9141C33.5741 39.9091 33.563 39.9039 33.552 39.8984C33.5409 39.893 33.53 39.8874 33.5192 39.8816C33.5084 39.8759 33.4977 39.8699 33.487 39.8637C33.4764 39.8574 33.4659 39.8511 33.4556 39.8445C33.4452 39.838 33.435 39.8313 33.4248 39.8242C33.4147 39.8175 33.4048 39.8104 33.3949 39.8031C33.385 39.7956 33.3753 39.788 33.3657 39.7805C33.3562 39.7727 33.3467 39.7649 33.3374 39.757C33.3281 39.749 33.319 39.7407 33.31 39.7324C33.301 39.7241 33.2922 39.7155 33.2835 39.7066L25.7255 32.1488C25.6966 32.1199 25.667 32.0917 25.6367 32.0642C25.6064 32.0368 25.5754 32.01 25.5438 31.9841C25.5122 31.9581 25.48 31.933 25.4471 31.9086C25.4143 31.8842 25.3809 31.8607 25.3469 31.8379C25.3128 31.8152 25.2783 31.7934 25.2433 31.7723C25.2082 31.7513 25.1726 31.7311 25.1365 31.7118C25.1005 31.6925 25.0639 31.6741 25.027 31.6566C24.99 31.6392 24.9526 31.6226 24.9148 31.6069C24.8771 31.5913 24.8389 31.5766 24.8004 31.5628C24.7619 31.549 24.7231 31.5361 24.6839 31.5243C24.6448 31.5124 24.6054 31.5015 24.5657 31.4915C24.5261 31.4816 24.4862 31.4726 24.4461 31.4646C24.4059 31.4566 24.3657 31.4497 24.3252 31.4436C24.2848 31.4376 24.2442 31.4326 24.2035 31.4286C24.1628 31.4246 24.122 31.4215 24.0811 31.4195C24.0403 31.4175 23.9994 31.4165 23.9585 31.4165L9.9973 31.4165L12.4941 28.9172L23.9585 28.9172L24.3984 28.9372C24.4707 28.9436 24.5429 28.9515 24.6149 28.9611C24.6869 28.9706 24.7586 28.9817 24.8301 28.9944C24.9016 29.0071 24.9728 29.0213 25.0437 29.0371C25.1146 29.0528 25.1851 29.0701 25.2552 29.089C25.3253 29.1078 25.395 29.1282 25.4642 29.1501C25.5335 29.172 25.6022 29.1953 25.6704 29.2202C25.7386 29.2451 25.8063 29.2714 25.8734 29.2993C25.9404 29.3271 26.0068 29.3563 26.0727 29.3871C26.1385 29.4178 26.2036 29.4499 26.2679 29.4835C26.3323 29.517 26.396 29.552 26.4589 29.5883C26.5217 29.6247 26.5838 29.6623 26.645 29.7013C26.7062 29.7404 26.7666 29.7807 26.826 29.8224C26.8855 29.8641 26.9441 29.907 27.0017 29.9512C27.0593 29.9954 27.1159 30.0409 27.1715 30.0875C27.2271 30.1342 27.2817 30.1821 27.3352 30.2312C27.3888 30.2802 27.4412 30.3304 27.4926 30.3818L32.4912 35.3779L32.4912 31.6665C32.4912 31.6215 32.4923 31.5765 32.4945 31.5315C32.4967 31.4866 32.5 31.4418 32.5044 31.397C32.5089 31.3522 32.5144 31.3075 32.521 31.2631C32.5276 31.2186 32.5352 31.1742 32.544 31.1301C32.5528 31.0859 32.5626 31.042 32.5736 30.9984C32.5845 30.9548 32.5965 30.9115 32.6096 30.8684C32.6227 30.8253 32.6368 30.7826 32.6519 30.7402C32.6671 30.6979 32.6832 30.6559 32.7005 30.6143C32.7177 30.5728 32.7359 30.5316 32.7551 30.491C32.7744 30.4503 32.7946 30.4101 32.8158 30.3704C32.837 30.3308 32.8592 30.2916 32.8823 30.2531C32.9055 30.2145 32.9295 30.1765 32.9545 30.139C32.9795 30.1016 33.0054 30.0649 33.0322 30.0287C33.0591 29.9926 33.0867 29.9571 33.1153 29.9224C33.1438 29.8875 33.1732 29.8535 33.2034 29.8202C33.2336 29.7868 33.2646 29.7542 33.2964 29.7224C33.3283 29.6906 33.3609 29.6596 33.3942 29.6294C33.4275 29.5992 33.4616 29.5698 33.4964 29.5412C33.5311 29.5127 33.5666 29.485 33.6027 29.4582C33.6389 29.4314 33.6757 29.4055 33.713 29.3805C33.7505 29.3555 33.7885 29.3315 33.8271 29.3083C33.8657 29.2852 33.9048 29.263 33.9445 29.2418C33.9841 29.2206 34.0243 29.2004 34.065 29.1811C34.1057 29.1619 34.1468 29.1437 34.1884 29.1265C34.2299 29.1092 34.2719 29.0931 34.3143 29.0779C34.3566 29.0627 34.3993 29.0486 34.4424 29.0356C34.4855 29.0225 34.5288 29.0105 34.5725 28.9996C34.6161 28.9886 34.66 28.9788 34.7041 28.97C34.7482 28.9612 34.7926 28.9535 34.8371 28.9469C34.8816 28.9403 34.9262 28.9349 34.971 28.9304C35.0158 28.926 35.0606 28.9227 35.1055 28.9205C35.1505 28.9183 35.1955 28.9172 35.2405 28.9172L37.4898 28.9172L37.4898 8.92259L32.4912 8.92259L32.4912 23.9185C32.4912 23.9594 32.4902 24.0003 32.4882 24.0412C32.4862 24.082 32.4832 24.1228 32.4792 24.1635C32.4752 24.2042 32.4701 24.2448 32.4641 24.2853C32.4582 24.3257 32.4512 24.366 32.4432 24.4061C32.4352 24.4463 32.4262 24.4861 32.4163 24.5258C32.4064 24.5655 32.3955 24.6049 32.3836 24.6441C32.3717 24.6832 32.3589 24.722 32.3451 24.7605C32.3313 24.799 32.3166 24.8372 32.3009 24.875C32.2853 24.9127 32.2687 24.9501 32.2512 24.9871C32.2337 25.0241 32.2153 25.0606 32.1961 25.0967C32.1768 25.1328 32.1566 25.1684 32.1356 25.2034C32.1146 25.2385 32.0927 25.2731 32.07 25.3071C32.0473 25.3411 32.0237 25.3745 31.9994 25.4074C31.975 25.4402 31.9498 25.4725 31.9239 25.5041C31.8979 25.5357 31.8712 25.5667 31.8437 25.597C31.8163 25.6273 31.7881 25.6569 31.7592 25.6858C31.7302 25.7147 31.7006 25.7429 31.6703 25.7704C31.64 25.7979 31.6091 25.8246 31.5774 25.8506C31.5458 25.8765 31.5136 25.9016 31.4807 25.926C31.4479 25.9504 31.4144 25.9739 31.3804 25.9966C31.3464 26.0194 31.3119 26.0413 31.2768 26.0623C31.2417 26.0833 31.2061 26.1035 31.17 26.1227C31.134 26.142 31.0975 26.1604 31.0605 26.1779C31.0235 26.1954 30.9861 26.212 30.9483 26.2276C30.9105 26.2433 30.8724 26.258 30.8339 26.2718C30.7953 26.2856 30.7565 26.2984 30.7174 26.3102C30.6782 26.3221 30.6388 26.333 30.5992 26.3429C30.5595 26.3529 30.5196 26.3618 30.4795 26.3699C30.4394 26.3778 30.3991 26.3848 30.3586 26.3908C30.3182 26.3968 30.2776 26.4018 30.2369 26.4058C30.1961 26.4099 30.1553 26.4129 30.1145 26.4149C30.0737 26.4168 30.0328 26.4179 29.9919 26.4179L16.0307 26.4179C15.9898 26.4179 15.9489 26.4189 15.908 26.4209C15.8672 26.4229 15.8264 26.4259 15.7857 26.4299C15.745 26.434 15.7044 26.439 15.664 26.445C15.6235 26.451 15.5832 26.458 15.5431 26.466C15.503 26.474 15.4631 26.4829 15.4234 26.4929C15.3838 26.5028 15.3444 26.5137 15.3052 26.5256C15.2661 26.5375 15.2273 26.5503 15.1887 26.5641C15.1503 26.5779 15.1121 26.5926 15.0743 26.6083C15.0366 26.624 14.9992 26.6405 14.9622 26.658C14.9252 26.6755 14.8887 26.6939 14.8527 26.7132C14.8166 26.7325 14.781 26.7526 14.7459 26.7737C14.7109 26.7947 14.6763 26.8166 14.6423 26.8393C14.6083 26.862 14.5749 26.8856 14.542 26.91C14.5092 26.9343 14.477 26.9595 14.4453 26.9854C14.4137 27.0114 14.3828 27.0381 14.3525 27.0656C14.3222 27.093 14.2926 27.1212 14.2636 27.1502L6.7057 34.7081C6.69699 34.7168 6.68816 34.7253 6.67918 34.7337C6.67019 34.742 6.66105 34.7502 6.65176 34.7582C6.64246 34.7663 6.63301 34.7741 6.62344 34.7818C6.61387 34.7895 6.60414 34.797 6.5943 34.8043C6.58441 34.8116 6.57445 34.8188 6.56433 34.8257C6.55422 34.8327 6.54394 34.8394 6.53359 34.846C6.52324 34.8526 6.51273 34.859 6.50215 34.8651C6.49152 34.8713 6.48082 34.8773 6.47 34.8831C6.45918 34.8889 6.44824 34.8945 6.43719 34.8998C6.42617 34.9052 6.41504 34.9104 6.40383 34.9154C6.39262 34.9204 6.38129 34.9252 6.36988 34.9297C6.35851 34.9343 6.34703 34.9386 6.33547 34.9428C6.3239 34.9469 6.31226 34.9509 6.30058 34.9546C6.28887 34.9583 6.27711 34.9618 6.26527 34.965C6.25344 34.9683 6.24156 34.9714 6.22961 34.9742C6.21766 34.9771 6.20566 34.9797 6.19363 34.9821C6.1816 34.9845 6.16953 34.9866 6.15738 34.9886C6.14527 34.9906 6.13312 34.9923 6.12094 34.9938C6.10875 34.9953 6.09652 34.9966 6.0843 34.9976C6.07207 34.9987 6.05984 34.9995 6.04758 35.0001C6.03531 35.0007 6.02305 35.0011 6.01074 35.0013C5.99848 35.0014 5.98621 35.0013 5.97394 35.001C5.96164 35.0007 5.94937 35.0002 5.93715 34.9995C5.92488 34.9987 5.91266 34.9977 5.90043 34.9965C5.8882 34.9953 5.87601 34.9939 5.86387 34.9922C5.85172 34.9906 5.83957 34.9887 5.82746 34.9866C5.81539 34.9845 5.80332 34.9822 5.79133 34.9797C5.7793 34.9771 5.76734 34.9743 5.75543 34.9714C5.74351 34.9684 5.73168 34.9652 5.71988 34.9618C5.70809 34.9583 5.69637 34.9547 5.68473 34.9508C5.67305 34.947 5.66148 34.9429 5.64996 34.9386C5.63844 34.9344 5.62703 34.9299 5.6157 34.9252C5.60433 34.9205 5.59308 34.9156 5.58195 34.9105C5.57078 34.9054 5.55973 34.9 5.54875 34.8945C5.53777 34.889 5.52691 34.8832 5.51617 34.8773C5.50543 34.8714 5.49476 34.8653 5.48426 34.859C5.47371 34.8527 5.46328 34.8461 5.45301 34.8395C5.44273 34.8328 5.43258 34.8259 5.42254 34.8188C5.4125 34.8118 5.40258 34.8045 5.39281 34.797C5.38305 34.7896 5.37344 34.782 5.36394 34.7742C5.35445 34.7665 5.34508 34.7585 5.3359 34.7503C5.32672 34.7422 5.31766 34.7339 5.30879 34.7254C5.29992 34.717 5.29117 34.7083 5.28262 34.6995C5.27402 34.6908 5.26562 34.6818 5.25738 34.6727C5.24914 34.6636 5.24105 34.6543 5.23316 34.645C5.22527 34.6356 5.21754 34.626 5.21 34.6163C5.20246 34.6066 5.19508 34.5968 5.18789 34.5869C5.1807 34.5769 5.17371 34.5668 5.16687 34.5566C5.16004 34.5465 5.15344 34.5361 5.14699 34.5256C5.14055 34.5152 5.13434 34.5046 5.12828 34.4939C5.12223 34.4832 5.11641 34.4725 5.11074 34.4616C5.10508 34.4507 5.09965 34.4397 5.09441 34.4286C5.08914 34.4174 5.0841 34.4063 5.0793 34.395C5.07445 34.3837 5.06984 34.3723 5.06543 34.3609C5.06101 34.3494 5.05684 34.3379 5.05281 34.3263C5.04883 34.3147 5.04508 34.303 5.04152 34.2912C5.03797 34.2795 5.03461 34.2677 5.03148 34.2558C5.0284 34.2439 5.02551 34.232 5.02281 34.22C5.02012 34.208 5.01766 34.196 5.01543 34.1839C5.0132 34.1718 5.01117 34.1597 5.00937 34.1476C5.00758 34.1354 5.00601 34.1233 5.00465 34.1111C5.00332 34.0988 5.00219 34.0866 5.00129 34.0744C5.00039 34.0622 4.99973 34.0499 4.9993 34.0376C4.99887 34.0254 4.99863 34.0131 4.99863 34.0008L4.99863 26.6678C4.99863 26.6637 4.99855 26.6596 4.99836 26.6555C4.99816 26.6514 4.99785 26.6474 4.99746 26.6433C4.99703 26.6392 4.99652 26.6352 4.99594 26.6311C4.99535 26.6271 4.99465 26.6231 4.99383 26.619C4.99305 26.615 4.99215 26.611 4.99117 26.6071C4.99016 26.6031 4.98906 26.5991 4.98789 26.5952C4.98668 26.5913 4.98539 26.5875 4.98402 26.5836C4.98266 26.5797 4.98117 26.5759 4.97961 26.5722C4.97805 26.5684 4.97641 26.5647 4.97465 26.5609C4.97289 26.5572 4.97105 26.5536 4.96914 26.55C4.96723 26.5464 4.96519 26.5428 4.96309 26.5393C4.96098 26.5358 4.95879 26.5324 4.95652 26.529C4.95426 26.5256 4.95191 26.5222 4.94945 26.5189C4.94703 26.5156 4.94453 26.5124 4.94191 26.5092C4.9393 26.5061 4.93664 26.503 4.93391 26.4999C4.93113 26.4969 4.92832 26.494 4.92543 26.4911C4.92254 26.4882 4.91957 26.4854 4.91656 26.4826C4.91355 26.4799 4.91043 26.4772 4.90726 26.4746C4.9041 26.472 4.9009 26.4695 4.89762 26.467C4.8943 26.4646 4.89098 26.4623 4.88758 26.46C4.88418 26.4577 4.8807 26.4555 4.87719 26.4534C4.87371 26.4513 4.87016 26.4493 4.86652 26.4474C4.86293 26.4454 4.8593 26.4436 4.85559 26.4418C4.85187 26.4401 4.84816 26.4384 4.84437 26.4369C4.84059 26.4353 4.83676 26.4338 4.83293 26.4325C4.82906 26.4311 4.82519 26.4298 4.82125 26.4286C4.81734 26.4274 4.8134 26.4263 4.80945 26.4254C4.80547 26.4244 4.80148 26.4235 4.79746 26.4227C4.79344 26.4218 4.78941 26.4211 4.78539 26.4206C4.78137 26.42 4.7773 26.4195 4.7732 26.4191C4.76914 26.4186 4.76508 26.4184 4.76098 26.4182C4.75687 26.418 4.75281 26.4179 4.74871 26.4179L2.49932 26.4179C2.45842 26.4179 2.41754 26.4168 2.37669 26.4149C2.33583 26.4129 2.29505 26.4099 2.25435 26.4058C2.21364 26.4018 2.17306 26.3968 2.1326 26.3908C2.09214 26.3848 2.05185 26.3778 2.01173 26.3699C1.97161 26.3618 1.93171 26.3529 1.89204 26.3429C1.85236 26.333 1.81295 26.3221 1.77381 26.3102C1.73466 26.2984 1.69584 26.2856 1.65733 26.2718C1.61882 26.258 1.58066 26.2433 1.54287 26.2276C1.50508 26.212 1.4677 26.1954 1.43073 26.1779C1.39375 26.1604 1.35723 26.142 1.32115 26.1227C1.28508 26.1035 1.2495 26.0833 1.21441 26.0623C1.17933 26.0413 1.14478 26.0194 1.11077 25.9966C1.07676 25.9739 1.04333 25.9504 1.01048 25.926C0.977625 25.9016 0.94539 25.8765 0.913769 25.8506C0.882148 25.8246 0.851187 25.7979 0.820879 25.7704C0.79057 25.7429 0.760957 25.7147 0.732035 25.6858C0.703109 25.6569 0.674914 25.6273 0.647445 25.597C0.619976 25.5667 0.593269 25.5357 0.56732 25.5041C0.541371 25.4725 0.516215 25.4402 0.491848 25.4074C0.467484 25.3745 0.443937 25.3411 0.421211 25.3071C0.398488 25.2731 0.37661 25.2385 0.355582 25.2034C0.334553 25.1684 0.314398 25.1328 0.295117 25.0967C0.275835 25.0606 0.25745 25.0241 0.239962 24.9871C0.222473 24.9501 0.205903 24.9127 0.19025 24.875C0.174596 24.8372 0.15988 24.799 0.1461 24.7605C0.13232 24.722 0.119494 24.6832 0.10762 24.6441C0.0957465 24.6049 0.0848402 24.5655 0.0749016 24.5258C0.0649629 24.4861 0.0560035 24.4463 0.0480238 24.4061C0.0400441 24.366 0.0330532 24.3257 0.0270514 24.2853C0.0210496 24.2448 0.0160441 24.2042 0.0120349 24.1635C0.0080257 24.1228 0.00501758 24.082 0.00301054 24.0412C0.00100352 24.0003 1.77694e-14 23.9594 1.77694e-14 23.9185L1.77694e-14 3.92395C-4.87601e-09 3.88305 0.0010035 3.84217 0.00301053 3.80131C0.00501754 3.76046 0.00802566 3.71968 0.0120349 3.67897C0.0160441 3.63827 0.0210496 3.59768 0.0270514 3.55722C0.0330531 3.51676 0.0400441 3.47647 0.0480238 3.43635C0.0560035 3.39623 0.0649629 3.35634 0.0749016 3.31666C0.0848402 3.27698 0.0957465 3.23757 0.10762 3.19843C0.119494 3.15929 0.13232 3.12046 0.1461 3.08195C0.15988 3.04344 0.174596 3.00529 0.19025 2.9675C0.205903 2.92971 0.222473 2.89232 0.239962 2.85535C0.25745 2.81837 0.275835 2.78185 0.295117 2.74577C0.314398 2.7097 0.334553 2.67412 0.355582 2.63904C0.37661 2.60396 0.398488 2.56941 0.421211 2.5354C0.443937 2.50139 0.467484 2.46796 0.491848 2.4351C0.516215 2.40225 0.541371 2.37001 0.56732 2.33839C0.593269 2.30677 0.619976 2.27581 0.647445 2.2455C0.674914 2.2152 0.703109 2.18558 0.732035 2.15666C0.760957 2.12773 0.79057 2.09954 0.820879 2.07207C0.851187 2.0446 0.882148 2.01789 0.913769 1.99195C0.94539 1.966 0.977625 1.94084 1.01048 1.91647C1.04333 1.89211 1.07676 1.86856 1.11077 1.84584C1.14478 1.82311 1.17933 1.80124 1.21441 1.78021C1.2495 1.75918 1.28508 1.73902 1.32115 1.71974C1.35723 1.70046 1.39375 1.68207 1.43073 1.66459C1.4677 1.6471 1.50508 1.63053 1.54287 1.61488C1.58066 1.59922 1.61882 1.5845 1.65733 1.57072C1.69584 1.55694 1.73466 1.54412 1.77381 1.53224C1.81295 1.52037 1.85236 1.50946 1.89204 1.49952C1.93171 1.48959 1.97161 1.48063 2.01173 1.47265C2.05185 1.46467 2.09214 1.45768 2.1326 1.45168C2.17306 1.44567 2.21364 1.44067 2.25435 1.43666C2.29505 1.43265 2.33583 1.42964 2.37669 1.42763C2.41754 1.42563 2.45842 1.42463 2.49932 1.42463L29.9919 1.42463L29.9919 1.42462ZM29.9919 3.92395L2.49932 3.92395L2.49932 23.9185L4.74871 23.9185C4.79371 23.9185 4.83867 23.9196 4.88363 23.9218C4.92855 23.9241 4.9734 23.9274 5.0182 23.9318C5.06297 23.9362 5.10762 23.9417 5.15211 23.9483C5.1966 23.9549 5.24094 23.9626 5.28508 23.9714C5.32918 23.9802 5.37309 23.99 5.41672 24.0009C5.46035 24.0118 5.50371 24.0238 5.5468 24.0369C5.58984 24.05 5.63254 24.0641 5.67492 24.0793C5.71726 24.0944 5.75922 24.1106 5.80082 24.1278C5.84238 24.145 5.88351 24.1632 5.92418 24.1825C5.96484 24.2017 6.00504 24.222 6.04469 24.2432C6.08437 24.2644 6.12351 24.2865 6.16211 24.3097C6.2007 24.3328 6.23871 24.3569 6.27613 24.3819C6.31351 24.4069 6.35031 24.4328 6.38644 24.4596C6.42258 24.4864 6.45805 24.514 6.49281 24.5426C6.52762 24.5711 6.56168 24.6005 6.595 24.6308C6.62832 24.6609 6.6609 24.692 6.69273 24.7238C6.72457 24.7556 6.75558 24.7882 6.78578 24.8215C6.81598 24.8549 6.84535 24.8889 6.87391 24.9237C6.90246 24.9585 6.93012 24.9939 6.95695 25.03C6.98375 25.0662 7.00965 25.103 7.03465 25.1404C7.05965 25.1778 7.08371 25.2158 7.10683 25.2544C7.12996 25.293 7.15215 25.3321 7.17336 25.3718C7.19457 25.4115 7.21476 25.4517 7.23402 25.4924C7.25324 25.533 7.27148 25.5741 7.28871 25.6157C7.30594 25.6573 7.32211 25.6992 7.33726 25.7416C7.35242 25.784 7.36652 25.8266 7.37957 25.8697C7.39265 25.9128 7.40465 25.9561 7.41558 25.9998C7.42652 26.0434 7.43637 26.0873 7.44516 26.1315C7.45394 26.1756 7.4616 26.2199 7.4682 26.2644C7.4748 26.3089 7.48031 26.3535 7.48473 26.3983C7.48914 26.4431 7.49246 26.4879 7.49465 26.5329C7.49687 26.5779 7.49797 26.6228 7.49797 26.6678L7.49797 30.3793L12.4966 25.3806C12.548 25.3293 12.6005 25.2792 12.654 25.2302C12.7076 25.1812 12.7621 25.1334 12.8178 25.0868C12.8734 25.0401 12.93 24.9947 12.9877 24.9506C13.0453 24.9064 13.1038 24.8635 13.1633 24.8219C13.2228 24.7803 13.2832 24.74 13.3444 24.7011C13.4056 24.6621 13.4677 24.6245 13.5306 24.5882C13.5934 24.5519 13.6571 24.517 13.7215 24.4835C13.7859 24.45 13.851 24.4179 13.9168 24.3873C13.9826 24.3566 14.049 24.3274 14.1161 24.2996C14.1832 24.2718 14.2508 24.2455 14.319 24.2207C14.3872 24.1959 14.4559 24.1726 14.5252 24.1508C14.5944 24.1289 14.6641 24.1086 14.7342 24.0898C14.8043 24.071 14.8748 24.0538 14.9457 24.038C15.0165 24.0223 15.0877 24.0081 15.1592 23.9955C15.2307 23.9829 15.3024 23.9718 15.3744 23.9623C15.4463 23.9528 15.5185 23.9449 15.5908 23.9385L16.0307 23.9185L29.9919 23.9185L29.9919 3.92395ZM14.851 8.44771L18.42 19.5447L16.0956 19.5447L15.3159 16.6955L11.7168 16.6955L10.937 19.5447L8.68765 19.5447L12.2417 8.44771L14.851 8.44771ZM21.9441 8.44771L21.9441 19.5447L19.7246 19.5447L19.7246 8.44771L21.9441 8.44771ZM13.5313 10.1273L13.4714 10.1273C13.1864 11.3419 12.8565 12.6016 12.5266 13.7563L12.1967 14.9709L14.836 14.9709L14.5061 13.7563C14.1612 12.6016 13.8612 11.327 13.5313 10.1273Z"   fill="#660874" >
</path>
</svg>
