<svg xmlns="http://www.w3.org/2000/svg" xmlns:xlink="http://www.w3.org/1999/xlink" width="24" height="24" viewBox="0 0 24 24" fill="none">
<path d="M12 0C18.6275 0 24 5.37248 24 12C24 18.6275 18.6275 24 12 24C5.37248 24 0 18.6275 0 12C0 5.37248 5.37248 0 12 0ZM10.608 7.06985C10.5972 7.06988 10.5864 7.07011 10.5757 7.07054C10.5649 7.07097 10.5541 7.07164 10.5434 7.07247C10.5326 7.07331 10.5219 7.07438 10.5112 7.07564C10.5005 7.07689 10.4898 7.07836 10.4791 7.08003C10.4685 7.0817 10.4579 7.08358 10.4473 7.08565C10.4367 7.08773 10.4262 7.09001 10.4157 7.09249C10.4052 7.095 10.3947 7.09768 10.3843 7.10054C10.3739 7.10342 10.3636 7.10651 10.3533 7.1098C10.343 7.11309 10.3328 7.11658 10.3227 7.12024C10.3126 7.1239 10.3025 7.12774 10.2925 7.13181C10.2825 7.13588 10.2726 7.14012 10.2628 7.14456C10.2529 7.149 10.2432 7.15362 10.2335 7.15843C10.2239 7.16325 10.2143 7.16827 10.2049 7.17343C10.1954 7.1786 10.1861 7.18396 10.1768 7.1895C10.1675 7.19504 10.1584 7.20075 10.1494 7.20664C10.1403 7.21252 10.1314 7.21858 10.1226 7.22481C10.1138 7.23104 10.1051 7.23744 10.0966 7.24402C10.088 7.25057 10.0796 7.25729 10.0713 7.26418C10.063 7.27108 10.0548 7.27812 10.0468 7.28533C10.0388 7.29251 10.0309 7.29987 10.0231 7.30737C10.0154 7.3149 10.0078 7.32254 10.0003 7.33033C9.99286 7.33812 9.98556 7.34605 9.97843 7.35413C9.97128 7.3622 9.96427 7.37042 9.95743 7.37876C9.9506 7.3871 9.94393 7.39558 9.93741 7.40417C9.93092 7.41277 9.92458 7.42148 9.9184 7.43034C9.91223 7.43919 9.90623 7.44814 9.9004 7.45719C9.89455 7.46628 9.8889 7.47545 9.88341 7.48474C9.87796 7.49403 9.87265 7.50343 9.86752 7.51292C9.86241 7.52241 9.85748 7.53199 9.85272 7.54168C9.84796 7.55135 9.8434 7.56113 9.83905 7.57099C9.83466 7.58086 9.83048 7.59081 9.82647 7.60082C9.82249 7.61083 9.81868 7.6209 9.81508 7.63108L6.92438 15.7385C6.92019 15.7514 6.91636 15.7644 6.91281 15.7774C6.90926 15.7905 6.90603 15.8037 6.90312 15.8169C6.9002 15.8301 6.89764 15.8434 6.89536 15.8568C6.89308 15.8701 6.89112 15.8836 6.88947 15.897C6.88786 15.9105 6.88656 15.9239 6.88555 15.9375C6.88457 15.951 6.8839 15.9645 6.88359 15.9781C6.88324 15.9916 6.88324 16.0052 6.88356 16.0187C6.88388 16.0323 6.88451 16.0458 6.88546 16.0593C6.88641 16.0728 6.88771 16.0863 6.88933 16.0998C6.89094 16.1133 6.89288 16.1266 6.89513 16.14C6.89738 16.1534 6.89994 16.1667 6.90283 16.1799C6.90574 16.1932 6.90894 16.2063 6.91246 16.2194C6.91598 16.2325 6.91982 16.2455 6.92397 16.2584C6.9281 16.2713 6.93257 16.2841 6.93733 16.2968C6.94209 16.3095 6.94714 16.3221 6.9525 16.3345C6.95787 16.3469 6.96352 16.3593 6.96946 16.3714C6.97543 16.3836 6.98166 16.3956 6.98818 16.4075C6.99473 16.4194 7.00154 16.4311 7.00864 16.4426C7.0157 16.4542 7.02309 16.4656 7.03073 16.4768C7.03838 16.4879 7.04625 16.499 7.05441 16.5098C7.06258 16.5206 7.071 16.5312 7.07968 16.5416C7.08837 16.552 7.09728 16.5622 7.10642 16.5722C7.1156 16.5822 7.125 16.592 7.13461 16.6015C7.14424 16.6111 7.15411 16.6203 7.16417 16.6294C7.17424 16.6385 7.18454 16.6473 7.19504 16.6559C7.20554 16.6644 7.21624 16.6727 7.22715 16.6808C7.23805 16.6888 7.24913 16.6966 7.2604 16.7041C7.27168 16.7117 7.28311 16.7189 7.29473 16.7259C7.30636 16.7329 7.31813 16.7396 7.33007 16.746C7.34201 16.7524 7.3541 16.7585 7.36633 16.7643C7.37859 16.7702 7.39096 16.7757 7.40345 16.781C7.41594 16.7862 7.42858 16.7911 7.4413 16.7958C7.48719 16.8122 7.53413 16.8246 7.58213 16.833C7.63015 16.8415 7.67853 16.8458 7.72725 16.846C7.73769 16.846 7.74814 16.8459 7.75855 16.8455C7.76896 16.8451 7.7794 16.8446 7.78982 16.8438C7.80023 16.8431 7.81062 16.8422 7.82097 16.841C7.83133 16.8399 7.84168 16.8386 7.85201 16.8371C7.86234 16.8355 7.87264 16.8338 7.88288 16.8319C7.89315 16.83 7.90336 16.8279 7.91354 16.8256C7.92372 16.8234 7.93385 16.8209 7.94394 16.8182C7.95401 16.8155 7.96405 16.8127 7.97403 16.8096C7.98401 16.8066 7.99393 16.8034 8.0038 16.8C8.01366 16.7965 8.02344 16.793 8.03316 16.7892C8.04289 16.7854 8.05255 16.7814 8.06213 16.7773C8.0717 16.7731 8.08119 16.7688 8.0906 16.7643C8.10003 16.7598 8.10935 16.7551 8.11858 16.7503C8.12784 16.7455 8.13698 16.7404 8.14601 16.7352C8.15507 16.7301 8.16401 16.7247 8.17287 16.7192C8.18172 16.7137 8.19046 16.708 8.19912 16.7021C8.20774 16.6963 8.21628 16.6902 8.22467 16.6841C8.2331 16.6779 8.2414 16.6716 8.24957 16.6651C8.25773 16.6586 8.26578 16.652 8.27371 16.6452C8.28164 16.6384 8.28943 16.6315 8.29711 16.6244C8.30478 16.6173 8.31231 16.6101 8.31969 16.6028C8.32711 16.5954 8.33435 16.5879 8.34147 16.5803C8.3486 16.5726 8.35555 16.5649 8.36239 16.557C8.36922 16.5491 8.37589 16.5411 8.3824 16.5329C8.38895 16.5248 8.39533 16.5166 8.40153 16.5082C8.40773 16.4998 8.41379 16.4913 8.4197 16.4827C8.42559 16.4741 8.43133 16.4654 8.4369 16.4566C8.44246 16.4477 8.44789 16.4388 8.45311 16.4298C8.45836 16.4208 8.46343 16.4116 8.46831 16.4024C8.47321 16.3932 8.47794 16.3839 8.48247 16.3745C8.48703 16.3651 8.49141 16.3557 8.4956 16.3461C8.49978 16.3366 8.50379 16.327 8.50763 16.3172L9.0694 14.7414C9.07024 14.7391 9.07114 14.7368 9.07212 14.7346C9.0731 14.7324 9.07416 14.7302 9.07532 14.728C9.07647 14.7259 9.07771 14.7238 9.07904 14.7218C9.08034 14.7197 9.08175 14.7177 9.08322 14.7158C9.08469 14.7138 9.08622 14.712 9.08784 14.7102C9.08945 14.7083 9.09113 14.7066 9.09289 14.7049C9.09465 14.7032 9.09646 14.7016 9.09834 14.7001C9.10021 14.6985 9.10215 14.697 9.10414 14.6956C9.10613 14.6942 9.10817 14.6929 9.11028 14.6917C9.11236 14.6905 9.11449 14.6893 9.11668 14.6882C9.11885 14.6872 9.12107 14.6862 9.12335 14.6853C9.1256 14.6844 9.12788 14.6836 9.13021 14.6828C9.13255 14.6821 9.13489 14.6815 9.13725 14.6809C9.13962 14.6804 9.14201 14.68 9.14443 14.6796C9.14683 14.6792 9.14925 14.679 9.15167 14.6788C9.1541 14.6787 9.15652 14.6786 9.15894 14.6786L11.9402 14.6786C11.9799 14.6786 12.0172 14.7063 12.0295 14.7439L12.559 16.3047C12.5626 16.3148 12.5664 16.3249 12.5704 16.3349C12.5744 16.345 12.5786 16.3549 12.583 16.3648C12.5873 16.3746 12.5919 16.3844 12.5967 16.3941C12.6014 16.4037 12.6064 16.4133 12.6115 16.4228C12.6166 16.4323 12.6219 16.4417 12.6274 16.451C12.6329 16.4603 12.6385 16.4695 12.6443 16.4785C12.6502 16.4876 12.6562 16.4966 12.6623 16.5054C12.6685 16.5143 12.6749 16.523 12.6814 16.5316C12.6879 16.5402 12.6946 16.5487 12.7014 16.557C12.7082 16.5653 12.7152 16.5736 12.7224 16.5816C12.7295 16.5897 12.7368 16.5976 12.7443 16.6054C12.7517 16.6132 12.7593 16.6209 12.7671 16.6284C12.7748 16.6359 12.7827 16.6433 12.7907 16.6504C12.7988 16.6576 12.8069 16.6647 12.8152 16.6716C12.8235 16.6785 12.832 16.6852 12.8405 16.6917C12.8491 16.6983 12.8577 16.7047 12.8665 16.7109C12.8753 16.7172 12.8843 16.7232 12.8933 16.7291C12.9023 16.735 12.9115 16.7407 12.9207 16.7463C12.93 16.7518 12.9393 16.7572 12.9488 16.7623C12.9583 16.7675 12.9678 16.7725 12.9775 16.7773C12.9871 16.7821 12.9969 16.7868 13.0067 16.7912C13.0165 16.7956 13.0264 16.7999 13.0364 16.8039C13.0465 16.808 13.0565 16.8119 13.0666 16.8155C13.0768 16.8192 13.087 16.8227 13.0973 16.826C13.1075 16.8292 13.1179 16.8323 13.1283 16.8352C13.1386 16.8381 13.1491 16.8408 13.1596 16.8432C13.1701 16.8458 13.1806 16.848 13.1912 16.8501C13.2018 16.8522 13.2124 16.8541 13.2231 16.8557C13.2337 16.8574 13.2444 16.8589 13.2551 16.8601C13.2658 16.8614 13.2766 16.8625 13.2873 16.8633C13.2981 16.8641 13.3088 16.8648 13.3196 16.8652C13.3304 16.8657 13.3411 16.8659 13.3519 16.8659C13.4463 16.8659 13.5358 16.8509 13.6252 16.8185C14.0577 16.6706 14.2964 16.1895 14.1546 15.7536L11.4033 7.64345C11.3998 7.6331 11.3962 7.62283 11.3923 7.61265C11.3884 7.60246 11.3843 7.59234 11.3801 7.58233C11.3758 7.57229 11.3713 7.56234 11.3667 7.55247C11.362 7.54261 11.3572 7.53283 11.3521 7.52316C11.3471 7.5135 11.3419 7.50392 11.3365 7.49446C11.3311 7.48497 11.3255 7.47563 11.3197 7.46637C11.314 7.45711 11.308 7.44799 11.3019 7.43896C11.2958 7.42993 11.2895 7.42105 11.283 7.41225C11.2765 7.40348 11.2699 7.39483 11.2631 7.38632C11.2563 7.37781 11.2493 7.36941 11.2422 7.36116C11.235 7.35291 11.2277 7.34481 11.2203 7.33685C11.2128 7.32889 11.2053 7.32107 11.1975 7.3134C11.1897 7.30572 11.1818 7.29819 11.1738 7.29084C11.1657 7.28348 11.1576 7.27627 11.1493 7.26923C11.1409 7.26216 11.1325 7.2553 11.1239 7.24858C11.1153 7.24186 11.1066 7.23531 11.0978 7.22893C11.0889 7.22256 11.0799 7.21633 11.0708 7.2103C11.0618 7.20427 11.0526 7.19841 11.0433 7.19273C11.0339 7.18705 11.0245 7.18157 11.015 7.17626C11.0055 7.17095 10.9958 7.16585 10.9861 7.16091C10.9764 7.15598 10.9666 7.15122 10.9567 7.14666C10.9468 7.14211 10.9368 7.13775 10.9267 7.1336C10.9166 7.12941 10.9065 7.12546 10.8962 7.12168C10.886 7.1179 10.8757 7.11433 10.8653 7.11095C10.855 7.10758 10.8445 7.10443 10.834 7.10146C10.8235 7.09849 10.813 7.09572 10.8024 7.09315C10.7918 7.09059 10.7812 7.08825 10.7705 7.08612C10.7598 7.08395 10.749 7.08202 10.7383 7.08029C10.7275 7.07856 10.7167 7.07703 10.7059 7.07573C10.6951 7.07443 10.6842 7.07334 10.6733 7.07244C10.6625 7.07155 10.6516 7.07089 10.6407 7.07042C10.6298 7.06996 10.6189 7.0697 10.608 7.06967L10.608 7.06985ZM16.1755 7.07723C15.7106 7.07723 15.3329 7.44554 15.3329 7.89655L15.3329 15.9842C15.3329 16.4352 15.7106 16.8035 16.1755 16.8035C16.6377 16.8035 17.0155 16.4378 17.0178 15.9868L17.0178 7.89655C17.0178 7.44554 16.6401 7.07723 16.1755 7.07723ZM10.5831 10.6776C10.6254 10.6776 10.6601 10.7027 10.6726 10.7404L11.3884 12.85C11.3896 12.8536 11.3906 12.8573 11.3914 12.861C11.3922 12.8648 11.3927 12.8686 11.3931 12.8724C11.3934 12.8762 11.3935 12.88 11.3935 12.8838C11.3934 12.8877 11.393 12.8915 11.3925 12.8953C11.392 12.899 11.3912 12.9028 11.3903 12.9065C11.3893 12.9102 11.3881 12.9138 11.3867 12.9174C11.3853 12.921 11.3837 12.9245 11.3819 12.9278C11.3802 12.9312 11.3782 12.9345 11.376 12.9377C11.3738 12.9407 11.3715 12.9437 11.3689 12.9465C11.3664 12.9493 11.3637 12.9519 11.3609 12.9543C11.358 12.9568 11.3551 12.9591 11.3519 12.9612C11.3488 12.9633 11.3456 12.9653 11.3423 12.967C11.3389 12.9688 11.3355 12.9703 11.332 12.9716C11.3284 12.973 11.3249 12.9741 11.3212 12.975C11.3175 12.9759 11.3138 12.9766 11.3101 12.977C11.3064 12.9775 11.3026 12.9777 11.2988 12.9777L9.83262 12.9777C9.82887 12.9777 9.82512 12.9775 9.82139 12.977C9.81767 12.9765 9.81398 12.9758 9.81032 12.9749C9.80665 12.974 9.80308 12.9729 9.79956 12.9716C9.79604 12.9702 9.79261 12.9687 9.78929 12.967C9.78594 12.9653 9.78271 12.9633 9.77963 12.9612C9.77651 12.9591 9.77354 12.9568 9.77071 12.9543C9.76789 12.9519 9.7652 12.9492 9.76269 12.9464C9.76015 12.9436 9.75779 12.9407 9.75563 12.9377C9.75346 12.9345 9.75147 12.9312 9.74968 12.9279C9.74787 12.9245 9.74628 12.921 9.74487 12.9175C9.74348 12.9139 9.7423 12.9102 9.74132 12.9066C9.74034 12.9028 9.73959 12.8991 9.73904 12.8953C9.73849 12.8915 9.73817 12.8877 9.73806 12.8839C9.73797 12.88 9.73809 12.8762 9.73843 12.8724C9.73875 12.8686 9.73933 12.8648 9.74011 12.8611C9.74089 12.8573 9.74187 12.8536 9.74308 12.85L10.4937 10.7404C10.4945 10.7381 10.4954 10.7358 10.4964 10.7336C10.4974 10.7314 10.4985 10.7292 10.4996 10.727C10.5008 10.7249 10.502 10.7228 10.5033 10.7208C10.5046 10.7187 10.5061 10.7167 10.5075 10.7148C10.509 10.7129 10.5105 10.711 10.5121 10.7092C10.5138 10.7073 10.5154 10.7056 10.5172 10.7039C10.519 10.7022 10.5208 10.7006 10.5226 10.6991C10.5245 10.6975 10.5265 10.6961 10.5284 10.6947C10.5304 10.6932 10.5325 10.6919 10.5346 10.6907C10.5367 10.6895 10.5388 10.6883 10.541 10.6872C10.5432 10.6862 10.5454 10.6852 10.5477 10.6843C10.5499 10.6834 10.5522 10.6826 10.5545 10.6818C10.5569 10.6811 10.5592 10.6805 10.5616 10.6799C10.5639 10.6794 10.5663 10.679 10.5687 10.6786C10.5711 10.6782 10.5736 10.678 10.576 10.6778C10.5784 10.6777 10.5808 10.6776 10.5833 10.6776L10.5831 10.6776Z"   fill="#FFFFFF" >
</path>
</svg>
