<svg xmlns="http://www.w3.org/2000/svg" xmlns:xlink="http://www.w3.org/1999/xlink" width="30" height="30" viewBox="0 0 30 30" fill="none">
<path d="M15 0C23.2845 0 30 6.71551 30 15C30 23.2845 23.2845 30 15 30C6.71551 30 0 23.2845 0 15C0 6.71551 6.71551 0 15 0ZM15 3.00001C14.8036 3.00001 14.6073 3.00483 14.4112 3.01446C14.215 3.02409 14.0192 3.03853 13.8238 3.05777C13.6283 3.07704 13.4335 3.10108 13.2392 3.12988C13.045 3.15871 12.8515 3.19227 12.6589 3.23057C12.4663 3.26889 12.2747 3.31191 12.0843 3.35962C11.8937 3.40734 11.7045 3.4597 11.5166 3.51671C11.3286 3.57374 11.1422 3.63533 10.9573 3.70149C10.7724 3.76766 10.5892 3.83829 10.4078 3.91345C10.2264 3.98862 10.0469 4.06817 9.86934 4.15213C9.6918 4.23608 9.51644 4.32436 9.34326 4.41696C9.17005 4.50953 8.99922 4.60631 8.83079 4.70728C8.66232 4.80821 8.49642 4.91326 8.33315 5.02238C8.16985 5.13147 8.00933 5.2445 7.85162 5.3615C7.69387 5.4785 7.53908 5.5993 7.38727 5.72389C7.23547 5.84849 7.08679 5.9767 6.94132 6.10861C6.79577 6.24048 6.6536 6.37586 6.51473 6.51473C6.37586 6.6536 6.24048 6.79577 6.10861 6.94132C5.9767 7.08679 5.84849 7.23547 5.72389 7.38727C5.5993 7.53908 5.4785 7.69387 5.3615 7.85162C5.2445 8.00933 5.13147 8.16985 5.02238 8.33315C4.91326 8.49642 4.80821 8.66232 4.70728 8.83079C4.60631 8.99922 4.50953 9.17005 4.41696 9.34326C4.32436 9.51644 4.23608 9.6918 4.15213 9.86934C4.06817 10.0469 3.98862 10.2264 3.91345 10.4078C3.83829 10.5892 3.76766 10.7724 3.70149 10.9573C3.63533 11.1422 3.57374 11.3286 3.51671 11.5166C3.4597 11.7045 3.40734 11.8937 3.35962 12.0843C3.31191 12.2747 3.26889 12.4663 3.23057 12.6589C3.19227 12.8515 3.15871 13.045 3.12988 13.2392C3.10108 13.4335 3.07704 13.6283 3.05777 13.8238C3.03853 14.0192 3.02409 14.215 3.01446 14.4112C3.00483 14.6073 3.00001 14.8036 3.00001 15C3.00001 15.1964 3.00483 15.3926 3.01446 15.5888C3.02409 15.785 3.03853 15.9808 3.05777 16.1762C3.07704 16.3716 3.10108 16.5665 3.12988 16.7608C3.15871 16.955 3.19227 17.1485 3.23057 17.3411C3.26889 17.5337 3.31191 17.7252 3.35962 17.9158C3.40734 18.1062 3.4597 18.2955 3.51671 18.4834C3.57374 18.6713 3.63533 18.8578 3.70149 19.0427C3.76766 19.2276 3.83829 19.4107 3.91345 19.5922C3.98862 19.7736 4.06817 19.9531 4.15213 20.1307C4.23608 20.3082 4.32436 20.4836 4.41696 20.6567C4.50953 20.8299 4.60631 21.0008 4.70728 21.1692C4.80821 21.3377 4.91326 21.5035 5.02238 21.6669C5.13147 21.8301 5.2445 21.9906 5.3615 22.1484C5.4785 22.3061 5.5993 22.4609 5.72389 22.6127C5.84849 22.7645 5.9767 22.9132 6.10861 23.0587C6.24048 23.2042 6.37586 23.3464 6.51473 23.4853C6.6536 23.6241 6.79577 23.7595 6.94132 23.8914C7.08679 24.0233 7.23547 24.1515 7.38727 24.2761C7.53908 24.4007 7.69387 24.5215 7.85162 24.6385C8.00933 24.7555 8.16985 24.8685 8.33315 24.9776C8.49642 25.0868 8.66232 25.1918 8.83079 25.2927C8.99922 25.3937 9.17005 25.4904 9.34326 25.5831C9.51644 25.6756 9.6918 25.7639 9.86934 25.8479C10.0469 25.9318 10.2264 26.0114 10.4078 26.0866C10.5892 26.1617 10.7724 26.2324 10.9573 26.2985C11.1422 26.3647 11.3286 26.4263 11.5166 26.4833C11.7045 26.5403 11.8937 26.5926 12.0843 26.6404C12.2747 26.6881 12.4663 26.7311 12.6589 26.7694C12.8515 26.8077 13.045 26.8413 13.2392 26.8701C13.4335 26.8989 13.6283 26.923 13.8238 26.9422C14.0192 26.9615 14.215 26.9759 14.4112 26.9855C14.6073 26.9952 14.8036 27 15 27C15.1964 27 15.3926 26.9952 15.5888 26.9855C15.785 26.9759 15.9808 26.9615 16.1762 26.9422C16.3716 26.923 16.5665 26.8989 16.7608 26.8701C16.955 26.8413 17.1485 26.8077 17.3411 26.7694C17.5337 26.7311 17.7252 26.6881 17.9158 26.6404C18.1062 26.5926 18.2955 26.5403 18.4834 26.4833C18.6713 26.4263 18.8578 26.3647 19.0427 26.2985C19.2276 26.2324 19.4107 26.1617 19.5922 26.0866C19.7736 26.0114 19.9531 25.9318 20.1307 25.8479C20.3082 25.7639 20.4836 25.6756 20.6567 25.5831C20.8299 25.4904 21.0008 25.3937 21.1692 25.2927C21.3377 25.1918 21.5035 25.0868 21.6669 24.9776C21.8301 24.8685 21.9906 24.7555 22.1484 24.6385C22.3061 24.5215 22.4609 24.4007 22.6127 24.2761C22.7645 24.1515 22.9132 24.0233 23.0587 23.8914C23.2042 23.7595 23.3464 23.6241 23.4853 23.4853C23.6241 23.3464 23.7595 23.2042 23.8914 23.0587C24.0233 22.9132 24.1515 22.7645 24.2761 22.6127C24.4007 22.4609 24.5215 22.3061 24.6385 22.1484C24.7555 21.9906 24.8685 21.8301 24.9776 21.6669C25.0868 21.5035 25.1918 21.3377 25.2927 21.1692C25.3937 21.0008 25.4904 20.8299 25.5831 20.6567C25.6756 20.4836 25.7639 20.3082 25.8479 20.1307C25.9318 19.9531 26.0114 19.7736 26.0866 19.5922C26.1617 19.4107 26.2324 19.2276 26.2985 19.0427C26.3647 18.8578 26.4263 18.6713 26.4833 18.4834C26.5403 18.2955 26.5926 18.1062 26.6404 17.9158C26.6881 17.7252 26.7311 17.5337 26.7694 17.3411C26.8077 17.1485 26.8413 16.955 26.8701 16.7608C26.8989 16.5665 26.923 16.3716 26.9422 16.1762C26.9615 15.9808 26.9759 15.785 26.9855 15.5888C26.9952 15.3926 27 15.1964 27 15C27 14.8036 26.9952 14.6073 26.9855 14.4112C26.9759 14.215 26.9615 14.0192 26.9422 13.8238C26.923 13.6283 26.8989 13.4335 26.8701 13.2392C26.8413 13.045 26.8077 12.8515 26.7694 12.6589C26.7311 12.4663 26.6881 12.2747 26.6404 12.0843C26.5926 11.8937 26.5403 11.7045 26.4833 11.5166C26.4263 11.3286 26.3647 11.1422 26.2985 10.9573C26.2324 10.7724 26.1617 10.5892 26.0866 10.4078C26.0114 10.2264 25.9318 10.0469 25.8479 9.86934C25.7639 9.6918 25.6756 9.51644 25.5831 9.34326C25.4904 9.17005 25.3937 8.99922 25.2927 8.83079C25.1918 8.66232 25.0868 8.49642 24.9776 8.33315C24.8685 8.16985 24.7555 8.00933 24.6385 7.85162C24.5215 7.69387 24.4007 7.53908 24.2761 7.38727C24.1515 7.23547 24.0233 7.08679 23.8914 6.94132C23.7595 6.79577 23.6241 6.6536 23.4853 6.51473C23.3464 6.37586 23.2042 6.24048 23.0587 6.10861C22.9132 5.9767 22.7645 5.84849 22.6127 5.72389C22.4609 5.5993 22.3061 5.4785 22.1484 5.36154C21.9906 5.24454 21.8301 5.13147 21.6669 5.02238C21.5035 4.91326 21.3377 4.80821 21.1692 4.70728C21.0008 4.60631 20.8299 4.50953 20.6567 4.41696C20.4836 4.32436 20.3082 4.23608 20.1307 4.15213C19.9531 4.06817 19.7736 3.98862 19.5922 3.91345C19.4107 3.83829 19.2276 3.76766 19.0427 3.70149C18.8578 3.63533 18.6713 3.57374 18.4834 3.51671C18.2955 3.4597 18.1062 3.40734 17.9158 3.35962C17.7252 3.31191 17.5337 3.26889 17.3411 3.23057C17.1485 3.19227 16.955 3.15871 16.7608 3.12988C16.5665 3.10108 16.3716 3.07704 16.1762 3.05777C15.9808 3.03853 15.785 3.02409 15.5888 3.01446C15.3926 3.00483 15.1964 3.00001 15 3.00001ZM13.5795 8.505L17.8635 21.5025L14.9115 21.5025L13.9605 18.3495L9.72302 18.3495L8.75102 21.5025L6.00001 21.5025L10.305 8.505L13.5795 8.505ZM22.587 8.505L22.587 21.5025L19.8255 21.5025L19.8255 8.505L22.5855 8.505L22.587 8.505ZM11.922 11.1615L11.79 11.1615L10.2675 16.2465L13.428 16.2465L11.922 11.16L11.922 11.1615Z"   fill="currentColor" >
</path>
</svg>
