<svg xmlns="http://www.w3.org/2000/svg" xmlns:xlink="http://www.w3.org/1999/xlink" width="6" height="9.0023193359375" viewBox="0 0 6 9.0023193359375" fill="none">
<path d="M7.58782e-07 8.22207L7.58782e-07 0.776929C-0.000211369 0.627572 0.0440581 0.481659 0.127571 0.356021C0.2111 0.230573 0.330006 0.131118 0.470418 0.0693419C0.610945 0.00775489 0.766647 -0.0134373 0.919248 0.0082918C1.07185 0.0301157 1.21461 0.0940714 1.33042 0.192295L5.72559 3.91499C5.81178 3.98785 5.88087 4.07767 5.92824 4.17858C5.97551 4.27927 6 4.38867 6 4.4995C6 4.61013 5.97551 4.71951 5.92824 4.82041C5.88087 4.92113 5.81178 5.01105 5.72559 5.08391L5.72655 5.08391L5.72655 5.08391L1.32967 8.80651C0.811667 9.24571 7.58782e-07 8.88879 7.58782e-07 8.22207Z"   fill="#4E5969" >
</path>
</svg>
