<svg xmlns="http://www.w3.org/2000/svg" xmlns:xlink="http://www.w3.org/1999/xlink" width="9.00225830078125" height="6.000244140625" viewBox="0 0 9.00225830078125 6.000244140625" fill="none">
<path d="M0.780192 7.57942e-07L8.22533 7.58702e-07C8.37469 -0.000211369 8.5206 0.044058 8.64624 0.127571C8.77168 0.2111 8.87114 0.330006 8.93292 0.470418C8.9945 0.610945 9.0157 0.766647 8.99397 0.919248C8.97214 1.07185 8.90819 1.21461 8.80996 1.33042L5.08727 5.72559C5.01441 5.81178 4.92458 5.88087 4.82368 5.92824C4.72299 5.97551 4.61359 6 4.50276 6C4.39213 6 4.28275 5.97551 4.18185 5.92824C4.08113 5.88087 3.99121 5.81178 3.91835 5.72559L3.91835 5.72655L3.91835 5.72655L0.195748 1.32967C-0.243446 0.811667 0.113474 7.57874e-07 0.780192 7.57942e-07Z"   fill="#4E5969" >
</path>
</svg>
