<svg xmlns="http://www.w3.org/2000/svg" xmlns:xlink="http://www.w3.org/1999/xlink" width="29.998046875" height="30" viewBox="0 0 29.998046875 30" fill="none">
<path d="M26.4852 0L4.94815 0C2.21481 0.00347257 0 2.02107 0 4.51094L0 25.5793C0.00370336 28.0206 2.17037 29.9965 4.84815 30L26.4889 30C27.3222 30 28 29.3819 28 28.6214L28 1.37516C27.9963 0.618127 27.3185 0 26.4852 0ZM24.9704 27.2462L4.84074 27.2462C3.83333 27.2462 3.01852 26.4996 3.01852 25.5828C3.01852 24.666 3.83333 23.9194 4.84074 23.9194L24.9704 23.9194L24.9704 27.2462ZM24.9704 21.1656L4.84074 21.1656C4.21481 21.1656 3.59629 21.2733 3.01852 21.4886L3.01852 4.51094C3.01852 3.54207 3.88148 2.75726 4.94444 2.75379L15.1963 2.75379L15.1963 10.5464C15.1963 10.7512 15.4296 10.8867 15.6259 10.7964L18.1333 9.62264C18.3 9.54277 18.4963 9.54277 18.663 9.62264L21.1704 10.7964C21.3667 10.8901 21.6 10.7547 21.6 10.5464L21.6 2.75726L24.9741 2.75726L24.9704 21.1656Z"   fill="currentColor" >
</path>
<path d="M15.6293 10.793L18.1367 9.61923C18.3034 9.53936 18.4997 9.53936 18.6664 9.61923L21.1738 10.793C21.3701 10.8867 21.6034 10.7513 21.6034 10.5429L21.6108 2.75732L15.2071 2.75732L15.1997 10.5429C15.1997 10.7478 15.433 10.8833 15.6293 10.793Z"   fill="currentColor" >
</path>
</svg>
