<svg xmlns="http://www.w3.org/2000/svg" xmlns:xlink="http://www.w3.org/1999/xlink" width="19.00006103515625" height="18.9998779296875" viewBox="0 0 19.00006103515625 18.9998779296875" fill="none">
<path d="M9.50002 0.5C9.35273 0.5 9.20553 0.503612 9.05841 0.510835C8.91129 0.518059 8.76446 0.528894 8.61788 0.543341C8.4713 0.557773 8.32515 0.575796 8.17944 0.597409C8.03375 0.619021 7.88868 0.644196 7.74422 0.672931C7.59975 0.701667 7.45607 0.733928 7.3132 0.769714C7.17031 0.8055 7.0284 0.844768 6.88745 0.88752C6.74651 0.930284 6.60669 0.976474 6.46801 1.02609C6.32933 1.07572 6.19195 1.12871 6.05586 1.18508C5.91977 1.24144 5.78517 1.30111 5.65202 1.36409C5.51886 1.42706 5.38735 1.49326 5.25744 1.56269C5.12754 1.63213 4.99942 1.70471 4.87309 1.78043C4.74675 1.85615 4.62234 1.93492 4.49987 2.01675C4.37741 2.09858 4.25703 2.18337 4.13873 2.27112C4.02042 2.35887 3.90432 2.44945 3.79047 2.54288C3.67661 2.63633 3.56513 2.7325 3.45598 2.83142C3.34685 2.93034 3.2402 3.03187 3.13606 3.13601C3.03191 3.24016 2.93036 3.3468 2.83144 3.45595C2.73252 3.56508 2.63635 3.67659 2.54292 3.79044C2.44948 3.9043 2.35888 4.02038 2.27113 4.13868C2.1834 4.25698 2.09862 4.37738 2.01678 4.49984C1.93495 4.62231 1.85617 4.74672 1.78044 4.87305C1.70472 4.99938 1.63215 5.12751 1.56272 5.2574C1.49327 5.38729 1.42707 5.51883 1.3641 5.65198C1.30112 5.78513 1.24144 5.91973 1.18508 6.05581C1.12872 6.1919 1.07573 6.32928 1.02611 6.46796C0.976484 6.60664 0.930294 6.74644 0.887542 6.8874C0.844782 7.02835 0.805509 7.17026 0.76972 7.31313C0.733932 7.45601 0.701668 7.59968 0.672932 7.74414C0.644198 7.8886 0.619025 8.03369 0.597412 8.17938C0.5758 8.32507 0.557776 8.47122 0.543339 8.61779C0.528901 8.76437 0.518068 8.91123 0.510842 9.05835C0.503614 9.20544 0.5 9.35264 0.5 9.49996C0.5 9.64724 0.503614 9.79445 0.510842 9.94156C0.518068 10.0887 0.528901 10.2355 0.543339 10.3821C0.557776 10.5287 0.5758 10.6748 0.597412 10.8205C0.619025 10.9662 0.644198 11.1113 0.672932 11.2558C0.701668 11.4002 0.733932 11.5439 0.76972 11.6868C0.805509 11.8296 0.844782 11.9715 0.887542 12.1125C0.930294 12.2535 0.976484 12.3933 1.02611 12.5319C1.07573 12.6706 1.12872 12.808 1.18508 12.9441C1.24144 13.0802 1.30112 13.2148 1.3641 13.3479C1.42707 13.4811 1.49327 13.6126 1.56272 13.7425C1.63215 13.8724 1.70472 14.0005 1.78044 14.1268C1.85617 14.2532 1.93495 14.3776 2.01678 14.5C2.09862 14.6225 2.1834 14.7429 2.27113 14.8612C2.35888 14.9795 2.44948 15.0956 2.54292 15.2094C2.63635 15.3233 2.73252 15.4348 2.83144 15.5439C2.93036 15.6531 3.03191 15.7597 3.13606 15.8639C3.2402 15.968 3.34685 16.0695 3.45598 16.1685C3.56513 16.2674 3.67661 16.3636 3.79047 16.457C3.90432 16.5504 4.0204 16.641 4.13871 16.7288C4.25701 16.8165 4.37741 16.9013 4.49987 16.9831C4.62234 17.065 4.74675 17.1437 4.87309 17.2195C4.99942 17.2952 5.12754 17.3678 5.25744 17.4372C5.38735 17.5066 5.51886 17.5728 5.65202 17.6358C5.78517 17.6988 5.91977 17.7585 6.05586 17.8148C6.19195 17.8712 6.32933 17.9242 6.46801 17.9738C6.60669 18.0234 6.74651 18.0696 6.88745 18.1124C7.0284 18.1551 7.17031 18.1944 7.3132 18.2302C7.45607 18.266 7.59975 18.2982 7.74422 18.327C7.88868 18.3557 8.03375 18.3809 8.17944 18.4025C8.32515 18.4241 8.47128 18.4421 8.61786 18.4565C8.76443 18.471 8.91129 18.4818 9.05841 18.4891C9.20553 18.4963 9.35273 18.4999 9.50002 18.4999C9.64731 18.4999 9.79452 18.4963 9.94164 18.4891C10.0888 18.4818 10.2356 18.471 10.3822 18.4566C10.5287 18.4421 10.6749 18.4241 10.8206 18.4025C10.9663 18.3809 11.1114 18.3557 11.2558 18.327C11.4003 18.2982 11.544 18.266 11.6868 18.2302C11.8297 18.1944 11.9716 18.1551 12.1126 18.1124C12.2535 18.0696 12.3934 18.0234 12.532 17.9738C12.6707 17.9242 12.8081 17.8712 12.9442 17.8148C13.0803 17.7585 13.2149 17.6988 13.348 17.6358C13.4812 17.5728 13.6127 17.5066 13.7426 17.4372C13.8725 17.3678 14.0006 17.2952 14.127 17.2195C14.2533 17.1437 14.3777 17.065 14.5002 16.9831C14.6226 16.9013 14.743 16.8165 14.8613 16.7288C14.9796 16.641 15.0957 16.5504 15.2096 16.457C15.3234 16.3636 15.4349 16.2674 15.5441 16.1685C15.6532 16.0695 15.7598 15.968 15.864 15.8639C15.9681 15.7597 16.0697 15.6531 16.1686 15.5439C16.2675 15.4348 16.3637 15.3233 16.4571 15.2094C16.5506 15.0956 16.6412 14.9795 16.7289 14.8612C16.8167 14.7429 16.9014 14.6225 16.9833 14.5C17.0651 14.3776 17.1439 14.2532 17.2196 14.1268C17.2953 14.0005 17.3679 13.8724 17.4373 13.7425C17.5068 13.6126 17.573 13.4811 17.6359 13.3479C17.6989 13.2148 17.7586 13.0802 17.815 12.9441C17.8713 12.808 17.9243 12.6706 17.9739 12.5319C18.0236 12.3933 18.0697 12.2535 18.1125 12.1125C18.1553 11.9715 18.1945 11.8296 18.2303 11.6868C18.2661 11.5439 18.2984 11.4002 18.3271 11.2558C18.3558 11.1113 18.381 10.9662 18.4026 10.8205C18.4242 10.6748 18.4423 10.5287 18.4567 10.3821C18.4711 10.2355 18.482 10.0887 18.4892 9.94156C18.4964 9.79445 18.5 9.64724 18.5 9.49996C18.4999 9.35271 18.4961 9.20555 18.4887 9.05848C18.4814 8.91142 18.4704 8.76463 18.4558 8.6181C18.4412 8.47158 18.4231 8.3255 18.4013 8.17988C18.3796 8.03425 18.3543 7.88923 18.3255 7.74483C18.2966 7.60043 18.2643 7.45683 18.2284 7.31403C18.1925 7.17121 18.1531 7.02938 18.1103 6.8885C18.0674 6.74763 18.0212 6.60789 17.9715 6.46928C17.9218 6.33067 17.8687 6.19337 17.8123 6.05737C17.7559 5.92137 17.6961 5.78681 17.6331 5.65373C17.5701 5.52066 17.5039 5.38919 17.4344 5.25936C17.3649 5.12954 17.2923 5.00148 17.2166 4.87521C17.1408 4.74894 17.062 4.6246 16.9802 4.5022C16.8984 4.37979 16.8136 4.25946 16.7258 4.1412C16.6381 4.02294 16.5475 3.90693 16.4541 3.79312C16.3607 3.67931 16.2645 3.56785 16.1656 3.45876C16.0667 3.34965 15.9652 3.24305 15.8611 3.13893C15.757 3.03481 15.6504 2.9333 15.5413 2.83442C15.4322 2.73552 15.3207 2.63936 15.2069 2.54593C15.0931 2.4525 14.9771 2.36192 14.8588 2.27419C14.7406 2.18644 14.6202 2.10165 14.4978 2.01982C14.3754 1.93797 14.2511 1.85917 14.1248 1.78343C13.9985 1.7077 13.8705 1.6351 13.7406 1.56562C13.6108 1.49615 13.4794 1.42991 13.3463 1.3669C13.2132 1.30388 13.0786 1.24415 12.9426 1.18773C12.8066 1.13131 12.6693 1.07825 12.5307 1.02855C12.3921 0.978863 12.2524 0.932602 12.1115 0.889764C11.9706 0.846914 11.8288 0.807551 11.686 0.771678C11.5431 0.73579 11.3995 0.703422 11.2551 0.674572C11.1108 0.645721 10.9657 0.620432 10.8201 0.598704C10.6745 0.576962 10.5284 0.558802 10.3819 0.544226C10.2353 0.529649 10.0885 0.518677 9.94149 0.51131C9.79443 0.503928 9.64727 0.500158 9.50002 0.5ZM9.50002 17.0699C9.37613 17.0699 9.25232 17.0669 9.12858 17.0608C9.00484 17.0547 8.88133 17.0456 8.75802 17.0334C8.63474 17.0213 8.51181 17.0061 8.38928 16.988C8.26673 16.9698 8.14469 16.9486 8.02319 16.9244C7.90169 16.9003 7.78084 16.8731 7.66066 16.843C7.54048 16.8129 7.42112 16.7799 7.30256 16.7439C7.184 16.708 7.06641 16.6691 6.94977 16.6274C6.83313 16.5856 6.71756 16.5411 6.6031 16.4937C6.48864 16.4463 6.37543 16.3961 6.26343 16.3431C6.15143 16.2901 6.04081 16.2344 5.93155 16.176C5.82229 16.1176 5.71452 16.0566 5.60827 15.9929C5.50201 15.9292 5.39737 15.863 5.29434 15.7941C5.19135 15.7253 5.09009 15.654 4.99057 15.5802C4.89107 15.5064 4.79344 15.4302 4.69767 15.3516C4.6019 15.273 4.50812 15.1921 4.41632 15.1089C4.32452 15.0257 4.23482 14.9403 4.14723 14.8527C4.05962 14.7651 3.97423 14.6754 3.89103 14.5836C3.80782 14.4918 3.72692 14.398 3.64833 14.3023C3.56975 14.2065 3.49353 14.1089 3.41974 14.0094C3.34594 13.9099 3.27463 13.8086 3.20579 13.7056C3.13696 13.6026 3.0707 13.4979 3.007 13.3917C2.94331 13.2854 2.88227 13.1777 2.82388 13.0684C2.76548 12.9591 2.70979 12.8485 2.65682 12.7365C2.60385 12.6245 2.55366 12.5113 2.50625 12.3968C2.45883 12.2824 2.41426 12.1668 2.37253 12.0502C2.33079 11.9335 2.29194 11.8159 2.25598 11.6974C2.22002 11.5788 2.18699 11.4595 2.15689 11.3393C2.12678 11.2191 2.09965 11.0983 2.07547 10.9768C2.0513 10.8553 2.03012 10.7332 2.01195 10.6107C1.99377 10.4881 1.97862 10.3652 1.96647 10.2419C1.95433 10.1186 1.94522 9.99514 1.93915 9.8714C1.93306 9.74765 1.93002 9.62383 1.93002 9.49996C1.93002 9.37606 1.93305 9.25226 1.93912 9.12852C1.94521 9.00478 1.95433 8.88125 1.96647 8.75796C1.97862 8.63467 1.99377 8.51175 2.01195 8.3892C2.03012 8.26667 2.0513 8.14463 2.07547 8.02311C2.09965 7.90162 2.12678 7.78077 2.15689 7.66061C2.18699 7.54043 2.22002 7.42107 2.25598 7.30251C2.29194 7.18395 2.33079 7.06636 2.37253 6.94972C2.41426 6.83306 2.45883 6.71752 2.50625 6.60306C2.55366 6.4886 2.60385 6.37537 2.65682 6.26337C2.70979 6.15137 2.76548 6.04075 2.82388 5.93149C2.88227 5.82223 2.94331 5.71446 3.007 5.6082C3.0707 5.50195 3.13696 5.39733 3.20579 5.29431C3.27463 5.19129 3.34594 5.09004 3.41974 4.99053C3.49353 4.89103 3.56975 4.79339 3.64833 4.69762C3.72692 4.60185 3.80782 4.50807 3.89103 4.41627C3.97423 4.32447 4.05962 4.23479 4.14723 4.14718C4.23484 4.05957 4.32452 3.97419 4.41632 3.89098C4.50812 3.80777 4.6019 3.72688 4.69767 3.64829C4.79344 3.5697 4.89107 3.49351 4.99057 3.41971C5.09009 3.34592 5.19135 3.2746 5.29434 3.20577C5.39737 3.13694 5.50201 3.07068 5.60827 3.00698C5.71452 2.94329 5.82229 2.88225 5.93155 2.82384C6.04081 2.76546 6.15143 2.70977 6.26343 2.65678C6.37543 2.60382 6.48864 2.55363 6.6031 2.50624C6.71756 2.45882 6.83313 2.41424 6.94977 2.3725C7.06641 2.33077 7.184 2.29192 7.30256 2.25595C7.42112 2.21999 7.54048 2.18696 7.66066 2.15685C7.78084 2.12675 7.90169 2.09962 8.02319 2.07546C8.14469 2.05129 8.26673 2.03011 8.38928 2.01194C8.51181 1.99375 8.63474 1.97859 8.75805 1.96644C8.88133 1.95429 9.00484 1.94519 9.12858 1.93911C9.25232 1.93304 9.37613 1.93001 9.50002 1.93001C9.62392 1.93001 9.74772 1.93304 9.87147 1.93911C9.99521 1.94519 10.1187 1.95429 10.242 1.96644C10.3653 1.97859 10.4882 1.99375 10.6108 2.01194C10.7333 2.03011 10.8554 2.05129 10.9769 2.07546C11.0984 2.09962 11.2192 2.12675 11.3394 2.15685C11.4596 2.18696 11.5789 2.21999 11.6975 2.25595C11.8161 2.29192 11.9336 2.33077 12.0503 2.3725C12.1669 2.41424 12.2825 2.45882 12.3969 2.50624C12.5114 2.55363 12.6246 2.60382 12.7366 2.65678C12.8486 2.70977 12.9592 2.76546 13.0685 2.82384C13.1778 2.88225 13.2855 2.94329 13.3918 3.00698C13.498 3.07068 13.6027 3.13694 13.7057 3.20577C13.8087 3.2746 13.91 3.34592 14.0095 3.41971C14.109 3.49351 14.2066 3.5697 14.3024 3.64829C14.3981 3.72688 14.4919 3.80777 14.5837 3.89098C14.6755 3.97419 14.7652 4.05957 14.8528 4.14718C14.9404 4.23479 15.0258 4.32447 15.109 4.41627C15.1922 4.50807 15.2731 4.60185 15.3517 4.69762C15.4303 4.79339 15.5065 4.89103 15.5803 4.99053C15.6541 5.09004 15.7254 5.19129 15.7943 5.29431C15.8631 5.39733 15.9293 5.50195 15.993 5.6082C16.0567 5.71446 16.1178 5.82223 16.1762 5.93149C16.2346 6.04075 16.2903 6.15137 16.3432 6.26337C16.3962 6.37537 16.4464 6.4886 16.4938 6.60306C16.5412 6.71752 16.5858 6.83306 16.6275 6.94972C16.6693 7.06636 16.7081 7.18395 16.7441 7.30251C16.78 7.42107 16.813 7.54043 16.8432 7.66061C16.8733 7.78077 16.9004 7.90162 16.9246 8.02313C16.9487 8.14463 16.9699 8.26667 16.9881 8.3892C17.0063 8.51175 17.0214 8.63467 17.0336 8.75796C17.0457 8.88125 17.0548 9.00478 17.0609 9.12852C17.067 9.25226 17.07 9.37606 17.07 9.49996C17.07 9.62383 17.067 9.74765 17.0609 9.8714C17.0548 9.99514 17.0457 10.1186 17.0336 10.2419C17.0214 10.3652 17.0063 10.4881 16.9881 10.6107C16.9699 10.7332 16.9487 10.8553 16.9246 10.9768C16.9004 11.0983 16.8733 11.2191 16.8432 11.3393C16.813 11.4595 16.78 11.5788 16.7441 11.6974C16.7081 11.8159 16.6693 11.9335 16.6275 12.0502C16.5858 12.1668 16.5412 12.2824 16.4938 12.3968C16.4464 12.5113 16.3962 12.6245 16.3432 12.7365C16.2903 12.8485 16.2346 12.9591 16.1762 13.0684C16.1178 13.1777 16.0567 13.2854 15.993 13.3917C15.9293 13.4979 15.8631 13.6026 15.7943 13.7056C15.7254 13.8086 15.6541 13.9099 15.5803 14.0094C15.5065 14.1089 15.4303 14.2065 15.3517 14.3023C15.2731 14.398 15.1922 14.4918 15.109 14.5836C15.0258 14.6754 14.9404 14.7651 14.8528 14.8527C14.7652 14.9403 14.6755 15.0257 14.5837 15.1089C14.4919 15.1921 14.3981 15.273 14.3024 15.3516C14.2066 15.4302 14.109 15.5064 14.0095 15.5802C13.91 15.654 13.8087 15.7253 13.7057 15.7941C13.6027 15.863 13.498 15.9292 13.3918 15.9929C13.2855 16.0566 13.1778 16.1176 13.0685 16.176C12.9592 16.2345 12.8486 16.2901 12.7366 16.3431C12.6246 16.3961 12.5114 16.4463 12.3969 16.4937C12.2825 16.5411 12.1669 16.5856 12.0503 16.6274C11.9336 16.6691 11.816 16.708 11.6975 16.7439C11.5789 16.7799 11.4596 16.8129 11.3394 16.843C11.2192 16.8731 11.0984 16.9003 10.9769 16.9244C10.8554 16.9486 10.7333 16.9698 10.6108 16.988C10.4882 17.0061 10.3653 17.0213 10.242 17.0334C10.1187 17.0456 9.99521 17.0547 9.87147 17.0608C9.74772 17.0669 9.62392 17.0699 9.50002 17.0699Z" stroke="currentColor" stroke-width="1"      fill="currentColor" >
</path>
<path d="M12.9807 10.163L6.01854 10.163C6.00768 10.163 5.99684 10.1628 5.98601 10.1622C5.97516 10.1617 5.96434 10.1609 5.95355 10.1598C5.94274 10.1588 5.93198 10.1574 5.92126 10.1558C5.91052 10.1543 5.89983 10.1524 5.88918 10.1503C5.87853 10.1482 5.86795 10.1458 5.85743 10.1432C5.8469 10.1405 5.83644 10.1376 5.82605 10.1345C5.81567 10.1313 5.80538 10.1279 5.79516 10.1243C5.78494 10.1206 5.77482 10.1167 5.76479 10.1126C5.75476 10.1084 5.74485 10.104 5.73505 10.0994C5.72523 10.0947 5.71554 10.0899 5.70597 10.0847C5.69641 10.0796 5.68696 10.0743 5.67766 10.0687C5.66835 10.0631 5.65918 10.0573 5.65016 10.0513C5.64114 10.0452 5.63226 10.039 5.62354 10.0325C5.61482 10.0261 5.60627 10.0194 5.59788 10.0125C5.58949 10.0056 5.58128 9.99855 5.57325 9.99127C5.56521 9.98398 5.55735 9.97649 5.54968 9.96882C5.542 9.96115 5.53452 9.9533 5.52724 9.94525C5.51995 9.93721 5.51287 9.92899 5.50598 9.9206C5.4991 9.91222 5.49242 9.90366 5.48594 9.89494C5.47948 9.88624 5.47324 9.87737 5.46721 9.86835C5.46118 9.85933 5.45538 9.85016 5.44981 9.84085C5.44423 9.83154 5.43888 9.8221 5.43375 9.81253C5.42865 9.80297 5.42377 9.79327 5.41912 9.78346C5.41449 9.77365 5.41009 9.76373 5.40593 9.75372C5.40179 9.74369 5.39789 9.73356 5.39423 9.72335C5.39058 9.71313 5.38718 9.70283 5.38402 9.69244C5.38087 9.68205 5.37798 9.6716 5.37535 9.66108C5.3727 9.65055 5.37032 9.63996 5.3682 9.62933C5.36609 9.61868 5.36424 9.60799 5.36266 9.59725C5.36106 9.58652 5.35973 9.57576 5.35866 9.56496C5.3576 9.55416 5.3568 9.54334 5.35627 9.5325C5.35573 9.52167 5.35547 9.51083 5.35547 9.49998C5.35547 9.48911 5.35573 9.47826 5.35627 9.46743C5.3568 9.45659 5.3576 9.44578 5.35866 9.43499C5.35973 9.42418 5.36105 9.41341 5.36263 9.40267C5.36423 9.39194 5.36609 9.38125 5.3682 9.3706C5.37032 9.35997 5.3727 9.34938 5.37535 9.33885C5.37798 9.32833 5.38087 9.31788 5.38402 9.30749C5.38718 9.2971 5.39058 9.2868 5.39423 9.27658C5.39789 9.26637 5.40179 9.25625 5.40593 9.24623C5.41009 9.23621 5.41449 9.22628 5.41912 9.21647C5.42377 9.20665 5.42865 9.19696 5.43375 9.1874C5.43888 9.17783 5.44423 9.16839 5.44981 9.15908C5.45538 9.14977 5.46118 9.1406 5.46721 9.13158C5.47324 9.12256 5.47949 9.11369 5.48597 9.10499C5.49243 9.09627 5.4991 9.08771 5.50598 9.07932C5.51287 9.07093 5.51995 9.06272 5.52724 9.05468C5.53452 9.04665 5.542 9.03879 5.54968 9.03111C5.55735 9.02344 5.56521 9.01596 5.57325 9.00868C5.5813 9.00138 5.58951 8.9943 5.59788 8.98742C5.60627 8.98053 5.61482 8.97385 5.62354 8.96739C5.63226 8.96093 5.64114 8.95468 5.65016 8.94865C5.65918 8.94263 5.66835 8.93682 5.67766 8.93124C5.68696 8.92565 5.69641 8.92031 5.70597 8.9152C5.71554 8.91008 5.72523 8.9052 5.73503 8.90057C5.74484 8.89593 5.75476 8.89154 5.76479 8.88738C5.77482 8.88322 5.78494 8.87931 5.79516 8.87566C5.80538 8.872 5.81567 8.8686 5.82605 8.86545C5.83644 8.8623 5.8469 8.85941 5.85743 8.85677C5.86795 8.85414 5.87853 8.85176 5.88918 8.84965C5.89983 8.84753 5.91052 8.84568 5.92126 8.84408C5.93198 8.84248 5.94274 8.84116 5.95355 8.84011C5.96434 8.83904 5.97516 8.83825 5.98601 8.83771C5.99684 8.83718 6.00768 8.83691 6.01854 8.83691L12.9807 8.83691C12.9916 8.83691 13.0024 8.83718 13.0133 8.83771C13.0241 8.83825 13.0349 8.83904 13.0457 8.84011C13.0565 8.84116 13.0673 8.84248 13.078 8.84408C13.0888 8.84568 13.0994 8.84753 13.1101 8.84965C13.1207 8.85176 13.1313 8.85414 13.1418 8.85677C13.1524 8.85941 13.1628 8.8623 13.1732 8.86545C13.1836 8.8686 13.1939 8.872 13.2041 8.87566C13.2143 8.87931 13.2244 8.88322 13.2345 8.88738C13.2445 8.89154 13.2544 8.89593 13.2642 8.90057C13.274 8.9052 13.2837 8.91008 13.2933 8.9152C13.3029 8.92031 13.3123 8.92565 13.3216 8.93124C13.3309 8.93682 13.3401 8.94263 13.3491 8.94865C13.3581 8.95468 13.367 8.96093 13.3757 8.96739C13.3844 8.97385 13.393 8.98053 13.4014 8.98742C13.4098 8.9943 13.418 9.00138 13.426 9.00868C13.4341 9.01596 13.4419 9.02344 13.4496 9.03111C13.4573 9.03879 13.4648 9.04665 13.472 9.05468C13.4793 9.06272 13.4864 9.07093 13.4933 9.07932C13.5002 9.08771 13.5068 9.09627 13.5133 9.10499C13.5198 9.11369 13.526 9.12256 13.5321 9.13158C13.5381 9.1406 13.5439 9.14977 13.5495 9.15908C13.555 9.16839 13.5604 9.17783 13.5655 9.1874C13.5706 9.19696 13.5755 9.20665 13.5801 9.21647C13.5848 9.22628 13.5892 9.23621 13.5933 9.24623C13.5975 9.25625 13.6014 9.26637 13.605 9.27658C13.6087 9.2868 13.6121 9.2971 13.6152 9.30749C13.6184 9.31788 13.6213 9.32833 13.6239 9.33885C13.6266 9.34938 13.6289 9.35997 13.6311 9.3706C13.6332 9.38125 13.635 9.39194 13.6366 9.40267C13.6382 9.41341 13.6395 9.42418 13.6406 9.43499C13.6417 9.44578 13.6425 9.45659 13.643 9.46743C13.6435 9.47826 13.6438 9.48911 13.6438 9.49998C13.6438 9.51083 13.6435 9.52167 13.643 9.5325C13.6425 9.54334 13.6417 9.55416 13.6406 9.56496C13.6395 9.57576 13.6382 9.58652 13.6366 9.59725C13.635 9.60799 13.6332 9.61868 13.6311 9.62933C13.6289 9.63996 13.6266 9.65055 13.6239 9.66108C13.6213 9.6716 13.6184 9.68205 13.6152 9.69244C13.6121 9.70283 13.6087 9.71313 13.605 9.72335C13.6014 9.73356 13.5975 9.74369 13.5933 9.75372C13.5892 9.76373 13.5848 9.77365 13.5801 9.78346C13.5755 9.79327 13.5706 9.80297 13.5655 9.81253C13.5604 9.8221 13.555 9.83154 13.5495 9.84085C13.5439 9.85016 13.5381 9.85933 13.5321 9.86835C13.526 9.87737 13.5198 9.88624 13.5133 9.89494C13.5068 9.90366 13.5002 9.91222 13.4933 9.9206C13.4864 9.92899 13.4793 9.93721 13.472 9.94525C13.4648 9.9533 13.4573 9.96115 13.4496 9.96882C13.4419 9.97649 13.4341 9.98398 13.426 9.99127C13.418 9.99855 13.4098 10.0056 13.4014 10.0125C13.393 10.0194 13.3844 10.0261 13.3757 10.0325C13.367 10.039 13.3581 10.0452 13.3491 10.0513C13.3401 10.0573 13.3309 10.0631 13.3216 10.0687C13.3123 10.0743 13.3029 10.0796 13.2933 10.0847C13.2837 10.0899 13.274 10.0947 13.2642 10.0994C13.2544 10.104 13.2445 10.1084 13.2345 10.1126C13.2244 10.1167 13.2143 10.1206 13.2041 10.1243C13.1939 10.1279 13.1836 10.1313 13.1732 10.1345C13.1628 10.1376 13.1524 10.1405 13.1418 10.1432C13.1313 10.1458 13.1207 10.1482 13.1101 10.1503C13.0994 10.1524 13.0888 10.1543 13.078 10.1558C13.0673 10.1574 13.0565 10.1588 13.0457 10.1598C13.0349 10.1609 13.0241 10.1617 13.0133 10.1622C13.0024 10.1628 12.9916 10.163 12.9807 10.163Z"   fill="currentColor" >
</path>
<path d="M9.499 13.6442C9.48815 13.6442 9.47731 13.644 9.46648 13.6434C9.45563 13.6429 9.44481 13.6421 9.43401 13.641C9.42321 13.64 9.41244 13.6386 9.4017 13.637C9.39097 13.6354 9.38028 13.6336 9.36965 13.6315C9.359 13.6294 9.34842 13.627 9.3379 13.6243C9.32737 13.6217 9.3169 13.6188 9.30652 13.6157C9.29614 13.6125 9.28584 13.6091 9.27563 13.6055C9.26541 13.6018 9.25529 13.5979 9.24526 13.5937C9.23523 13.5896 9.22531 13.5852 9.2155 13.5806C9.2057 13.5759 9.19601 13.571 9.18644 13.5659C9.17688 13.5608 9.16743 13.5555 9.15812 13.5499C9.14882 13.5443 9.13965 13.5385 9.13063 13.5325C9.1216 13.5264 9.11273 13.5202 9.10401 13.5137C9.09529 13.5073 9.08674 13.5006 9.07835 13.4937C9.06996 13.4868 9.06175 13.4797 9.05372 13.4725C9.04568 13.4652 9.03782 13.4577 9.03015 13.45C9.02247 13.4423 9.01499 13.4345 9.0077 13.4264C9.00042 13.4184 8.99334 13.4102 8.98644 13.4018C8.97957 13.3934 8.97289 13.3848 8.96641 13.3761C8.95995 13.3674 8.95371 13.3586 8.94768 13.3495C8.94165 13.3405 8.93584 13.3313 8.93026 13.322C8.92469 13.3127 8.91935 13.3033 8.91422 13.2937C8.90911 13.2842 8.90424 13.2745 8.89959 13.2646C8.89496 13.2548 8.89056 13.2449 8.8864 13.2349C8.88226 13.2249 8.87836 13.2147 8.8747 13.2045C8.87105 13.1943 8.86764 13.184 8.86449 13.1736C8.86134 13.1632 8.85845 13.1528 8.85582 13.1423C8.85317 13.1317 8.85079 13.1212 8.84867 13.1105C8.84656 13.0999 8.8447 13.0892 8.8431 13.0784C8.84152 13.0677 8.8402 13.0569 8.83913 13.0462C8.83807 13.0353 8.83727 13.0245 8.83674 13.0137C8.8362 13.0029 8.83594 12.992 8.83594 12.9812L8.83594 6.01902C8.83594 6.00817 8.8362 5.99732 8.83674 5.98647C8.83727 5.97563 8.83807 5.96482 8.83913 5.95403C8.8402 5.94322 8.84152 5.93245 8.8431 5.92172C8.8447 5.91098 8.84656 5.90029 8.84867 5.88964C8.85079 5.87901 8.85317 5.86843 8.85582 5.85789C8.85845 5.84738 8.86134 5.83692 8.86449 5.82653C8.86764 5.81614 8.87105 5.80584 8.8747 5.79562C8.87836 5.78541 8.88226 5.77529 8.8864 5.76528C8.89056 5.75525 8.89496 5.74533 8.89959 5.73551C8.90424 5.7257 8.90911 5.71601 8.91422 5.70644C8.91935 5.69687 8.9247 5.68743 8.93028 5.67812C8.93585 5.66882 8.94165 5.65967 8.94768 5.65064C8.95371 5.64161 8.95995 5.63274 8.96641 5.62403C8.97289 5.61531 8.97957 5.60676 8.98644 5.59837C8.99334 5.58998 9.00042 5.58176 9.0077 5.57372C9.01499 5.56569 9.02247 5.55783 9.03015 5.55015C9.03782 5.54248 9.04568 5.535 9.05372 5.52772C9.06176 5.52043 9.06997 5.51334 9.07835 5.50646C9.08674 5.49957 9.09529 5.49289 9.10401 5.48643C9.11273 5.47997 9.1216 5.47373 9.13063 5.4677C9.13965 5.46167 9.14882 5.45586 9.15812 5.45028C9.16743 5.44471 9.17688 5.43937 9.18644 5.43424C9.19601 5.42913 9.2057 5.42426 9.2155 5.41961C9.22531 5.41498 9.23523 5.41058 9.24526 5.40642C9.25529 5.40226 9.26541 5.39836 9.27563 5.3947C9.28584 5.39105 9.29614 5.38764 9.30652 5.38449C9.3169 5.38135 9.32737 5.37846 9.3379 5.37581C9.34842 5.37318 9.359 5.37081 9.36965 5.36869C9.38028 5.36658 9.39097 5.36472 9.4017 5.36312C9.41244 5.36154 9.42321 5.36022 9.43401 5.35915C9.44481 5.35809 9.45563 5.35729 9.46648 5.35676C9.47731 5.35622 9.48815 5.35596 9.499 5.35596C9.50985 5.35596 9.5207 5.35622 9.53153 5.35676C9.54238 5.35729 9.5532 5.35809 9.56399 5.35915C9.5748 5.36022 9.58557 5.36154 9.5963 5.36312C9.60704 5.36472 9.61772 5.36658 9.62836 5.36869C9.63901 5.37081 9.64959 5.37318 9.66011 5.37581C9.67064 5.37846 9.6811 5.38135 9.69149 5.38449C9.70187 5.38764 9.71216 5.39105 9.72238 5.3947C9.73259 5.39836 9.74272 5.40226 9.75275 5.40642C9.76278 5.41058 9.7727 5.41498 9.78251 5.41961C9.79231 5.42426 9.80199 5.42913 9.81156 5.43424C9.82113 5.43937 9.83057 5.44471 9.83988 5.45028C9.84919 5.45586 9.85836 5.46167 9.86738 5.4677C9.8764 5.47373 9.88527 5.47997 9.89399 5.48643C9.9027 5.49289 9.91125 5.49957 9.91966 5.50646C9.92803 5.51334 9.93624 5.52043 9.94429 5.52772C9.95233 5.535 9.96019 5.54248 9.96786 5.55015C9.97552 5.55783 9.98301 5.56569 9.9903 5.57372C9.99758 5.58176 10.0047 5.58998 10.0116 5.59837C10.0184 5.60676 10.0251 5.61531 10.0316 5.62403C10.038 5.63274 10.0443 5.64161 10.0503 5.65064C10.0564 5.65967 10.0622 5.66882 10.0677 5.67812C10.0733 5.68743 10.0787 5.69687 10.0838 5.70644C10.0889 5.71601 10.0938 5.7257 10.0984 5.73551C10.103 5.74533 10.1074 5.75525 10.1116 5.76528C10.1158 5.77529 10.1197 5.78541 10.1233 5.79562C10.127 5.80584 10.1304 5.81614 10.1335 5.82653C10.1367 5.83692 10.1396 5.84738 10.1422 5.85789C10.1448 5.86843 10.1472 5.87901 10.1493 5.88964C10.1515 5.90029 10.1533 5.91098 10.1549 5.92172C10.1565 5.93245 10.1578 5.94322 10.1589 5.95403C10.1599 5.96482 10.1607 5.97563 10.1613 5.98647C10.1618 5.99732 10.1621 6.00817 10.1621 6.01902L10.1621 12.9812C10.1621 12.992 10.1618 13.0029 10.1613 13.0137C10.1607 13.0245 10.1599 13.0353 10.1589 13.0462C10.1578 13.0569 10.1565 13.0677 10.1549 13.0784C10.1533 13.0892 10.1515 13.0999 10.1493 13.1105C10.1472 13.1212 10.1448 13.1317 10.1422 13.1423C10.1396 13.1528 10.1367 13.1632 10.1335 13.1736C10.1304 13.184 10.127 13.1943 10.1233 13.2045C10.1197 13.2147 10.1158 13.2249 10.1116 13.2349C10.1074 13.2449 10.103 13.2548 10.0984 13.2646C10.0938 13.2745 10.0889 13.2842 10.0838 13.2937C10.0787 13.3033 10.0733 13.3127 10.0677 13.322C10.0622 13.3313 10.0564 13.3405 10.0503 13.3495C10.0443 13.3586 10.038 13.3674 10.0316 13.3761C10.0251 13.3848 10.0184 13.3934 10.0116 13.4018C10.0047 13.4102 9.99758 13.4184 9.9903 13.4264C9.98301 13.4345 9.97552 13.4423 9.96786 13.45C9.96019 13.4577 9.95233 13.4652 9.94429 13.4725C9.93624 13.4797 9.92803 13.4868 9.91966 13.4937C9.91125 13.5006 9.9027 13.5073 9.89399 13.5137C9.88527 13.5202 9.8764 13.5264 9.86738 13.5325C9.85836 13.5385 9.84919 13.5443 9.83988 13.5499C9.83057 13.5555 9.82113 13.5608 9.81156 13.5659C9.80199 13.571 9.7923 13.5759 9.78249 13.5806C9.77269 13.5852 9.76278 13.5896 9.75275 13.5937C9.74272 13.5979 9.73259 13.6018 9.72238 13.6055C9.71216 13.6091 9.70187 13.6125 9.69149 13.6157C9.6811 13.6188 9.67064 13.6217 9.66011 13.6243C9.64959 13.627 9.63901 13.6294 9.62836 13.6315C9.61771 13.6336 9.60703 13.6355 9.5963 13.637C9.58557 13.6386 9.5748 13.64 9.56399 13.641C9.5532 13.6421 9.54238 13.6429 9.53153 13.6434C9.5207 13.644 9.50985 13.6442 9.499 13.6442Z"   fill="currentColor" >
</path>
</svg>
