<svg xmlns="http://www.w3.org/2000/svg" xmlns:xlink="http://www.w3.org/1999/xlink" width="24" height="24" viewBox="0 0 24 24" fill="none">
<path d="M23.7983 8.63904C23.9272 8.82302 23.9952 9.04195 23.9952 9.26592C23.9851 11.8195 23.3813 14.382 22.2016 16.8845C21.0357 19.3571 19.3681 21.6426 17.2465 23.6773C17.2351 23.688 17.2235 23.6986 17.2117 23.7089C17.2 23.7192 17.188 23.7293 17.1758 23.7391C17.1636 23.749 17.1512 23.7586 17.1386 23.768C17.126 23.7773 17.1132 23.7862 17.1003 23.7952C17.0873 23.8041 17.0742 23.8125 17.0609 23.8207C17.0476 23.8289 17.0341 23.8369 17.0205 23.8448C17.0068 23.8523 16.9931 23.8598 16.9791 23.8671C16.9652 23.8741 16.9511 23.8812 16.9369 23.8877C16.9227 23.8943 16.9083 23.9006 16.8939 23.9067C16.8794 23.9126 16.8648 23.9182 16.8501 23.9238C16.8354 23.9292 16.8206 23.9344 16.8057 23.9393C16.7908 23.944 16.7757 23.9484 16.7607 23.9527C16.7456 23.9569 16.7304 23.9606 16.7151 23.9644C16.6999 23.9679 16.6846 23.9712 16.6692 23.9742C16.6538 23.977 16.6384 23.9798 16.6228 23.9822C16.6074 23.9845 16.5918 23.9864 16.5763 23.9883C16.5607 23.9899 16.5451 23.9913 16.5294 23.9925C16.5138 23.9934 16.4981 23.9941 16.4825 23.9946C16.4668 23.9951 16.4511 23.9951 16.4355 23.9948C16.4198 23.9946 16.4042 23.9941 16.3885 23.9934C16.3729 23.9925 16.3573 23.9913 16.3416 23.9899C16.326 23.9883 16.3105 23.9864 16.295 23.9845C16.2794 23.9822 16.2639 23.9798 16.2485 23.9773C16.2331 23.9745 16.2177 23.9714 16.2024 23.9681C16.1871 23.9646 16.1719 23.9609 16.1567 23.9569C16.1416 23.9529 16.1265 23.9487 16.1115 23.944C16.0966 23.9393 16.0817 23.9346 16.0669 23.9295C16.0521 23.9241 16.0375 23.9184 16.0229 23.9128C16.0084 23.9069 15.9939 23.9009 15.9796 23.8945C15.9653 23.888 15.9511 23.8814 15.9371 23.8744C15.9231 23.8673 15.9092 23.8603 15.8954 23.8528C15.8817 23.8451 15.8681 23.8373 15.8547 23.8294C15.8209 23.8233 15.7875 23.8155 15.7543 23.8066C15.7212 23.7975 15.6885 23.787 15.6564 23.775C15.6242 23.7628 15.5926 23.7495 15.5616 23.7347C15.5306 23.7199 15.5003 23.7037 15.4708 23.6864L0.544562 14.7739C0.533267 14.7665 0.522099 14.759 0.511058 14.7512C0.500019 14.7435 0.489113 14.7356 0.478341 14.7274C0.46757 14.7193 0.456938 14.711 0.446445 14.7026C0.435955 14.6941 0.425609 14.6855 0.415409 14.6766C0.405212 14.6678 0.395164 14.6588 0.385271 14.6497C0.375376 14.6405 0.36564 14.6312 0.356061 14.6217C0.346482 14.6122 0.337065 14.6025 0.327812 14.5927C0.318561 14.5829 0.309477 14.5729 0.300561 14.5628C0.291645 14.5527 0.282903 14.5425 0.274334 14.532C0.265768 14.5216 0.257377 14.5111 0.249167 14.5004C0.240957 14.4897 0.232929 14.4788 0.225084 14.4679C0.217239 14.4569 0.209583 14.4458 0.202114 14.4346C0.194645 14.4233 0.187368 14.412 0.180283 14.4005C0.173198 14.3891 0.166309 14.3775 0.159616 14.3658C0.152924 14.354 0.146431 14.3422 0.140138 14.3303C0.133845 14.3184 0.127755 14.3063 0.121869 14.2942C0.115983 14.2821 0.110304 14.2698 0.104832 14.2575C0.0993596 14.2452 0.0940974 14.2328 0.0890452 14.2203C0.0839928 14.2078 0.0791534 14.1952 0.0745271 14.1825C0.0699005 14.1698 0.0654896 14.1571 0.0612943 14.1443C0.0570988 14.1315 0.0531212 14.1186 0.0493618 14.1056C0.0456024 14.0927 0.0420629 14.0797 0.0387437 14.0666C0.0354242 14.0535 0.032327 14.0404 0.0294516 14.0272C0.0265761 14.0141 0.0239243 14.0009 0.0214962 13.9876C0.0190681 13.9743 0.0168651 13.961 0.014887 13.9477C0.012909 13.9343 0.0111571 13.921 0.00963132 13.9076C0.00810559 13.8942 0.00680687 13.8807 0.00573516 13.8673C0.00466346 13.8539 0.00381942 13.8404 0.00320301 13.827C0.0025866 13.8135 0.00219818 13.8 0.00203775 13.7865C0.00187733 13.773 0.00194499 13.7595 0.00224073 13.746C0.00253647 13.7326 0.00306013 13.7191 0.0038117 13.7056C0.00456329 13.6922 0.00554234 13.6787 0.00674888 13.6653C0.00795544 13.6519 0.00938879 13.6385 0.0110489 13.6251C0.012709 13.6117 0.014595 13.5983 0.0167068 13.585C0.0188187 13.5717 0.0211551 13.5584 0.0237161 13.5452C0.0262773 13.5319 0.0290616 13.5187 0.0320691 13.5056C0.0350766 13.4925 0.0383054 13.4794 0.0417559 13.4663C0.0452061 13.4533 0.0488759 13.4403 0.0527654 13.4274C0.0566546 13.4145 0.0607611 13.4017 0.0650851 13.3889C0.0694088 13.3761 0.0739473 13.3634 0.0787006 13.3508C0.083454 13.3382 0.0884195 13.3256 0.093597 13.3132C0.0987744 13.3007 0.104161 13.2884 0.109757 13.2761C0.115352 13.2638 0.121154 13.2517 0.127161 13.2396C0.133169 13.2275 0.139379 13.2155 0.145791 13.2037C0.152203 13.1918 0.158814 13.1801 0.165624 13.1684C0.172434 13.1568 0.179439 13.1453 0.186639 13.1339C0.193839 13.1225 0.201229 13.1112 0.208811 13.1C0.216392 13.0889 0.224159 13.0779 0.232114 13.067C0.240066 13.0561 0.248204 13.0453 0.256522 13.0347C0.26484 13.0241 0.273334 13.0136 0.282005 13.0033C0.29068 12.993 0.299523 12.9828 0.308539 12.9728C0.317555 12.9627 0.326741 12.9529 0.33609 12.9431C0.345439 12.9334 0.354952 12.9239 0.364627 12.9145C0.3743 12.9051 0.38413 12.8959 0.394116 12.8868C0.404103 12.8777 0.41424 12.8688 0.424527 12.8601C0.434813 12.8514 0.445243 12.8429 0.45582 12.8345C0.466395 12.8261 0.477109 12.8179 0.487962 12.8099C0.498816 12.8019 0.509802 12.7941 0.520918 12.7865C0.532034 12.7789 0.543277 12.7714 0.554647 12.7642C0.566016 12.7569 0.577505 12.7499 0.589114 12.743C0.600723 12.7361 0.612441 12.7294 0.624275 12.723C0.636109 12.7165 0.64805 12.7102 0.660094 12.7042C0.672139 12.6981 0.684284 12.6923 0.696528 12.6866C0.70877 12.681 0.721105 12.6755 0.733534 12.6703C3.18409 11.7655 5.38266 10.5167 7.2703 8.96398C7.6273 8.67028 7.97314 8.36398 8.30783 8.04511C8.64256 7.72624 8.96525 7.39566 9.27591 7.05335L9.28892 7.03835C9.40454 6.91139 9.51812 6.78262 9.62963 6.65205C9.74117 6.52151 9.8506 6.38923 9.95794 6.25521C10.0653 6.12119 10.1705 5.98552 10.2736 5.84819C10.3766 5.71085 10.4775 5.57191 10.5762 5.43138C10.6748 5.29085 10.7712 5.1488 10.8654 5.00524C10.9596 4.86166 11.0515 4.71663 11.1411 4.57015C11.2307 4.42366 11.318 4.2758 11.4029 4.12657C11.4878 3.97734 11.5703 3.8268 11.6505 3.67495L11.6815 3.62398L11.7125 3.57797C11.7263 3.5565 11.7419 3.53651 11.7595 3.51797C11.7695 3.50599 11.7795 3.49699 11.7905 3.483C11.8031 3.46896 11.8164 3.45562 11.8305 3.44299L11.8704 3.40502C11.8862 3.38965 11.9029 3.3753 11.9204 3.36202L11.9554 3.33502L11.9864 3.30802C12.0036 3.29501 12.0216 3.28336 12.0404 3.27302L12.0974 3.24002C12.1156 3.23006 12.1343 3.22106 12.1534 3.21307C12.1744 3.20081 12.1964 3.1908 12.2194 3.18307C12.2356 3.17519 12.2522 3.16854 12.2694 3.16308L12.3224 3.14906C12.3335 3.1452 12.3448 3.14219 12.3564 3.14006C12.3692 3.13598 12.3822 3.13266 12.3954 3.13008L12.4753 3.11508C12.5001 3.11023 12.5251 3.10755 12.5503 3.10709C12.5706 3.10533 12.591 3.10465 12.6113 3.10507L12.7393 3.10807L12.7843 3.11309L12.8093 3.11609C12.8309 3.11775 12.8522 3.12108 12.8733 3.12607L12.9653 3.14906L12.9852 3.15607C13.0198 3.16537 13.0532 3.17803 13.0852 3.19406L13.0882 3.19406L13.1452 3.21806L17.2655 5.24266L19.723 0.448568C19.846 0.208598 20.1029 0.0486415 20.4299 0.00865823C20.7198 -0.0243408 21.0448 0.0376261 21.3437 0.183614C22.0106 0.511542 22.3435 1.13843 22.1006 1.61336L19.644 6.40945L23.3393 8.22609C23.3628 8.23746 23.3859 8.24962 23.4085 8.26261C23.4312 8.27559 23.4535 8.28935 23.4751 8.30391C23.4966 8.31846 23.5177 8.33374 23.5384 8.34977C23.559 8.3658 23.5791 8.38254 23.5984 8.39998C23.618 8.41741 23.6368 8.43551 23.6548 8.45428C23.6731 8.47305 23.6905 8.49244 23.7071 8.51243C23.724 8.53242 23.7402 8.55298 23.7554 8.57409C23.7709 8.59521 23.7854 8.61687 23.7992 8.63901L23.7983 8.63904ZM21.2887 12.7463C21.3457 12.514 21.3971 12.2804 21.4429 12.0456C21.4888 11.8109 21.529 11.5751 21.5636 11.3384C21.5983 11.1017 21.6273 10.8644 21.6506 10.6263C21.674 10.3882 21.6916 10.1497 21.7036 9.91083L13.0982 5.68259C12.7183 6.30649 12.3024 6.90741 11.8505 7.48228L21.2887 12.7463ZM20.1379 15.9557C20.3059 15.6008 20.4569 15.2518 20.5878 14.9159L10.3317 9.19394C9.83783 9.69485 9.29893 10.1857 8.72804 10.6586C8.52831 10.8223 8.32602 10.9826 8.12113 11.1398C7.91626 11.2969 7.70893 11.4507 7.49912 11.6012C7.28933 11.7517 7.07717 11.8988 6.86265 12.0426C6.64815 12.1863 6.4314 12.3265 6.2124 12.4633C5.99342 12.6001 5.77229 12.7333 5.54902 12.863C5.32578 12.9927 5.1005 13.1188 4.8732 13.2413C4.64593 13.3638 4.41673 13.4826 4.18564 13.5978C3.95455 13.7129 3.72167 13.8244 3.48699 13.9321L5.93155 15.3918L8.74904 13.4601C8.76458 13.4496 8.78035 13.4394 8.79638 13.4295C8.81241 13.4197 8.82868 13.4103 8.84516 13.4013C8.86166 13.3923 8.87834 13.3837 8.89524 13.3755C8.91216 13.3673 8.92927 13.3595 8.94655 13.3521C8.96384 13.3447 8.98128 13.3378 8.99891 13.3313C9.01653 13.3248 9.03432 13.3187 9.05223 13.313C9.07016 13.3074 9.0882 13.3022 9.10639 13.2974C9.12458 13.2926 9.14286 13.2883 9.16123 13.2844C9.17963 13.2805 9.1981 13.2771 9.21664 13.2741C9.2352 13.2711 9.25384 13.2686 9.27249 13.2665C9.29117 13.2645 9.3099 13.2628 9.32865 13.2617C9.3474 13.2605 9.36617 13.2598 9.38497 13.2596C9.40377 13.2593 9.42256 13.2595 9.44131 13.2602C9.46011 13.2609 9.47886 13.262 9.49759 13.2636C9.51631 13.2651 9.53499 13.2672 9.5536 13.2697C9.57226 13.2722 9.59082 13.2751 9.60929 13.2785C9.62776 13.2819 9.64616 13.2858 9.66444 13.29C9.68274 13.2943 9.70093 13.2991 9.719 13.3042C9.73707 13.3094 9.755 13.315 9.77277 13.3211C9.79058 13.3271 9.8082 13.3336 9.82566 13.3405C9.84315 13.3474 9.86045 13.3548 9.87755 13.3625C9.89469 13.3703 9.91161 13.3785 9.92832 13.387C9.94506 13.3956 9.96155 13.4046 9.97782 13.414C9.99411 13.4234 10.0102 13.4332 10.026 13.4433C10.0418 13.4535 10.0573 13.464 10.0726 13.4749C10.0879 13.4859 10.1029 13.4972 10.1176 13.5088C10.1324 13.5205 10.1469 13.5325 10.161 13.5448C10.1752 13.5572 10.189 13.5699 10.2025 13.5829C10.2161 13.596 10.2293 13.6093 10.2422 13.623C10.2551 13.6367 10.2676 13.6507 10.2798 13.665C10.292 13.6792 10.3039 13.6938 10.3154 13.7087C10.3269 13.7235 10.338 13.7387 10.3487 13.7541C10.6887 14.256 10.5567 14.9389 10.0548 15.2788L8.04816 16.6536L11.3995 18.6532L13.6351 16.5166C13.8501 16.3126 14.135 16.1986 14.431 16.1996L14.443 16.1996C14.4623 16.1998 14.4816 16.2003 14.5009 16.2014C14.5202 16.2025 14.5395 16.2041 14.5588 16.2062C14.578 16.2082 14.5971 16.2108 14.6162 16.2139C14.6353 16.2169 14.6543 16.2204 14.6732 16.2244C14.6922 16.2285 14.711 16.233 14.7297 16.2379C14.7484 16.2429 14.7669 16.2483 14.7853 16.2542C14.8037 16.2602 14.822 16.2665 14.84 16.2734C14.8581 16.2802 14.876 16.2875 14.8937 16.2953C14.9115 16.303 14.929 16.3112 14.9463 16.3199C14.9636 16.3285 14.9806 16.3376 14.9975 16.3471C15.0143 16.3566 15.0309 16.3666 15.0472 16.3769C15.0635 16.3873 15.0796 16.398 15.0954 16.4092C15.1112 16.4204 15.1267 16.432 15.1419 16.4439C15.157 16.4559 15.1719 16.4682 15.1865 16.4809C15.2011 16.4937 15.2153 16.5068 15.2292 16.5202C15.2431 16.5337 15.2566 16.5474 15.2698 16.5616C15.2821 16.5745 15.2939 16.5878 15.3055 16.6014C15.3171 16.6149 15.3283 16.6288 15.3392 16.6429C15.3501 16.657 15.3607 16.6713 15.3708 16.686C15.381 16.7006 15.3909 16.7154 15.4003 16.7306C15.4098 16.7457 15.4188 16.761 15.4276 16.7765C15.4363 16.7921 15.4446 16.8078 15.4525 16.8238C15.4604 16.8398 15.468 16.8559 15.4751 16.8722C15.4823 16.8886 15.489 16.9051 15.4953 16.9217C15.5017 16.9384 15.5076 16.9552 15.5131 16.9721C15.5186 16.9891 15.5237 17.0062 15.5284 17.0234C15.533 17.0406 15.5373 17.0579 15.5411 17.0753C15.5449 17.0927 15.5483 17.1102 15.5513 17.1277C15.5542 17.1453 15.5568 17.163 15.5589 17.1807C15.561 17.1984 15.5626 17.2161 15.5638 17.2339C15.5651 17.2517 15.5659 17.2695 15.5662 17.2873C15.5666 17.3051 15.5665 17.3229 15.566 17.3407C15.5654 17.3586 15.5645 17.3764 15.5631 17.3941C15.5617 17.4119 15.5599 17.4296 15.5576 17.4473C15.5554 17.465 15.5527 17.4826 15.5495 17.5001C15.5464 17.5177 15.5428 17.5351 15.5388 17.5525C15.5349 17.5699 15.5305 17.5871 15.5256 17.6043C15.5208 17.6215 15.5156 17.6385 15.5099 17.6554C15.5042 17.6723 15.4981 17.689 15.4917 17.7056C15.4852 17.7222 15.4783 17.7386 15.471 17.7549C15.4637 17.7712 15.456 17.7873 15.4479 17.8031C15.4398 17.819 15.4314 17.8347 15.4225 17.8502C15.4137 17.8656 15.4044 17.8809 15.3948 17.8959C15.3852 17.9109 15.3753 17.9257 15.365 17.9402C15.3546 17.9547 15.344 17.969 15.3329 17.983C15.3219 17.997 15.3106 18.0107 15.2988 18.0242C15.2872 18.0376 15.2751 18.0508 15.2628 18.0636C15.2505 18.0765 15.2378 18.089 15.2248 18.1013L13.4002 19.847L16.2196 21.5317C17.8743 19.831 19.1921 17.9553 20.1369 15.9547L20.1379 15.9557Z"   fill="#4E5969" >
</path>
</svg>
