<svg xmlns="http://www.w3.org/2000/svg" xmlns:xlink="http://www.w3.org/1999/xlink" width="14" height="14" viewBox="0 0 14 14" fill="none">
<g  clip-path="url(#clip-path-18_214)">
<path d="M1.99062 0C1.37812 0 0.875 0.503125 0.875 1.11562L0.875 12.8844C0.875 13.4969 1.37812 14 1.99062 14L12.0094 14C12.6219 14 13.125 13.4969 13.125 12.8844L13.125 4.44062L8.99062 0L1.99062 0Z"   fill="#E34221" >
</path>
<path d="M13.1253 4.4626L13.1253 4.68135L10.3253 4.68135C10.3253 4.68135 8.94713 4.39697 8.96901 3.19385C8.96901 3.19385 9.03463 4.4626 10.3034 4.4626L13.1253 4.4626Z"   fill="#DC3119" >
</path>
<path d="M8.99072 0L8.99072 3.19375C8.99072 3.54375 9.23135 4.4625 10.3251 4.4625L13.1251 4.4625L8.99072 0Z"   fill="#FFFFFF" >
</path>
<path d="M4.15635 10.7186L3.4126 10.7186L3.4126 11.6373C3.4126 11.7248 3.34697 11.7904 3.25947 11.7904C3.17197 11.7904 3.08447 11.7248 3.08447 11.6373L3.08447 9.38418C3.08447 9.25293 3.19385 9.14355 3.3251 9.14355L4.15635 9.14355C4.68135 9.14355 4.96572 9.49356 4.96572 9.93106C4.96572 10.3686 4.65947 10.7186 4.15635 10.7186ZM4.1126 9.42793L3.4126 9.42793L3.4126 10.4342L4.1126 10.4342C4.41885 10.4342 4.6376 10.2154 4.6376 9.93106C4.6376 9.6248 4.41885 9.42793 4.1126 9.42793ZM6.5626 10.7186L5.81885 10.7186L5.81885 11.6373C5.81885 11.7248 5.75322 11.7904 5.66572 11.7904C5.57822 11.7904 5.5126 11.7248 5.5126 11.6373L5.5126 9.38418C5.5126 9.25293 5.6001 9.14355 5.73135 9.14355L6.5626 9.14355C7.0876 9.14355 7.37197 9.49356 7.37197 9.93106C7.37197 10.3686 7.0876 10.7186 6.5626 10.7186ZM6.51885 9.42793L5.84072 9.42793L5.84072 10.4342L6.51885 10.4342C6.8251 10.4342 7.04385 10.2154 7.04385 9.93106C7.04385 9.6248 6.8251 9.42793 6.51885 9.42793ZM9.60322 9.42793L8.88134 9.42793L8.88134 11.6373C8.88134 11.7248 8.81572 11.7904 8.72822 11.7904C8.64072 11.7904 8.55322 11.7248 8.55322 11.6373L8.55322 9.42793L7.85322 9.42793C7.76572 9.42793 7.7001 9.3623 7.7001 9.27481C7.7001 9.20918 7.76572 9.14355 7.85322 9.14355L9.60322 9.14355C9.69072 9.14355 9.75634 9.20918 9.75634 9.29668C9.75634 9.3623 9.69072 9.42793 9.60322 9.42793Z"   fill="#FFFFFF" >
</path>
<path d="M1.98965 -0.00341797C1.37715 -0.00341797 0.874023 0.477832 0.874023 1.09033L0.874023 12.881C0.874023 13.4935 1.37715 13.9966 1.98965 13.9966L12.0084 13.9966C12.6209 13.9966 13.124 13.4935 13.124 12.881L13.124 4.43721L8.98965 -0.00341797L1.98965 -0.00341797Z"   fill="#14A9DA" >
</path>
<path d="M13.1243 4.45918L13.1243 4.67793L10.3243 4.67793C10.3243 4.67793 8.94616 4.39355 8.96803 3.19043C8.96803 3.19043 9.03366 4.45918 10.3024 4.45918L13.1243 4.45918Z"   fill="#0F93D0" >
</path>
<path d="M8.98975 -0.00341797L8.98975 3.19033C8.98975 3.54033 9.23037 4.45908 10.3241 4.45908L13.1241 4.45908L8.98975 -0.00341797Z"   fill="#FFFFFF" >
</path>
<path d="M3.98037 11.7869L3.32412 11.7869C3.19287 11.7869 3.0835 11.6775 3.0835 11.5463L3.0835 9.38066C3.0835 9.24941 3.19287 9.16191 3.32412 9.16191L3.98037 9.16191C4.81162 9.16191 5.33662 9.73066 5.33662 10.4744C5.33662 11.2182 4.81162 11.7869 3.98037 11.7869ZM3.98037 9.44629L3.41162 9.44629L3.41162 11.4807L3.98037 11.4807C4.63662 11.4807 5.0085 11.0213 5.0085 10.4744C5.0085 9.90566 4.63662 9.44629 3.98037 9.44629ZM7.15225 11.8307C6.36475 11.8307 5.83975 11.24 5.83975 10.4744C5.83975 9.70879 6.36475 9.11816 7.15225 9.11816C7.91787 9.11816 8.44287 9.68691 8.44287 10.4744C8.44287 11.24 7.91787 11.8307 7.15225 11.8307ZM7.15225 9.40254C6.56162 9.40254 6.18975 9.86191 6.18975 10.4744C6.18975 11.0869 6.56162 11.5244 7.15225 11.5244C7.721 11.5244 8.11475 11.0869 8.11475 10.4744C8.11475 9.86191 7.721 9.40254 7.15225 9.40254ZM11.1772 9.49004C11.1991 9.51191 11.221 9.55566 11.221 9.59941C11.221 9.68691 11.1554 9.75254 11.0679 9.75254C11.0241 9.75254 10.9804 9.73066 10.9585 9.70879C10.8054 9.51191 10.5429 9.40254 10.3022 9.40254C9.7335 9.40254 9.296 9.84004 9.296 10.4744C9.296 11.0869 9.7335 11.5244 10.3022 11.5244C10.5429 11.5244 10.7835 11.4369 10.9585 11.24C10.9804 11.1963 11.0241 11.1744 11.0679 11.1744C11.1554 11.1744 11.221 11.2619 11.221 11.3494C11.221 11.3932 11.1991 11.415 11.1772 11.4588C10.9804 11.6775 10.696 11.8307 10.3022 11.8307C9.53662 11.8307 8.946 11.2838 8.946 10.4744C8.946 9.66504 9.53662 9.11816 10.3022 9.11816C10.696 9.11816 10.9804 9.27129 11.1772 9.49004Z"   fill="#FFFFFF" >
</path>
</g>
<defs>
<clipPath id="clip-path-18_214">
<path d="M0 14L14 14L14 0L0 0L0 14Z" fill="white"/>
</clipPath>
</defs>
</svg>
