<svg xmlns="http://www.w3.org/2000/svg" xmlns:xlink="http://www.w3.org/1999/xlink" width="23" height="17" viewBox="0 0 23 17" fill="none">
<g  clip-path="url(#clip-path-15_767)">
<path d="M18.4121 5.67019C18.3927 5.57131 18.3709 5.47288 18.3471 5.37492C18.3233 5.27697 18.2975 5.17955 18.2694 5.0827C18.2415 4.98584 18.2114 4.88964 18.1793 4.79408C18.1472 4.69852 18.1129 4.60371 18.0769 4.50961C18.0406 4.41551 18.0024 4.32225 17.9621 4.22979C17.9219 4.13735 17.8796 4.04581 17.8356 3.95517C17.7915 3.86452 17.7452 3.77488 17.6972 3.68621C17.6491 3.59756 17.5992 3.50998 17.5475 3.42345C17.4956 3.33694 17.4419 3.25158 17.3865 3.16736C17.331 3.08316 17.2738 3.00017 17.2147 2.9184C17.1557 2.83666 17.0948 2.75622 17.0323 2.67707C16.9698 2.59793 16.9056 2.52016 16.8397 2.44376C16.7737 2.36738 16.7062 2.29244 16.6372 2.21895C16.5681 2.14547 16.4974 2.07348 16.4252 2.00303C16.353 1.93257 16.2793 1.86371 16.2041 1.7964C16.1289 1.72912 16.0523 1.66348 15.9743 1.59946C15.8963 1.53546 15.817 1.47316 15.7363 1.41256C15.6556 1.35196 15.5737 1.29312 15.4904 1.23604C15.4072 1.17896 15.3228 1.1237 15.2372 1.07024C15.1516 1.01678 15.0649 0.965189 14.977 0.915457C14.8892 0.865724 14.8003 0.817899 14.7104 0.77198C14.6206 0.726062 14.5297 0.682095 14.438 0.640076C14.3462 0.598058 14.2535 0.558026 14.16 0.519985C14.0665 0.481945 13.9722 0.445926 13.8772 0.411933C13.7821 0.377939 13.6864 0.346 13.5899 0.316117C13.4935 0.286234 13.3965 0.258433 13.2988 0.232716C13.2012 0.206996 13.1031 0.183386 13.0044 0.161882C12.9058 0.140378 12.8067 0.121 12.7072 0.103748C12.6077 0.0864971 12.5079 0.071388 12.4078 0.0584215C12.3077 0.045455 12.2073 0.0346428 12.1067 0.0259851C12.0061 0.0173274 11.9053 0.0108321 11.8044 0.00649927C11.7036 0.00216644 11.6026 0 11.5017 0C11.4007 7.30551e-09 11.2998 0.00216645 11.1989 0.00649931C11.098 0.0108322 10.9973 0.0173274 10.8967 0.0259851C10.7961 0.0346428 10.6957 0.045455 10.5956 0.0584215C10.4954 0.0713881 10.3956 0.0864972 10.2961 0.103749C10.1967 0.121 10.0976 0.140378 9.99894 0.161882C9.90029 0.183387 9.80215 0.206998 9.70451 0.232716C9.60688 0.258433 9.50985 0.286234 9.41341 0.316117C9.31697 0.346 9.22123 0.377939 9.12619 0.411933C9.03113 0.445926 8.93685 0.481945 8.84334 0.519985C8.74982 0.558026 8.65719 0.598058 8.56541 0.640076C8.47362 0.682095 8.38279 0.726062 8.2929 0.77198C8.20301 0.817899 8.11414 0.865724 8.02631 0.915457C7.93849 0.965189 7.85178 1.01678 7.76618 1.07024C7.68057 1.1237 7.59615 1.17896 7.51293 1.23604C7.42971 1.29312 7.34776 1.35196 7.26706 1.41256C7.18637 1.47316 7.10703 1.53546 7.02902 1.59946C6.951 1.66348 6.87442 1.72912 6.79925 1.7964C6.72406 1.86371 6.65037 1.93257 6.57816 2.00303C6.50595 2.07348 6.43529 2.14547 6.36619 2.21895C6.29707 2.29244 6.22957 2.36738 6.1637 2.44376C6.09782 2.52016 6.03361 2.59793 5.97108 2.67707C5.90855 2.75622 5.84775 2.83666 5.7887 2.9184C5.72962 3.00017 5.67235 3.08316 5.61685 3.16736C5.56136 3.25158 5.50771 3.33694 5.4559 3.42345C5.4041 3.50998 5.35417 3.59756 5.30613 3.68621C5.25808 3.77488 5.21198 3.86452 5.1678 3.95517C5.12363 4.04581 5.08142 4.13735 5.04119 4.22979C5.00096 4.32225 4.96273 4.41551 4.92652 4.50961C4.8903 4.60371 4.85612 4.69852 4.82399 4.79408C4.79186 4.88964 4.76181 4.98584 4.73382 5.0827C4.70583 5.17955 4.67996 5.27697 4.65616 5.37492C4.63238 5.47288 4.61071 5.57131 4.59115 5.67019C1.93481 5.79354 -0.118301 8.04327 0.00530112 10.695C0.128904 13.3467 2.38272 15.3962 5.03906 15.2728L5.79307 15.2726C5.80233 15.2726 5.8116 15.2724 5.82084 15.272C5.83009 15.2715 5.83932 15.2708 5.84853 15.2699C5.85776 15.269 5.86694 15.2679 5.87611 15.2665C5.88527 15.2652 5.89438 15.2636 5.90346 15.2618C5.91254 15.26 5.92157 15.258 5.93057 15.2557C5.93955 15.2535 5.94846 15.251 5.95733 15.2483C5.96619 15.2456 5.97497 15.2427 5.98371 15.2396C5.99242 15.2365 6.00105 15.2332 6.00962 15.2296C6.01818 15.2261 6.02665 15.2224 6.03501 15.2184C6.04338 15.2145 6.05164 15.2103 6.05981 15.2059C6.06797 15.2016 6.07604 15.197 6.08397 15.1923C6.09192 15.1875 6.09974 15.1826 6.10744 15.1774C6.11514 15.1723 6.12272 15.167 6.13015 15.1615C6.13759 15.156 6.14487 15.1503 6.15204 15.1444C6.15921 15.1386 6.16621 15.1325 6.17308 15.1263C6.17993 15.1201 6.18663 15.1137 6.19318 15.1072C6.19974 15.1007 6.20612 15.094 6.21234 15.0871C6.21856 15.0803 6.2246 15.0733 6.23047 15.0661C6.23634 15.059 6.24204 15.0517 6.24756 15.0443C6.25307 15.0369 6.25841 15.0293 6.26355 15.0216C6.26869 15.0139 6.27364 15.0061 6.27841 14.9982C6.28317 14.9903 6.28773 14.9822 6.2921 14.974C6.29647 14.9659 6.30063 14.9577 6.30459 14.9493C6.30855 14.9409 6.31231 14.9325 6.31585 14.9239C6.31939 14.9154 6.32272 14.9068 6.32584 14.8981C6.32895 14.8894 6.33186 14.8806 6.33456 14.8717C6.33724 14.8629 6.33971 14.854 6.34196 14.845C6.3442 14.8361 6.34623 14.827 6.34805 14.818C6.34986 14.8089 6.35144 14.7998 6.35279 14.7907C6.35415 14.7815 6.35528 14.7724 6.35619 14.7631C6.35711 14.7539 6.35779 14.7447 6.35824 14.7355C6.35869 14.7263 6.35892 14.717 6.35892 14.7078C6.35892 14.6985 6.35869 14.6893 6.35824 14.6801C6.35779 14.6708 6.35711 14.6616 6.35619 14.6524C6.35528 14.6432 6.35415 14.634 6.35279 14.6249C6.35144 14.6158 6.34986 14.6067 6.34805 14.5976C6.34623 14.5885 6.3442 14.5795 6.34196 14.5705C6.33971 14.5616 6.33724 14.5527 6.33454 14.5438C6.33186 14.535 6.32895 14.5262 6.32584 14.5175C6.32272 14.5088 6.31939 14.5002 6.31585 14.4916C6.31231 14.4831 6.30855 14.4746 6.30459 14.4663C6.30063 14.4579 6.29647 14.4497 6.2921 14.4415C6.28773 14.4334 6.28317 14.4253 6.27841 14.4174C6.27364 14.4095 6.26869 14.4017 6.26355 14.394C6.25841 14.3863 6.25307 14.3787 6.24756 14.3713C6.24204 14.3639 6.23634 14.3566 6.23047 14.3494C6.2246 14.3423 6.21856 14.3353 6.21234 14.3284C6.20612 14.3216 6.19974 14.3149 6.19318 14.3084C6.18663 14.3018 6.17993 14.2955 6.17308 14.2893C6.16621 14.283 6.15921 14.277 6.15204 14.2711C6.14487 14.2653 6.13759 14.2596 6.13015 14.2541C6.12272 14.2486 6.11514 14.2433 6.10744 14.2381C6.09974 14.233 6.09192 14.228 6.08397 14.2233C6.07604 14.2185 6.06797 14.214 6.05981 14.2096C6.05164 14.2053 6.04338 14.2011 6.03501 14.1972C6.02665 14.1932 6.01818 14.1895 6.00962 14.1859C6.00105 14.1824 5.99242 14.1791 5.98371 14.1759C5.97497 14.1728 5.96619 14.1699 5.95733 14.1672C5.94846 14.1646 5.93955 14.1621 5.93057 14.1599C5.92157 14.1576 5.91254 14.1556 5.90346 14.1538C5.89438 14.152 5.88527 14.1504 5.87611 14.1491C5.86694 14.1477 5.85776 14.1466 5.84853 14.1456C5.83932 14.1448 5.83009 14.1441 5.82084 14.1436C5.8116 14.1432 5.80233 14.1429 5.79307 14.1429L5.03906 14.1429C3.00774 14.1587 1.34834 12.5275 1.3327 10.4997C1.31706 8.47187 2.9511 6.81538 4.98242 6.79978L5.54955 6.92988L5.62321 6.30852C5.63435 6.2205 5.64747 6.13278 5.66257 6.04535C5.67769 5.95793 5.69477 5.87089 5.71381 5.78423C5.73285 5.69759 5.75385 5.61141 5.77679 5.52569C5.79974 5.44 5.82462 5.35485 5.85141 5.27024C5.8782 5.18568 5.90691 5.10174 5.93751 5.01843C5.96809 4.93514 6.00055 4.85258 6.03489 4.77075C6.06922 4.68892 6.10537 4.60791 6.14337 4.52771C6.18138 4.44752 6.22117 4.36822 6.26276 4.28981C6.30434 4.21141 6.34768 4.13398 6.39277 4.05753C6.43785 3.98108 6.48465 3.90568 6.53314 3.83134C6.58166 3.757 6.63181 3.6838 6.68362 3.61172C6.73542 3.53963 6.78884 3.46876 6.84387 3.3991C6.89888 3.32944 6.95544 3.26104 7.01357 3.19391C7.07169 3.1268 7.13129 3.06103 7.19238 2.99658C7.25346 2.93217 7.31597 2.86915 7.37992 2.80752C7.44386 2.74591 7.50915 2.68577 7.57583 2.6271C7.6425 2.56843 7.71045 2.5113 7.7797 2.45568C7.84895 2.40009 7.91941 2.34606 7.99111 2.29364C8.0628 2.24121 8.13564 2.19042 8.20963 2.14128C8.28362 2.09214 8.35867 2.0447 8.43482 1.99893C8.51096 1.95317 8.58809 1.90916 8.66622 1.86688C8.74435 1.82459 8.8234 1.78409 8.90336 1.74537C8.98332 1.70666 9.06411 1.66977 9.14575 1.6347C9.22737 1.59962 9.30976 1.56641 9.39289 1.53505C9.47603 1.50369 9.55981 1.47422 9.64428 1.44664C9.72874 1.41906 9.81379 1.3934 9.89942 1.36965C9.98505 1.3459 10.0712 1.3241 10.1578 1.30424C10.2444 1.28438 10.3314 1.26648 10.4188 1.25054C10.5063 1.2346 10.594 1.22064 10.6821 1.20866C10.7701 1.19667 10.8584 1.18668 10.9469 1.17868C11.0354 1.17068 11.1241 1.16467 11.2129 1.16067C11.3016 1.15666 11.3904 1.15466 11.4793 1.15466C11.5682 1.15466 11.657 1.15666 11.7458 1.16067C11.8346 1.16467 11.9232 1.17068 12.0117 1.17868C12.1002 1.18668 12.1885 1.19667 12.2766 1.20866C12.3646 1.22064 12.4524 1.2346 12.5398 1.25054C12.6272 1.26648 12.7142 1.28438 12.8009 1.30424C12.8875 1.3241 12.9736 1.3459 13.0592 1.36965C13.1448 1.3934 13.2299 1.41906 13.3144 1.44664C13.3988 1.47422 13.4826 1.50369 13.5658 1.53505C13.6489 1.56641 13.7313 1.59962 13.8129 1.6347C13.8946 1.66977 13.9753 1.70666 14.0553 1.74537C14.1353 1.78409 14.2143 1.82459 14.2924 1.86688C14.3706 1.90916 14.4477 1.95317 14.5238 1.99893C14.6 2.0447 14.675 2.09214 14.749 2.14128C14.823 2.19042 14.8959 2.24121 14.9676 2.29364C15.0392 2.34606 15.1097 2.40009 15.179 2.45568C15.2482 2.5113 15.3162 2.56843 15.3828 2.6271C15.4495 2.68577 15.5148 2.74591 15.5787 2.80752C15.6427 2.86915 15.7052 2.93217 15.7663 2.99658C15.8274 3.06103 15.887 3.1268 15.9451 3.19391C16.0032 3.26104 16.0598 3.32944 16.1148 3.3991C16.1698 3.46876 16.2232 3.53963 16.275 3.61172C16.3268 3.6838 16.377 3.757 16.4255 3.83134C16.474 3.90568 16.5208 3.98108 16.5659 4.05753C16.611 4.13398 16.6543 4.21141 16.6959 4.28981C16.7374 4.36822 16.7772 4.44752 16.8153 4.52771C16.8534 4.60791 16.8894 4.68892 16.9237 4.77075C16.9581 4.85258 16.9906 4.93514 17.0212 5.01843C17.0518 5.10174 17.0805 5.18568 17.1073 5.27024C17.1341 5.35485 17.1589 5.44 17.1818 5.52569C17.2048 5.61141 17.2257 5.69759 17.2448 5.78423C17.264 5.87089 17.2809 5.95793 17.2961 6.04535C17.3112 6.13278 17.3243 6.2205 17.3355 6.30852L17.4487 6.91848L18.0158 6.79989C20.0471 6.81538 21.6812 8.4719 21.6656 10.4997C21.6499 12.5275 19.9905 14.1587 17.9591 14.143L17.1076 14.143C17.0985 14.143 17.0892 14.1432 17.0799 14.1436C17.0707 14.1441 17.0614 14.1448 17.0523 14.1457C17.0431 14.1466 17.0338 14.1477 17.0246 14.1491C17.0155 14.1504 17.0064 14.152 16.9972 14.1538C16.9881 14.1556 16.9791 14.1576 16.9701 14.1599C16.9611 14.1621 16.9521 14.1646 16.9433 14.1673C16.9345 14.17 16.9259 14.1729 16.917 14.176C16.9082 14.1791 16.8996 14.1824 16.8911 14.1859C16.8826 14.1895 16.8741 14.1932 16.8657 14.1972C16.8573 14.2011 16.849 14.2053 16.8409 14.2096C16.8327 14.214 16.8247 14.2186 16.8168 14.2233C16.8088 14.2281 16.801 14.233 16.7933 14.2381C16.7855 14.2433 16.778 14.2486 16.7705 14.2541C16.763 14.2596 16.7559 14.2653 16.7487 14.2712C16.7416 14.277 16.7344 14.2831 16.7276 14.2893C16.7208 14.2955 16.714 14.3019 16.7075 14.3084C16.701 14.3149 16.6945 14.3216 16.6884 14.3285C16.6822 14.3353 16.6761 14.3423 16.6702 14.3495C16.6644 14.3566 16.6586 14.3639 16.6531 14.3713C16.6476 14.3787 16.6423 14.3863 16.6372 14.394C16.632 14.4017 16.6271 14.4095 16.6223 14.4174C16.6175 14.4254 16.613 14.4334 16.6086 14.4415C16.6043 14.4497 16.6001 14.4579 16.5961 14.4663C16.5922 14.4747 16.5884 14.4831 16.5849 14.4916C16.5813 14.5002 16.578 14.5088 16.5749 14.5175C16.5718 14.5262 16.5689 14.535 16.5662 14.5438C16.5635 14.5527 16.561 14.5616 16.5588 14.5705C16.5565 14.5795 16.5545 14.5885 16.5527 14.5976C16.5509 14.6067 16.5493 14.6158 16.5479 14.6249C16.5466 14.6341 16.5455 14.6432 16.5445 14.6524C16.5436 14.6616 16.5429 14.6709 16.5425 14.6801C16.542 14.6893 16.5418 14.6986 16.5418 14.7078C16.5418 14.7171 16.542 14.7263 16.5425 14.7355C16.5429 14.7447 16.5436 14.754 16.5445 14.7632C16.5455 14.7724 16.5466 14.7816 16.5479 14.7907C16.5493 14.7998 16.5509 14.8089 16.5527 14.818C16.5545 14.8271 16.5565 14.8361 16.5588 14.8451C16.561 14.854 16.5635 14.8629 16.5662 14.8718C16.5689 14.8806 16.5718 14.8894 16.5749 14.8981C16.578 14.9068 16.5813 14.9154 16.5849 14.924C16.5884 14.9325 16.5922 14.941 16.5961 14.9493C16.6001 14.9577 16.6043 14.9659 16.6086 14.9741C16.613 14.9822 16.6175 14.9903 16.6223 14.9982C16.6271 15.0061 16.632 15.0139 16.6372 15.0216C16.6423 15.0293 16.6476 15.0369 16.6531 15.0443C16.6586 15.0517 16.6644 15.059 16.6702 15.0661C16.6761 15.0733 16.6822 15.0803 16.6884 15.0871C16.6945 15.094 16.701 15.1007 16.7075 15.1072C16.714 15.1138 16.7208 15.1201 16.7276 15.1263C16.7344 15.1325 16.7416 15.1386 16.7487 15.1444C16.7559 15.1503 16.763 15.156 16.7705 15.1615C16.778 15.167 16.7855 15.1723 16.7933 15.1775C16.801 15.1826 16.8088 15.1875 16.8168 15.1923C16.8247 15.197 16.8327 15.2016 16.8409 15.206C16.849 15.2103 16.8573 15.2145 16.8657 15.2184C16.8741 15.2224 16.8826 15.2261 16.8911 15.2297C16.8996 15.2332 16.9082 15.2365 16.917 15.2396C16.9259 15.2428 16.9345 15.2456 16.9433 15.2483C16.9521 15.251 16.9611 15.2535 16.9701 15.2557C16.9791 15.258 16.9881 15.26 16.9972 15.2618C17.0064 15.2636 17.0155 15.2652 17.0246 15.2665C17.0338 15.2679 17.0431 15.269 17.0523 15.2699C17.0614 15.2709 17.0707 15.2715 17.0799 15.272C17.0892 15.2724 17.0985 15.2727 17.1076 15.2727L17.9639 15.2727C20.6202 15.3964 22.8739 13.3469 22.9977 10.6952C23.1216 8.0434 21.0685 5.79367 18.4121 5.67009L18.4121 5.67019Z"   fill="#660874" >
</path>
<path d="M11.9111 16.8298C11.9044 16.8366 11.8976 16.8431 11.8906 16.8496C11.8836 16.8559 11.8764 16.8621 11.8691 16.8682C11.8618 16.8741 11.8543 16.8799 11.8467 16.8856C11.8391 16.8913 11.8314 16.8968 11.8235 16.902C11.8156 16.9073 11.8077 16.9124 11.7995 16.9173C11.7914 16.9223 11.7832 16.927 11.7748 16.9314C11.7665 16.9359 11.758 16.9402 11.7494 16.9442C11.7409 16.9483 11.7322 16.9522 11.7235 16.9558C11.7147 16.9595 11.7059 16.9629 11.6969 16.9661C11.688 16.9693 11.679 16.9723 11.6699 16.9751C11.6609 16.9778 11.6517 16.9804 11.6425 16.9827C11.6333 16.985 11.6241 16.9871 11.6148 16.9888C11.6055 16.9907 11.5961 16.9924 11.5868 16.9938C11.5774 16.9953 11.568 16.9964 11.5585 16.9973C11.5491 16.9982 11.5396 16.9989 11.5301 16.9995C11.5207 16.9999 11.5112 17.0001 11.5017 17.0001C11.4922 17.0001 11.4827 16.9999 11.4733 16.9995C11.4638 16.9989 11.4543 16.9982 11.4449 16.9973C11.4355 16.9964 11.4261 16.9953 11.4167 16.9938C11.4073 16.9924 11.3979 16.9907 11.3886 16.9888C11.3794 16.9871 11.3701 16.985 11.3609 16.9827C11.3517 16.9804 11.3426 16.9778 11.3335 16.9751C11.3244 16.9723 11.3154 16.9693 11.3065 16.9661C11.2976 16.9629 11.2887 16.9595 11.28 16.9558C11.2712 16.9522 11.2625 16.9483 11.254 16.9442C11.2454 16.9402 11.237 16.9359 11.2286 16.9314C11.2202 16.927 11.212 16.9223 11.2039 16.9173C11.1958 16.9124 11.1878 16.9073 11.1799 16.902C11.172 16.8968 11.1643 16.8913 11.1567 16.8856C11.1491 16.8799 11.1416 16.8741 11.1343 16.8682C11.127 16.8621 11.1199 16.8559 11.1129 16.8496C11.1059 16.8431 11.099 16.8366 11.0923 16.8298L7.83445 13.5776C7.82764 13.571 7.821 13.5642 7.81454 13.5572C7.80806 13.5503 7.80177 13.5432 7.79566 13.5359C7.78954 13.5287 7.78361 13.5213 7.77787 13.5137C7.77212 13.5062 7.76655 13.4985 7.76119 13.4907C7.75581 13.4829 7.75063 13.4749 7.74566 13.4668C7.74069 13.4587 7.73592 13.4506 7.73134 13.4422C7.72677 13.4339 7.72241 13.4255 7.71825 13.417C7.7141 13.4085 7.71016 13.3998 7.70642 13.3911C7.7027 13.3824 7.69919 13.3736 7.6959 13.3647C7.69262 13.3558 7.68955 13.3468 7.6867 13.3378C7.68385 13.3287 7.68123 13.3196 7.67883 13.3104C7.67643 13.3012 7.67426 13.292 7.67232 13.2827C7.67038 13.2735 7.66867 13.2641 7.66719 13.2548C7.66572 13.2454 7.66447 13.236 7.66345 13.2266C7.66244 13.2171 7.66167 13.2077 7.66112 13.1982C7.66057 13.1888 7.66025 13.1793 7.66017 13.1698C7.6601 13.1603 7.66026 13.1509 7.66066 13.1414C7.66105 13.1319 7.66167 13.1224 7.66252 13.113C7.66338 13.1035 7.66448 13.0941 7.66581 13.0847C7.66713 13.0753 7.66868 13.066 7.67047 13.0567C7.67227 13.0474 7.67428 13.0381 7.67652 13.0289C7.67877 13.0197 7.68125 13.0105 7.68394 13.0014C7.68665 12.9923 7.68957 12.9833 7.69272 12.9744C7.69586 12.9654 7.69922 12.9566 7.70282 12.9478C7.7064 12.939 7.71019 12.9303 7.71421 12.9217C7.71822 12.9131 7.72245 12.9046 7.72688 12.8962C7.73132 12.8878 7.73595 12.8796 7.7408 12.8714C7.74565 12.8633 7.75068 12.8552 7.75592 12.8473C7.76116 12.8394 7.7666 12.8316 7.77223 12.824C7.77785 12.8164 7.78366 12.8089 7.78966 12.8015C7.79566 12.7941 7.80183 12.787 7.80819 12.7799C7.81454 12.7729 7.82106 12.766 7.82776 12.7592C7.83445 12.7525 7.8413 12.7459 7.84832 12.7395C7.85533 12.7332 7.86251 12.7269 7.86984 12.7209C7.87716 12.7149 7.88464 12.709 7.89225 12.7034C7.89987 12.6977 7.90762 12.6922 7.9155 12.6869C7.92339 12.6816 7.9314 12.6765 7.93955 12.6717C7.94769 12.6668 7.95594 12.6621 7.96431 12.6576C7.97267 12.6531 7.98115 12.6488 7.98974 12.6448C7.99832 12.6407 8.007 12.6368 8.01577 12.6332C8.02454 12.6296 8.0334 12.6262 8.04234 12.623C8.05128 12.6197 8.0603 12.6168 8.06938 12.614C8.07848 12.6112 8.08763 12.6087 8.09684 12.6064C8.10606 12.6041 8.11532 12.602 8.12463 12.6002C8.13396 12.5983 8.14331 12.5967 8.15271 12.5953C8.16211 12.594 8.17153 12.5928 8.18098 12.5919C8.19043 12.5909 8.19991 12.5902 8.2094 12.5898C8.21889 12.5893 8.22838 12.5891 8.23789 12.5891C8.24738 12.5892 8.25687 12.5894 8.26636 12.5899C8.27585 12.5903 8.28532 12.5911 8.29476 12.592C8.30422 12.593 8.31364 12.5941 8.32303 12.5955C8.33242 12.597 8.34178 12.5986 8.35109 12.6005C8.3604 12.6024 8.36967 12.6044 8.37888 12.6068C8.38808 12.6091 8.39722 12.6117 8.4063 12.6144C8.41539 12.6172 8.4244 12.6202 8.43333 12.6235C8.44226 12.6267 8.45112 12.6301 8.45989 12.6338C8.46865 12.6374 8.47731 12.6413 8.48588 12.6454C8.49445 12.6495 8.50292 12.6538 8.51127 12.6583C8.51963 12.6628 8.52788 12.6675 8.536 12.6724C8.54413 12.6773 8.55213 12.6824 8.56 12.6877C8.56787 12.693 8.57561 12.6985 8.58322 12.7042C8.59081 12.7099 8.59826 12.7158 8.60557 12.7218C8.61289 12.7279 8.62004 12.7341 8.62704 12.7405C8.63405 12.747 8.64089 12.7535 8.64756 12.7603L10.925 15.0337L10.925 7.98856C10.925 7.97914 10.9253 7.96973 10.9257 7.96032C10.9262 7.95091 10.9269 7.94152 10.9278 7.93215C10.9287 7.92279 10.9299 7.91345 10.9313 7.90413C10.9326 7.89481 10.9343 7.88553 10.9361 7.87629C10.9379 7.86706 10.94 7.85787 10.9423 7.84873C10.9446 7.8396 10.9471 7.83053 10.9498 7.82152C10.9526 7.8125 10.9555 7.80355 10.9587 7.79469C10.9619 7.78582 10.9653 7.77704 10.9689 7.76834C10.9725 7.75964 10.9763 7.75103 10.9804 7.74251C10.9844 7.734 10.9886 7.72559 10.9931 7.71729C10.9975 7.70898 11.0022 7.70079 11.007 7.69271C11.0119 7.68463 11.0169 7.67667 11.0222 7.66885C11.0274 7.66101 11.0328 7.65332 11.0385 7.64576C11.0441 7.63819 11.0499 7.63076 11.0559 7.62348C11.0619 7.61621 11.068 7.60908 11.0744 7.60209C11.0807 7.59512 11.0872 7.58831 11.0939 7.58164C11.1005 7.57498 11.1074 7.56849 11.1144 7.56217C11.1213 7.55584 11.1285 7.54968 11.1358 7.54371C11.1431 7.53774 11.1505 7.53195 11.1581 7.52634C11.1657 7.52073 11.1734 7.51531 11.1812 7.51007C11.1891 7.50484 11.197 7.4998 11.2051 7.49497C11.2132 7.49012 11.2214 7.48547 11.2297 7.48104C11.2381 7.4766 11.2465 7.47236 11.255 7.46834C11.2636 7.46431 11.2722 7.46049 11.2809 7.4569C11.2896 7.45329 11.2984 7.4499 11.3073 7.44672C11.3162 7.44356 11.3251 7.44061 11.3342 7.43787C11.3432 7.43514 11.3523 7.43263 11.3614 7.43034C11.3706 7.42804 11.3798 7.42598 11.389 7.42414C11.3983 7.42231 11.4076 7.4207 11.4169 7.41931C11.4262 7.41793 11.4356 7.41678 11.445 7.41586C11.4544 7.41493 11.4638 7.41424 11.4732 7.41378C11.4826 7.41332 11.4921 7.41309 11.5015 7.41309C11.5109 7.41309 11.5204 7.41332 11.5298 7.41378C11.5392 7.41424 11.5486 7.41493 11.558 7.41586C11.5674 7.41678 11.5768 7.41793 11.5861 7.41931C11.5954 7.4207 11.6047 7.42231 11.614 7.42414C11.6232 7.42598 11.6324 7.42804 11.6416 7.43034C11.6507 7.43263 11.6598 7.43514 11.6688 7.43787C11.6779 7.44061 11.6868 7.44356 11.6957 7.44672C11.7046 7.4499 11.7134 7.45329 11.7221 7.4569C11.7308 7.46049 11.7395 7.46431 11.748 7.46834C11.7565 7.47236 11.7649 7.4766 11.7732 7.48104C11.7816 7.48547 11.7898 7.49012 11.7979 7.49497C11.806 7.4998 11.8139 7.50484 11.8218 7.51007C11.8296 7.51531 11.8373 7.52073 11.8449 7.52634C11.8525 7.53195 11.8599 7.53774 11.8672 7.54371C11.8745 7.54968 11.8816 7.55584 11.8886 7.56217C11.8956 7.56849 11.9025 7.57498 11.9091 7.58164C11.9158 7.58831 11.9223 7.59512 11.9286 7.60209C11.935 7.60908 11.9411 7.61621 11.9471 7.62348C11.9531 7.63076 11.9589 7.63819 11.9645 7.64576C11.9702 7.65332 11.9756 7.66101 11.9808 7.66885C11.9861 7.67667 11.9911 7.68463 11.996 7.69271C12.0008 7.70079 12.0055 7.70898 12.0099 7.71729C12.0144 7.72559 12.0186 7.734 12.0226 7.74251C12.0267 7.75103 12.0305 7.75964 12.0341 7.76834C12.0377 7.77704 12.0411 7.78582 12.0443 7.79469C12.0475 7.80355 12.0504 7.8125 12.0532 7.82152C12.0559 7.83053 12.0584 7.8396 12.0607 7.84873C12.063 7.85787 12.0651 7.86706 12.0669 7.87629C12.0688 7.88553 12.0704 7.89481 12.0717 7.90413C12.0731 7.91345 12.0743 7.92279 12.0752 7.93215C12.0761 7.94152 12.0768 7.95091 12.0773 7.96032C12.0778 7.96973 12.078 7.97914 12.078 7.98856L12.078 15.0337L14.3844 12.7603C14.3911 12.7536 14.3979 12.7472 14.4049 12.7408C14.4119 12.7345 14.4191 12.7284 14.4264 12.7225C14.4338 12.7165 14.4412 12.7107 14.4488 12.7052C14.4564 12.6996 14.4642 12.6942 14.472 12.689C14.4799 12.6838 14.4879 12.6788 14.496 12.6739C14.5041 12.6691 14.5124 12.6645 14.5207 12.6601C14.529 12.6557 14.5375 12.6515 14.546 12.6475C14.5546 12.6435 14.5632 12.6397 14.572 12.6361C14.5807 12.6325 14.5895 12.6292 14.5984 12.626C14.6073 12.6229 14.6163 12.62 14.6253 12.6173C14.6344 12.6146 14.6435 12.6121 14.6526 12.6098C14.6618 12.6076 14.671 12.6056 14.6803 12.6037C14.6896 12.6019 14.6989 12.6004 14.7082 12.599C14.7175 12.5977 14.7269 12.5965 14.7363 12.5956C14.7457 12.5948 14.7551 12.5941 14.7646 12.5937C14.774 12.5933 14.7834 12.5931 14.7929 12.5931C14.8023 12.5931 14.8117 12.5934 14.8212 12.5939C14.8306 12.5944 14.84 12.5951 14.8494 12.5961C14.8588 12.597 14.8682 12.5982 14.8775 12.5996C14.8868 12.601 14.8961 12.6027 14.9054 12.6046C14.9146 12.6064 14.9238 12.6085 14.933 12.6109C14.9421 12.6132 14.9512 12.6157 14.9602 12.6185C14.9693 12.6213 14.9782 12.6242 14.9871 12.6275C14.996 12.6307 15.0048 12.6341 15.0135 12.6377C15.0222 12.6414 15.0308 12.6452 15.0393 12.6493C15.0478 12.6533 15.0562 12.6576 15.0646 12.6621C15.0729 12.6665 15.0811 12.6712 15.0891 12.6761C15.0972 12.681 15.1052 12.686 15.113 12.6913C15.1208 12.6966 15.1285 12.702 15.1361 12.7077C15.1437 12.7133 15.1511 12.7191 15.1584 12.7251C15.1656 12.7311 15.1728 12.7373 15.1797 12.7437C15.1867 12.75 15.1935 12.7565 15.2002 12.7632C15.2068 12.7699 15.2133 12.7768 15.2196 12.7838C15.2259 12.7908 15.2321 12.798 15.238 12.8053C15.244 12.8126 15.2498 12.82 15.2554 12.8276C15.261 12.8352 15.2664 12.8429 15.2716 12.8508C15.2768 12.8586 15.2818 12.8666 15.2866 12.8747C15.2915 12.8828 15.2961 12.891 15.3005 12.8993C15.3049 12.9077 15.3091 12.9161 15.3132 12.9246C15.3172 12.9332 15.321 12.9418 15.3245 12.9505C15.3281 12.9592 15.3315 12.9681 15.3346 12.9769C15.3378 12.9858 15.3407 12.9948 15.3434 13.0038C15.3461 13.0128 15.3486 13.0219 15.3509 13.0311C15.3531 13.0402 15.3551 13.0494 15.357 13.0587C15.3588 13.0679 15.3603 13.0772 15.3617 13.0865C15.363 13.0958 15.3642 13.1052 15.3651 13.1146C15.3659 13.124 15.3666 13.1334 15.367 13.1428C15.3675 13.1522 15.3677 13.1616 15.3676 13.1711C15.3676 13.1805 15.3673 13.1899 15.3668 13.1993C15.3663 13.2087 15.3656 13.2181 15.3646 13.2275C15.3637 13.2369 15.3625 13.2462 15.3611 13.2555C15.3597 13.2648 15.358 13.2741 15.3561 13.2833C15.3543 13.2926 15.3521 13.3018 15.3498 13.3109C15.3475 13.32 15.3449 13.3291 15.3422 13.3381C15.3394 13.3471 15.3364 13.3561 15.3332 13.3649C15.33 13.3738 15.3266 13.3826 15.3229 13.3913C15.3193 13.4 15.3154 13.4086 15.3113 13.4171C15.3073 13.4256 15.303 13.434 15.2985 13.4423C15.294 13.4506 15.2894 13.4587 15.2845 13.4668C15.2796 13.4749 15.2745 13.4828 15.2692 13.4906C15.264 13.4984 15.2585 13.5061 15.2528 13.5137C15.2472 13.5212 15.2414 13.5286 15.2354 13.5359C15.2293 13.5431 15.2231 13.5503 15.2168 13.5572C15.2104 13.5642 15.2039 13.571 15.1972 13.5776L11.9111 16.8298Z"   fill="#660874" >
</path>
</g>
<defs>
<clipPath id="clip-path-15_767">
<path d="M0 17L23 17L23 0L0 0L0 17Z" fill="white"/>
</clipPath>
</defs>
</svg>
