<svg xmlns="http://www.w3.org/2000/svg" xmlns:xlink="http://www.w3.org/1999/xlink" width="16" height="16" viewBox="0 0 16 16" fill="none">
<path d="M15.4939 8.02949C15.2155 8.02949 14.9878 8.25721 14.9878 8.53554L14.9878 13.3853C14.9878 14.2709 14.2709 14.9877 13.3853 14.9877L2.61464 14.9877C1.72903 14.9877 1.01212 14.2709 1.01212 13.3853L1.01212 2.61464C1.01212 1.72903 1.72903 1.01212 2.61464 1.01212L7.46437 1.01212C7.74271 1.01212 7.97042 0.784393 7.97042 0.506044C7.97042 0.227726 7.74271 0 7.46437 0L2.61464 0C1.17237 0 0 1.17237 0 2.61464L0 13.3853C0 14.8275 1.17237 15.9999 2.61464 15.9999L13.3853 15.9999C14.8275 15.9999 15.9999 14.8275 15.9999 13.3853L15.9999 8.53551C15.9999 8.2572 15.7764 8.02945 15.4939 8.02945L15.4939 8.02949Z"   fill="#660874" >
</path>
<path d="M11.6053 1.76693L4.67691 8.69527L4.46402 8.90818C4.38739 8.98908 4.32349 9.08701 4.2894 9.18923L3.51865 11.5015C3.43826 11.7467 3.49377 12.0162 3.66449 12.2097C3.83527 12.4032 4.09573 12.4918 4.34903 12.4426L6.93811 11.923C7.07864 11.8932 7.20636 11.8251 7.30859 11.7271L7.513 11.5227L15.574 3.46175C15.723 3.3127 15.7997 3.10405 15.7827 2.89539C15.6867 1.57074 14.6332 0.517227 13.3086 0.42128C13.0957 0.404251 12.8913 0.480911 12.7422 0.629928L11.6052 1.76693L11.6053 1.76693ZM7.14679 10.4411L5.76282 9.05723L11.9672 2.8528L13.3512 4.23676L7.14679 10.4411ZM5.13687 9.87908L6.27383 11.016L4.64712 11.3396L5.13687 9.87908ZM13.3597 1.45609C14.0751 1.56679 14.6329 2.12464 14.7437 2.84003L14.0708 3.51285L12.6869 2.12888L13.3597 1.45609Z"   fill="#660874" >
</path>
<path d="M15.3723 8.02951C15.0985 8.02951 14.8745 8.2535 14.8745 8.52726L14.8745 13.2973C14.8745 14.1685 14.1694 14.8736 13.2983 14.8736L2.70452 14.8736C1.83346 14.8736 1.12832 14.1685 1.12832 13.2973L1.12832 2.70355C1.12832 1.83248 1.83346 1.12734 2.70452 1.12734L7.47464 1.12734C7.7484 1.12734 7.97238 0.903351 7.97238 0.629572C7.97238 0.355824 7.7484 0.131836 7.47464 0.131836L2.70452 0.131836C1.28593 0.131836 0.132812 1.28496 0.132812 2.70355L0.132812 13.2973C0.132812 14.7159 1.28593 15.8691 2.70452 15.8691L13.2983 15.8691C14.7169 15.8691 15.8701 14.7159 15.8701 13.2973L15.8701 8.52722C15.8701 8.25349 15.6501 8.02946 15.3723 8.02946L15.3723 8.02951Z"   fill="#660874" >
</path>
</svg>
