<svg xmlns="http://www.w3.org/2000/svg" xmlns:xlink="http://www.w3.org/1999/xlink" width="16" height="16.0003662109375" viewBox="0 0 16 16.0003662109375" fill="none">
<path d="M15.4631 7.15921L0.692705 7.15921C0.406594 7.15921 0.15625 6.88568 0.15625 6.57303C0.15625 6.26038 0.406594 5.98682 0.692705 5.98682L15.4631 5.98682C15.7492 5.98682 15.9995 6.26038 15.9995 6.57303C15.9995 6.88568 15.7492 7.15921 15.4631 7.15921Z"   fill="#660874" >
</path>
<path d="M13.0977 16.0004L2.86287 16.0004C1.2883 16.0004 0 14.4885 0 12.6407L0 3.35967C0 1.51186 1.2883 0 2.86287 0L4.36589 0C5.08161 0 5.76154 0.335975 6.22677 0.96591L7.51508 2.56172C7.69399 2.77171 7.90871 2.8977 8.15922 2.8977L13.0977 2.8977C14.6723 2.8977 15.9605 4.40954 15.9605 6.25735L15.9605 12.6827C15.9963 14.4885 14.7081 16.0004 13.0977 16.0004ZM2.86287 1.21788C1.86087 1.21788 1.07358 2.18377 1.07358 3.31765L1.07358 12.5987C1.07358 13.7746 1.89665 14.6985 2.86287 14.6985L13.0977 14.6985C14.0997 14.6985 14.887 13.7326 14.887 12.5987L14.887 6.21534C14.887 5.03947 14.0639 4.11557 13.0977 4.11557L8.15922 4.11557C7.62243 4.11557 7.12142 3.86361 6.72777 3.40165L5.43947 1.76382C5.15319 1.42785 4.75954 1.21788 4.36589 1.21788L2.86287 1.21788Z"   fill="#660874" >
</path>
</svg>
