<svg xmlns="http://www.w3.org/2000/svg" xmlns:xlink="http://www.w3.org/1999/xlink" width="13.5" height="13.4200439453125" viewBox="0 0 13.5 13.4200439453125" fill="none">
<path    stroke="currentColor" stroke-width="1.5"    d="M2.08331 0.75L4.75011 0.75L6.75 3.134L11.4167 3.134C11.7703 3.134 12.1095 3.30148 12.3595 3.59948C12.6096 3.89759 12.75 4.30181 12.75 4.72331L12.75 11.0807C12.75 11.5022 12.6096 11.9065 12.3595 12.2044C12.1095 12.5025 11.7703 12.67 11.4167 12.67L2.08331 12.67C1.72971 12.67 1.3907 12.5025 1.1405 12.2044C0.890411 11.9065 0.75 11.5022 0.75 11.0807L0.75 2.33942C0.75 1.91781 0.890411 1.51359 1.1405 1.21548C1.3907 0.91737 1.72971 0.75 2.08331 0.75">
</path>
</svg>
