<svg xmlns="http://www.w3.org/2000/svg" xmlns:xlink="http://www.w3.org/1999/xlink" width="14" height="14" viewBox="0 0 14 14" fill="none">
<path d="M9.07388 4.10596L4.10596 9.07388L4.92613 9.89405L9.89405 4.92613L9.07388 4.10596Z"   fill="#2A82E4" >
</path>
<path d="M7 1.20018L4.92612 3.27406L5.75802 4.0708L7.83189 2.03208C7.86583 1.99813 7.90058 1.96505 7.93615 1.93281C7.97172 1.90057 8.00804 1.86923 8.04515 1.83879C8.08226 1.80834 8.12009 1.77881 8.15864 1.75021C8.19718 1.72163 8.23641 1.69401 8.27632 1.66734C8.31623 1.64067 8.35678 1.615 8.39796 1.59032C8.43913 1.56564 8.48087 1.54199 8.5232 1.51936C8.56554 1.49673 8.6084 1.47516 8.65179 1.45464C8.69518 1.43412 8.73904 1.41468 8.78339 1.39631C8.82774 1.37794 8.87251 1.36067 8.91771 1.3445C8.96289 1.32833 9.00846 1.31328 9.05439 1.29934C9.10032 1.28541 9.14657 1.27261 9.19312 1.26095C9.23968 1.24928 9.28651 1.23876 9.33358 1.2294C9.38065 1.22004 9.42794 1.21184 9.47541 1.2048C9.5229 1.19775 9.57052 1.19188 9.61828 1.18717C9.66604 1.18247 9.7139 1.17894 9.76185 1.17659C9.80979 1.17423 9.85776 1.17305 9.90576 1.17305C9.95376 1.17305 10.0017 1.17423 10.0497 1.17659C10.0976 1.17894 10.1455 1.18247 10.1932 1.18717C10.241 1.19188 10.2886 1.19775 10.3361 1.2048C10.3836 1.21184 10.4309 1.22004 10.4779 1.2294C10.525 1.23876 10.5718 1.24928 10.6184 1.26095C10.665 1.27261 10.7112 1.28541 10.7571 1.29934C10.8031 1.31328 10.8486 1.32833 10.8938 1.3445C10.939 1.36067 10.9838 1.37794 11.0281 1.39631C11.0725 1.41468 11.1163 1.43412 11.1597 1.45464C11.2031 1.47516 11.246 1.49673 11.2883 1.51936C11.3307 1.54199 11.3724 1.56564 11.4136 1.59032C11.4547 1.615 11.4953 1.64067 11.5352 1.66734C11.5751 1.69401 11.6143 1.72163 11.6529 1.75021C11.6914 1.77881 11.7293 1.80834 11.7664 1.83879C11.8035 1.86923 11.8398 1.90057 11.8754 1.93281C11.9109 1.96505 11.9457 1.99813 11.9796 2.03208C12.0136 2.06602 12.0467 2.10077 12.0789 2.13634C12.1111 2.17191 12.1425 2.20823 12.1729 2.24534C12.2034 2.28245 12.2329 2.32027 12.2615 2.35883C12.2901 2.39738 12.3177 2.43662 12.3444 2.47651C12.371 2.51642 12.3967 2.55697 12.4214 2.59814C12.4461 2.63932 12.4697 2.68106 12.4924 2.72339C12.515 2.76573 12.5365 2.80859 12.5571 2.85198C12.5776 2.89537 12.597 2.93923 12.6154 2.98357C12.6338 3.02793 12.651 3.07269 12.6672 3.11789C12.6834 3.16308 12.6984 3.20864 12.7124 3.25458C12.7263 3.30051 12.7391 3.34676 12.7508 3.39331C12.7624 3.43987 12.773 3.4867 12.7823 3.53377C12.7917 3.58084 12.7999 3.62812 12.8069 3.6756C12.814 3.72308 12.8198 3.7707 12.8245 3.81847C12.8292 3.86623 12.8328 3.91409 12.8351 3.96203C12.8375 4.00998 12.8387 4.05795 12.8387 4.10595C12.8387 4.15395 12.8375 4.20192 12.8351 4.24986C12.8328 4.29781 12.8292 4.34567 12.8245 4.39343C12.8198 4.4412 12.814 4.48881 12.8069 4.5363C12.7999 4.58378 12.7917 4.63106 12.7823 4.67813C12.773 4.7252 12.7624 4.77203 12.7508 4.81859C12.7391 4.86514 12.7263 4.91139 12.7124 4.95732C12.6984 5.00325 12.6834 5.04882 12.6672 5.094C12.651 5.13921 12.6338 5.18397 12.6154 5.22833C12.597 5.27267 12.5776 5.31653 12.5571 5.35992C12.5365 5.40331 12.515 5.44617 12.4924 5.48851C12.4697 5.53084 12.4461 5.57258 12.4214 5.61375C12.3967 5.65493 12.371 5.69548 12.3444 5.73537C12.3177 5.77528 12.2901 5.81451 12.2615 5.85307C12.2329 5.89163 12.2034 5.92945 12.1729 5.96656C12.1425 6.00367 12.1111 6.03999 12.0789 6.07556C12.0467 6.11113 12.0136 6.14588 11.9796 6.17982L9.9292 8.24198L10.7611 9.07387L12.7998 7C12.8472 6.95253 12.8935 6.90394 12.9385 6.8542C12.9836 6.80446 13.0274 6.75365 13.0699 6.70177C13.1125 6.64989 13.1537 6.59699 13.1937 6.54308C13.2337 6.48916 13.2723 6.43431 13.3095 6.37851C13.3468 6.32269 13.3827 6.26601 13.4171 6.20845C13.4516 6.15088 13.4847 6.09251 13.5163 6.03333C13.5479 5.97414 13.578 5.9142 13.6067 5.85353C13.6354 5.79287 13.6626 5.73154 13.6882 5.66954C13.7139 5.60753 13.738 5.54494 13.7606 5.48176C13.7832 5.41858 13.8042 5.35487 13.8237 5.29065C13.8431 5.22642 13.861 5.16176 13.8773 5.09668C13.8936 5.03158 13.9083 4.96613 13.9214 4.90031C13.9344 4.8345 13.9459 4.76839 13.9557 4.70202C13.9656 4.63564 13.9738 4.56906 13.9803 4.50227C13.9869 4.4355 13.9918 4.36859 13.9951 4.30156C13.9984 4.23454 14 4.16748 14 4.10038C14 4.03329 13.9983 3.96623 13.995 3.8992C13.9917 3.83218 13.9868 3.76527 13.9802 3.6985C13.9736 3.63173 13.9654 3.56515 13.9555 3.49876C13.9457 3.4324 13.9342 3.36631 13.9211 3.30049C13.908 3.23468 13.8933 3.16923 13.877 3.10415C13.8607 3.03906 13.8428 2.9744 13.8233 2.91018C13.8038 2.84597 13.7827 2.78228 13.7601 2.7191C13.7375 2.65592 13.7134 2.59335 13.6877 2.53134C13.662 2.46935 13.6348 2.40802 13.6061 2.34737C13.5774 2.28672 13.5473 2.2268 13.5156 2.16763C13.484 2.10844 13.4509 2.05007 13.4164 1.99251C13.3819 1.93497 13.346 1.87829 13.3087 1.82251C13.2714 1.76671 13.2328 1.71186 13.1929 1.65796C13.1529 1.60408 13.1116 1.5512 13.069 1.49933C13.0265 1.44746 12.9826 1.39666 12.9376 1.34694C12.8925 1.29721 12.8463 1.24863 12.7988 1.20119C12.7514 1.15374 12.7028 1.10748 12.6531 1.06242C12.6033 1.01736 12.5525 0.973543 12.5007 0.930973C12.4488 0.888402 12.3959 0.847124 12.342 0.807141C12.2881 0.76717 12.2333 0.728541 12.1775 0.691254C12.1217 0.65398 12.065 0.618092 12.0075 0.583588C11.9499 0.549084 11.8916 0.516015 11.8324 0.48438C11.7732 0.452744 11.7133 0.422579 11.6526 0.393886C11.592 0.365192 11.5306 0.337998 11.4687 0.312308C11.4066 0.286628 11.3441 0.26248 11.2809 0.239865C11.2177 0.21726 11.154 0.196214 11.0898 0.176722C11.0256 0.157243 10.9609 0.139344 10.8959 0.123026C10.8308 0.10672 10.7653 0.0920135 10.6995 0.0789053C10.6337 0.0658094 10.5676 0.0543306 10.5012 0.0444689C10.4348 0.0346193 10.3683 0.0263994 10.3015 0.0198087C10.2347 0.01323 10.1678 0.0082872 10.1008 0.00497942C10.0338 0.00167191 9.96671 1.20121e-05 9.89961 0C9.83251 -1.22914e-05 9.76545 0.0016233 9.69843 0.00490622C9.63141 0.00818944 9.56449 0.0131141 9.49772 0.0196806C9.43094 0.0262346 9.36436 0.0344302 9.29797 0.0442675C9.23161 0.0541045 9.1655 0.0655589 9.09968 0.0786307C9.03387 0.0917143 8.96842 0.106397 8.90332 0.122678C8.83823 0.138972 8.77357 0.156852 8.70935 0.176319C8.64515 0.195775 8.58144 0.216797 8.51826 0.239389C8.45506 0.26198 8.39246 0.286109 8.33046 0.311777C8.26845 0.337444 8.20712 0.364612 8.14647 0.393282C8.0858 0.421951 8.02586 0.452098 7.96667 0.483721C7.90748 0.515332 7.84912 0.548377 7.79154 0.582856C7.73398 0.617334 7.6773 0.653206 7.6215 0.690467C7.56568 0.727741 7.51083 0.766352 7.45692 0.806299C7.403 0.846258 7.35011 0.887516 7.29823 0.930075C7.24634 0.972622 7.19554 1.01642 7.1458 1.06147C7.09606 1.10652 7.04747 1.15276 7 1.20018ZM6.16811 11.9679C6.13502 12.0049 6.10101 12.0411 6.06608 12.0764C6.03117 12.1117 5.99536 12.146 5.95869 12.1795C5.92202 12.213 5.8845 12.2455 5.84619 12.277C5.80787 12.3086 5.76876 12.3392 5.72887 12.3687C5.689 12.3983 5.64839 12.4268 5.60705 12.4543C5.56573 12.4818 5.52372 12.5083 5.48104 12.5336C5.43837 12.559 5.39509 12.5833 5.35117 12.6064C5.30725 12.6296 5.26278 12.6516 5.21776 12.6726C5.17273 12.6935 5.1272 12.7132 5.08115 12.7318C5.03513 12.7504 4.98864 12.7678 4.94172 12.784C4.8948 12.8003 4.84751 12.8153 4.79982 12.8291C4.75213 12.8429 4.70413 12.8555 4.65581 12.8669C4.60748 12.8783 4.55889 12.8885 4.51007 12.8974C4.46122 12.9063 4.41218 12.9139 4.36295 12.9204C4.31372 12.9268 4.26436 12.932 4.21488 12.9359C4.16539 12.9398 4.11582 12.9424 4.06619 12.9438C4.01655 12.9452 3.96694 12.9453 3.91731 12.9442C3.86768 12.943 3.8181 12.9406 3.76858 12.937C3.71906 12.9333 3.66968 12.9284 3.62042 12.9223C3.57115 12.9161 3.52209 12.9087 3.47321 12.9C3.42431 12.8914 3.37568 12.8815 3.3273 12.8703C3.27891 12.8592 3.23085 12.8468 3.18309 12.8333C3.13534 12.8197 3.08796 12.8049 3.04095 12.7889C2.99395 12.7729 2.94738 12.7557 2.90126 12.7374C2.85513 12.719 2.80949 12.6995 2.76436 12.6788C2.71923 12.6582 2.67465 12.6364 2.63062 12.6134C2.58659 12.5905 2.54317 12.5664 2.50036 12.5413C2.45756 12.5161 2.41542 12.4899 2.37395 12.4626C2.33248 12.4353 2.29173 12.407 2.25169 12.3776C2.21165 12.3483 2.1724 12.3179 2.13392 12.2865C2.09542 12.2552 2.05776 12.2228 2.02091 12.1896C1.98407 12.1563 1.9481 12.1221 1.91299 12.087C1.87789 12.0519 1.84369 12.0159 1.81043 11.9791C1.77714 11.9422 1.74482 11.9046 1.71345 11.8661C1.6821 11.8276 1.65174 11.7883 1.62237 11.7483C1.59301 11.7083 1.56468 11.6675 1.53739 11.626C1.5101 11.5846 1.48388 11.5424 1.45872 11.4996C1.43357 11.4568 1.40952 11.4134 1.38657 11.3694C1.36364 11.3253 1.34183 11.2808 1.32116 11.2356C1.30049 11.1905 1.28097 11.1449 1.26261 11.0987C1.24426 11.0526 1.22708 11.006 1.2111 10.959C1.19511 10.912 1.18032 10.8647 1.16674 10.8169C1.15317 10.7691 1.14081 10.7211 1.12966 10.6727C1.11853 10.6243 1.10863 10.5757 1.09997 10.5268C1.09132 10.4779 1.0839 10.4288 1.07773 10.3796C1.07156 10.3303 1.06665 10.2809 1.06301 10.2314C1.05934 10.1819 1.05695 10.1323 1.05581 10.0827C1.05468 10.0331 1.0548 9.98344 1.0562 9.93381C1.05759 9.88418 1.06024 9.8346 1.06414 9.78512C1.06805 9.73563 1.07321 9.68627 1.07963 9.63704C1.08605 9.58782 1.09371 9.53877 1.10262 9.48993C1.11154 9.44108 1.12169 9.39249 1.13307 9.34418C1.14446 9.29587 1.15706 9.24786 1.17087 9.20017C1.1847 9.15248 1.19973 9.10518 1.21597 9.05825C1.23219 9.01133 1.2496 8.96487 1.2682 8.91882C1.28678 8.8728 1.30653 8.82727 1.32744 8.78223C1.34835 8.73721 1.37038 8.69275 1.39355 8.64882C1.41671 8.60491 1.44098 8.56163 1.46636 8.51895C1.49172 8.47628 1.51815 8.43426 1.54566 8.39294C1.57318 8.3516 1.60171 8.311 1.63127 8.27112C1.66084 8.23123 1.69141 8.19213 1.72297 8.15381C1.75452 8.11549 1.78703 8.07798 1.8205 8.04131C1.85396 8.00464 1.88834 7.96883 1.92362 7.93392C1.9589 7.89899 1.99506 7.86497 2.03208 7.83189L4.0708 5.75802L3.23891 4.92613L1.20018 7C1.15276 7.04747 1.10652 7.09606 1.06147 7.1458C1.01642 7.19554 0.972622 7.24634 0.930075 7.29823C0.887516 7.35011 0.846258 7.403 0.806298 7.45692C0.766352 7.51083 0.727741 7.56568 0.690467 7.6215C0.653206 7.6773 0.617334 7.73398 0.582856 7.79154C0.548377 7.84912 0.515332 7.90748 0.483721 7.96667C0.452098 8.02586 0.421951 8.0858 0.393282 8.14647C0.364612 8.20712 0.337444 8.26845 0.311777 8.33046C0.286109 8.39247 0.26198 8.45506 0.239389 8.51824C0.216797 8.58142 0.195775 8.64513 0.176319 8.70935C0.156852 8.77357 0.138972 8.83823 0.122678 8.90332C0.106397 8.96842 0.0917143 9.03387 0.0786307 9.09968C0.0655589 9.1655 0.0541045 9.23161 0.0442675 9.29797C0.0344302 9.36436 0.0262346 9.43094 0.0196806 9.49773C0.0131141 9.56449 0.00818944 9.63141 0.00490622 9.69843C0.0016233 9.76545 -1.22914e-05 9.83251 0 9.89961C1.20121e-05 9.96671 0.00167191 10.0338 0.00497942 10.1008C0.0082872 10.1678 0.01323 10.2347 0.0198087 10.3015C0.0263994 10.3683 0.0346193 10.4348 0.0444689 10.5012C0.0543306 10.5676 0.0658094 10.6337 0.0789053 10.6995C0.0920134 10.7653 0.10672 10.8308 0.123026 10.8959C0.139344 10.9609 0.157243 11.0256 0.176722 11.0898C0.196214 11.154 0.21726 11.2177 0.239865 11.2809C0.26248 11.3441 0.286635 11.4066 0.312326 11.4687C0.338006 11.5306 0.365192 11.592 0.393886 11.6526C0.422579 11.7133 0.452744 11.7732 0.48438 11.8324C0.516015 11.8916 0.549084 11.9499 0.583588 12.0075C0.618092 12.065 0.65398 12.1217 0.691254 12.1775C0.728541 12.2333 0.76717 12.2881 0.807141 12.342C0.847124 12.3959 0.888402 12.4488 0.930973 12.5007C0.973543 12.5525 1.01736 12.6033 1.06242 12.6531C1.10748 12.7028 1.15374 12.7514 1.20119 12.7988C1.24863 12.8463 1.29721 12.8925 1.34694 12.9376C1.39666 12.9826 1.44746 13.0265 1.49933 13.069C1.5512 13.1116 1.60408 13.1529 1.65796 13.1929C1.71186 13.2328 1.76671 13.2714 1.82251 13.3087C1.87829 13.346 1.93497 13.3819 1.99251 13.4164C2.05007 13.4509 2.10844 13.484 2.16763 13.5156C2.22679 13.5473 2.28672 13.5774 2.34737 13.6061C2.40802 13.6348 2.46935 13.662 2.53134 13.6877C2.59335 13.7134 2.65592 13.7375 2.7191 13.7601C2.78228 13.7827 2.84599 13.8038 2.9102 13.8233C2.9744 13.8428 3.03906 13.8607 3.10415 13.877C3.16923 13.8933 3.23468 13.908 3.30049 13.9211C3.36631 13.9342 3.4324 13.9457 3.49876 13.9555C3.56515 13.9654 3.63173 13.9736 3.6985 13.9802C3.76528 13.9868 3.83218 13.9917 3.8992 13.995C3.96623 13.9983 4.03329 14 4.10038 14C4.16748 14 4.23454 13.9984 4.30156 13.9951C4.36859 13.9918 4.4355 13.9869 4.50227 13.9803C4.56906 13.9738 4.63564 13.9656 4.70202 13.9557C4.76839 13.9459 4.8345 13.9344 4.90031 13.9214C4.96613 13.9083 5.03158 13.8936 5.09668 13.8773C5.16176 13.861 5.22642 13.8431 5.29065 13.8237C5.35487 13.8042 5.41858 13.7832 5.48176 13.7606C5.54494 13.738 5.60753 13.7139 5.66954 13.6882C5.73154 13.6626 5.79287 13.6354 5.85353 13.6067C5.9142 13.578 5.97414 13.5479 6.03333 13.5163C6.09251 13.4847 6.15088 13.4516 6.20845 13.4171C6.26601 13.3827 6.32269 13.3468 6.37851 13.3095C6.43431 13.2723 6.48916 13.2337 6.54308 13.1937C6.59699 13.1537 6.64988 13.1125 6.70177 13.0699C6.75365 13.0274 6.80445 12.9836 6.8542 12.9385C6.90394 12.8935 6.95253 12.8472 7 12.7998L9.07387 10.7259L8.24198 9.9292L6.16811 11.9679Z"   fill="#2A82E4" >
</path>
</svg>
