<svg xmlns="http://www.w3.org/2000/svg" xmlns:xlink="http://www.w3.org/1999/xlink" width="20" height="20" viewBox="0 0 20 20" fill="none">
<path d="M0.966797 9.99972C0.966797 11.2158 1.95261 12.2016 3.16867 12.2016C4.38473 12.2016 5.37054 11.2158 5.37054 9.99972C5.37054 8.78366 4.38473 7.79785 3.16867 7.79785C1.95261 7.79785 0.966797 8.78366 0.966797 9.99972L0.966797 9.99972Z"   fill="#4E5969" >
</path>
<path d="M8.28125 9.99966C8.28125 11.2157 9.26703 12.2015 10.4831 12.2015C11.6992 12.2015 12.6849 11.2157 12.6849 9.99966C12.6849 8.78366 11.6992 7.79785 10.4831 7.79785C9.26703 7.79785 8.28125 8.78366 8.28125 9.99966Z"   fill="#4E5969" >
</path>
<path d="M15.5957 9.99972C15.5957 11.2158 16.5816 12.2016 17.7975 12.2016C19.0137 12.2016 19.9995 11.2158 19.9995 9.99972C19.9995 8.78366 19.0137 7.79785 17.7975 7.79785C16.5816 7.79785 15.5957 8.78366 15.5957 9.99972Z"   fill="#4E5969" >
</path>
</svg>
