<svg xmlns="http://www.w3.org/2000/svg" xmlns:xlink="http://www.w3.org/1999/xlink" width="16" height="16" viewBox="0 0 16 16" fill="none">
<path d="M3.01823 5.29341C3.00769 5.29347 2.99716 5.29325 2.98664 5.29278C2.97611 5.29231 2.96559 5.29158 2.95511 5.29058C2.94462 5.28959 2.93416 5.28834 2.92373 5.28683C2.91331 5.28533 2.90293 5.28356 2.89259 5.28153C2.88225 5.2795 2.87196 5.27722 2.86173 5.27469C2.8515 5.27216 2.84135 5.26937 2.83127 5.26633C2.82117 5.2633 2.81116 5.26 2.80123 5.25647C2.79132 5.25294 2.78149 5.24916 2.77175 5.24512C2.76201 5.24111 2.75238 5.23684 2.74284 5.23234C2.73332 5.22784 2.72391 5.22312 2.71461 5.21816C2.70532 5.21319 2.69616 5.208 2.68712 5.20258C2.67809 5.19716 2.6692 5.19152 2.66044 5.18566C2.65169 5.1798 2.64308 5.17372 2.63462 5.16742C2.62617 5.16114 2.61788 5.15466 2.60975 5.14794C2.60161 5.14125 2.59365 5.13434 2.58586 5.12725C2.57807 5.12016 2.57046 5.11287 2.56303 5.10541L1.54543 4.08781C1.53797 4.08039 1.53071 4.07278 1.52363 4.065C1.51655 4.05722 1.50967 4.04928 1.50298 4.04116C1.4963 4.03303 1.48981 4.02475 1.48354 4.01631C1.47726 4.00787 1.4712 3.9993 1.46534 3.99055C1.45949 3.9818 1.45386 3.97292 1.44845 3.96391C1.44303 3.95489 1.43785 3.94573 1.43289 3.93645C1.42792 3.92719 1.4232 3.9178 1.4187 3.90828C1.4142 3.89878 1.40994 3.88916 1.40592 3.87944C1.4019 3.86972 1.39812 3.85991 1.39459 3.85C1.39105 3.84009 1.38776 3.83011 1.38472 3.82003C1.38167 3.80997 1.37888 3.79983 1.37634 3.78962C1.3738 3.77942 1.37151 3.76916 1.36948 3.75883C1.36744 3.74852 1.36567 3.73814 1.36414 3.72773C1.36262 3.71733 1.36136 3.70689 1.36035 3.69642C1.35935 3.68595 1.3586 3.67545 1.35811 3.66495C1.35762 3.65445 1.3574 3.64394 1.35743 3.63341C1.35738 3.62287 1.35759 3.61234 1.35806 3.60181C1.35853 3.5913 1.35926 3.5808 1.36025 3.5703C1.36125 3.55981 1.3625 3.54936 1.36401 3.53892C1.36552 3.5285 1.36729 3.51811 1.36931 3.50777C1.37134 3.49742 1.37362 3.48714 1.37615 3.47692C1.37869 3.4667 1.38147 3.45653 1.38451 3.44644C1.38755 3.43636 1.39084 3.42636 1.39437 3.41642C1.3979 3.4065 1.40168 3.39667 1.40571 3.38692C1.40973 3.37719 1.41399 3.36756 1.41849 3.35803C1.42299 3.3485 1.42772 3.33909 1.43269 3.3298C1.43765 3.32052 1.44285 3.31134 1.44827 3.3023C1.45369 3.29327 1.45933 3.28437 1.46519 3.27562C1.47105 3.26688 1.47712 3.25827 1.48341 3.2498C1.4897 3.24136 1.49619 3.23306 1.50289 3.22492C1.50959 3.2168 1.51649 3.20883 1.52358 3.20103C1.53068 3.19325 1.53796 3.18564 1.54543 3.1782C1.55287 3.17077 1.56049 3.1635 1.5683 3.15641C1.57609 3.14933 1.58406 3.14244 1.5922 3.13575C1.60034 3.12906 1.60863 3.12259 1.61709 3.11631C1.62555 3.11003 1.63416 3.10397 1.64292 3.09811C1.65168 3.09227 1.66058 3.08663 1.66961 3.08122C1.67865 3.07581 1.68782 3.07062 1.69711 3.06566C1.7064 3.06069 1.71581 3.05597 1.72534 3.05147C1.73486 3.04697 1.74449 3.04272 1.75423 3.03869C1.76396 3.03467 1.77379 3.03089 1.78372 3.02736C1.79365 3.02383 1.80365 3.02053 1.81373 3.01748C1.82382 3.01445 1.83397 3.01166 1.84419 3.00911C1.85442 3.00658 1.8647 3.00428 1.87503 3.00226C1.88536 3.00023 1.89574 2.99845 1.90617 2.99693C1.91659 2.99541 1.92704 2.99414 1.93753 2.99313C1.94802 2.99213 1.95852 2.99139 1.96905 2.9909C1.97957 2.99041 1.99009 2.99018 2.00063 2.99021C2.17103 2.98941 2.33503 3.05741 2.45503 3.1782L3.01823 3.74141L5.12944 1.62941C5.13688 1.62195 5.1445 1.61469 5.1523 1.60762C5.16009 1.60053 5.16806 1.59365 5.1762 1.58696C5.18434 1.58027 5.19264 1.57379 5.20109 1.56751C5.20955 1.56123 5.21816 1.55517 5.22692 1.54932C5.23569 1.54346 5.24458 1.53783 5.25361 1.53242C5.26266 1.527 5.27181 1.52182 5.28111 1.51686C5.29041 1.5119 5.29981 1.50717 5.30934 1.50267C5.31886 1.49817 5.3285 1.49392 5.33823 1.48989C5.34797 1.48587 5.3578 1.48209 5.36772 1.47856C5.37764 1.47502 5.38766 1.47173 5.39773 1.46869C5.40781 1.46565 5.41797 1.46286 5.42819 1.46032C5.43842 1.45778 5.4487 1.45549 5.45903 1.45345C5.46936 1.45142 5.47975 1.44964 5.49017 1.44812C5.50059 1.4466 5.51105 1.44534 5.52153 1.44433C5.53202 1.44333 5.54253 1.44258 5.55305 1.4421C5.56356 1.44161 5.57409 1.44138 5.58463 1.44141C5.59517 1.44136 5.6057 1.44157 5.61622 1.44204C5.62675 1.44252 5.63727 1.44325 5.64775 1.44424C5.65823 1.44523 5.6687 1.44648 5.67912 1.44799C5.68955 1.4495 5.69994 1.45127 5.71028 1.45329C5.72061 1.45532 5.73089 1.4576 5.74113 1.46014C5.75136 1.46267 5.76152 1.46546 5.77159 1.4685C5.78169 1.47153 5.7917 1.47482 5.80163 1.47835C5.81155 1.48189 5.82137 1.48567 5.83111 1.48969C5.84084 1.49371 5.85048 1.49797 5.86002 1.50247C5.86955 1.50697 5.87895 1.5117 5.88825 1.51667C5.89755 1.52164 5.9067 1.52683 5.91573 1.53225C5.92477 1.53767 5.93366 1.54331 5.94242 1.54917C5.95119 1.55503 5.95978 1.56111 5.96823 1.5674C5.97669 1.57369 5.98498 1.58018 5.99311 1.58688C6.00125 1.59358 6.0092 1.60047 6.017 1.60757C6.0248 1.61466 6.03241 1.62194 6.03983 1.62941C6.0473 1.63683 6.05458 1.64442 6.06166 1.65219C6.06873 1.65998 6.07562 1.66792 6.08233 1.67604C6.08902 1.68415 6.0955 1.69243 6.10178 1.70088C6.10806 1.70932 6.11413 1.71791 6.11998 1.72665C6.12584 1.73539 6.13148 1.74426 6.13691 1.75327C6.14233 1.76229 6.14752 1.77144 6.15247 1.78073C6.15744 1.79 6.16217 1.79939 6.16666 1.8089C6.17116 1.81841 6.17542 1.82802 6.17944 1.83774C6.18347 1.84746 6.18725 1.85728 6.19078 1.86719C6.19431 1.8771 6.19759 1.88709 6.20064 1.89716C6.20369 1.90723 6.20647 1.91736 6.20902 1.92757C6.21156 1.93779 6.21384 1.94806 6.21586 1.95838C6.21789 1.9687 6.21967 1.97907 6.22119 1.98948C6.2227 1.99988 6.22395 2.01032 6.22495 2.0208C6.22595 2.03127 6.22669 2.04176 6.22717 2.05227C6.22766 2.06278 6.22788 2.0733 6.22783 2.08382C6.22788 2.09435 6.22767 2.10488 6.2272 2.11541C6.22673 2.12593 6.226 2.13644 6.225 2.14693C6.22402 2.15742 6.22277 2.16788 6.22125 2.1783C6.21973 2.18873 6.21797 2.19912 6.21595 2.20946C6.21392 2.2198 6.21164 2.23008 6.20911 2.2403C6.20658 2.25053 6.2038 2.26069 6.20075 2.27079C6.1977 2.28087 6.19442 2.29087 6.19089 2.3008C6.18736 2.31073 6.18358 2.32056 6.17956 2.3303C6.17553 2.34004 6.17127 2.34967 6.16678 2.35919C6.16228 2.36873 6.15755 2.37814 6.15258 2.38743C6.14761 2.39672 6.14242 2.40588 6.137 2.41491C6.13158 2.42395 6.12594 2.43285 6.12008 2.4416C6.11422 2.45036 6.10814 2.45896 6.10184 2.46741C6.09556 2.47587 6.08908 2.48417 6.08238 2.4923C6.07567 2.50044 6.06877 2.5084 6.06167 2.51618C6.05458 2.52397 6.0473 2.53158 6.03983 2.53902L3.47344 5.10541C3.46598 5.11287 3.45837 5.12014 3.45058 5.12722C3.44278 5.1343 3.4348 5.14117 3.42666 5.14786C3.41852 5.15455 3.41022 5.16103 3.40177 5.16731C3.39331 5.17359 3.3847 5.17966 3.37594 5.1855C3.36717 5.19136 3.35828 5.197 3.34925 5.20241C3.3402 5.20783 3.33105 5.21302 3.32175 5.21797C3.31245 5.22294 3.30305 5.22766 3.29353 5.23216C3.284 5.23666 3.27436 5.24091 3.26463 5.24492C3.25489 5.24895 3.24506 5.25273 3.23514 5.25627C3.22522 5.2598 3.21522 5.26309 3.20512 5.26612C3.19505 5.26917 3.18489 5.27197 3.17467 5.2745C3.16444 5.27705 3.15416 5.27934 3.14383 5.28137C3.1335 5.28341 3.12311 5.28519 3.11269 5.2867C3.10227 5.28823 3.09181 5.28948 3.08133 5.29048C3.07084 5.2915 3.06033 5.29225 3.04981 5.29273C3.0393 5.29322 3.02877 5.29344 3.01823 5.29341ZM7.37983 4.63661L14.1974 4.63661C14.2059 4.63663 14.2145 4.63642 14.223 4.636C14.2315 4.63559 14.24 4.63497 14.2484 4.63414C14.2569 4.63331 14.2653 4.63228 14.2738 4.63103C14.2822 4.62978 14.2906 4.62833 14.2989 4.62667C14.3073 4.62502 14.3156 4.62316 14.3238 4.62109C14.3321 4.61903 14.3403 4.61677 14.3485 4.6143C14.3566 4.61184 14.3647 4.60919 14.3727 4.60631C14.3807 4.60345 14.3887 4.60039 14.3965 4.59713C14.4044 4.59387 14.4122 4.59044 14.4199 4.5868C14.4276 4.58317 14.4352 4.57934 14.4427 4.57533C14.4502 4.57133 14.4576 4.56713 14.4649 4.56275C14.4722 4.55837 14.4794 4.55383 14.4865 4.54909C14.4936 4.54437 14.5005 4.53947 14.5074 4.53441C14.5142 4.52934 14.5209 4.52411 14.5275 4.5187C14.5341 4.51331 14.5405 4.50775 14.5469 4.50203C14.5532 4.49631 14.5593 4.49045 14.5654 4.48444C14.5714 4.47842 14.5773 4.47225 14.583 4.46594C14.5887 4.45964 14.5942 4.4532 14.5997 4.44661C14.605 4.44005 14.6103 4.43333 14.6154 4.42648C14.6205 4.41966 14.6253 4.4127 14.6301 4.40561C14.6348 4.39855 14.6394 4.39136 14.6437 4.38405C14.6481 4.37675 14.6523 4.36934 14.6563 4.36183C14.6603 4.35433 14.6642 4.34673 14.6678 4.33903C14.6715 4.33134 14.6749 4.32356 14.6782 4.31569C14.6814 4.30783 14.6845 4.29989 14.6874 4.29186C14.6902 4.28386 14.6929 4.27578 14.6954 4.26762C14.6978 4.25948 14.7001 4.25128 14.7022 4.24302C14.7043 4.23477 14.7061 4.22645 14.7078 4.21809C14.7095 4.20975 14.7109 4.20138 14.7122 4.19294C14.7134 4.18453 14.7145 4.17608 14.7153 4.16759C14.7161 4.15913 14.7167 4.15064 14.7172 4.14214C14.7176 4.13364 14.7178 4.12512 14.7178 4.11661C14.7178 4.10811 14.7176 4.09959 14.7172 4.09108C14.7167 4.08258 14.7161 4.07409 14.7153 4.06563C14.7145 4.05716 14.7134 4.0487 14.7122 4.04028C14.7109 4.03186 14.7095 4.02347 14.7078 4.01513C14.7061 4.00678 14.7043 3.99847 14.7022 3.9902C14.7001 3.98195 14.6978 3.97375 14.6954 3.96559C14.6929 3.95745 14.6902 3.94937 14.6874 3.94136C14.6845 3.93334 14.6814 3.92541 14.6782 3.91753C14.6749 3.90967 14.6715 3.90189 14.6678 3.89419C14.6642 3.8865 14.6603 3.87889 14.6563 3.87139C14.6523 3.86389 14.6481 3.85648 14.6437 3.84917C14.6394 3.84188 14.6348 3.83469 14.6301 3.82759C14.6253 3.82053 14.6204 3.81358 14.6154 3.80673C14.6103 3.79989 14.605 3.79319 14.5997 3.78661C14.5942 3.78003 14.5887 3.77358 14.583 3.76727C14.5773 3.76097 14.5714 3.75481 14.5654 3.74878C14.5593 3.74278 14.5532 3.73691 14.5469 3.73119C14.5405 3.72547 14.5341 3.71992 14.5275 3.71452C14.5209 3.70913 14.5142 3.70389 14.5074 3.69881C14.5005 3.69375 14.4936 3.68884 14.4865 3.68412C14.4794 3.67941 14.4722 3.67484 14.4649 3.67047C14.4576 3.66609 14.4502 3.66191 14.4427 3.65789C14.4352 3.65389 14.4276 3.65006 14.4199 3.64642C14.4122 3.6428 14.4044 3.63934 14.3965 3.63609C14.3887 3.63284 14.3807 3.62978 14.3727 3.62691C14.3647 3.62405 14.3566 3.62139 14.3485 3.61892C14.3403 3.61645 14.3321 3.61419 14.3238 3.61212C14.3156 3.61006 14.3073 3.60819 14.2989 3.60653C14.2906 3.60489 14.2822 3.60344 14.2738 3.60219C14.2653 3.60095 14.2569 3.59992 14.2484 3.59908C14.24 3.59827 14.2315 3.59764 14.223 3.59722C14.2145 3.59681 14.2059 3.59661 14.1974 3.59661L7.37983 3.59661C7.37136 3.59667 7.36291 3.59695 7.35445 3.59744C7.346 3.59792 7.33756 3.59861 7.32914 3.5995C7.32072 3.60039 7.31231 3.60148 7.30395 3.60278C7.29559 3.60409 7.28725 3.60559 7.27895 3.60731C7.27066 3.60903 7.26242 3.61094 7.25422 3.61305C7.24602 3.61516 7.23787 3.61747 7.22978 3.61997C7.2217 3.62248 7.21367 3.62519 7.20572 3.62809C7.19777 3.631 7.18989 3.63409 7.18209 3.63737C7.17428 3.64067 7.16656 3.64414 7.15894 3.6478C7.1513 3.65147 7.14377 3.65531 7.13631 3.65934C7.12886 3.66337 7.12152 3.66759 7.11428 3.67198C7.10705 3.67637 7.09991 3.68094 7.09289 3.68567C7.08588 3.69042 7.07897 3.69533 7.0722 3.70039C7.06542 3.70548 7.05877 3.71072 7.05225 3.71611C7.04573 3.72152 7.03934 3.72708 7.03308 3.73278C7.02683 3.7385 7.02072 3.74436 7.01477 3.75036C7.0088 3.75639 7.00298 3.76255 6.99731 3.76883C6.99166 3.77513 6.98616 3.78155 6.9808 3.78811C6.97544 3.79467 6.97025 3.80137 6.96523 3.80819C6.96022 3.815 6.95536 3.82194 6.95067 3.82898C6.946 3.83605 6.94148 3.84322 6.93714 3.85048C6.93281 3.85777 6.92866 3.86514 6.92469 3.87261C6.9207 3.88009 6.91692 3.88766 6.91331 3.89531C6.9097 3.90298 6.9063 3.91073 6.90306 3.91856C6.89984 3.92639 6.89681 3.9343 6.89397 3.94227C6.89113 3.95025 6.88848 3.9583 6.88603 3.96639C6.88358 3.9745 6.88134 3.98266 6.8793 3.99088C6.87725 3.99909 6.87539 4.00736 6.87375 4.01566C6.87211 4.02397 6.87066 4.03231 6.86942 4.04069C6.86819 4.04906 6.86716 4.05747 6.86633 4.06589C6.8655 4.07433 6.86487 4.08277 6.86445 4.09122C6.86403 4.09969 6.86383 4.10814 6.86383 4.11661C6.86383 4.4022 7.09423 4.6342 7.37983 4.63661ZM3.01823 9.89902C3.00769 9.89906 2.99716 9.89884 2.98664 9.89837C2.97611 9.89791 2.96559 9.89719 2.95511 9.89619C2.94462 9.8952 2.93416 9.89395 2.92373 9.89244C2.91331 9.89094 2.90293 9.88916 2.89259 9.88713C2.88225 9.88511 2.87196 9.88283 2.86173 9.88028C2.8515 9.87775 2.84135 9.87497 2.83127 9.87192C2.82117 9.86889 2.81117 9.86561 2.80125 9.86206C2.79132 9.85853 2.78149 9.85477 2.77175 9.85073C2.76201 9.84672 2.75238 9.84245 2.74284 9.83795C2.73332 9.83345 2.72392 9.82872 2.71462 9.82375C2.70532 9.81878 2.69616 9.81359 2.68712 9.80817C2.67809 9.80277 2.6692 9.79712 2.66044 9.79125C2.65169 9.78539 2.64308 9.77931 2.63462 9.77303C2.62617 9.76675 2.61788 9.76025 2.60975 9.75355C2.60161 9.74686 2.59365 9.73995 2.58586 9.73286C2.57807 9.72577 2.57046 9.71848 2.56303 9.71102L1.54623 8.6902C1.53877 8.6828 1.53151 8.67519 1.52443 8.66741C1.51735 8.65963 1.51047 8.65169 1.50378 8.64356C1.4971 8.63544 1.49061 8.62716 1.48434 8.61872C1.47806 8.61028 1.472 8.60169 1.46614 8.59294C1.46029 8.5842 1.45466 8.57533 1.44925 8.5663C1.44383 8.55728 1.43865 8.54814 1.43369 8.53886C1.42872 8.52958 1.424 8.52019 1.4195 8.51069C1.415 8.50119 1.41074 8.49156 1.40672 8.48184C1.4027 8.47213 1.39892 8.4623 1.39539 8.45239C1.39185 8.44248 1.38856 8.4325 1.38552 8.42244C1.38247 8.41237 1.37968 8.40224 1.37714 8.39202C1.3746 8.38181 1.37231 8.37155 1.37028 8.36123C1.36824 8.35092 1.36647 8.34055 1.36494 8.33014C1.36342 8.31973 1.36216 8.30928 1.36115 8.29881C1.36015 8.28834 1.3594 8.27786 1.35891 8.26734C1.35842 8.25684 1.3582 8.24634 1.35823 8.23581C1.35818 8.22528 1.35839 8.21475 1.35886 8.20422C1.35933 8.19369 1.36006 8.18319 1.36105 8.17269C1.36205 8.1622 1.3633 8.15175 1.36481 8.14131C1.36632 8.13089 1.36809 8.12052 1.37011 8.11017C1.37214 8.09983 1.37442 8.08955 1.37695 8.07931C1.37949 8.06909 1.38227 8.05894 1.38531 8.04884C1.38835 8.03875 1.39164 8.02875 1.39517 8.01883C1.3987 8.00891 1.40248 7.99908 1.40651 7.98933C1.41053 7.97959 1.41479 7.96995 1.41929 7.96042C1.42379 7.95091 1.42852 7.9415 1.43349 7.9322C1.43845 7.92292 1.44365 7.91375 1.44907 7.9047C1.45449 7.89567 1.46013 7.88678 1.46599 7.87802C1.47185 7.86927 1.47792 7.86067 1.48421 7.8522C1.4905 7.84377 1.49699 7.83547 1.50369 7.82733C1.51039 7.8192 1.51729 7.81123 1.52438 7.80344C1.53148 7.79566 1.53876 7.78805 1.54623 7.78061C1.55367 7.77316 1.56129 7.76589 1.56909 7.7588C1.5769 7.75173 1.58486 7.74484 1.593 7.73816C1.60113 7.73147 1.60943 7.72498 1.61789 7.7187C1.62635 7.71244 1.63496 7.70638 1.64372 7.70052C1.65248 7.69467 1.66138 7.68903 1.67042 7.68361C1.67945 7.6782 1.68861 7.67302 1.69791 7.66805C1.7072 7.66309 1.71661 7.65836 1.72614 7.65386C1.73566 7.64937 1.74529 7.64512 1.75503 7.64109C1.76477 7.63708 1.7746 7.6333 1.78452 7.62975C1.79444 7.62622 1.80445 7.62294 1.81453 7.61989C1.82461 7.61686 1.83477 7.61406 1.84498 7.61152C1.85521 7.60898 1.86549 7.60669 1.87583 7.60466C1.88616 7.60262 1.89654 7.60084 1.90697 7.59931C1.9174 7.5978 1.92785 7.59653 1.93833 7.59553C1.94882 7.59453 1.95932 7.59378 1.96984 7.5933C1.98036 7.59281 1.9909 7.59258 2.00144 7.59261C2.17183 7.59181 2.33583 7.65981 2.45583 7.78061L3.01903 8.34381L5.13023 6.23181C5.13767 6.22436 5.1453 6.21709 5.15309 6.21C5.16089 6.20294 5.16886 6.19605 5.177 6.18936C5.18514 6.18267 5.19344 6.17619 5.20189 6.16991C5.21034 6.16362 5.21895 6.15756 5.22772 6.15172C5.23648 6.14587 5.24538 6.14023 5.25442 6.13481C5.26345 6.12941 5.27261 6.12422 5.28191 6.11925C5.2912 6.1143 5.30061 6.10956 5.31014 6.10506C5.31966 6.10056 5.3293 6.09631 5.33903 6.0923C5.34877 6.08827 5.35859 6.08448 5.36852 6.08095C5.37844 6.07742 5.38845 6.07414 5.39853 6.07109C5.40861 6.06805 5.41877 6.06525 5.42898 6.06272C5.43922 6.06019 5.4495 6.05789 5.45983 6.05584C5.47016 6.05381 5.48055 6.05205 5.49097 6.05052C5.50139 6.049 5.51184 6.04773 5.52233 6.04673C5.53281 6.04573 5.54333 6.04498 5.55384 6.04448C5.56436 6.04402 5.57489 6.04378 5.58544 6.04381C5.59597 6.04377 5.6065 6.04397 5.61702 6.04444C5.62755 6.04491 5.63806 6.04564 5.64855 6.04664C5.65903 6.04764 5.6695 6.04889 5.67992 6.05039C5.69034 6.05191 5.70073 6.05367 5.71108 6.05569C5.72141 6.05772 5.73169 6.06 5.74192 6.06253C5.75216 6.06506 5.76231 6.06786 5.77239 6.07089C5.78248 6.07394 5.7925 6.07722 5.80242 6.08075C5.81234 6.08428 5.82219 6.08806 5.83192 6.09208C5.84166 6.09611 5.85128 6.10036 5.86081 6.10486C5.87034 6.10936 5.87975 6.11409 5.88905 6.11906C5.89834 6.12403 5.9075 6.12923 5.91653 6.13464C5.92558 6.14008 5.93447 6.14572 5.94322 6.15156C5.95198 6.15744 5.96058 6.16352 5.96903 6.1698C5.97748 6.17608 5.98578 6.18258 5.99392 6.18927C6.00205 6.19598 6.01 6.20288 6.0178 6.20997C6.02559 6.21706 6.0332 6.22434 6.04063 6.23181C6.04809 6.23923 6.05538 6.24683 6.06245 6.25459C6.06953 6.26237 6.07642 6.27033 6.08313 6.27844C6.08981 6.28656 6.0963 6.29483 6.10258 6.30327C6.10886 6.3117 6.11494 6.3203 6.1208 6.32903C6.12666 6.33778 6.13228 6.34666 6.1377 6.35567C6.14313 6.3647 6.14831 6.37384 6.15327 6.38311C6.15823 6.39239 6.16297 6.4018 6.16747 6.4113C6.17197 6.42081 6.17623 6.43042 6.18025 6.44014C6.18427 6.44986 6.18805 6.45967 6.19158 6.46958C6.19513 6.47948 6.19841 6.48948 6.20145 6.49955C6.20448 6.50962 6.20727 6.51977 6.20981 6.52997C6.21236 6.54019 6.21464 6.55045 6.21667 6.56077C6.2187 6.57109 6.22047 6.58147 6.22198 6.59188C6.2235 6.60228 6.22477 6.61272 6.22577 6.62319C6.22675 6.63367 6.22748 6.64417 6.22797 6.65467C6.22845 6.66517 6.22867 6.67569 6.22862 6.6862C6.22867 6.69675 6.22847 6.70728 6.228 6.7178C6.22753 6.72833 6.2268 6.73884 6.22581 6.74933C6.22481 6.75983 6.22356 6.77028 6.22205 6.7807C6.22053 6.79114 6.21877 6.80152 6.21675 6.81186C6.21473 6.8222 6.21245 6.83248 6.20991 6.8427C6.20738 6.85294 6.20459 6.86309 6.20155 6.87317C6.19852 6.88327 6.19523 6.89328 6.19169 6.9032C6.18816 6.91314 6.18438 6.92297 6.18036 6.93269C6.17634 6.94244 6.17208 6.95206 6.16758 6.96159C6.16308 6.97113 6.15834 6.98055 6.15338 6.98983C6.14841 6.99913 6.14322 7.00828 6.1378 7.01731C6.13238 7.02634 6.12673 7.03525 6.12087 7.044C6.11502 7.05277 6.10894 7.06138 6.10266 7.06981C6.09636 7.07828 6.08988 7.08656 6.08317 7.09469C6.07647 7.10283 6.06958 7.1108 6.06248 7.11858C6.05539 7.12637 6.04811 7.13398 6.04063 7.14141L3.47423 9.70781C3.46681 9.71536 3.45922 9.72272 3.45144 9.72987C3.44366 9.73706 3.4357 9.74403 3.42758 9.7508C3.41945 9.75758 3.41116 9.76414 3.4027 9.7705C3.39425 9.77687 3.38566 9.78302 3.37689 9.78895C3.36814 9.79489 3.35925 9.80059 3.3502 9.80609C3.34116 9.81159 3.33198 9.81686 3.32269 9.82189C3.31337 9.82692 3.30395 9.83173 3.29441 9.8363C3.28487 9.84087 3.27523 9.8452 3.26547 9.84928C3.2557 9.85337 3.24586 9.85723 3.23591 9.86083C3.22595 9.86444 3.21592 9.8678 3.20581 9.87089C3.1957 9.87398 3.18553 9.87684 3.17527 9.87944C3.165 9.88203 3.15469 9.88437 3.14433 9.88647C3.13395 9.88856 3.12353 9.89038 3.11308 9.89194C3.10261 9.89352 3.09211 9.89483 3.08159 9.89587C3.07106 9.89692 3.06052 9.8977 3.04995 9.89822C3.03938 9.89875 3.02881 9.89902 3.01823 9.89902ZM7.37983 9.2422L14.1974 9.2422C14.2059 9.2422 14.2145 9.242 14.2229 9.24158C14.2314 9.24117 14.2399 9.24055 14.2484 9.2397C14.2569 9.23887 14.2653 9.23783 14.2737 9.23658C14.2822 9.23533 14.2905 9.23388 14.2989 9.23222C14.3072 9.23056 14.3155 9.22869 14.3238 9.22663C14.332 9.22456 14.3402 9.22228 14.3484 9.21981C14.3565 9.21734 14.3646 9.21469 14.3726 9.21181C14.3806 9.20895 14.3886 9.20589 14.3964 9.20263C14.4043 9.19938 14.4121 9.19592 14.4198 9.19228C14.4275 9.18866 14.435 9.18483 14.4425 9.18081C14.4501 9.17681 14.4575 9.17261 14.4648 9.16823C14.4721 9.16386 14.4792 9.15931 14.4863 9.15458C14.4934 9.14986 14.5004 9.14495 14.5072 9.13988C14.514 9.13481 14.5207 9.12958 14.5273 9.12417C14.5339 9.11878 14.5403 9.11322 14.5466 9.1075C14.5529 9.1018 14.5591 9.09594 14.5651 9.08991C14.5711 9.08389 14.577 9.07773 14.5827 9.07142C14.5884 9.06511 14.594 9.05867 14.5994 9.05209C14.6048 9.04552 14.61 9.03881 14.6151 9.03197C14.6202 9.02514 14.6251 9.01819 14.6298 9.01111C14.6345 9.00403 14.6391 8.99684 14.6435 8.98955C14.6478 8.98225 14.652 8.97484 14.656 8.96733C14.66 8.95983 14.6639 8.95223 14.6675 8.94453C14.6711 8.93684 14.6746 8.92908 14.6778 8.9212C14.6811 8.91334 14.6842 8.90541 14.687 8.89739C14.6899 8.88939 14.6926 8.88131 14.695 8.87316C14.6975 8.86502 14.6998 8.85681 14.7018 8.84856C14.7039 8.84031 14.7058 8.832 14.7074 8.82366C14.7091 8.81531 14.7105 8.80694 14.7118 8.79852C14.713 8.79009 14.7141 8.78164 14.7149 8.77317C14.7157 8.7647 14.7164 8.75622 14.7168 8.74772C14.7172 8.73922 14.7174 8.73072 14.7174 8.7222C14.7174 8.7137 14.7172 8.70519 14.7168 8.69669C14.7164 8.68819 14.7157 8.6797 14.7149 8.67123C14.7141 8.66277 14.713 8.65433 14.7118 8.64591C14.7105 8.6375 14.7091 8.62911 14.7074 8.62077C14.7058 8.61242 14.7039 8.60411 14.7018 8.59586C14.6998 8.58761 14.6975 8.57941 14.695 8.57127C14.6926 8.56313 14.6899 8.55505 14.687 8.54703C14.6842 8.53902 14.6811 8.53108 14.6778 8.52322C14.6746 8.51536 14.6711 8.50758 14.6675 8.49988C14.6639 8.49219 14.66 8.48459 14.656 8.47708C14.652 8.46958 14.6478 8.46219 14.6435 8.45487C14.6391 8.44758 14.6345 8.44039 14.6298 8.43331C14.6251 8.42625 14.6202 8.41928 14.6151 8.41244C14.61 8.40561 14.6048 8.39891 14.5994 8.39233C14.594 8.38575 14.5884 8.37931 14.5827 8.373C14.577 8.36669 14.5711 8.36053 14.5651 8.35452C14.5591 8.3485 14.5529 8.34262 14.5466 8.33691C14.5403 8.3312 14.5339 8.32566 14.5273 8.32025C14.5207 8.31484 14.514 8.30961 14.5072 8.30455C14.5004 8.29948 14.4934 8.29458 14.4863 8.28984C14.4792 8.28512 14.4721 8.28056 14.4648 8.27619C14.4575 8.27181 14.4501 8.26762 14.4426 8.26361C14.435 8.25961 14.4275 8.25578 14.4198 8.25214C14.4121 8.2485 14.4043 8.24505 14.3964 8.2418C14.3886 8.23855 14.3806 8.23548 14.3726 8.23261C14.3646 8.22975 14.3565 8.22708 14.3484 8.22459C14.3402 8.22213 14.332 8.21986 14.3238 8.2178C14.3155 8.21573 14.3072 8.21386 14.2989 8.2122C14.2905 8.21055 14.2822 8.20909 14.2737 8.20784C14.2653 8.20659 14.2569 8.20556 14.2484 8.20472C14.2399 8.20389 14.2314 8.20327 14.2229 8.20283C14.2145 8.20242 14.2059 8.2022 14.1974 8.2022L7.37983 8.2022C7.37136 8.20228 7.36291 8.20256 7.35445 8.20303C7.346 8.20352 7.33756 8.2042 7.32914 8.20509C7.32072 8.206 7.31231 8.20709 7.30395 8.20839C7.29559 8.2097 7.28727 8.2112 7.27897 8.21291C7.27067 8.21462 7.26242 8.21653 7.25422 8.21864C7.24602 8.22077 7.23787 8.22308 7.2298 8.22558C7.2217 8.22809 7.21367 8.2308 7.20572 8.23369C7.19777 8.23659 7.18989 8.23969 7.18209 8.24297C7.17428 8.24627 7.16656 8.24975 7.15892 8.25341C7.1513 8.25706 7.14377 8.26091 7.13631 8.26494C7.12886 8.26898 7.12152 8.2732 7.11428 8.27758C7.10705 8.28198 7.09991 8.28655 7.09289 8.29128C7.08588 8.29602 7.07897 8.30092 7.0722 8.306C7.06542 8.31108 7.05877 8.31631 7.05225 8.32172C7.04573 8.32713 7.03934 8.33267 7.03309 8.33838C7.02683 8.34409 7.02072 8.34997 7.01477 8.35597C7.0088 8.36198 7.00298 8.36814 6.99731 8.37442C6.99166 8.38072 6.98616 8.38716 6.9808 8.39372C6.97545 8.40028 6.97027 8.40697 6.96523 8.41378C6.96022 8.42061 6.95536 8.42755 6.95067 8.43459C6.946 8.44166 6.94148 8.44881 6.93714 8.45608C6.93281 8.46336 6.92866 8.47075 6.92469 8.47822C6.9207 8.48569 6.91692 8.49327 6.91331 8.50092C6.9097 8.50859 6.9063 8.51634 6.90306 8.52416C6.89984 8.532 6.89681 8.53991 6.89397 8.54787C6.89113 8.55584 6.88848 8.56389 6.88603 8.572C6.88358 8.58011 6.88134 8.58827 6.8793 8.59648C6.87725 8.6047 6.87539 8.61295 6.87375 8.62127C6.87211 8.62958 6.87066 8.63791 6.86942 8.64628C6.86819 8.65467 6.86716 8.66308 6.86633 8.6715C6.8655 8.67994 6.86487 8.68838 6.86445 8.69683C6.86403 8.7053 6.86383 8.71375 6.86383 8.7222C6.86375 8.73066 6.86389 8.73909 6.86423 8.74752C6.86458 8.75595 6.86513 8.76436 6.86588 8.77277C6.86664 8.78117 6.86759 8.78956 6.86877 8.79791C6.86994 8.80628 6.8713 8.81461 6.87288 8.82289C6.87445 8.83117 6.87622 8.83942 6.8782 8.84762C6.88019 8.85583 6.88238 8.86398 6.88475 8.87208C6.88714 8.88017 6.88972 8.8882 6.89248 8.89617C6.89525 8.90414 6.89822 8.91205 6.90139 8.91986C6.90456 8.92769 6.90791 8.93542 6.91145 8.94308C6.915 8.95075 6.91872 8.95831 6.92263 8.96578C6.92655 8.97327 6.93064 8.98064 6.93492 8.98791C6.93919 8.99519 6.94364 9.00236 6.94828 9.00941C6.95291 9.01647 6.9577 9.02341 6.96267 9.03022C6.96764 9.03705 6.97277 9.04375 6.97806 9.05031C6.98336 9.05688 6.98883 9.06331 6.99444 9.06961C7.00005 9.07592 7.00581 9.08208 7.01173 9.08809C7.01766 9.09411 7.0237 9.09997 7.02991 9.10569C7.03611 9.11142 7.04245 9.11698 7.04894 9.12239C7.05541 9.1278 7.06202 9.13305 7.06875 9.13812C7.07548 9.14322 7.08233 9.14812 7.08931 9.15287C7.0963 9.15763 7.10337 9.1622 7.11058 9.16659C7.11778 9.171 7.12508 9.17523 7.1325 9.17927C7.13991 9.18331 7.14741 9.18717 7.155 9.19083C7.16259 9.19452 7.17028 9.198 7.17805 9.20128C7.18581 9.20459 7.19366 9.20769 7.20158 9.21059C7.2095 9.2135 7.2175 9.21622 7.22555 9.21873C7.23359 9.22127 7.2417 9.22358 7.24988 9.22569C7.25805 9.22781 7.26627 9.22973 7.27453 9.23145C7.2828 9.23317 7.29109 9.23467 7.29942 9.23598C7.30775 9.2373 7.31612 9.23841 7.32452 9.2393C7.33291 9.2402 7.34131 9.24089 7.34973 9.24137C7.35816 9.24187 7.36659 9.24214 7.37503 9.2422L7.37983 9.2422ZM3.01823 14.5038C3.00769 14.5039 2.99716 14.5037 2.98664 14.5032C2.97611 14.5027 2.96559 14.502 2.95511 14.501C2.94462 14.5 2.93416 14.4987 2.92373 14.4972C2.91331 14.4957 2.90293 14.494 2.89259 14.4919C2.88225 14.4899 2.87196 14.4876 2.86173 14.4851C2.8515 14.4826 2.84135 14.4798 2.83127 14.4767C2.82117 14.4737 2.81116 14.4704 2.80123 14.4669C2.79132 14.4633 2.78149 14.4596 2.77175 14.4555C2.76201 14.4515 2.75238 14.4473 2.74284 14.4427C2.73332 14.4382 2.72391 14.4335 2.71461 14.4286C2.70532 14.4236 2.69616 14.4184 2.68712 14.413C2.67809 14.4076 2.6692 14.4019 2.66044 14.396C2.65169 14.3902 2.64308 14.3841 2.63462 14.3778C2.62617 14.3715 2.61788 14.365 2.60975 14.3583C2.60161 14.3517 2.59365 14.3447 2.58586 14.3377C2.57807 14.3306 2.57046 14.3233 2.56303 14.3158L1.54543 13.2982C1.53797 13.2908 1.53071 13.2832 1.52363 13.2754C1.51655 13.2676 1.50967 13.2597 1.50298 13.2516C1.4963 13.2434 1.48981 13.2352 1.48354 13.2267C1.47726 13.2183 1.4712 13.2097 1.46534 13.2009C1.45949 13.1922 1.45386 13.1833 1.44845 13.1743C1.44303 13.1653 1.43785 13.1561 1.43289 13.1469C1.42792 13.1376 1.4232 13.1282 1.4187 13.1187C1.4142 13.1092 1.40994 13.0996 1.40592 13.0898C1.4019 13.0801 1.39812 13.0703 1.39459 13.0604C1.39105 13.0505 1.38776 13.0405 1.38472 13.0304C1.38167 13.0204 1.37888 13.0102 1.37634 13C1.3738 12.9898 1.37151 12.9795 1.36948 12.9692C1.36744 12.9589 1.36567 12.9485 1.36414 12.9381C1.36262 12.9277 1.36136 12.9173 1.36035 12.9068C1.35935 12.8963 1.3586 12.8859 1.35811 12.8753C1.35762 12.8648 1.3574 12.8543 1.35743 12.8438C1.35738 12.8333 1.35759 12.8228 1.35806 12.8122C1.35853 12.8017 1.35926 12.7912 1.36025 12.7807C1.36125 12.7702 1.3625 12.7598 1.36401 12.7493C1.36552 12.7389 1.36729 12.7285 1.36931 12.7182C1.37134 12.7078 1.37362 12.6975 1.37615 12.6873C1.37869 12.6771 1.38147 12.6669 1.38451 12.6568C1.38755 12.6468 1.39084 12.6368 1.39437 12.6268C1.3979 12.6169 1.40168 12.6071 1.40571 12.5973C1.40973 12.5876 1.41399 12.578 1.41849 12.5684C1.42299 12.5589 1.42772 12.5495 1.43269 12.5402C1.43765 12.5309 1.44285 12.5217 1.44827 12.5127C1.45369 12.5037 1.45933 12.4948 1.46519 12.486C1.47105 12.4773 1.47712 12.4687 1.48341 12.4602C1.4897 12.4517 1.49619 12.4435 1.50289 12.4353C1.50959 12.4272 1.51649 12.4192 1.52358 12.4114C1.53068 12.4037 1.53796 12.396 1.54543 12.3886C1.55287 12.3812 1.56049 12.3739 1.5683 12.3668C1.57609 12.3597 1.58406 12.3528 1.5922 12.3462C1.60034 12.3395 1.60863 12.333 1.61709 12.3267C1.62555 12.3204 1.63416 12.3144 1.64292 12.3085C1.65168 12.3027 1.66058 12.297 1.66961 12.2916C1.67865 12.2862 1.68782 12.281 1.69711 12.276C1.7064 12.2711 1.71581 12.2664 1.72534 12.2619C1.73486 12.2574 1.74449 12.2531 1.75423 12.2491C1.76396 12.2451 1.77379 12.2413 1.78372 12.2378C1.79365 12.2342 1.80365 12.2309 1.81373 12.2279C1.82382 12.2249 1.83397 12.2221 1.84419 12.2195C1.85442 12.217 1.8647 12.2147 1.87503 12.2127C1.88536 12.2106 1.89574 12.2088 1.90617 12.2073C1.91659 12.2058 1.92704 12.2045 1.93753 12.2035C1.94802 12.2025 1.95852 12.2018 1.96905 12.2013C1.97957 12.2008 1.99009 12.2006 2.00063 12.2006C2.17103 12.1998 2.33503 12.2678 2.45503 12.3886L3.01823 12.9518L5.12944 10.8398C5.13688 10.8324 5.1445 10.8251 5.1523 10.818C5.16009 10.8109 5.16806 10.804 5.1762 10.7974C5.18434 10.7907 5.19264 10.7842 5.20109 10.7779C5.20955 10.7716 5.21816 10.7656 5.22692 10.7597C5.23569 10.7539 5.24458 10.7482 5.25361 10.7428C5.26266 10.7374 5.27181 10.7322 5.28111 10.7273C5.29041 10.7223 5.29981 10.7176 5.30934 10.7131C5.31886 10.7086 5.3285 10.7043 5.33823 10.7003C5.34797 10.6963 5.3578 10.6925 5.36772 10.689C5.37764 10.6854 5.38766 10.6821 5.39773 10.6791C5.40781 10.676 5.41797 10.6733 5.42819 10.6707C5.43842 10.6682 5.4487 10.6659 5.45903 10.6638C5.46936 10.6618 5.47975 10.66 5.49017 10.6585C5.50059 10.657 5.51105 10.6557 5.52153 10.6547C5.53202 10.6537 5.54253 10.653 5.55305 10.6525C5.56356 10.652 5.57409 10.6518 5.58463 10.6518C5.59517 10.6518 5.6057 10.652 5.61622 10.6524C5.62675 10.6529 5.63727 10.6536 5.64775 10.6546C5.65823 10.6556 5.6687 10.6569 5.67912 10.6584C5.68955 10.6599 5.69994 10.6617 5.71027 10.6637C5.72061 10.6657 5.73089 10.668 5.74113 10.6705C5.75136 10.6731 5.76152 10.6759 5.77159 10.6789C5.78169 10.6819 5.7917 10.6852 5.80163 10.6888C5.81155 10.6923 5.82137 10.6961 5.83111 10.7001C5.84084 10.7041 5.85048 10.7084 5.86002 10.7129C5.86953 10.7174 5.87895 10.7221 5.88825 10.7271C5.89755 10.732 5.9067 10.7372 5.91573 10.7426C5.92477 10.7481 5.93366 10.7537 5.94242 10.7596C5.95117 10.7654 5.95978 10.7715 5.96823 10.7778C5.97669 10.7841 5.98498 10.7906 5.99311 10.7973C6.00125 10.804 6.0092 10.8109 6.017 10.818C6.0248 10.8251 6.03241 10.8323 6.03983 10.8398C6.0473 10.8472 6.05458 10.8548 6.06166 10.8626C6.06873 10.8704 6.07562 10.8783 6.08233 10.8864C6.08902 10.8946 6.0955 10.9028 6.10178 10.9113C6.10806 10.9197 6.11413 10.9283 6.11998 10.937C6.12584 10.9458 6.13148 10.9547 6.13691 10.9637C6.14233 10.9727 6.14752 10.9818 6.15247 10.9911C6.15744 11.0004 6.16217 11.0098 6.16666 11.0193C6.17116 11.0288 6.17542 11.0384 6.17944 11.0481C6.18347 11.0579 6.18725 11.0677 6.19078 11.0776C6.19431 11.0875 6.19759 11.0975 6.20064 11.1075C6.20369 11.1176 6.20647 11.1278 6.20902 11.138C6.21156 11.1482 6.21384 11.1585 6.21586 11.1688C6.21789 11.1791 6.21967 11.1895 6.22119 11.1999C6.2227 11.2103 6.22395 11.2207 6.22495 11.2312C6.22595 11.2417 6.22669 11.2522 6.22717 11.2627C6.22766 11.2732 6.22788 11.2837 6.22783 11.2942C6.22788 11.3047 6.22767 11.3153 6.2272 11.3258C6.22673 11.3363 6.226 11.3468 6.225 11.3573C6.22402 11.3678 6.22277 11.3783 6.22125 11.3887C6.21973 11.3991 6.21797 11.4095 6.21595 11.4199C6.21392 11.4302 6.21164 11.4405 6.20911 11.4507C6.20658 11.4609 6.2038 11.4711 6.20075 11.4812C6.1977 11.4913 6.19442 11.5013 6.19089 11.5112C6.18736 11.5211 6.18358 11.531 6.17956 11.5407C6.17553 11.5504 6.17127 11.5601 6.16677 11.5696C6.16228 11.5791 6.15755 11.5885 6.15258 11.5978C6.14761 11.6071 6.14242 11.6163 6.137 11.6253C6.13158 11.6343 6.12594 11.6432 6.12008 11.652C6.11422 11.6608 6.10814 11.6694 6.10184 11.6778C6.09556 11.6863 6.08908 11.6946 6.08238 11.7027C6.07567 11.7108 6.06877 11.7188 6.06167 11.7266C6.05458 11.7344 6.0473 11.742 6.03983 11.7494L3.47344 14.3158C3.46598 14.3233 3.45836 14.3305 3.45056 14.3376C3.44277 14.3447 3.4348 14.3516 3.42666 14.3583C3.41852 14.365 3.41022 14.3714 3.40177 14.3777C3.39331 14.384 3.3847 14.3901 3.37594 14.3959C3.36717 14.4018 3.35828 14.4074 3.34925 14.4128C3.3402 14.4182 3.33105 14.4234 3.32175 14.4284C3.31245 14.4333 3.30305 14.438 3.29353 14.4425C3.284 14.447 3.27436 14.4513 3.26463 14.4553C3.25489 14.4594 3.24506 14.4631 3.23514 14.4667C3.22522 14.4702 3.21522 14.4735 3.20512 14.4765C3.19505 14.4796 3.18489 14.4824 3.17467 14.4849C3.16444 14.4875 3.15416 14.4897 3.14383 14.4918C3.1335 14.4938 3.12311 14.4956 3.11269 14.4971C3.10227 14.4986 3.09181 14.4999 3.08133 14.5009C3.07084 14.5019 3.06033 14.5026 3.04981 14.5031C3.0393 14.5036 3.02877 14.5038 3.01823 14.5038ZM7.37983 13.847L14.1974 13.847C14.2059 13.847 14.2145 13.8468 14.2229 13.8464C14.2314 13.846 14.2399 13.8453 14.2484 13.8445C14.2569 13.8437 14.2653 13.8426 14.2737 13.8414C14.2822 13.8401 14.2905 13.8387 14.2989 13.837C14.3072 13.8354 14.3155 13.8335 14.3238 13.8314C14.332 13.8294 14.3402 13.8271 14.3484 13.8246C14.3565 13.8221 14.3646 13.8195 14.3726 13.8166C14.3806 13.8138 14.3886 13.8107 14.3964 13.8074C14.4043 13.8042 14.4121 13.8007 14.4198 13.7971C14.4275 13.7935 14.435 13.7896 14.4425 13.7856C14.4501 13.7816 14.4575 13.7774 14.4648 13.773C14.4721 13.7687 14.4792 13.7641 14.4863 13.7594C14.4934 13.7547 14.5004 13.7498 14.5072 13.7447C14.514 13.7396 14.5207 13.7344 14.5273 13.729C14.5339 13.7236 14.5403 13.718 14.5466 13.7123C14.5529 13.7066 14.5591 13.7007 14.5651 13.6947C14.5711 13.6887 14.577 13.6825 14.5827 13.6762C14.5884 13.6699 14.594 13.6635 14.5994 13.6569C14.6048 13.6503 14.61 13.6436 14.6151 13.6368C14.6202 13.6299 14.6251 13.623 14.6298 13.6159C14.6345 13.6088 14.6391 13.6016 14.6435 13.5943C14.6478 13.587 14.652 13.5796 14.656 13.5721C14.66 13.5646 14.6639 13.557 14.6675 13.5493C14.6711 13.5416 14.6746 13.5339 14.6778 13.526C14.6811 13.5181 14.6842 13.5102 14.687 13.5022C14.6899 13.4942 14.6926 13.4861 14.695 13.478C14.6975 13.4698 14.6998 13.4616 14.7018 13.4534C14.7039 13.4451 14.7058 13.4368 14.7074 13.4285C14.7091 13.4201 14.7105 13.4117 14.7118 13.4033C14.713 13.3949 14.7141 13.3865 14.7149 13.378C14.7157 13.3695 14.7164 13.361 14.7168 13.3525C14.7172 13.344 14.7174 13.3355 14.7174 13.327C14.7174 13.3185 14.7172 13.31 14.7168 13.3015C14.7164 13.293 14.7157 13.2845 14.7149 13.276C14.7141 13.2676 14.713 13.2591 14.7118 13.2507C14.7105 13.2423 14.7091 13.2339 14.7074 13.2256C14.7058 13.2172 14.7039 13.2089 14.7018 13.2007C14.6998 13.1924 14.6975 13.1842 14.695 13.1761C14.6926 13.1679 14.6899 13.1598 14.687 13.1518C14.6842 13.1438 14.6811 13.1359 14.6778 13.128C14.6746 13.1202 14.6711 13.1124 14.6675 13.1047C14.6639 13.097 14.66 13.0894 14.656 13.0819C14.652 13.0744 14.6478 13.067 14.6435 13.0597C14.6391 13.0524 14.6345 13.0452 14.6298 13.0381C14.6251 13.031 14.6202 13.0241 14.6151 13.0173C14.61 13.0104 14.6048 13.0037 14.5994 12.9971C14.594 12.9905 14.5884 12.9841 14.5827 12.9778C14.577 12.9715 14.5711 12.9653 14.5651 12.9593C14.5591 12.9533 14.5529 12.9474 14.5466 12.9417C14.5403 12.936 14.5339 12.9305 14.5273 12.925C14.5207 12.9196 14.514 12.9144 14.5072 12.9093C14.5004 12.9043 14.4934 12.8994 14.4863 12.8946C14.4792 12.8899 14.4721 12.8854 14.4648 12.881C14.4575 12.8766 14.4501 12.8724 14.4426 12.8684C14.435 12.8644 14.4275 12.8606 14.4198 12.8569C14.4121 12.8533 14.4043 12.8498 14.3964 12.8466C14.3886 12.8433 14.3806 12.8403 14.3726 12.8374C14.3646 12.8345 14.3565 12.8319 14.3484 12.8294C14.3402 12.8269 14.332 12.8247 14.3238 12.8226C14.3155 12.8205 14.3072 12.8187 14.2989 12.817C14.2905 12.8153 14.2822 12.8139 14.2737 12.8126C14.2653 12.8114 14.2569 12.8104 14.2484 12.8095C14.2399 12.8087 14.2314 12.8081 14.2229 12.8076C14.2145 12.8072 14.2059 12.807 14.1974 12.807L7.37983 12.807C7.09503 12.807 6.86383 13.0374 6.86383 13.323L6.86383 13.327C6.86383 13.6126 7.09423 13.8446 7.37983 13.847Z"   fill="#C9CDD4" >
</path>
</svg>
