<svg xmlns="http://www.w3.org/2000/svg" xmlns:xlink="http://www.w3.org/1999/xlink" width="24" height="24" viewBox="0 0 24 24" fill="none">
<path d="M9.69544 20.5C9.71098 20.5239 9.72687 20.5475 9.74312 20.5709C9.75938 20.5942 9.776 20.6174 9.79297 20.6402C9.80994 20.6631 9.82726 20.6857 9.84493 20.708C9.86262 20.7303 9.88065 20.7524 9.899 20.7742C9.91737 20.7959 9.93605 20.8174 9.95508 20.8386C9.97412 20.8597 9.99347 20.8806 10.0131 20.9012C10.0328 20.9218 10.0528 20.9421 10.0731 20.962C10.0934 20.982 10.1141 21.0016 10.135 21.021C10.1559 21.0403 10.1771 21.0592 10.1986 21.0779C10.2201 21.0966 10.2419 21.1149 10.264 21.1329C10.2861 21.1509 10.3085 21.1685 10.3311 21.1858C10.3537 21.2031 10.3766 21.22 10.3997 21.2366C10.4229 21.2531 10.4463 21.2694 10.47 21.2852C10.4936 21.3011 10.5175 21.3165 10.5417 21.3316C10.5658 21.3467 10.5902 21.3615 10.6148 21.3758C10.6394 21.3902 10.6642 21.4041 10.6892 21.4177C10.7142 21.4313 10.7395 21.4444 10.7649 21.4572C10.7904 21.47 10.816 21.4824 10.8418 21.4944C10.8676 21.5064 10.8937 21.518 10.9198 21.5292C10.946 21.5403 10.9724 21.5511 10.9989 21.5615C11.0255 21.5719 11.0521 21.5818 11.0789 21.5913C11.1058 21.6009 11.1328 21.61 11.1599 21.6187C11.187 21.6274 11.2142 21.6357 11.2416 21.6435C11.269 21.6514 11.2965 21.6588 11.3241 21.6658C11.3517 21.6728 11.3794 21.6794 11.4072 21.6855C11.435 21.6916 11.4629 21.6973 11.4909 21.7026C11.5189 21.7079 11.5469 21.7127 11.575 21.7171C11.6032 21.7214 11.6314 21.7254 11.6596 21.7289C11.6879 21.7325 11.7162 21.7355 11.7446 21.7382C11.7729 21.7408 11.8013 21.743 11.8297 21.7447C11.8581 21.7465 11.8866 21.7478 11.915 21.7487C11.9435 21.7496 11.972 21.75 12.0005 21.75C12.9654 21.75 13.815 21.2525 14.3055 20.5L15.978 20.5C15.959 20.5501 15.9392 20.5998 15.9184 20.6492C15.8975 20.6986 15.8758 20.7476 15.8532 20.7962C15.8305 20.8447 15.8069 20.8928 15.7824 20.9405C15.758 20.9882 15.7326 21.0353 15.7063 21.0821C15.6801 21.1288 15.653 21.175 15.6249 21.2206C15.5969 21.2663 15.5681 21.3115 15.5383 21.3561C15.5086 21.4006 15.4781 21.4447 15.4467 21.4881C15.4153 21.5315 15.3831 21.5744 15.3501 21.6166C15.3171 21.6588 15.2834 21.7004 15.2488 21.7413C15.2142 21.7822 15.1789 21.8225 15.1428 21.8621C15.1067 21.9017 15.0699 21.9406 15.0323 21.9789C14.9947 22.0171 14.9565 22.0545 14.9175 22.0913C14.8785 22.1281 14.8388 22.1641 14.7985 22.1994C14.7582 22.2346 14.7172 22.2691 14.6755 22.3028C14.6339 22.3366 14.5916 22.3695 14.5487 22.4016C14.5058 22.4337 14.4623 22.465 14.4182 22.4955C14.3742 22.5259 14.3295 22.5556 14.2843 22.5844C14.2391 22.6132 14.1934 22.6411 14.1471 22.6681C14.1009 22.6952 14.0541 22.7214 14.0069 22.7467C13.9597 22.7719 13.912 22.7963 13.8638 22.8198C13.8156 22.8433 13.7671 22.8659 13.718 22.8875C13.669 22.9091 13.6196 22.9299 13.5698 22.9496C13.52 22.9694 13.4698 22.9882 13.4193 23.0061C13.3688 23.024 13.318 23.0409 13.2668 23.0569C13.2157 23.0729 13.1642 23.0879 13.1125 23.1019C13.0608 23.1159 13.0088 23.1289 12.9566 23.141C12.9044 23.153 12.852 23.1641 12.7993 23.1742C12.7467 23.1842 12.6939 23.1933 12.641 23.2014C12.588 23.2094 12.5349 23.2165 12.4816 23.2226C12.4284 23.2286 12.3751 23.2337 12.3216 23.2377C12.2682 23.2418 12.2147 23.2448 12.1611 23.2469C12.1076 23.2489 12.054 23.2499 12.0005 23.2499C11.9469 23.2499 11.8933 23.2489 11.8398 23.2469C11.7862 23.2448 11.7327 23.2418 11.6793 23.2377C11.6258 23.2337 11.5725 23.2286 11.5193 23.2226C11.466 23.2165 11.4129 23.2094 11.36 23.2014C11.307 23.1933 11.2542 23.1842 11.2016 23.1742C11.1489 23.1641 11.0965 23.153 11.0443 23.141C10.9921 23.1289 10.9401 23.1159 10.8884 23.1019C10.8367 23.0879 10.7852 23.0729 10.7341 23.0569C10.6829 23.041 10.6321 23.024 10.5816 23.0062C10.5311 22.9883 10.4809 22.9694 10.4311 22.9496C10.3813 22.9299 10.3319 22.9091 10.2829 22.8875C10.2339 22.8659 10.1853 22.8433 10.1371 22.8198C10.089 22.7963 10.0412 22.7719 9.99399 22.7467C9.94676 22.7214 9.90003 22.6952 9.85376 22.6681C9.80752 22.6411 9.7618 22.6132 9.71658 22.5844C9.6714 22.5556 9.62675 22.5259 9.58269 22.4955C9.53862 22.465 9.49512 22.4337 9.45223 22.4016C9.40934 22.3695 9.36706 22.3366 9.32541 22.3028C9.28376 22.2691 9.24277 22.2346 9.20241 22.1994C9.16208 22.1641 9.12242 22.1281 9.08342 22.0913C9.04444 22.0545 9.00617 22.0171 8.9686 21.9789C8.93105 21.9406 8.89421 21.9017 8.85812 21.8621C8.82202 21.8225 8.7867 21.7822 8.75213 21.7413C8.71756 21.7004 8.68376 21.6588 8.65076 21.6166C8.61776 21.5744 8.58558 21.5315 8.5542 21.4881C8.52284 21.4447 8.49228 21.4006 8.46256 21.3561C8.43284 21.3115 8.40399 21.2663 8.37596 21.2206C8.34797 21.175 8.32084 21.1288 8.29456 21.0821C8.26831 21.0353 8.24293 20.9882 8.21846 20.9405C8.19399 20.8928 8.17041 20.8447 8.14775 20.7962C8.12511 20.7476 8.10336 20.6986 8.08255 20.6492C8.06176 20.5998 8.04188 20.5501 8.02294 20.5L9.69544 20.5ZM12.0005 0.75C12.0487 0.749989 12.0968 0.751526 12.1449 0.75461C12.193 0.757695 12.241 0.76232 12.2888 0.768488C12.3366 0.774655 12.3842 0.78235 12.4315 0.791573C12.4788 0.800797 12.5258 0.81153 12.5724 0.823772C12.619 0.836016 12.6652 0.849743 12.7109 0.864954C12.7567 0.880165 12.8019 0.896828 12.8465 0.914944C12.8912 0.933061 12.9353 0.952593 12.9787 0.97354C13.0221 0.994486 13.0648 1.01681 13.1068 1.0405C13.1488 1.06419 13.19 1.08921 13.2303 1.11554C13.2707 1.14188 13.3102 1.16949 13.3488 1.19836C13.3874 1.22724 13.425 1.25733 13.4617 1.28862C13.4983 1.31992 13.534 1.35236 13.5685 1.38594C13.6031 1.41952 13.6366 1.45419 13.6689 1.48992C13.7013 1.52566 13.7325 1.56239 13.7624 1.60013C13.7924 1.63787 13.8212 1.67653 13.8487 1.71612C13.8762 1.75571 13.9024 1.79614 13.9273 1.83741C13.9522 1.87868 13.9758 1.92071 13.998 1.96349C14.0202 2.00628 14.041 2.04973 14.0604 2.09385C14.0798 2.13798 14.0978 2.18268 14.1143 2.22796C14.1309 2.27323 14.146 2.319 14.1596 2.36524C14.1732 2.41149 14.1853 2.45812 14.1959 2.50514C14.2065 2.55217 14.2156 2.59949 14.2231 2.6471C14.2307 2.69471 14.2367 2.74251 14.2412 2.79051C14.2457 2.8385 14.2486 2.88658 14.25 2.93477C14.2514 2.98296 14.2512 3.03114 14.2496 3.07931C14.2479 3.12747 14.2446 3.17554 14.2398 3.22352C14.235 3.2715 14.2287 3.31926 14.2208 3.36682C14.213 3.41437 14.2036 3.46164 14.1927 3.50859C14.1818 3.55554 14.1694 3.60211 14.1555 3.64825C14.1417 3.69443 14.1263 3.74011 14.1095 3.78527C14.0926 3.83043 14.0744 3.87504 14.0547 3.91903C14.035 3.96302 14.0139 4.00636 13.9914 4.04899C16.7469 4.89749 18.7505 7.465 18.7505 10.5L18.7505 16.1485L20.9505 17.982C20.9603 17.9901 20.9699 17.9985 20.9793 18.007C20.9888 18.0155 20.9981 18.0243 21.0072 18.0331C21.0164 18.042 21.0253 18.0511 21.0341 18.0603C21.0429 18.0695 21.0515 18.0789 21.06 18.0885C21.0684 18.098 21.0766 18.1078 21.0847 18.1176C21.0927 18.1275 21.1006 18.1375 21.1083 18.1477C21.116 18.1579 21.1234 18.1682 21.1307 18.1786C21.138 18.1891 21.1451 18.1997 21.1519 18.2104C21.1588 18.2212 21.1655 18.232 21.172 18.243C21.1784 18.254 21.1847 18.2651 21.1907 18.2763C21.1968 18.2876 21.2026 18.2989 21.2082 18.3103C21.2138 18.3218 21.2192 18.3333 21.2243 18.345C21.2295 18.3566 21.2344 18.3684 21.2391 18.3802C21.2438 18.392 21.2483 18.404 21.2526 18.416C21.2569 18.428 21.2609 18.4401 21.2647 18.4522C21.2685 18.4644 21.272 18.4766 21.2753 18.489C21.2787 18.5013 21.2817 18.5136 21.2846 18.5261C21.2875 18.5385 21.2901 18.5509 21.2925 18.5635C21.2948 18.576 21.297 18.5885 21.2989 18.6011C21.3008 18.6137 21.3024 18.6264 21.3038 18.639C21.3053 18.6517 21.3064 18.6644 21.3073 18.6771C21.3083 18.6898 21.309 18.7025 21.3094 18.7153C21.3098 18.728 21.31 18.7408 21.31 18.7535C21.3099 18.7662 21.3097 18.779 21.3091 18.7917C21.3086 18.8044 21.3078 18.8172 21.3068 18.8299C21.3058 18.8426 21.3045 18.8553 21.303 18.8679C21.3015 18.8805 21.2998 18.8932 21.2978 18.9058C21.2958 18.9184 21.2936 18.9309 21.2911 18.9434C21.2887 18.9559 21.286 18.9684 21.283 18.9808C21.2801 18.9932 21.2769 19.0055 21.2735 19.0178C21.2701 19.0301 21.2664 19.0423 21.2625 19.0544C21.2587 19.0665 21.2546 19.0786 21.2502 19.0906C21.2459 19.1026 21.2413 19.1145 21.2365 19.1263C21.2317 19.1381 21.2267 19.1498 21.2214 19.1614C21.2162 19.173 21.2108 19.1845 21.2051 19.1959C21.1994 19.2074 21.1935 19.2186 21.1874 19.2298C21.1812 19.241 21.1749 19.2521 21.1684 19.263C21.1618 19.2739 21.1551 19.2847 21.1482 19.2954C21.1412 19.3061 21.134 19.3166 21.1267 19.3271C21.1193 19.3375 21.1118 19.3477 21.104 19.3579C21.0963 19.368 21.0884 19.3779 21.0802 19.3878C21.0721 19.3976 21.0638 19.4072 21.0553 19.4167C21.0468 19.4262 21.0381 19.4356 21.0293 19.4447C21.0204 19.4539 21.0114 19.4629 21.0022 19.4717C20.993 19.4805 20.9836 19.4892 20.9741 19.4976C20.9646 19.5061 20.9549 19.5144 20.945 19.5225C20.9352 19.5306 20.9252 19.5385 20.915 19.5462C20.9049 19.5539 20.8946 19.5614 20.8842 19.5687C20.8737 19.576 20.8632 19.5832 20.8525 19.5901C20.8418 19.597 20.8309 19.6037 20.82 19.6102C20.809 19.6167 20.7979 19.623 20.7867 19.629C20.7755 19.6351 20.7642 19.641 20.7528 19.6466C20.7413 19.6523 20.7298 19.6577 20.7182 19.6629C20.7065 19.6681 20.6948 19.6731 20.683 19.6778C20.6712 19.6826 20.6592 19.6871 20.6472 19.6914C20.6352 19.6957 20.6232 19.6998 20.611 19.7036C20.5989 19.7074 20.5867 19.711 20.5744 19.7144C20.5621 19.7178 20.5497 19.7209 20.5373 19.7238C20.5249 19.7267 20.5124 19.7294 20.4999 19.7318C20.4874 19.7342 20.4749 19.7364 20.4623 19.7383C20.4497 19.7403 20.437 19.7419 20.4244 19.7434C20.4117 19.7449 20.399 19.7461 20.3863 19.7471C20.3736 19.748 20.3609 19.7488 20.3482 19.7493C20.3354 19.7497 20.3227 19.75 20.31 19.75L3.69095 19.75C3.67822 19.75 3.66548 19.7497 3.65275 19.7492C3.64002 19.7487 3.6273 19.748 3.61459 19.747C3.60189 19.746 3.58921 19.7448 3.57655 19.7434C3.5639 19.7419 3.55127 19.7402 3.53868 19.7382C3.52608 19.7363 3.51354 19.7341 3.50104 19.7317C3.48852 19.7293 3.47606 19.7266 3.46366 19.7237C3.45125 19.7208 3.43891 19.7177 3.42662 19.7143C3.41433 19.7109 3.40211 19.7073 3.38997 19.7035C3.37781 19.6996 3.36574 19.6955 3.35376 19.6912C3.34176 19.687 3.32985 19.6824 3.31804 19.6777C3.30621 19.6729 3.29448 19.6679 3.28286 19.6627C3.27123 19.6575 3.25971 19.6521 3.24829 19.6464C3.23686 19.6408 3.22555 19.6349 3.21435 19.6289C3.20315 19.6228 3.19207 19.6165 3.18112 19.61C3.17016 19.6035 3.15934 19.5968 3.14863 19.5899C3.13793 19.5829 3.12737 19.5758 3.11694 19.5685C3.10651 19.5612 3.09622 19.5537 3.08608 19.546C3.07594 19.5382 3.06594 19.5303 3.0561 19.5222C3.04626 19.5142 3.03658 19.5059 3.02706 19.4974C3.01753 19.4889 3.00817 19.4803 2.99898 19.4715C2.9898 19.4626 2.98077 19.4537 2.97191 19.4445C2.96307 19.4353 2.95441 19.426 2.94592 19.4165C2.93742 19.407 2.92911 19.3973 2.92098 19.3875C2.91286 19.3777 2.90493 19.3677 2.89719 19.3576C2.88944 19.3475 2.8819 19.3372 2.87455 19.3268C2.86721 19.3164 2.86006 19.3059 2.85311 19.2952C2.84616 19.2845 2.83941 19.2737 2.83288 19.2628C2.82635 19.2518 2.82003 19.2408 2.81392 19.2296C2.80781 19.2184 2.80191 19.2071 2.79623 19.1957C2.79055 19.1843 2.7851 19.1728 2.77987 19.1612C2.77462 19.1496 2.7696 19.1378 2.76482 19.126C2.76002 19.1142 2.75546 19.1023 2.75113 19.0904C2.74679 19.0784 2.74268 19.0663 2.7388 19.0542C2.73493 19.0421 2.73129 19.0298 2.72788 19.0176C2.72446 19.0053 2.72128 18.993 2.71834 18.9806C2.7154 18.9682 2.71271 18.9557 2.71026 18.9432C2.70779 18.9307 2.70556 18.9181 2.70358 18.9056C2.70161 18.893 2.69987 18.8804 2.69837 18.8677C2.69687 18.855 2.69562 18.8424 2.6946 18.8297C2.69358 18.817 2.69281 18.8043 2.69228 18.7915C2.69175 18.7788 2.69146 18.7661 2.69141 18.7533C2.69137 18.7406 2.69157 18.7278 2.69202 18.7151C2.69246 18.7024 2.69315 18.6896 2.69408 18.6769C2.69501 18.6642 2.69618 18.6516 2.6976 18.6389C2.69902 18.6262 2.70068 18.6136 2.70257 18.601C2.70448 18.5884 2.70662 18.5758 2.70899 18.5633C2.71137 18.5508 2.71398 18.5383 2.71684 18.5259C2.71969 18.5135 2.72277 18.5011 2.7261 18.4888C2.72943 18.4765 2.73299 18.4643 2.73679 18.4522C2.74058 18.44 2.74461 18.4279 2.74886 18.4159C2.75312 18.4039 2.75761 18.392 2.76231 18.3801C2.76703 18.3683 2.77197 18.3565 2.77712 18.3449C2.7823 18.3332 2.78768 18.3217 2.79327 18.3102C2.79888 18.2988 2.8047 18.2875 2.81073 18.2763C2.81676 18.265 2.82301 18.2539 2.82948 18.243C2.83594 18.232 2.8426 18.2211 2.84948 18.2104C2.85635 18.1997 2.86343 18.1891 2.87071 18.1786C2.87799 18.1681 2.88547 18.1578 2.89314 18.1477C2.90083 18.1375 2.90869 18.1275 2.91674 18.1176C2.9248 18.1077 2.93304 18.098 2.94147 18.0885C2.94991 18.0789 2.95851 18.0695 2.9673 18.0603C2.97609 18.0511 2.98505 18.042 2.99418 18.0331C3.00332 18.0242 3.01262 18.0155 3.02209 18.007C3.03155 17.9985 3.04117 17.9901 3.05097 17.982L5.25045 16.1485L5.25045 10.5C5.25045 7.465 7.25396 4.89749 10.0104 4.048C9.98801 4.00537 9.96697 3.96206 9.9473 3.91807C9.92766 3.87407 9.90943 3.82952 9.89262 3.78436C9.87584 3.73919 9.86051 3.69356 9.84664 3.64741C9.83279 3.60129 9.82041 3.55476 9.80954 3.50782C9.79866 3.46087 9.78931 3.41365 9.78146 3.36611C9.77363 3.31856 9.76733 3.27082 9.76254 3.22289C9.75779 3.17496 9.75455 3.12691 9.75287 3.07877C9.75118 3.03061 9.75104 2.98246 9.75244 2.9343C9.75385 2.88614 9.7568 2.83808 9.76128 2.79011C9.76578 2.74215 9.77183 2.69437 9.77937 2.64679C9.78694 2.59922 9.79601 2.55193 9.80661 2.50493C9.81722 2.45794 9.82932 2.41134 9.84291 2.36512C9.85651 2.3189 9.87158 2.27316 9.8881 2.22791C9.90465 2.18266 9.9226 2.13798 9.94201 2.09388C9.96141 2.04978 9.9822 2.00635 10.0044 1.96359C10.0266 1.92083 10.0501 1.87883 10.075 1.83758C10.0999 1.79633 10.1261 1.75592 10.1536 1.71635C10.1811 1.67678 10.2098 1.63814 10.2398 1.60042C10.2697 1.56269 10.3009 1.52597 10.3332 1.49025C10.3655 1.45453 10.399 1.41988 10.4335 1.38631C10.4681 1.35273 10.5037 1.32031 10.5403 1.28902C10.577 1.25773 10.6145 1.22765 10.6531 1.19878C10.6917 1.16991 10.7311 1.14231 10.7715 1.11597C10.8118 1.08963 10.853 1.06462 10.8949 1.04092C10.9369 1.01723 10.9795 0.994903 11.0229 0.97395C11.0663 0.952997 11.1103 0.933457 11.1549 0.91533C11.1996 0.897204 11.2447 0.880528 11.2904 0.865303C11.3362 0.850078 11.3823 0.836336 11.4289 0.824076C11.4755 0.811816 11.5224 0.801063 11.5697 0.791817C11.617 0.782572 11.6645 0.774853 11.7123 0.768661C11.7601 0.762469 11.808 0.757816 11.8561 0.754704C11.9042 0.75159 11.9523 0.750022 12.0005 0.75ZM12.0005 5.24999C9.10095 5.24999 6.75045 7.60049 6.75045 10.5L6.75045 16.8515L5.07195 18.25L18.9289 18.25L17.2505 16.8515L17.2505 10.5C17.2505 7.60049 14.9 5.24999 12.0005 5.24999ZM12.0005 2.25C11.9882 2.25 11.9759 2.2503 11.9637 2.2509C11.9514 2.2515 11.9392 2.25241 11.9269 2.25361C11.9147 2.25481 11.9026 2.25631 11.8904 2.25812C11.8783 2.25992 11.8662 2.26201 11.8541 2.26441C11.8421 2.2668 11.8301 2.26949 11.8182 2.27247C11.8063 2.27546 11.7945 2.27873 11.7827 2.28229C11.771 2.28586 11.7593 2.2897 11.7478 2.29384C11.7362 2.29797 11.7248 2.30239 11.7134 2.30709C11.7021 2.31179 11.6909 2.31676 11.6798 2.32201C11.6687 2.32725 11.6577 2.33277 11.6469 2.33856C11.6361 2.34435 11.6254 2.3504 11.6149 2.35671C11.6044 2.36302 11.594 2.36958 11.5838 2.3764C11.5736 2.38321 11.5636 2.39027 11.5537 2.39758C11.5438 2.4049 11.5342 2.41245 11.5246 2.42025C11.5152 2.42803 11.5059 2.43604 11.4968 2.44429C11.4877 2.45253 11.4788 2.46099 11.4701 2.46968C11.4615 2.47835 11.453 2.48723 11.4447 2.49633C11.4365 2.50542 11.4285 2.51471 11.4207 2.52419C11.4129 2.53369 11.4053 2.54337 11.398 2.55323C11.3907 2.56309 11.3837 2.57312 11.3768 2.58333C11.37 2.59353 11.3635 2.6039 11.3572 2.61443C11.3509 2.62496 11.3448 2.63563 11.339 2.64644C11.3332 2.65727 11.3277 2.66823 11.3225 2.67933C11.3172 2.69042 11.3122 2.70164 11.3075 2.71298C11.3029 2.72433 11.2984 2.73578 11.2943 2.74734C11.2902 2.75889 11.2863 2.77054 11.2827 2.78229C11.2792 2.79404 11.2759 2.80586 11.2729 2.81777C11.27 2.82968 11.2673 2.84165 11.2649 2.85368C11.2625 2.86572 11.2604 2.87782 11.2586 2.88996C11.2568 2.9021 11.2553 2.91427 11.2541 2.92647C11.2529 2.93869 11.252 2.95094 11.2514 2.9632C11.2508 2.97545 11.2505 2.98772 11.2505 3C11.2505 3.01228 11.2508 3.02454 11.2514 3.03679C11.252 3.04906 11.2529 3.0613 11.2541 3.07352C11.2553 3.08572 11.2568 3.0979 11.2586 3.11004C11.2604 3.12218 11.2625 3.13427 11.2649 3.14632C11.2673 3.15834 11.27 3.17032 11.2729 3.18222C11.2759 3.19413 11.2792 3.20597 11.2827 3.21771C11.2863 3.22945 11.2902 3.2411 11.2943 3.25265C11.2984 3.26421 11.3029 3.27567 11.3075 3.28701C11.3122 3.29836 11.3172 3.30958 11.3225 3.32067C11.3277 3.33175 11.3332 3.34272 11.339 3.35355C11.3448 3.36436 11.3509 3.37504 11.3572 3.38557C11.3635 3.39609 11.37 3.40647 11.3768 3.41667C11.3837 3.42686 11.3907 3.43689 11.398 3.44676C11.4053 3.45663 11.4129 3.46631 11.4207 3.4758C11.4285 3.48529 11.4365 3.49457 11.4447 3.50367C11.453 3.51276 11.4615 3.52164 11.4701 3.53032C11.4788 3.53901 11.4877 3.54747 11.4968 3.5557C11.5059 3.56395 11.5152 3.57197 11.5246 3.57975C11.5342 3.58755 11.5438 3.5951 11.5537 3.60241C11.5636 3.60972 11.5736 3.61678 11.5838 3.6236C11.594 3.63042 11.6044 3.63698 11.6149 3.64329C11.6254 3.64959 11.6361 3.65564 11.6469 3.66143C11.6577 3.66722 11.6687 3.67275 11.6798 3.678C11.6909 3.68325 11.7021 3.68822 11.7134 3.6929C11.7248 3.69761 11.7362 3.70202 11.7478 3.70614C11.7593 3.71029 11.771 3.71414 11.7827 3.7177C11.7945 3.72126 11.8063 3.72454 11.8182 3.72752C11.8301 3.7305 11.8421 3.73319 11.8541 3.73558C11.8662 3.73797 11.8783 3.74008 11.8904 3.74189C11.9026 3.74369 11.9147 3.74519 11.9269 3.74639C11.9392 3.74758 11.9514 3.7485 11.9637 3.74908C11.9759 3.74969 11.9882 3.75 12.0005 3.75C12.0127 3.75 12.025 3.74969 12.0372 3.74908C12.0495 3.7485 12.0618 3.74758 12.074 3.74639C12.0862 3.74519 12.0983 3.74369 12.1105 3.74189C12.1226 3.74008 12.1347 3.73797 12.1468 3.73558C12.1588 3.73319 12.1708 3.7305 12.1827 3.72752C12.1946 3.72454 12.2064 3.72126 12.2182 3.7177C12.2299 3.71414 12.2416 3.71029 12.2531 3.70614C12.2647 3.70202 12.2761 3.69761 12.2875 3.6929C12.2988 3.68822 12.31 3.68325 12.3211 3.678C12.3322 3.67275 12.3432 3.66722 12.354 3.66143C12.3648 3.65564 12.3755 3.64959 12.386 3.64329C12.3966 3.63698 12.4069 3.63042 12.4171 3.6236C12.4273 3.61678 12.4374 3.60972 12.4472 3.60241C12.4571 3.5951 12.4668 3.58755 12.4763 3.57975C12.4857 3.57197 12.495 3.56395 12.5041 3.5557C12.5132 3.54747 12.5221 3.53901 12.5308 3.53032C12.5395 3.52164 12.5479 3.51276 12.5562 3.50367C12.5644 3.49457 12.5724 3.48529 12.5802 3.4758C12.588 3.46631 12.5956 3.45663 12.6029 3.44676C12.6102 3.43689 12.6173 3.42686 12.6241 3.41667C12.6309 3.40647 12.6374 3.39609 12.6437 3.38557C12.6501 3.37504 12.6561 3.36436 12.6619 3.35355C12.6677 3.34272 12.6732 3.33175 12.6785 3.32067C12.6837 3.30958 12.6887 3.29836 12.6934 3.28701C12.6981 3.27567 12.7025 3.26421 12.7066 3.25265C12.7107 3.2411 12.7146 3.22945 12.7182 3.21771C12.7217 3.20597 12.725 3.19413 12.728 3.18222C12.731 3.17032 12.7336 3.15834 12.736 3.14632C12.7384 3.13427 12.7405 3.12218 12.7423 3.11004C12.7441 3.0979 12.7456 3.08572 12.7468 3.07352C12.7481 3.0613 12.749 3.04906 12.7495 3.03679C12.7501 3.02454 12.7505 3.01228 12.7505 3C12.7505 2.98772 12.7501 2.97545 12.7495 2.9632C12.749 2.95094 12.7481 2.93869 12.7468 2.92647C12.7456 2.91427 12.7441 2.9021 12.7423 2.88996C12.7405 2.87782 12.7384 2.86572 12.736 2.85368C12.7336 2.84165 12.731 2.82968 12.728 2.81777C12.725 2.80586 12.7217 2.79404 12.7182 2.78229C12.7146 2.77054 12.7107 2.75889 12.7066 2.74734C12.7025 2.73578 12.6981 2.72433 12.6934 2.71298C12.6887 2.70164 12.6837 2.69042 12.6785 2.67933C12.6732 2.66823 12.6677 2.65727 12.6619 2.64644C12.6561 2.63563 12.6501 2.62496 12.6437 2.61443C12.6374 2.6039 12.6309 2.59353 12.6241 2.58333C12.6173 2.57312 12.6102 2.56309 12.6029 2.55323C12.5956 2.54337 12.588 2.53369 12.5802 2.52419C12.5724 2.51471 12.5644 2.50542 12.5562 2.49633C12.5479 2.48723 12.5395 2.47835 12.5308 2.46968C12.5221 2.46099 12.5132 2.45253 12.5041 2.44429C12.495 2.43604 12.4857 2.42803 12.4763 2.42025C12.4668 2.41245 12.4571 2.4049 12.4472 2.39758C12.4374 2.39027 12.4273 2.38321 12.4171 2.3764C12.4069 2.36958 12.3966 2.36302 12.386 2.35671C12.3755 2.3504 12.3648 2.34435 12.354 2.33856C12.3432 2.33277 12.3322 2.32725 12.3211 2.32201C12.31 2.31676 12.2988 2.31179 12.2875 2.30709C12.2761 2.30239 12.2647 2.29797 12.2531 2.29384C12.2416 2.2897 12.2299 2.28586 12.2182 2.28229C12.2064 2.27873 12.1946 2.27546 12.1827 2.27247C12.1708 2.26949 12.1588 2.2668 12.1468 2.26441C12.1347 2.26201 12.1226 2.25992 12.1105 2.25812C12.0983 2.25631 12.0862 2.25481 12.074 2.25361C12.0618 2.25241 12.0495 2.2515 12.0372 2.2509C12.025 2.2503 12.0127 2.25 12.0005 2.25Z"   fill="currentColor" >
</path>
</svg>
