<svg xmlns="http://www.w3.org/2000/svg" xmlns:xlink="http://www.w3.org/1999/xlink" width="16" height="22" viewBox="0 0 16 22" fill="none">
<g opacity="0.7">
<path fill-rule="evenodd"  fill="rgba(29, 33, 41, 1)"  d="M13 0L3 0C1.34315 0 0 1.34315 0 3L0 19C0 20.6569 1.34315 22 3 22L13 22C14.6569 22 16 20.6569 16 19L16 3C16 1.34315 14.6569 0 13 0ZM1.5 3C1.5 2.17157 2.17157 1.5 3 1.5L13 1.5C13.8284 1.5 14.5 2.17157 14.5 3L14.5 19C14.5 19.8284 13.8284 20.5 13 20.5L3 20.5C2.17157 20.5 1.5 19.8284 1.5 19L1.5 3Z">
</path>
</g>
<g opacity="0.7">
<path    stroke="currentColor" stroke-width="1.399999976158142"  stroke-linecap="round"  d="M5.5 18.5L10.5 18.5">
</path>
</g>
</svg>
