<svg xmlns="http://www.w3.org/2000/svg" xmlns:xlink="http://www.w3.org/1999/xlink" width="14" height="14" viewBox="0 0 14 14" fill="none">
<g  clip-path="url(#clip-path-18_302)">
<path d="M13.4817 6.10811C13.4903 6.10811 13.4989 6.1079 13.5075 6.10748C13.5161 6.10705 13.5246 6.10643 13.5332 6.10558C13.5417 6.10474 13.5503 6.10369 13.5587 6.10243C13.5673 6.10116 13.5757 6.0997 13.5841 6.09802C13.5926 6.09634 13.601 6.09446 13.6093 6.09237C13.6176 6.09028 13.6259 6.088 13.6341 6.08551C13.6424 6.08301 13.6505 6.08031 13.6586 6.07741C13.6667 6.07453 13.6747 6.07144 13.6827 6.06814C13.6906 6.06485 13.6984 6.06138 13.7062 6.0577C13.714 6.05402 13.7216 6.05017 13.7291 6.04612C13.7367 6.04207 13.7442 6.03783 13.7516 6.03342C13.7589 6.029 13.7662 6.02441 13.7734 6.01964C13.7805 6.01487 13.7875 6.00992 13.7945 6.00479C13.8013 5.99968 13.808 5.9944 13.8147 5.98894C13.8214 5.98349 13.8279 5.97788 13.8343 5.97211C13.8407 5.96634 13.8469 5.96042 13.8529 5.95434C13.859 5.94827 13.8649 5.94205 13.8706 5.93568C13.8765 5.92932 13.8821 5.92281 13.8876 5.91617C13.8929 5.90952 13.8983 5.90276 13.9035 5.89585C13.9085 5.88895 13.9134 5.88193 13.9182 5.87478C13.923 5.86763 13.9275 5.86039 13.932 5.85302C13.9364 5.84565 13.9406 5.83817 13.9447 5.8306C13.9487 5.82301 13.9527 5.81534 13.9564 5.80757C13.9601 5.79981 13.9635 5.79196 13.9668 5.78402C13.97 5.77607 13.9732 5.76806 13.9761 5.75998C13.9789 5.75189 13.9815 5.74372 13.9841 5.73551C13.9866 5.72729 13.9889 5.71901 13.991 5.71068C13.993 5.70234 13.9949 5.69396 13.9966 5.68554C13.9983 5.6771 13.9998 5.66864 14.0011 5.66015C14.0023 5.65164 14.0033 5.64311 14.0042 5.63457C14.005 5.62602 14.0057 5.61745 14.0061 5.60887C14.0065 5.60029 14.0067 5.59171 14.0067 5.58311L14.0067 1.97041C14.0067 1.93892 14.0059 1.90744 14.0044 1.87598C14.0027 1.84452 14.0004 1.81313 13.9972 1.78179C13.9941 1.75046 13.9903 1.71922 13.9856 1.68806C13.981 1.6569 13.9755 1.62589 13.9694 1.59501C13.9632 1.56412 13.9562 1.5334 13.9486 1.50286C13.9409 1.47232 13.9324 1.44198 13.9233 1.41185C13.9141 1.38171 13.9043 1.35182 13.8936 1.32218C13.8831 1.29253 13.8717 1.26316 13.8596 1.23407C13.8475 1.20498 13.8348 1.1762 13.8213 1.14774C13.8078 1.11927 13.7937 1.09116 13.7788 1.06339C13.7639 1.03562 13.7484 1.00823 13.7321 0.98122C13.716 0.954211 13.6992 0.927615 13.6817 0.901434C13.6642 0.875252 13.646 0.849515 13.6272 0.82422C13.6085 0.798929 13.5891 0.77411 13.5691 0.749767C13.5491 0.725425 13.5286 0.701585 13.5074 0.678251C13.4863 0.654916 13.4646 0.632114 13.4423 0.609844C13.42 0.587574 13.3972 0.565862 13.3739 0.54471C13.3506 0.523558 13.3267 0.502991 13.3024 0.483007C13.278 0.463023 13.2532 0.443649 13.2279 0.424883C13.2026 0.406115 13.1769 0.38798 13.1507 0.370475C13.1245 0.352971 13.0979 0.336118 13.0709 0.319918C13.0439 0.303717 13.0165 0.288187 12.9887 0.27333C12.961 0.258473 12.9329 0.244303 12.9044 0.230824C12.8759 0.217345 12.8472 0.204571 12.8181 0.192503C12.789 0.180435 12.7596 0.169086 12.73 0.158457C12.7003 0.147829 12.6704 0.137933 12.6403 0.128771C12.6102 0.119608 12.5798 0.111189 12.5493 0.103513C12.5187 0.0958376 12.488 0.0889152 12.4571 0.0827456C12.4262 0.076576 12.3952 0.0711669 12.3641 0.066518C12.3329 0.0618692 12.3017 0.0579864 12.2703 0.0548695C12.239 0.0517526 12.2076 0.0494054 12.1761 0.0478279C12.1447 0.0462504 12.1132 0.0454445 12.0817 0.0454102L1.92402 0.0503102C1.89252 0.0503444 1.86105 0.0511503 1.82959 0.0527279C1.79815 0.0543054 1.76674 0.0566525 1.73541 0.0597693C1.70407 0.0628862 1.67282 0.066769 1.64167 0.0714179C1.61053 0.0760667 1.57951 0.0814759 1.54862 0.0876454C1.51774 0.0938149 1.48702 0.100737 1.45647 0.108413C1.42593 0.116088 1.39559 0.124508 1.36546 0.13367C1.33533 0.142833 1.30544 0.152729 1.27579 0.163357C1.24614 0.173986 1.21677 0.185335 1.18768 0.197403C1.15859 0.209471 1.12981 0.222245 1.10135 0.235724C1.07289 0.249203 1.04477 0.263373 1.017 0.27823C0.98923 0.293087 0.961841 0.308617 0.934832 0.324817C0.907823 0.341018 0.881229 0.357871 0.855047 0.375375C0.828864 0.392879 0.803127 0.411015 0.777834 0.429783C0.752541 0.448549 0.727723 0.467923 0.703381 0.487907C0.679038 0.50789 0.655198 0.528458 0.631863 0.54961C0.608529 0.570762 0.585727 0.592474 0.563457 0.614744C0.541187 0.637014 0.519475 0.659816 0.498323 0.68315C0.477171 0.706485 0.456603 0.730325 0.436621 0.754667C0.416636 0.77901 0.397262 0.803827 0.378496 0.82912C0.359729 0.854413 0.341593 0.880151 0.324089 0.906334C0.306585 0.932515 0.289731 0.95911 0.27353 0.986119C0.25733 1.01313 0.2418 1.04052 0.226943 1.06829C0.212086 1.09606 0.197916 1.12417 0.184437 1.15264C0.170958 1.1811 0.158185 1.20988 0.146116 1.23897C0.134048 1.26806 0.122699 1.29743 0.112071 1.32708C0.101442 1.35673 0.0915468 1.38662 0.0823837 1.41674C0.0732208 1.44687 0.0648017 1.47721 0.0571262 1.50777C0.0494506 1.53831 0.0425282 1.56902 0.0363587 1.5999C0.0301892 1.63079 0.02478 1.66181 0.0201312 1.69295C0.0154823 1.72411 0.0115996 1.75535 0.00848268 1.78669C0.00536578 1.81804 0.00301859 1.84943 0.0014411 1.88089C-0.000136374 1.91235 -0.000942264 1.94382 -0.000976562 1.9753L-0.000976562 12.0294C-0.000942279 12.0609 -0.000136401 12.0924 0.00144106 12.1238C0.00301854 12.1553 0.00536571 12.1867 0.00848258 12.218C0.0115995 12.2494 0.0154823 12.2806 0.020131 12.3118C0.0247799 12.3429 0.030189 12.3739 0.0363586 12.4048C0.042528 12.4357 0.0494505 12.4664 0.057126 12.497C0.0648014 12.5275 0.0732206 12.5578 0.0823836 12.588C0.0915465 12.6181 0.101442 12.648 0.112071 12.6776C0.122699 12.7073 0.134047 12.7367 0.146115 12.7657C0.158183 12.7948 0.170958 12.8236 0.184437 12.8521C0.197916 12.8806 0.212085 12.9087 0.226943 12.9364C0.2418 12.9642 0.25733 12.9916 0.27353 13.0186C0.289731 13.0456 0.306585 13.0722 0.324089 13.0984C0.341593 13.1246 0.359729 13.1503 0.378495 13.1756C0.397262 13.2009 0.416636 13.2257 0.436619 13.25C0.456603 13.2744 0.477171 13.2982 0.498323 13.3216C0.519475 13.3449 0.541186 13.3677 0.563456 13.39C0.585726 13.4123 0.608529 13.434 0.631863 13.4551C0.655198 13.4763 0.679036 13.4968 0.703379 13.5168C0.727722 13.5368 0.752541 13.5562 0.777834 13.5749C0.803127 13.5937 0.828864 13.6118 0.855047 13.6293C0.881229 13.6468 0.907823 13.6637 0.934832 13.6799C0.961841 13.6961 0.98923 13.7116 1.017 13.7264C1.04477 13.7413 1.07289 13.7556 1.10135 13.769C1.12981 13.7825 1.15859 13.7952 1.18768 13.8072C1.21677 13.8194 1.24614 13.8308 1.27579 13.8413C1.30544 13.852 1.33533 13.8619 1.36546 13.871C1.39559 13.8803 1.42593 13.8886 1.45647 13.8962C1.48702 13.9039 1.51774 13.9109 1.54862 13.917C1.57951 13.9233 1.61053 13.9287 1.64167 13.9333C1.67282 13.9379 1.70407 13.9419 1.73541 13.9449C1.76674 13.9481 1.79815 13.9504 1.82959 13.952C1.86105 13.9537 1.89252 13.9544 1.92402 13.9544L12.0817 13.9488C12.1132 13.9488 12.1447 13.9481 12.1761 13.9464C12.2076 13.9448 12.239 13.9425 12.2703 13.9393C12.3017 13.9363 12.3329 13.9323 12.3641 13.9277C12.3952 13.923 12.4263 13.9177 12.4571 13.9114C12.488 13.9053 12.5187 13.8983 12.5493 13.8906C12.5798 13.883 12.6102 13.8746 12.6403 13.8655C12.6704 13.8563 12.7003 13.8463 12.7299 13.8357C12.7596 13.8252 12.789 13.8138 12.8181 13.8016C12.8472 13.7896 12.8759 13.7769 12.9044 13.7634C12.9329 13.75 12.961 13.7357 12.9887 13.7208C13.0165 13.706 13.0439 13.6905 13.0709 13.6742C13.0979 13.6581 13.1245 13.6413 13.1507 13.6237C13.1769 13.6062 13.2026 13.5881 13.2279 13.5693C13.2532 13.5506 13.278 13.5312 13.3024 13.5112C13.3267 13.4912 13.3506 13.4707 13.3739 13.4495C13.3972 13.4284 13.42 13.4066 13.4423 13.3844C13.4646 13.3621 13.4863 13.3393 13.5074 13.316C13.5286 13.2926 13.5491 13.2688 13.5691 13.2445C13.5891 13.2201 13.6085 13.1953 13.6272 13.17C13.646 13.1447 13.6642 13.119 13.6817 13.0928C13.6992 13.0666 13.716 13.04 13.7321 13.013C13.7484 12.986 13.7639 12.9586 13.7788 12.9308C13.7937 12.9031 13.8078 12.8749 13.8213 12.8465C13.8348 12.818 13.8475 12.7892 13.8596 12.7601C13.8717 12.7311 13.8831 12.7017 13.8936 12.672C13.9043 12.6424 13.9141 12.6125 13.9233 12.5824C13.9324 12.5522 13.9409 12.5219 13.9486 12.4914C13.9562 12.4608 13.9632 12.4301 13.9694 12.3992C13.9755 12.3683 13.981 12.3373 13.9856 12.3062C13.9903 12.275 13.9941 12.2438 13.9972 12.2124C14.0004 12.1811 14.0027 12.1497 14.0042 12.1182C14.0059 12.0868 14.0067 12.0553 14.0067 12.0238L14.0067 8.04291C14.0067 7.99252 13.9914 7.94702 13.978 7.9008C13.9785 7.89143 13.9788 7.88205 13.9787 7.87265C13.9787 7.86326 13.9784 7.85388 13.9778 7.8445C13.9773 7.83514 13.9765 7.82579 13.9754 7.81645C13.9744 7.80713 13.973 7.79783 13.9715 7.78857C13.9699 7.77932 13.9681 7.7701 13.9661 7.76094C13.964 7.75178 13.9617 7.74268 13.9591 7.73364C13.9565 7.7246 13.9538 7.71565 13.9508 7.70676C13.9476 7.69789 13.9443 7.6891 13.9409 7.68039C13.9374 7.67168 13.9335 7.66308 13.9296 7.65459C13.9256 7.64608 13.9214 7.6377 13.917 7.62943C13.9125 7.62116 13.9078 7.61301 13.9029 7.605C13.898 7.59699 13.8929 7.58911 13.8876 7.58138C13.8823 7.57364 13.8768 7.56605 13.8711 7.55861C13.8653 7.55117 13.8594 7.5439 13.8533 7.53679C13.8471 7.52968 13.8407 7.52274 13.8343 7.51597C13.8279 7.5092 13.8212 7.50261 13.8142 7.49621L10.7433 4.6843C10.3877 4.35811 9.84311 4.3483 9.42802 4.71161L7.19783 7.21202L5.19862 6.05071C5.18579 6.04098 5.17272 6.03157 5.1594 6.02248C5.14612 6.01339 5.13259 6.00465 5.11884 5.99624C5.1051 5.98784 5.09115 5.97977 5.07702 5.97204C5.06288 5.96433 5.04855 5.95698 5.03403 5.94998C5.01953 5.94298 5.00486 5.93635 4.99001 5.93009C4.97516 5.92381 4.96018 5.91792 4.94504 5.91239C4.92991 5.90688 4.91464 5.90174 4.89924 5.89699C4.88386 5.89223 4.86836 5.88785 4.85274 5.88387C4.83713 5.87988 4.82144 5.87629 4.80564 5.87309C4.78987 5.86989 4.77401 5.86709 4.75807 5.86467C4.74215 5.86226 4.72617 5.86025 4.71013 5.85864C4.69411 5.85702 4.67804 5.85581 4.66195 5.855C4.64587 5.85419 4.62977 5.85378 4.61365 5.85377C4.59755 5.85376 4.58145 5.85415 4.56535 5.85495C4.54927 5.85574 4.53321 5.85693 4.51717 5.85853C4.50114 5.86013 4.48516 5.86212 4.46922 5.86452C4.45429 5.86691 4.43943 5.86964 4.42464 5.87275C4.40984 5.87584 4.39512 5.87928 4.38049 5.88307C4.36586 5.88686 4.35131 5.891 4.33688 5.89547C4.32244 5.89994 4.30811 5.90474 4.29389 5.90989C4.27969 5.91505 4.26561 5.92053 4.25165 5.92634C4.2377 5.93215 4.22389 5.93829 4.21022 5.94476C4.19655 5.95122 4.18304 5.95802 4.1697 5.96511C4.15635 5.97221 4.14319 5.97962 4.13019 5.98734C4.1172 5.99507 4.10439 6.00309 4.09177 6.01142C4.07916 6.01975 4.06675 6.02837 4.05453 6.03727C4.04232 6.04619 4.03033 6.05539 4.01854 6.06486C4.00677 6.07434 3.99522 6.08409 3.9839 6.09411C3.97259 6.10413 3.96152 6.11442 3.95067 6.12496C3.93985 6.13551 3.92928 6.14631 3.91894 6.15734C3.90862 6.16839 3.89856 6.17967 3.88877 6.19119C3.87898 6.2027 3.86946 6.21445 3.86022 6.22641L2.45533 7.70902C2.44964 7.71529 2.44412 7.72169 2.43874 7.72824C2.43338 7.73479 2.42817 7.74145 2.42313 7.74824C2.41808 7.75504 2.4132 7.76195 2.40849 7.76898C2.40378 7.77601 2.39924 7.78314 2.39487 7.7904C2.39051 7.79765 2.38631 7.80501 2.38229 7.81246C2.37829 7.81991 2.37446 7.82746 2.37081 7.8351C2.36717 7.84274 2.36371 7.85045 2.36043 7.85826C2.35716 7.86606 2.35407 7.87394 2.35117 7.8819C2.34829 7.88985 2.3456 7.89788 2.34308 7.90596C2.34059 7.91404 2.33828 7.92219 2.33616 7.93038C2.33406 7.93857 2.33216 7.94681 2.33043 7.95511C2.32872 7.96339 2.32721 7.97172 2.32589 7.98009C2.3246 7.98844 2.32349 7.99684 2.32259 8.00526C2.32168 8.01367 2.32097 8.0221 2.32048 8.03055C2.31999 8.039 2.3197 8.04745 2.31961 8.05591C2.31952 8.06437 2.31965 8.07284 2.31996 8.0813C2.32029 8.08976 2.32081 8.0982 2.32155 8.10664C2.32229 8.11507 2.32321 8.12348 2.32435 8.13186C2.32548 8.14024 2.32682 8.14859 2.32837 8.15692C2.32991 8.16525 2.33165 8.17353 2.33359 8.18176C2.33553 8.19001 2.33768 8.1982 2.34 8.20633C2.34236 8.21447 2.34488 8.22253 2.34761 8.23054C2.35034 8.23855 2.35327 8.2465 2.35637 8.25437C2.35949 8.26223 2.36279 8.27003 2.36628 8.27774C2.36977 8.28545 2.37345 8.29308 2.3773 8.30061C2.38116 8.30814 2.3852 8.31557 2.38941 8.32291C2.39364 8.33025 2.39803 8.33748 2.40259 8.34461C2.40716 8.35173 2.4119 8.35874 2.4168 8.36565C2.42172 8.37254 2.42679 8.37931 2.43202 8.38597C2.43725 8.39262 2.44264 8.39914 2.44819 8.40553C2.45374 8.41191 2.45944 8.41818 2.46529 8.42429C2.47114 8.4304 2.47715 8.43637 2.48329 8.4422C2.48942 8.44802 2.4957 8.4537 2.50211 8.45922C2.50854 8.46474 2.51507 8.4701 2.52174 8.4753C2.52843 8.48051 2.53522 8.48555 2.54214 8.49043C2.54906 8.4953 2.5561 8.5 2.56324 8.50454C2.57039 8.50908 2.57763 8.51344 2.58499 8.51762C2.59235 8.52181 2.5998 8.52581 2.60734 8.52964C2.6149 8.53346 2.62255 8.53709 2.63027 8.54055C2.638 8.54401 2.6458 8.54728 2.65368 8.55036C2.66157 8.55343 2.66952 8.55632 2.67755 8.55901C2.68557 8.5617 2.69365 8.56421 2.7018 8.5665C2.70995 8.56881 2.71814 8.57092 2.72638 8.57282C2.73464 8.57472 2.74293 8.57643 2.75125 8.57793C2.75959 8.57944 2.76795 8.58073 2.77633 8.58184C2.78472 8.58294 2.79314 8.58382 2.80157 8.58452C2.81002 8.58522 2.81846 8.58571 2.82691 8.586C2.83538 8.58629 2.84384 8.58635 2.8523 8.58623C2.86077 8.58611 2.86921 8.58578 2.87766 8.58525C2.88611 8.58471 2.89455 8.58397 2.90296 8.58303C2.91137 8.58209 2.91975 8.58095 2.9281 8.5796C2.93647 8.57826 2.94478 8.57671 2.95306 8.57496C2.96135 8.57321 2.96958 8.57126 2.97776 8.56911C2.98596 8.56697 2.99408 8.56463 3.00215 8.56209C3.01023 8.55954 3.01824 8.55681 3.02617 8.55388C3.03413 8.55096 3.04199 8.54784 3.04977 8.54453C3.05756 8.54122 3.06527 8.53772 3.07288 8.53405C3.08051 8.53037 3.08805 8.5265 3.09547 8.52246C3.10291 8.51842 3.11025 8.51419 3.11747 8.50979C3.12471 8.50539 3.13184 8.50082 3.13884 8.49608C3.14585 8.49133 3.15274 8.48643 3.15951 8.48135C3.16629 8.47627 3.17294 8.47103 3.17944 8.46563C3.18596 8.46023 3.19235 8.45468 3.1986 8.44898C3.20486 8.44328 3.21096 8.43741 3.21692 8.43141L4.63652 6.93341L6.63222 8.0933C6.98712 8.36702 7.49322 8.35302 7.88452 8.0128L10.1042 5.52291L12.956 8.13461L12.956 12.0238C12.956 12.5061 12.5633 12.8988 12.081 12.8988L1.92402 12.9044C1.44172 12.9044 1.04902 12.5117 1.04902 12.0294L1.04902 1.9753C1.04902 1.49302 1.44172 1.10031 1.92402 1.10031L12.0817 1.09471C12.564 1.09471 12.9567 1.48741 12.9567 1.96971L12.9567 5.58311C12.9567 5.87291 13.1919 6.10811 13.4817 6.10811Z"   fill="#438CFF" >
</path>
<path d="M2.9375 3.39629C2.9375 3.4074 2.93777 3.41851 2.93832 3.4296C2.93887 3.44071 2.93968 3.45178 2.94077 3.46284C2.94186 3.4739 2.94322 3.48493 2.94486 3.49593C2.94649 3.50692 2.94838 3.51786 2.95054 3.52875C2.95271 3.53965 2.95515 3.55049 2.95786 3.56128C2.96056 3.57205 2.96352 3.58276 2.96674 3.59339C2.96997 3.60403 2.97345 3.61458 2.97719 3.62504C2.98094 3.63551 2.98494 3.64587 2.98919 3.65613C2.99344 3.6664 2.99794 3.67655 3.00269 3.68659C3.00745 3.69665 3.01244 3.70657 3.01767 3.71637C3.02291 3.72617 3.02839 3.73584 3.03411 3.74537C3.03982 3.75489 3.04576 3.76428 3.05193 3.77352C3.0581 3.78276 3.0645 3.79184 3.07113 3.80077C3.07775 3.80969 3.08458 3.81845 3.09162 3.82704C3.09868 3.83563 3.10594 3.84404 3.1134 3.85228C3.12086 3.86051 3.12851 3.86856 3.13637 3.87641C3.14424 3.88427 3.15229 3.89193 3.16052 3.8994C3.16875 3.90686 3.17716 3.91412 3.18575 3.92116C3.19434 3.92822 3.20309 3.93505 3.21202 3.94167C3.22095 3.94829 3.23003 3.95468 3.23927 3.96085C3.24851 3.96703 3.2579 3.97298 3.26743 3.97869C3.27696 3.9844 3.28663 3.98987 3.29643 3.99511C3.30623 4.00036 3.31615 4.00535 3.32619 4.0101C3.33624 4.01485 3.34639 4.01935 3.35667 4.02361C3.36693 4.02785 3.37729 4.03185 3.38776 4.0356C3.39822 4.03934 3.40877 4.04283 3.41941 4.04605C3.43003 4.04928 3.44074 4.05224 3.45152 4.05494C3.4623 4.05764 3.47313 4.06007 3.48403 4.06224C3.49493 4.06441 3.50588 4.06631 3.51687 4.06794C3.52787 4.06957 3.53889 4.07093 3.54995 4.07202C3.56101 4.07311 3.57209 4.07393 3.58318 4.07448C3.59428 4.07502 3.60539 4.07528 3.6165 4.07528C3.62761 4.07528 3.63872 4.07502 3.64982 4.07448C3.66092 4.07393 3.672 4.07311 3.68305 4.07202C3.69411 4.07093 3.70513 4.06957 3.71613 4.06794C3.72712 4.06631 3.73806 4.06441 3.74897 4.06224C3.75987 4.06007 3.77071 4.05764 3.78149 4.05494C3.79227 4.05224 3.80297 4.04928 3.81361 4.04605C3.82424 4.04283 3.83479 4.03934 3.84524 4.0356C3.85571 4.03185 3.86608 4.02785 3.87635 4.02361C3.88661 4.01935 3.89676 4.01485 3.90681 4.0101C3.91685 4.00535 3.92678 4.00036 3.93659 3.99511C3.94638 3.98987 3.95605 3.9844 3.96558 3.97869C3.97511 3.97298 3.98449 3.96703 3.99373 3.96085C4.00298 3.95468 4.01206 3.94829 4.02098 3.94167C4.02991 3.93505 4.03866 3.92822 4.04726 3.92116C4.05585 3.91412 4.06426 3.90686 4.0725 3.8994C4.08073 3.89193 4.08877 3.88427 4.09663 3.87641C4.10449 3.86856 4.11215 3.86051 4.11961 3.85228C4.12708 3.84404 4.13433 3.83563 4.14138 3.82704C4.14842 3.81845 4.15526 3.80969 4.16188 3.80077C4.1685 3.79184 4.1749 3.78276 4.18107 3.77352C4.18725 3.76428 4.19319 3.75489 4.19889 3.74537C4.20461 3.73584 4.21009 3.72617 4.21533 3.71637C4.22057 3.70657 4.22556 3.69665 4.23031 3.68659C4.23506 3.67655 4.23956 3.6664 4.24382 3.65613C4.24807 3.64587 4.25206 3.63551 4.25581 3.62504C4.25956 3.61458 4.26304 3.60403 4.26627 3.59339C4.2695 3.58276 4.27246 3.57205 4.27516 3.56128C4.27785 3.55049 4.28029 3.53965 4.28246 3.52875C4.28463 3.51786 4.28653 3.50692 4.28816 3.49593C4.28979 3.48493 4.29115 3.4739 4.29223 3.46284C4.29333 3.45178 4.29414 3.44071 4.29468 3.4296C4.29523 3.41851 4.2955 3.4074 4.2955 3.39629C4.2955 3.38517 4.29523 3.37407 4.29468 3.36298C4.29414 3.35188 4.29333 3.3408 4.29223 3.32973C4.29115 3.31867 4.28979 3.30765 4.28816 3.29666C4.28653 3.28567 4.28463 3.27472 4.28246 3.26382C4.28029 3.25293 4.27785 3.24209 4.27516 3.23131C4.27246 3.22052 4.2695 3.20982 4.26627 3.19919C4.26304 3.18855 4.25956 3.178 4.25581 3.16754C4.25206 3.15708 4.24807 3.14671 4.24382 3.13645C4.23956 3.12618 4.23506 3.11602 4.23031 3.10598C4.22556 3.09593 4.22057 3.08601 4.21533 3.07621C4.21009 3.06641 4.20461 3.05675 4.19889 3.04721C4.19319 3.03768 4.18725 3.0283 4.18107 3.01906C4.1749 3.00982 4.1685 3.00074 4.16188 2.99182C4.15526 2.98288 4.14842 2.97412 4.14138 2.96554C4.13433 2.95694 4.12708 2.94853 4.11961 2.9403C4.11215 2.93207 4.10449 2.92403 4.09663 2.91617C4.08877 2.90831 4.08072 2.90065 4.07248 2.89319C4.06425 2.88572 4.05585 2.87847 4.04726 2.87142C4.03866 2.86437 4.02991 2.85753 4.02098 2.85091C4.01206 2.8443 4.00298 2.8379 3.99373 2.83172C3.98449 2.82555 3.97511 2.81961 3.96558 2.81389C3.95605 2.80818 3.94638 2.8027 3.93659 2.79747C3.92678 2.79223 3.91685 2.78724 3.90681 2.78249C3.89676 2.77773 3.88661 2.77323 3.87635 2.76898C3.86608 2.76472 3.85571 2.76073 3.84524 2.75699C3.83479 2.75324 3.82424 2.74976 3.81361 2.74653C3.80297 2.7433 3.79227 2.74034 3.78149 2.73764C3.77071 2.73494 3.75987 2.73251 3.74897 2.73034C3.73806 2.72817 3.72712 2.72627 3.71613 2.72464C3.70513 2.72301 3.69411 2.72165 3.68305 2.72057C3.672 2.71947 3.66092 2.71865 3.64982 2.71811C3.63872 2.71756 3.62761 2.71729 3.6165 2.71729C3.60539 2.71729 3.59428 2.71756 3.58318 2.71811C3.57209 2.71865 3.56101 2.71947 3.54995 2.72057C3.53889 2.72165 3.52787 2.72301 3.51687 2.72464C3.50588 2.72627 3.49493 2.72817 3.48403 2.73034C3.47313 2.73251 3.4623 2.73494 3.45152 2.73764C3.44074 2.74034 3.43003 2.7433 3.41939 2.74653C3.40877 2.74976 3.39822 2.75324 3.38776 2.75699C3.37729 2.76073 3.36693 2.76472 3.35667 2.76898C3.34639 2.77323 3.33624 2.77773 3.32619 2.78249C3.31615 2.78724 3.30623 2.79223 3.29643 2.79747C3.28663 2.8027 3.27696 2.80818 3.26743 2.81389C3.2579 2.81961 3.24851 2.82555 3.23927 2.83172C3.23003 2.8379 3.22095 2.8443 3.21202 2.85091C3.20309 2.85753 3.19434 2.86437 3.18575 2.87142C3.17716 2.87847 3.16875 2.88572 3.16052 2.89319C3.15229 2.90065 3.14424 2.90831 3.13637 2.91617C3.12851 2.92403 3.12086 2.93207 3.1134 2.9403C3.10594 2.94853 3.09868 2.95694 3.09162 2.96554C3.08458 2.97412 3.07775 2.98288 3.07113 2.99182C3.0645 3.00074 3.0581 3.00982 3.05193 3.01906C3.04576 3.0283 3.03982 3.03768 3.03411 3.04721C3.02839 3.05675 3.02291 3.06641 3.01767 3.07621C3.01244 3.08601 3.00745 3.09593 3.00269 3.10598C2.99794 3.11602 2.99344 3.12618 2.98919 3.13645C2.98494 3.14671 2.98094 3.15708 2.97719 3.16754C2.97345 3.178 2.96997 3.18855 2.96674 3.19919C2.96352 3.20982 2.96056 3.22052 2.95786 3.23131C2.95515 3.24209 2.95271 3.25293 2.95054 3.26382C2.94838 3.27472 2.94649 3.28567 2.94486 3.29666C2.94322 3.30765 2.94186 3.31867 2.94077 3.32973C2.93968 3.3408 2.93887 3.35187 2.93832 3.36297C2.93777 3.37407 2.9375 3.38517 2.9375 3.39629Z"   fill="#438CFF" >
</path>
</g>
<defs>
<clipPath id="clip-path-18_302">
<path d="M0 14L14 14L14 0L0 0L0 14Z" fill="white"/>
</clipPath>
</defs>
</svg>
