<svg xmlns="http://www.w3.org/2000/svg" xmlns:xlink="http://www.w3.org/1999/xlink" width="16" height="16" viewBox="0 0 16 16" fill="none">
<path d="M15.2 7.2L8.79999 7.2L8.79999 0.799999C8.79999 0.786907 8.79967 0.773821 8.79903 0.760745C8.79838 0.747668 8.79743 0.734615 8.79613 0.721585C8.79485 0.708556 8.79326 0.695567 8.79134 0.682615C8.78942 0.669664 8.78717 0.656768 8.78462 0.643928C8.78207 0.631086 8.7792 0.618315 8.77603 0.605615C8.77284 0.592915 8.76934 0.580301 8.76554 0.567771C8.76174 0.555243 8.75764 0.542815 8.75323 0.530487C8.74882 0.518161 8.74412 0.505948 8.7391 0.493853C8.73409 0.481757 8.72879 0.469792 8.72318 0.457956C8.71759 0.44612 8.7117 0.434429 8.70553 0.422882C8.69935 0.411336 8.69292 0.399947 8.68618 0.388717C8.67945 0.377487 8.67243 0.366429 8.66517 0.355543C8.6579 0.344658 8.65035 0.333956 8.64256 0.32344C8.63476 0.312925 8.6267 0.302606 8.6184 0.292486C8.6101 0.282365 8.60156 0.272455 8.59276 0.262753C8.58396 0.253051 8.57495 0.243572 8.56568 0.234314C8.55642 0.225056 8.54695 0.216031 8.53724 0.207239C8.52754 0.198447 8.51764 0.189897 8.50751 0.181592C8.49739 0.173286 8.48707 0.165233 8.47656 0.157434C8.46604 0.149635 8.45534 0.142098 8.44445 0.134824C8.43356 0.12755 8.42251 0.120548 8.41128 0.113817C8.40004 0.107086 8.38865 0.100635 8.3771 0.0944629C8.36556 0.0882912 8.35387 0.0824063 8.34204 0.0768085C8.33021 0.0712107 8.31824 0.0659067 8.30614 0.0608964C8.29404 0.0558861 8.28184 0.0511754 8.26951 0.0467647C8.25718 0.0423539 8.24474 0.0382483 8.23223 0.0344476C8.2197 0.0306472 8.20709 0.0271562 8.19439 0.023975C8.18168 0.0207937 8.1689 0.0179259 8.15607 0.0153718C8.14323 0.0128175 8.13034 0.0105799 8.11738 0.00865879C8.10443 0.00673771 8.09143 0.00513551 8.0784 0.00385222C8.06538 0.00256892 8.05232 0.00160606 8.03924 0.000963634C8.02617 0.000321211 8.01309 0 7.99999 0C7.9869 0 7.97382 0.000321211 7.96074 0.000963634C7.94767 0.00160606 7.9346 0.00256892 7.92159 0.00385222C7.90856 0.00513551 7.89556 0.00673771 7.8826 0.00865879C7.86965 0.0105799 7.85676 0.0128175 7.84392 0.0153718C7.83109 0.0179259 7.81831 0.0207937 7.8056 0.023975C7.7929 0.0271562 7.78029 0.0306472 7.76776 0.0344476C7.75524 0.0382483 7.74281 0.0423539 7.73048 0.0467647C7.71815 0.0511754 7.70595 0.0558861 7.69385 0.0608964C7.68175 0.0659067 7.66978 0.0712107 7.65795 0.0768085C7.64612 0.0824063 7.63442 0.0882912 7.62287 0.0944629C7.61132 0.100635 7.59995 0.107086 7.58871 0.113817C7.57748 0.120548 7.56643 0.12755 7.55554 0.134824C7.54465 0.142098 7.53395 0.149635 7.52343 0.157434C7.51292 0.165233 7.5026 0.173286 7.49248 0.181592C7.48235 0.189897 7.47245 0.198447 7.46275 0.207239C7.45304 0.216031 7.44357 0.225056 7.43431 0.234314C7.42504 0.243572 7.41603 0.253051 7.40723 0.262753C7.39843 0.272455 7.38989 0.282365 7.38159 0.292486C7.37328 0.302606 7.36523 0.312925 7.35743 0.32344C7.34964 0.333956 7.34209 0.344658 7.33482 0.355543C7.32754 0.366429 7.32054 0.377487 7.31381 0.388717C7.30707 0.399947 7.30064 0.411336 7.29446 0.422882C7.28829 0.434429 7.2824 0.44612 7.27681 0.457956C7.2712 0.469792 7.2659 0.481757 7.26089 0.493853C7.25587 0.505948 7.25117 0.518161 7.24676 0.530487C7.24235 0.542815 7.23825 0.555243 7.23445 0.567771C7.23065 0.580301 7.22715 0.592915 7.22396 0.605615C7.22079 0.618315 7.21792 0.631086 7.21537 0.643928C7.21282 0.656768 7.21057 0.669664 7.20865 0.682615C7.20673 0.695567 7.20514 0.708556 7.20385 0.721585C7.20256 0.734615 7.2016 0.747668 7.20096 0.760745C7.20032 0.773821 7.2 0.786907 7.2 0.799999L7.2 7.2L0.799999 7.2C0.786907 7.2 0.773821 7.20032 0.760745 7.20096C0.747668 7.2016 0.734615 7.20256 0.721585 7.20385C0.708556 7.20514 0.695567 7.20673 0.682615 7.20865C0.669664 7.21057 0.656768 7.21282 0.643928 7.21537C0.631086 7.21792 0.618315 7.22079 0.605615 7.22396C0.592915 7.22715 0.580301 7.23065 0.567771 7.23445C0.555243 7.23825 0.542815 7.24235 0.530487 7.24676C0.518161 7.25117 0.505948 7.25587 0.493853 7.26089C0.481757 7.2659 0.469792 7.2712 0.457956 7.27681C0.44612 7.2824 0.434429 7.28829 0.422883 7.29446C0.411336 7.30064 0.399947 7.30707 0.388717 7.31381C0.377487 7.32054 0.366429 7.32754 0.355544 7.33482C0.344658 7.34209 0.333956 7.34964 0.32344 7.35743C0.312925 7.36523 0.302606 7.37328 0.292486 7.38159C0.282365 7.38989 0.272455 7.39843 0.262753 7.40723C0.253051 7.41603 0.243572 7.42504 0.234314 7.43431C0.225056 7.44357 0.216031 7.45304 0.207239 7.46274C0.198447 7.47245 0.189897 7.48235 0.181592 7.49248C0.173286 7.5026 0.165233 7.51292 0.157434 7.52343C0.149635 7.53395 0.142098 7.54465 0.134824 7.55554C0.12755 7.56643 0.120548 7.57748 0.113817 7.58871C0.107086 7.59995 0.100635 7.61132 0.0944629 7.62287C0.0882912 7.63442 0.0824063 7.64612 0.0768085 7.65795C0.0712107 7.66978 0.0659067 7.68174 0.0608964 7.69385C0.0558861 7.70595 0.0511754 7.71815 0.0467647 7.73048C0.0423539 7.74281 0.0382483 7.75524 0.0344476 7.76776C0.0306472 7.78029 0.0271562 7.7929 0.023975 7.8056C0.0207937 7.81831 0.0179259 7.83109 0.0153718 7.84392C0.0128175 7.85676 0.0105799 7.86965 0.00865879 7.8826C0.00673771 7.89556 0.00513551 7.90856 0.00385222 7.92159C0.00256892 7.9346 0.00160606 7.94767 0.000963634 7.96074C0.000321211 7.97382 0 7.9869 0 7.99999C0 8.01309 0.000321211 8.02617 0.000963634 8.03924C0.00160606 8.05232 0.00256892 8.06538 0.00385222 8.0784C0.00513551 8.09143 0.00673771 8.10443 0.00865879 8.11738C0.0105799 8.13034 0.0128175 8.14323 0.0153718 8.15607C0.0179259 8.1689 0.0207937 8.18168 0.023975 8.19438C0.0271562 8.20709 0.0306472 8.2197 0.0344476 8.23223C0.0382483 8.24474 0.0423539 8.25718 0.0467647 8.26951C0.0511754 8.28184 0.0558861 8.29404 0.0608964 8.30613C0.0659067 8.31824 0.0712107 8.33021 0.0768085 8.34204C0.0824063 8.35387 0.0882912 8.36556 0.0944629 8.3771C0.100635 8.38865 0.107086 8.40004 0.113817 8.41127C0.120548 8.42251 0.12755 8.43356 0.134824 8.44445C0.142098 8.45534 0.149635 8.46604 0.157434 8.47656C0.165233 8.48707 0.173286 8.49738 0.181592 8.50751C0.189897 8.51763 0.198447 8.52754 0.207239 8.53724C0.216031 8.54695 0.225056 8.55642 0.234314 8.56568C0.243572 8.57495 0.253051 8.58396 0.262753 8.59276C0.272455 8.60156 0.282365 8.6101 0.292486 8.6184C0.302606 8.6267 0.312925 8.63476 0.32344 8.64256C0.333956 8.65035 0.344658 8.6579 0.355544 8.66517C0.366429 8.67243 0.377487 8.67945 0.388717 8.68618C0.399947 8.69292 0.411336 8.69935 0.422883 8.70553C0.434429 8.7117 0.44612 8.71759 0.457956 8.72318C0.469792 8.72879 0.481757 8.73409 0.493853 8.7391C0.505948 8.74412 0.518161 8.74882 0.530487 8.75323C0.542815 8.75763 0.555243 8.76174 0.567771 8.76554C0.580301 8.76934 0.592915 8.77284 0.605615 8.77602C0.618315 8.7792 0.631086 8.78207 0.643928 8.78462C0.656768 8.78717 0.669664 8.78942 0.682615 8.79134C0.695567 8.79326 0.708556 8.79485 0.721585 8.79613C0.734615 8.79743 0.747668 8.79838 0.760745 8.79902C0.773821 8.79967 0.786907 8.79999 0.799999 8.79999L7.2 8.79999L7.2 15.2C7.2 15.2131 7.20032 15.2262 7.20096 15.2392C7.2016 15.2523 7.20256 15.2654 7.20385 15.2784C7.20514 15.2914 7.20673 15.3044 7.20865 15.3174C7.21057 15.3303 7.21282 15.3432 7.21537 15.3561C7.21792 15.3689 7.22079 15.3817 7.22396 15.3944C7.22715 15.4071 7.23065 15.4197 7.23445 15.4322C7.23825 15.4447 7.24235 15.4572 7.24676 15.4695C7.25117 15.4818 7.25587 15.494 7.26089 15.5061C7.2659 15.5182 7.2712 15.5302 7.27681 15.542C7.2824 15.5539 7.28829 15.5656 7.29446 15.5771C7.30064 15.5887 7.30707 15.6 7.31381 15.6113C7.32054 15.6225 7.32754 15.6336 7.33482 15.6445C7.34209 15.6553 7.34964 15.6661 7.35743 15.6766C7.36523 15.687 7.37328 15.6973 7.38159 15.7075C7.38989 15.7176 7.39843 15.7275 7.40723 15.7372C7.41603 15.7469 7.42504 15.7564 7.43431 15.7656C7.44357 15.7748 7.45304 15.7839 7.46275 15.7928C7.47245 15.8016 7.48235 15.8101 7.49248 15.8184C7.5026 15.8267 7.51292 15.8348 7.52343 15.8425C7.53395 15.8503 7.54465 15.8578 7.55554 15.8651C7.56643 15.8725 7.57748 15.8795 7.58871 15.8862C7.59995 15.893 7.61132 15.8994 7.62287 15.9055C7.63442 15.9117 7.64612 15.9176 7.65795 15.9231C7.66978 15.9287 7.68175 15.9341 7.69385 15.9391C7.70595 15.9441 7.71815 15.9487 7.73048 15.9533C7.74281 15.9576 7.75524 15.9617 7.76776 15.9656C7.78029 15.9694 7.7929 15.9728 7.8056 15.9761C7.81831 15.9792 7.83109 15.982 7.84392 15.9847C7.85676 15.9872 7.86965 15.9894 7.8826 15.9914C7.89556 15.9933 7.90856 15.9948 7.92159 15.9961C7.9346 15.9975 7.94767 15.9984 7.96074 15.9991C7.97382 15.9997 7.9869 16 7.99999 16C8.01309 16 8.02617 15.9997 8.03924 15.9991C8.05232 15.9984 8.06538 15.9975 8.0784 15.9961C8.09143 15.9948 8.10443 15.9933 8.11738 15.9914C8.13034 15.9894 8.14323 15.9872 8.15607 15.9847C8.1689 15.982 8.18168 15.9792 8.19439 15.9761C8.20709 15.9728 8.2197 15.9694 8.23223 15.9656C8.24474 15.9617 8.25718 15.9576 8.26951 15.9533C8.28184 15.9487 8.29404 15.9441 8.30614 15.9391C8.31824 15.9341 8.33021 15.9287 8.34204 15.9231C8.35387 15.9176 8.36556 15.9117 8.3771 15.9055C8.38865 15.8994 8.40004 15.893 8.41128 15.8862C8.42251 15.8795 8.43356 15.8725 8.44445 15.8651C8.45534 15.8578 8.46604 15.8503 8.47656 15.8425C8.48707 15.8348 8.49739 15.8267 8.50751 15.8184C8.51764 15.8101 8.52754 15.8016 8.53724 15.7928C8.54695 15.7839 8.55642 15.7748 8.56568 15.7656C8.57495 15.7564 8.58396 15.7469 8.59276 15.7372C8.60156 15.7275 8.6101 15.7176 8.6184 15.7075C8.6267 15.6973 8.63476 15.687 8.64256 15.6766C8.65035 15.6661 8.6579 15.6553 8.66517 15.6445C8.67243 15.6336 8.67945 15.6225 8.68618 15.6113C8.69292 15.6 8.69935 15.5887 8.70553 15.5771C8.7117 15.5656 8.71759 15.5539 8.72318 15.542C8.72879 15.5302 8.73409 15.5182 8.7391 15.5061C8.74412 15.494 8.74882 15.4818 8.75323 15.4695C8.75764 15.4572 8.76174 15.4447 8.76554 15.4322C8.76934 15.4197 8.77284 15.4071 8.77603 15.3944C8.7792 15.3817 8.78207 15.3689 8.78462 15.3561C8.78717 15.3432 8.78942 15.3303 8.79134 15.3174C8.79326 15.3044 8.79485 15.2914 8.79613 15.2784C8.79743 15.2654 8.79838 15.2523 8.79903 15.2392C8.79967 15.2262 8.79999 15.2131 8.79999 15.2L8.79999 8.79999L15.2 8.79999C15.2131 8.79999 15.2262 8.79967 15.2392 8.79902C15.2523 8.79838 15.2654 8.79743 15.2784 8.79613C15.2914 8.79485 15.3044 8.79326 15.3174 8.79134C15.3303 8.78942 15.3432 8.78717 15.3561 8.78462C15.3689 8.78207 15.3817 8.7792 15.3944 8.77602C15.4071 8.77284 15.4197 8.76934 15.4322 8.76554C15.4447 8.76174 15.4572 8.75763 15.4695 8.75323C15.4818 8.74882 15.494 8.74412 15.5061 8.7391C15.5182 8.73409 15.5302 8.72879 15.542 8.72318C15.5539 8.71759 15.5656 8.7117 15.5771 8.70553C15.5887 8.69935 15.6 8.69292 15.6113 8.68618C15.6225 8.67945 15.6336 8.67243 15.6445 8.66517C15.6553 8.6579 15.6661 8.65035 15.6766 8.64256C15.687 8.63476 15.6973 8.6267 15.7075 8.6184C15.7176 8.6101 15.7275 8.60156 15.7372 8.59276C15.7469 8.58396 15.7564 8.57495 15.7656 8.56568C15.7748 8.55642 15.7839 8.54695 15.7928 8.53724C15.8016 8.52754 15.8101 8.51763 15.8184 8.50751C15.8267 8.49738 15.8348 8.48707 15.8425 8.47656C15.8503 8.46604 15.8578 8.45534 15.8651 8.44445C15.8725 8.43356 15.8795 8.42251 15.8862 8.41127C15.893 8.40004 15.8994 8.38865 15.9055 8.3771C15.9117 8.36556 15.9176 8.35387 15.9231 8.34204C15.9287 8.33021 15.9341 8.31824 15.9391 8.30613C15.9441 8.29404 15.9487 8.28184 15.9533 8.26951C15.9576 8.25718 15.9617 8.24474 15.9656 8.23223C15.9694 8.2197 15.9728 8.20709 15.9761 8.19438C15.9792 8.18168 15.982 8.1689 15.9847 8.15607C15.9872 8.14323 15.9894 8.13034 15.9914 8.11738C15.9933 8.10443 15.9948 8.09143 15.9961 8.0784C15.9975 8.06538 15.9984 8.05232 15.9991 8.03924C15.9997 8.02617 16 8.01309 16 7.99999C16 7.9869 15.9997 7.97382 15.9991 7.96074C15.9984 7.94767 15.9975 7.9346 15.9961 7.92159C15.9948 7.90856 15.9933 7.89556 15.9914 7.8826C15.9894 7.86965 15.9872 7.85676 15.9847 7.84392C15.982 7.83109 15.9792 7.81831 15.9761 7.8056C15.9728 7.7929 15.9694 7.78029 15.9656 7.76776C15.9617 7.75524 15.9576 7.74281 15.9533 7.73048C15.9487 7.71815 15.9441 7.70595 15.9391 7.69385C15.9341 7.68174 15.9287 7.66978 15.9231 7.65795C15.9176 7.64612 15.9117 7.63442 15.9055 7.62287C15.8994 7.61132 15.893 7.59995 15.8862 7.58871C15.8795 7.57748 15.8725 7.56643 15.8651 7.55554C15.8578 7.54465 15.8503 7.53395 15.8425 7.52343C15.8348 7.51292 15.8267 7.5026 15.8184 7.49248C15.8101 7.48235 15.8016 7.47245 15.7928 7.46274C15.7839 7.45304 15.7748 7.44357 15.7656 7.43431C15.7564 7.42504 15.7469 7.41603 15.7372 7.40723C15.7275 7.39843 15.7176 7.38989 15.7075 7.38159C15.6973 7.37328 15.687 7.36523 15.6766 7.35743C15.6661 7.34964 15.6553 7.34209 15.6445 7.33482C15.6336 7.32754 15.6225 7.32054 15.6113 7.31381C15.6 7.30707 15.5887 7.30064 15.5771 7.29446C15.5656 7.28829 15.5539 7.2824 15.542 7.27681C15.5302 7.2712 15.5182 7.2659 15.5061 7.26089C15.494 7.25587 15.4818 7.25117 15.4695 7.24676C15.4572 7.24235 15.4447 7.23825 15.4322 7.23445C15.4197 7.23065 15.4071 7.22715 15.3944 7.22396C15.3817 7.22079 15.3689 7.21792 15.3561 7.21537C15.3432 7.21282 15.3303 7.21057 15.3174 7.20865C15.3044 7.20673 15.2914 7.20514 15.2784 7.20385C15.2654 7.20256 15.2523 7.2016 15.2392 7.20096C15.2262 7.20032 15.2131 7.2 15.2 7.2Z"   fill="#C9CDD4" >
</path>
</svg>
