<svg xmlns="http://www.w3.org/2000/svg" xmlns:xlink="http://www.w3.org/1999/xlink" width="14" height="14" viewBox="0 0 14 14" fill="none">
<path d="M1.99062 0C1.37812 0 0.875 0.503125 0.875 1.11562L0.875 12.8844C0.875 13.4969 1.37812 14 1.99062 14L12.0094 14C12.6219 14 13.125 13.4969 13.125 12.8844L13.125 4.44062L8.99062 0L1.99062 0Z"   fill="#E34221" >
</path>
<path d="M13.1253 4.4626L13.1253 4.68135L10.3253 4.68135C10.3253 4.68135 8.94713 4.39697 8.96901 3.19385C8.96901 3.19385 9.03463 4.4626 10.3034 4.4626L13.1253 4.4626Z"   fill="#DC3119" >
</path>
<path d="M8.99072 0L8.99072 3.19375C8.99072 3.54375 9.23135 4.4625 10.3251 4.4625L13.1251 4.4625L8.99072 0Z"   fill="#FFFFFF" >
</path>
<path d="M4.15635 10.7186L3.4126 10.7186L3.4126 11.6373C3.4126 11.7248 3.34697 11.7904 3.25947 11.7904C3.17197 11.7904 3.08447 11.7248 3.08447 11.6373L3.08447 9.38418C3.08447 9.25293 3.19385 9.14355 3.3251 9.14355L4.15635 9.14355C4.68135 9.14355 4.96572 9.49356 4.96572 9.93106C4.96572 10.3686 4.65947 10.7186 4.15635 10.7186ZM4.1126 9.42793L3.4126 9.42793L3.4126 10.4342L4.1126 10.4342C4.41885 10.4342 4.6376 10.2154 4.6376 9.93106C4.6376 9.6248 4.41885 9.42793 4.1126 9.42793ZM6.5626 10.7186L5.81885 10.7186L5.81885 11.6373C5.81885 11.7248 5.75322 11.7904 5.66572 11.7904C5.57822 11.7904 5.5126 11.7248 5.5126 11.6373L5.5126 9.38418C5.5126 9.25293 5.6001 9.14355 5.73135 9.14355L6.5626 9.14355C7.0876 9.14355 7.37197 9.49356 7.37197 9.93106C7.37197 10.3686 7.0876 10.7186 6.5626 10.7186ZM6.51885 9.42793L5.84072 9.42793L5.84072 10.4342L6.51885 10.4342C6.8251 10.4342 7.04385 10.2154 7.04385 9.93106C7.04385 9.6248 6.8251 9.42793 6.51885 9.42793ZM9.60322 9.42793L8.88134 9.42793L8.88134 11.6373C8.88134 11.7248 8.81572 11.7904 8.72822 11.7904C8.64072 11.7904 8.55322 11.7248 8.55322 11.6373L8.55322 9.42793L7.85322 9.42793C7.76572 9.42793 7.7001 9.3623 7.7001 9.27481C7.7001 9.20918 7.76572 9.14355 7.85322 9.14355L9.60322 9.14355C9.69072 9.14355 9.75634 9.20918 9.75634 9.29668C9.75634 9.3623 9.69072 9.42793 9.60322 9.42793Z"   fill="#FFFFFF" >
</path>
</svg>
