<svg xmlns="http://www.w3.org/2000/svg" xmlns:xlink="http://www.w3.org/1999/xlink" width="20" height="20" viewBox="0 0 20 20" fill="none">
<path d="M16.6919 15.6313C18.1466 13.9265 18.9719 11.764 18.9719 9.48626C18.9721 4.24676 14.7254 0 9.48619 0C4.24698 0 0 4.24701 0 9.48601C0 14.7253 4.24698 18.9725 9.48593 18.9725C10.4247 18.9733 11.3584 18.8347 12.2564 18.5613C12.6526 18.4405 12.8759 18.0213 12.7551 17.6251C12.6342 17.2289 12.2151 17.0057 11.8189 17.1265C11.0627 17.3567 10.2764 17.4733 9.48593 17.4725C5.07548 17.4723 1.49998 13.8968 1.49998 9.48601C1.49998 5.07552 5.07548 1.49999 9.48593 1.49999C13.8967 1.49999 17.4724 5.07552 17.4724 9.48601C17.4724 11.5785 16.6432 13.557 15.1957 15.0483C14.8656 15.3882 14.8696 15.9302 15.2047 16.2653L18.7196 19.7803C19.0125 20.0732 19.4873 20.0733 19.7803 19.7804C20.0732 19.4875 20.0732 19.0127 19.7804 18.7197L16.6919 15.6313Z"   fill="currentColor" >
</path>
</svg>
