<svg xmlns="http://www.w3.org/2000/svg" xmlns:xlink="http://www.w3.org/1999/xlink" width="20" height="20.000030517578125" viewBox="0 0 20 20.000030517578125" fill="none">
<path d="M6.96152 15.1839C4.03647 13.5371 3.03329 9.8785 4.72055 7.02889C6.40936 4.17671 10.1615 3.19854 13.084 4.84377C14.4983 5.63995 15.5097 6.92851 15.9331 8.46964C16.3566 10.0107 16.1414 11.6197 15.3249 12.9987C13.6362 15.8508 9.88402 16.829 6.9615 15.1838L6.96152 15.1839ZM12.403 5.99388C10.1302 4.71438 7.21214 5.47673 5.89995 7.69284C4.58781 9.90896 5.36976 12.7543 7.64248 14.0338C9.91524 15.3133 12.8333 14.5509 14.1455 12.3347C15.4577 10.1186 14.6757 7.27335 12.403 5.99388Z"   fill="currentColor" >
</path>
<path d="M11.3068 20L8.52291 19.9991C7.51982 19.9988 6.71144 19.2064 6.71999 18.232L6.72527 17.6275C5.99834 17.3355 5.3232 16.947 4.70785 16.47L4.13652 16.7798C3.25806 17.2537 2.15303 16.9513 1.66969 16.1042L0.296177 13.6912C-0.184569 12.8469 0.130632 11.771 0.998442 11.2919L1.58055 10.969C1.53766 10.6615 1.50567 10.3358 1.50866 9.99452C1.51166 9.65062 1.54945 9.31714 1.59768 9.01492L1.01853 8.69427C0.159095 8.21457 -0.137191 7.13842 0.358332 6.29447L1.77411 3.88231C2.27231 3.03572 3.38534 2.73128 4.25281 3.20835L4.81867 3.51858C5.4424 3.04203 6.12434 2.65403 6.85639 2.36248L6.86162 1.76583C6.87017 0.791413 7.69243 -0.000335376 8.6955 1.36227e-07L11.4821 0.000946155C12.4851 0.00129214 13.2935 0.793598 13.285 1.76802L13.2798 2.36466C14.0068 2.65671 14.6819 3.04516 15.2973 3.52215L15.8685 3.21229C16.747 2.73841 17.8521 3.04102 18.3354 3.88794L19.7089 6.30101C20.1896 7.14533 19.8744 8.22126 19.0066 8.70037L18.4245 9.02325C18.4674 9.32807 18.4993 9.66158 18.4964 10.0029C18.4934 10.3442 18.4556 10.6699 18.4074 10.9773L18.9838 11.3005C19.8432 11.7803 20.1396 12.8564 19.6441 13.7003L18.2283 16.1125C17.8907 16.6882 17.2682 17.0137 16.6326 17.0134C16.3323 17.0133 16.0298 16.9403 15.7496 16.7891L15.1836 16.4788C14.5599 16.9554 13.8779 17.3433 13.146 17.635L13.1406 18.2341C13.1321 19.2086 12.3099 20.0004 11.3068 20ZM4.76994 15.1961C4.93894 15.1961 5.10736 15.2535 5.23782 15.3656C5.89806 15.9233 6.65063 16.3535 7.47145 16.6456C7.75217 16.7473 7.94027 17.0105 7.93771 17.3023L7.92956 18.2324C7.92671 18.5581 8.19529 18.8214 8.53054 18.8215L11.3172 18.8224C11.6524 18.8225 11.9255 18.5595 11.9284 18.2338L11.9365 17.3037C11.9392 17.0118 12.1319 16.7488 12.4143 16.6473C13.2403 16.3531 14.0005 15.9235 14.6704 15.3688C14.9 15.1786 15.2302 15.1449 15.4918 15.2882L16.3513 15.7575C16.6423 15.9166 17.0106 15.815 17.1766 15.5338L18.5924 13.1216C18.7585 12.8403 18.6598 12.4807 18.3715 12.3217L17.5014 11.8368C17.2425 11.6934 17.1029 11.4015 17.1536 11.1149C17.2184 10.7632 17.2754 10.3855 17.2787 10.0051C17.2821 9.61948 17.2291 9.23907 17.1731 8.88731C17.1274 8.60073 17.2695 8.30898 17.5309 8.16575L18.4095 7.68145C18.6978 7.52261 18.8029 7.16309 18.6445 6.88167L17.2709 4.4686C17.1098 4.18716 16.7406 4.08541 16.4495 4.24425L15.5818 4.71292C15.3177 4.85613 14.9881 4.82215 14.7618 4.63187C14.1016 4.0767 13.349 3.64394 12.5282 3.35186C12.2475 3.25015 12.0594 2.98693 12.0619 2.69513L12.07 1.7676C12.0729 1.44194 11.8043 1.1787 11.4691 1.17859L8.68788 1.17764C8.35261 1.17752 8.07943 1.44059 8.07658 1.76625L8.06847 2.69117C8.0659 2.98297 7.87318 3.24606 7.59068 3.34756C6.76475 3.64171 6.00463 4.07134 5.33463 4.62606C5.10499 4.81619 4.77481 4.84994 4.51323 4.70655L3.65373 4.23729C3.36279 4.07826 2.99449 4.17975 2.82843 4.46108L1.41265 6.87323C1.24657 7.15453 1.34534 7.51412 1.63359 7.67316L2.50367 8.15805C2.76254 8.30406 2.90216 8.59328 2.85138 8.87987C2.78661 9.23159 2.72964 9.61196 2.72626 9.99756C2.72292 10.3779 2.7759 10.7557 2.83185 11.1075C2.87761 11.3941 2.73558 11.6859 2.47418 11.8291L1.58755 12.316C1.29918 12.4748 1.19412 12.8343 1.35257 13.1158L2.72606 15.5289C2.88719 15.8102 3.25641 15.912 3.54747 15.7532L4.41516 15.2845C4.52836 15.2247 4.6493 15.196 4.76996 15.1961L4.76994 15.1961ZM12.8231 17.7521C12.8231 17.7521 12.8258 17.7521 12.8231 17.7521C12.8258 17.7521 12.8231 17.7521 12.8231 17.7521Z"   fill="currentColor" >
</path>
</svg>
