<svg xmlns="http://www.w3.org/2000/svg" xmlns:xlink="http://www.w3.org/1999/xlink" width="12" height="13.3302001953125" viewBox="0 0 12 13.3302001953125" fill="none">
<path d="M0.67 4.0002C0.493097 4.0002 0.325099 3.92532 0.2 3.8002C0.0750992 3.6752 0 3.50708 0 3.3302C0 3.15338 0.0750992 2.98508 0.2 2.8602C0.325099 2.73502 0.493097 2.6702 0.67 2.6702L3.33 2.6702L3.33 2.0002C3.33 1.4698 3.5448 0.9652 3.92 0.5902C4.295 0.215078 4.79951 0.0002 5.33 0.0002L6.67 0.0002C7.2005 0.0002 7.705 0.215078 8.08 0.5902C8.4552 0.9652 8.67 1.4698 8.67 2.0002L8.67 2.6702L11.33 2.6702C11.5068 2.6702 11.6749 2.73502 11.8 2.8602C11.9249 2.98508 12 3.15338 12 3.3302C12 3.50708 11.9249 3.6752 11.8 3.8002C11.6749 3.92532 11.5068 4.0002 11.33 4.0002L10.67 4.0002L10.67 11.3302C10.67 11.8606 10.455 12.3751 10.08 12.7502C9.7048 13.1253 9.2003 13.3302 8.67 13.3302L3.33 13.3302C2.7997 13.3302 2.2952 13.1253 1.92 12.7502C1.545 12.3751 1.33 11.8606 1.33 11.3302L1.33 4.0002L0.67 4.0002ZM6.6665 1.3335C6.8434 1.3335 7.0114 1.40856 7.1365 1.5335C7.2615 1.65868 7.3365 1.82668 7.3365 2.0035L7.3365 2.6635L4.6665 2.6635L4.6665 2.0035C4.6665 1.82668 4.7415 1.65868 4.8665 1.5335C4.9916 1.40856 5.15961 1.3335 5.3365 1.3335L6.6665 1.3335ZM2.6665 4.0002L9.3365 4.0002L9.3365 11.3302C9.3365 11.507 9.2616 11.6751 9.1365 11.8002C9.0116 11.9251 8.8432 12.0002 8.6665 12.0002L3.3365 12.0002C3.1598 12.0002 2.9914 11.9251 2.8665 11.8002C2.7415 11.6751 2.6665 11.507 2.6665 11.3302L2.6665 4.0002ZM4.2 10.4735C4.075 10.3485 4 10.1803 4 10.0035L4 6.0035C4 5.82668 4.075 5.65856 4.2 5.5335C4.3251 5.4085 4.4931 5.3335 4.67 5.3335C4.8467 5.3335 5.0149 5.4085 5.14 5.5335C5.2648 5.65856 5.33 5.82668 5.33 6.0035L5.33 10.0035C5.33 10.1803 5.2648 10.3485 5.14 10.4735C5.0149 10.5986 4.8467 10.6635 4.67 10.6635C4.4931 10.6635 4.3251 10.5986 4.2 10.4735ZM6.6665 10.0035L6.6665 6.0035C6.6665 5.82668 6.7416 5.65856 6.8665 5.5335C6.9915 5.4085 7.1598 5.3335 7.3365 5.3335C7.5134 5.3335 7.6814 5.4085 7.8065 5.5335C7.9315 5.65856 7.9965 5.82668 7.9965 6.0035L7.9965 10.0035C7.9965 10.1803 7.9315 10.3485 7.8065 10.4735C7.6814 10.5986 7.5134 10.6635 7.3365 10.6635C7.1598 10.6635 6.9915 10.5986 6.8665 10.4735C6.7416 10.3485 6.6665 10.1803 6.6665 10.0035Z" fill-rule="evenodd"  fill="#4E5969" >
</path>
</svg>
