<svg xmlns="http://www.w3.org/2000/svg" xmlns:xlink="http://www.w3.org/1999/xlink" width="16" height="16" viewBox="0 0 16 16" fill="none">
<path d="M14 6C14.0018 5.90216 13.9841 5.80494 13.9481 5.71397C13.912 5.62299 13.8583 5.54007 13.79 5.47L9.53 1.22C9.43081 1.11209 9.30218 1.0356 9.16 1L9.16 1L3.75 1C3.28668 1.00263 2.84309 1.18784 2.51546 1.51546C2.18784 1.84309 2.00262 2.28668 2 2.75L2 13.25C2.00262 13.7133 2.18784 14.1569 2.51546 14.4845C2.84309 14.8122 3.28668 14.9974 3.75 15L12.25 15C12.7133 14.9974 13.1569 14.8122 13.4845 14.4845C13.8122 14.1569 13.9974 13.7133 14 13.25L14 6ZM9.75 3.56L11.42 5.23L9.75 5.23L9.75 3.56ZM12.25 13.5L3.75 13.5C3.6837 13.5 3.62011 13.4737 3.57322 13.4268C3.52634 13.3799 3.5 13.3163 3.5 13.25L3.5 2.75C3.5 2.6837 3.52634 2.62011 3.57322 2.57322C3.62011 2.52634 3.6837 2.5 3.75 2.5L8.25 2.5L8.25 6C8.2578 6.19276 8.34057 6.37485 8.48066 6.50747C8.62076 6.64009 8.80711 6.71276 9 6.71L12.51 6.71L12.51 13.22C12.5144 13.2561 12.5109 13.2928 12.4997 13.3274C12.4884 13.362 12.4698 13.3937 12.445 13.4204C12.4203 13.4471 12.39 13.468 12.3563 13.4817C12.3226 13.4955 12.2863 13.5017 12.25 13.5ZM10.75 9C10.7298 9.18043 10.6403 9.34595 10.5003 9.46163C10.3604 9.57731 10.181 9.6341 10 9.62L6 9.62C5.81899 9.6341 5.63958 9.57731 5.49965 9.46163C5.35972 9.34595 5.2702 9.18043 5.25 9C5.26531 8.81596 5.35273 8.64543 5.49321 8.52555C5.63369 8.40568 5.81584 8.34617 6 8.36L10 8.36C10.1842 8.34617 10.3663 8.40568 10.5068 8.52555C10.6473 8.64543 10.7347 8.81596 10.75 9L10.75 9ZM10.75 11.5C10.7298 11.6804 10.6403 11.846 10.5003 11.9616C10.3604 12.0773 10.181 12.1341 10 12.12L6 12.12C5.81899 12.1341 5.63958 12.0773 5.49965 11.9616C5.35972 11.846 5.2702 11.6804 5.25 11.5C5.26531 11.316 5.35273 11.1454 5.49321 11.0256C5.63369 10.9057 5.81584 10.8462 6 10.86L10 10.86C10.1826 10.8461 10.3633 10.9042 10.5035 11.022C10.6437 11.1397 10.7322 11.3078 10.75 11.49L10.75 11.5Z"   fill="#660874" >
</path>
</svg>
