<svg xmlns="http://www.w3.org/2000/svg" xmlns:xlink="http://www.w3.org/1999/xlink" width="14.00006103515625" height="14" viewBox="0 0 14.00006103515625 14" fill="none">
<path d="M12.9467 0L1.05161 0C0.471833 0 0 0.601934 0 1.34158L0 12.6584C0 13.398 0.471833 14 1.05161 14L12.9484 14C13.5282 14 14 13.398 14 12.6584L14 1.34158C13.9983 0.601934 13.5265 0 12.9467 0ZM1.05161 1.11058L12.9484 1.11058C13.0477 1.11058 13.1295 1.21497 13.1295 1.34158L13.1295 3.08963L0.87054 3.08963L0.87054 1.34158C0.87054 1.21275 0.952371 1.11058 1.05161 1.11058ZM12.9467 12.8872L1.05161 12.8872C0.952371 12.8872 0.87054 12.7828 0.87054 12.6562L0.87054 4.20021L13.1278 4.20021L13.1278 12.6562C13.1278 12.785 13.0459 12.8872 12.9467 12.8872Z"   fill="#7948EA" >
</path>
<path d="M2.25488 10.9926C2.25488 11.0011 2.25505 11.0096 2.25537 11.018C2.2557 11.0265 2.25618 11.0349 2.25682 11.0434C2.25747 11.0518 2.25827 11.0602 2.25924 11.0686C2.2602 11.077 2.26132 11.0853 2.26261 11.0936C2.26389 11.1019 2.26533 11.1102 2.26693 11.1184C2.26853 11.1266 2.27029 11.1348 2.27221 11.1429C2.27411 11.151 2.27617 11.159 2.27839 11.167C2.2806 11.175 2.28297 11.1828 2.28549 11.1907C2.28801 11.1985 2.29068 11.2062 2.2935 11.2139C2.29631 11.2216 2.29927 11.2291 2.30238 11.2366C2.30548 11.2441 2.30872 11.2514 2.31209 11.2587C2.31548 11.266 2.31901 11.2731 2.32266 11.2802C2.32632 11.2872 2.33011 11.2941 2.33403 11.3009C2.33796 11.3077 2.342 11.3144 2.34617 11.3209C2.35035 11.3275 2.35465 11.3339 2.35907 11.3402C2.36349 11.3465 2.36803 11.3526 2.37268 11.3586C2.37734 11.3646 2.3821 11.3704 2.38698 11.3761C2.39185 11.3818 2.39683 11.3873 2.40192 11.3927C2.40701 11.3981 2.4122 11.4033 2.41748 11.4083C2.42278 11.4134 2.42816 11.4182 2.43362 11.4229C2.4391 11.4276 2.44466 11.4322 2.4503 11.4365C2.45596 11.4409 2.46168 11.4451 2.46749 11.4491C2.47329 11.453 2.47916 11.4568 2.48511 11.4605C2.49106 11.4641 2.49708 11.4675 2.50316 11.4708C2.50924 11.474 2.51538 11.477 2.52158 11.4799C2.52778 11.4828 2.53403 11.4854 2.54032 11.4879C2.54662 11.4903 2.55296 11.4926 2.55935 11.4947C2.56573 11.4967 2.57215 11.4986 2.5786 11.5002C2.58507 11.5019 2.59156 11.5033 2.59807 11.5046C2.60457 11.5058 2.6111 11.5068 2.61765 11.5077C2.6242 11.5085 2.63076 11.5091 2.63735 11.5095C2.64392 11.5099 2.65049 11.5102 2.65707 11.5102C2.66365 11.5102 2.67023 11.5099 2.6768 11.5095C2.68338 11.5091 2.68994 11.5085 2.69649 11.5077C2.70305 11.5068 2.70958 11.5058 2.71608 11.5046C2.72259 11.5033 2.72908 11.5019 2.73554 11.5002C2.742 11.4986 2.74841 11.4967 2.7548 11.4947C2.76118 11.4926 2.76753 11.4903 2.77383 11.4879C2.78012 11.4854 2.78637 11.4828 2.79256 11.4799C2.79876 11.477 2.8049 11.474 2.81098 11.4708C2.81707 11.4675 2.82308 11.4641 2.82904 11.4605C2.83498 11.4568 2.84086 11.453 2.84666 11.4491C2.85246 11.4451 2.85819 11.4409 2.86384 11.4365C2.86948 11.4322 2.87504 11.4276 2.88052 11.4229C2.88599 11.4182 2.89137 11.4134 2.89666 11.4083C2.90194 11.4033 2.90713 11.3981 2.91223 11.3927C2.91731 11.3873 2.92229 11.3818 2.92717 11.3761C2.93204 11.3704 2.93681 11.3646 2.94146 11.3586C2.94611 11.3526 2.95065 11.3465 2.95508 11.3402C2.9595 11.3339 2.9638 11.3275 2.96798 11.3209C2.97214 11.3144 2.97619 11.3077 2.98011 11.3009C2.98404 11.2941 2.98783 11.2872 2.99148 11.2802C2.99514 11.2731 2.99866 11.266 3.00205 11.2587C3.00543 11.2514 3.00867 11.2441 3.01177 11.2366C3.01488 11.2291 3.01784 11.2216 3.02065 11.2139C3.02347 11.2062 3.02613 11.1985 3.02865 11.1907C3.03117 11.1828 3.03354 11.1749 3.03576 11.167C3.03797 11.159 3.04004 11.151 3.04194 11.1429C3.04385 11.1348 3.04561 11.1266 3.04721 11.1184C3.04882 11.1101 3.05026 11.1019 3.05153 11.0936C3.05282 11.0853 3.05395 11.077 3.05491 11.0686C3.05587 11.0602 3.05668 11.0518 3.05733 11.0434C3.05797 11.0349 3.05845 11.0265 3.05877 11.018C3.0591 11.0096 3.05926 11.0011 3.05926 10.9926C3.05926 10.9842 3.0591 10.9757 3.05877 10.9672C3.05845 10.9588 3.05797 10.9503 3.05733 10.9419C3.05668 10.9335 3.05587 10.9251 3.05491 10.9167C3.05395 10.9083 3.05282 10.9 3.05153 10.8917C3.05024 10.8833 3.0488 10.8751 3.04721 10.8669C3.04561 10.8587 3.04385 10.8505 3.04194 10.8424C3.04004 10.8343 3.03797 10.8262 3.03576 10.8183C3.03354 10.8103 3.03117 10.8024 3.02865 10.7946C3.02613 10.7867 3.02347 10.779 3.02065 10.7714C3.01784 10.7637 3.01488 10.7561 3.01177 10.7487C3.00867 10.7412 3.00543 10.7338 3.00205 10.7266C2.99866 10.7193 2.99514 10.7121 2.99148 10.7051C2.98783 10.6981 2.98404 10.6911 2.98011 10.6843C2.97619 10.6775 2.97214 10.6709 2.96798 10.6643C2.9638 10.6578 2.9595 10.6513 2.95508 10.6451C2.95065 10.6388 2.94611 10.6327 2.94146 10.6267C2.93681 10.6207 2.93204 10.6149 2.92717 10.6092C2.92229 10.6035 2.91731 10.5979 2.91221 10.5926C2.90713 10.5872 2.90194 10.582 2.89666 10.5769C2.89137 10.5719 2.88599 10.567 2.88052 10.5623C2.87504 10.5576 2.86948 10.5531 2.86384 10.5487C2.85819 10.5444 2.85246 10.5402 2.84666 10.5362C2.84086 10.5322 2.83498 10.5284 2.82904 10.5248C2.82308 10.5212 2.81707 10.5177 2.81098 10.5145C2.8049 10.5113 2.79876 10.5082 2.79256 10.5054C2.78637 10.5025 2.78012 10.4998 2.77383 10.4974C2.76753 10.4949 2.76118 10.4927 2.7548 10.4906C2.74841 10.4885 2.742 10.4867 2.73554 10.485C2.72908 10.4834 2.72259 10.4819 2.71608 10.4807C2.70958 10.4795 2.70305 10.4784 2.69649 10.4776C2.68994 10.4768 2.68338 10.4761 2.6768 10.4757C2.67023 10.4753 2.66365 10.4751 2.65707 10.4751C2.65049 10.4751 2.64392 10.4753 2.63735 10.4757C2.63076 10.4761 2.6242 10.4768 2.61765 10.4776C2.6111 10.4784 2.60457 10.4795 2.59807 10.4807C2.59156 10.4819 2.58507 10.4834 2.5786 10.485C2.57215 10.4867 2.56573 10.4885 2.55935 10.4906C2.55296 10.4927 2.54662 10.4949 2.54032 10.4974C2.53403 10.4998 2.52778 10.5025 2.52158 10.5054C2.51538 10.5082 2.50924 10.5113 2.50316 10.5145C2.49708 10.5177 2.49106 10.5212 2.48511 10.5248C2.47916 10.5284 2.47329 10.5322 2.46749 10.5362C2.46168 10.5402 2.45596 10.5444 2.4503 10.5487C2.44466 10.5531 2.4391 10.5576 2.43362 10.5623C2.42816 10.567 2.42278 10.5719 2.41748 10.5769C2.4122 10.582 2.40702 10.5872 2.40193 10.5926C2.39684 10.5979 2.39185 10.6035 2.38698 10.6092C2.3821 10.6149 2.37734 10.6207 2.37268 10.6267C2.36803 10.6327 2.36349 10.6388 2.35907 10.6451C2.35465 10.6513 2.35035 10.6578 2.34617 10.6643C2.342 10.6709 2.33796 10.6775 2.33403 10.6843C2.33011 10.6911 2.32632 10.6981 2.32266 10.7051C2.31901 10.7121 2.31548 10.7193 2.31209 10.7266C2.30872 10.7338 2.30548 10.7412 2.30238 10.7487C2.29927 10.7561 2.29631 10.7637 2.2935 10.7714C2.29068 10.779 2.28801 10.7867 2.28549 10.7946C2.28297 10.8024 2.2806 10.8103 2.27839 10.8183C2.27617 10.8262 2.27411 10.8343 2.27221 10.8424C2.27029 10.8505 2.26853 10.8587 2.26693 10.8669C2.26533 10.8751 2.26389 10.8833 2.26261 10.8917C2.26132 10.9 2.2602 10.9083 2.25924 10.9167C2.25827 10.9251 2.25747 10.9335 2.25682 10.9419C2.25618 10.9503 2.2557 10.9588 2.25537 10.9672C2.25505 10.9757 2.25488 10.9842 2.25488 10.9926Z"   fill="#7948EA" >
</path>
<path d="M4.44158 10.6126C4.25354 10.6126 4.15256 10.446 4.15256 10.1373L4.15256 9.04668C4.15256 8.73571 4.25528 8.57801 4.44158 8.57801C4.62439 8.57801 4.71493 8.73571 4.72537 9.04668L5.46011 9.04668C5.43922 8.19153 5.09622 7.68066 4.42591 7.68066C3.78867 7.68066 3.4126 8.19153 3.4126 9.04668L3.4126 10.1373C3.4126 10.9991 3.78867 11.5099 4.42591 11.5099C5.07533 11.5099 5.46533 10.9991 5.48274 10.1373L4.74801 10.1373C4.73234 10.4482 4.64006 10.6126 4.44158 10.6126ZM6.83904 7.68066C6.17395 7.68066 5.78221 8.19819 5.78221 9.12886L5.78221 10.0595C5.78221 10.9902 6.17395 11.5144 6.83904 11.5144C7.50414 11.5144 7.89588 10.9902 7.89588 10.0595L7.89588 9.12886C7.89414 8.19819 7.5024 7.68066 6.83904 7.68066ZM7.14896 10.0617C7.14896 10.4416 7.04101 10.6059 6.8373 10.6059C6.6336 10.6059 6.52565 10.4393 6.52565 10.0617L6.52565 9.13108C6.52565 8.75126 6.6336 8.59356 6.8373 8.59356C7.04101 8.59356 7.14896 8.75126 7.14896 9.13108L7.14896 10.0617ZM10.8366 7.68066C10.5528 7.68066 10.3282 7.8317 10.1871 8.11601C10.0479 7.82726 9.8337 7.68066 9.55513 7.68066C9.26089 7.68066 9.03455 7.83837 8.89004 8.14266L8.84129 7.76951L8.36423 7.76951L8.36423 11.4255L9.08852 11.4255L9.08852 9.11553C9.08852 8.75571 9.20691 8.57801 9.38276 8.57801C9.55513 8.57801 9.64567 8.73571 9.64567 9.18439L9.64567 11.4278L10.37 11.4278L10.37 9.11553C10.37 8.75571 10.4831 8.57801 10.6642 8.57801C10.8366 8.57801 10.9271 8.73571 10.9271 9.18439L10.9271 11.4278L11.6514 11.4278L11.6514 9.18439C11.6514 8.19153 11.3519 7.68066 10.8366 7.68066Z"   fill="#7948EA" >
</path>
</svg>
