<svg xmlns="http://www.w3.org/2000/svg" xmlns:xlink="http://www.w3.org/1999/xlink" width="14" height="14" viewBox="0 0 14 14" fill="none">
<path d="M2.47031 0L11.5291 0C11.5561 0 11.583 0.000661318 11.6099 0.00198395C11.6369 0.00330658 11.6637 0.00528895 11.6906 0.00793104C11.7174 0.0105731 11.7441 0.0138717 11.7708 0.0178269C11.7975 0.021782 11.824 0.026389 11.8505 0.0316478C11.8769 0.0369065 11.9032 0.0428107 11.9293 0.0493602C11.9555 0.0559099 11.9814 0.063097 12.0072 0.0709217C12.033 0.0787465 12.0586 0.0871993 12.084 0.0962803C12.1094 0.105361 12.1345 0.115059 12.1594 0.125375C12.1843 0.13569 12.209 0.14661 12.2333 0.158136C12.2577 0.16966 12.2818 0.181776 12.3055 0.194482C12.3293 0.207189 12.3528 0.220471 12.3759 0.234329C12.399 0.248187 12.4218 0.262604 12.4442 0.27758C12.4666 0.292555 12.4886 0.308071 12.5103 0.324128C12.5319 0.340186 12.5532 0.356765 12.574 0.373865C12.5948 0.390965 12.6152 0.408566 12.6352 0.426669C12.6552 0.44477 12.6747 0.463352 12.6938 0.482412C12.7128 0.501472 12.7314 0.520988 12.7495 0.540962C12.7676 0.560935 12.7852 0.581339 12.8023 0.602176C12.8194 0.623012 12.836 0.644255 12.8521 0.665906C12.8681 0.687557 12.8836 0.709589 12.8986 0.732001C12.9136 0.754413 12.928 0.77718 12.9419 0.8003C12.9557 0.823421 12.969 0.846868 12.9817 0.870639C12.9944 0.894412 13.0065 0.918483 13.018 0.94285C13.0296 0.967217 13.0405 0.991853 13.0508 1.01676C13.0611 1.04166 13.0708 1.0668 13.0799 1.09218C13.089 1.11756 13.0974 1.14315 13.1053 1.16894C13.1131 1.19474 13.1203 1.22071 13.1268 1.24685C13.1334 1.273 13.1393 1.29929 13.1445 1.32573C13.1498 1.35217 13.1544 1.37873 13.1584 1.40539C13.1623 1.43205 13.1656 1.45879 13.1683 1.48561C13.1709 1.51245 13.1729 1.53932 13.1742 1.56624C13.1755 1.59316 13.1762 1.6201 13.1762 1.64706L13.1762 12.3529C13.1762 12.3799 13.1755 12.4068 13.1742 12.4338C13.1729 12.4607 13.1709 12.4875 13.1683 12.5144C13.1656 12.5412 13.1623 12.5679 13.1584 12.5946C13.1544 12.6213 13.1498 12.6478 13.1445 12.6743C13.1393 12.7007 13.1334 12.727 13.1268 12.7531C13.1203 12.7793 13.1131 12.8052 13.1053 12.831C13.0974 12.8568 13.089 12.8824 13.0799 12.9078C13.0708 12.9332 13.0611 12.9583 13.0508 12.9832C13.0405 13.0081 13.0296 13.0328 13.018 13.0571C13.0065 13.0815 12.9944 13.1056 12.9817 13.1294C12.969 13.1531 12.9557 13.1766 12.9419 13.1997C12.928 13.2228 12.9136 13.2456 12.8986 13.268C12.8836 13.2904 12.8681 13.3124 12.8521 13.3341C12.836 13.3557 12.8194 13.377 12.8023 13.3978C12.7852 13.4186 12.7676 13.439 12.7495 13.459C12.7314 13.479 12.7128 13.4985 12.6938 13.5176C12.6747 13.5366 12.6552 13.5552 12.6352 13.5733C12.6152 13.5914 12.5948 13.609 12.574 13.6261C12.5532 13.6432 12.5319 13.6598 12.5103 13.6758C12.4886 13.6918 12.4666 13.7074 12.4442 13.7225C12.4218 13.7374 12.399 13.7518 12.3759 13.7657C12.3528 13.7795 12.3293 13.7927 12.3055 13.8054C12.2818 13.8182 12.2577 13.8303 12.2333 13.8418C12.209 13.8534 12.1843 13.8644 12.1594 13.8746C12.1345 13.8849 12.1094 13.8946 12.084 13.9037C12.0586 13.9128 12.033 13.9212 12.0072 13.929C11.9814 13.9368 11.9555 13.9441 11.9293 13.9506C11.9032 13.9572 11.8769 13.9631 11.8505 13.9684C11.824 13.9736 11.7975 13.9783 11.7708 13.9822C11.7441 13.9862 11.7174 13.9895 11.6906 13.9921C11.6637 13.9947 11.6369 13.9967 11.6099 13.9979C11.583 13.9993 11.5561 14 11.5291 14L2.47031 14C2.44335 14 2.41641 13.9993 2.38949 13.9979C2.36256 13.9967 2.33569 13.9947 2.30887 13.9921C2.28204 13.9895 2.25529 13.9862 2.22863 13.9822C2.20197 13.9783 2.17541 13.9736 2.14897 13.9684C2.12254 13.9631 2.09625 13.9572 2.0701 13.9506C2.04395 13.9441 2.01798 13.9368 1.99218 13.929C1.96639 13.9212 1.9408 13.9128 1.91543 13.9037C1.89004 13.8946 1.8649 13.8849 1.84 13.8746C1.8151 13.8644 1.79046 13.8534 1.76609 13.8418C1.74173 13.8303 1.71766 13.8182 1.69388 13.8054C1.67011 13.7927 1.64666 13.7795 1.62355 13.7657C1.60043 13.7518 1.57766 13.7374 1.55524 13.7225C1.53283 13.7074 1.5108 13.6918 1.48915 13.6758C1.4675 13.6598 1.44625 13.6432 1.42542 13.6261C1.40458 13.609 1.38418 13.5914 1.3642 13.5733C1.34423 13.5552 1.32471 13.5366 1.30565 13.5176C1.28659 13.4985 1.26801 13.479 1.24991 13.459C1.23181 13.439 1.21421 13.4186 1.19711 13.3978C1.18001 13.377 1.16343 13.3557 1.14737 13.3341C1.13131 13.3124 1.1158 13.2904 1.10082 13.268C1.08585 13.2456 1.07143 13.2228 1.05757 13.1997C1.04371 13.1766 1.03043 13.1531 1.01772 13.1294C1.00502 13.1056 0.992902 13.0815 0.981378 13.0571C0.969853 13.0328 0.958932 13.0081 0.948617 12.9832C0.938302 12.9583 0.928603 12.9332 0.919522 12.9078C0.910441 12.8824 0.901989 12.8568 0.894164 12.831C0.886339 12.8052 0.879152 12.7793 0.872602 12.7531C0.866053 12.727 0.860149 12.7007 0.85489 12.6743C0.849631 12.6478 0.845024 12.6213 0.841069 12.5946C0.837114 12.5679 0.833816 12.5412 0.831173 12.5144C0.828531 12.4875 0.826549 12.4607 0.825226 12.4338C0.823904 12.4068 0.823242 12.3799 0.823242 12.3529L0.823242 1.64706C0.823242 1.6201 0.823904 1.59316 0.825226 1.56624C0.826549 1.53932 0.828531 1.51245 0.831173 1.48561C0.833816 1.45879 0.837114 1.43205 0.841069 1.40539C0.845024 1.37873 0.849631 1.35217 0.85489 1.32573C0.860149 1.29929 0.866053 1.273 0.872602 1.24685C0.879152 1.22071 0.886339 1.19474 0.894164 1.16894C0.901989 1.14315 0.910441 1.11756 0.919522 1.09218C0.928603 1.0668 0.938302 1.04166 0.948617 1.01676C0.958932 0.991853 0.969853 0.967217 0.981378 0.94285C0.992902 0.918483 1.00502 0.894412 1.01772 0.870639C1.03043 0.846868 1.04371 0.823421 1.05757 0.8003C1.07143 0.77718 1.08585 0.754413 1.10082 0.732001C1.1158 0.709589 1.13131 0.687557 1.14737 0.665906C1.16343 0.644255 1.18001 0.623012 1.19711 0.602176C1.21421 0.581339 1.23181 0.560935 1.24991 0.540962C1.26801 0.520988 1.28659 0.501472 1.30565 0.482412C1.32471 0.463352 1.34423 0.44477 1.3642 0.426669C1.38418 0.408566 1.40458 0.390965 1.42542 0.373865C1.44625 0.356765 1.4675 0.340186 1.48915 0.324128C1.5108 0.308071 1.53283 0.292555 1.55524 0.27758C1.57766 0.262604 1.60043 0.248187 1.62355 0.234329C1.64666 0.220471 1.67011 0.207189 1.69388 0.194482C1.71766 0.181776 1.74173 0.16966 1.76609 0.158136C1.79046 0.14661 1.8151 0.13569 1.84 0.125375C1.8649 0.115059 1.89004 0.105361 1.91543 0.0962803C1.9408 0.0871993 1.96639 0.0787465 1.99218 0.0709217C2.01798 0.063097 2.04395 0.0559099 2.0701 0.0493602C2.09625 0.0428107 2.12254 0.0369065 2.14897 0.0316478C2.17541 0.026389 2.20197 0.021782 2.22863 0.0178269C2.25529 0.0138717 2.28204 0.0105731 2.30887 0.00793104C2.33569 0.00528895 2.36256 0.00330658 2.38949 0.00198395C2.41641 0.000661318 2.44335 0 2.47031 0ZM3.80442 4.52941C4.51101 4.52941 5.08254 3.976 5.08254 3.29411C5.08254 2.61223 4.51101 2.05882 3.80524 2.05882C3.09949 2.05882 2.52713 2.61223 2.52713 3.29411C2.52713 3.976 3.09949 4.52941 3.80524 4.52941L3.80442 4.52941ZM2.52713 6.17647L2.52713 6.99999L9.34265 6.99999L9.34265 6.17647L2.52713 6.17647ZM2.52713 7.82352L2.52713 8.64706L9.34265 8.64706L9.34265 7.82352L2.52713 7.82352ZM2.52713 9.47058L2.52713 10.2941L6.78642 10.2941L6.78642 9.47058L2.52795 9.47058L2.52713 9.47058Z"   fill="#2A82E4" >
</path>
</svg>
