<svg xmlns="http://www.w3.org/2000/svg" xmlns:xlink="http://www.w3.org/1999/xlink" width="14" height="14" viewBox="0 0 14 14" fill="none">
<path d="M3.73333 6.475C3.79166 5.01666 4.72499 4.08334 6.12499 4.08334L9.74165 4.08334C10.15 4.08334 10.2666 3.90834 10.2083 3.55834C10.0917 2.50834 9.21665 1.75 8.10833 1.75L2.21666 1.75C0.933333 1.75 0.0583333 2.625 0 3.90834L0 6.53333C0 7.64166 0.641665 8.39999 1.69166 8.63333C2.04166 8.69166 2.1 8.80833 1.925 9.09999C1.69166 9.62499 1.45834 10.2083 1.28333 10.7333C1.34166 10.7917 1.4 10.7917 1.4 10.85C2.04166 10.4417 2.625 10.0917 3.26666 9.68333C3.61666 9.50833 3.73333 9.27499 3.73333 8.86666L3.73333 6.475ZM12.1333 4.55C10.15 4.49166 8.10833 4.49166 6.12499 4.55C5.01666 4.55 4.31666 5.30833 4.25833 6.41666C4.19999 7.46666 4.19999 8.57499 4.25833 9.62499C4.31666 10.7917 5.07499 11.4333 6.24165 11.4917L8.16665 11.4917C8.69165 11.4917 9.09999 11.6083 9.50833 11.9C10.4416 12.5417 11.4333 13.125 12.6 13.825C12.3666 13.3 12.25 12.95 12.1333 12.6583C12.0166 12.3083 11.9 11.9583 11.725 11.6083C11.8416 11.6083 11.9 11.55 12.0166 11.55C13.3583 11.4333 14 10.7917 14 9.44999L14 6.59166C13.9416 5.30833 13.2416 4.55 12.1333 4.55Z"   fill="#4BBC89" >
</path>
</svg>
